<svg width="621" height="792" viewBox="0 0 621 792" fill="none" xmlns="http://www.w3.org/2000/svg">
<g clip-path="url(#clip0_3_114)">
<path d="M434.115 580.179L467.819 552.813H467.799C484.173 539.548 484.053 514.545 467.578 501.4L32.0703 154.091C4.86743 132.384 -33.0841 162.07 -18.5383 193.686L39.6654 320.11H-262.711V1473.44L-62.2713 1304.4L324.783 990.141H324.763C326.348 988.858 327.777 987.465 329.053 985.983L601.793 764.901H601.773C618.173 751.636 618.053 726.633 601.551 713.488L434.115 580.179Z" fill="#3AEAAA"/>
<path d="M233.393 521.225C233.393 511.849 240.921 504.248 250.208 504.248H278.232C287.518 504.248 295.046 511.849 295.046 521.225V565.365C295.046 574.741 287.518 582.342 278.232 582.342H250.208C240.921 582.342 233.393 574.741 233.393 565.365V521.225Z" fill="url(#paint0_linear_3_114)"/>
<g filter="url(#filter0_d_3_114)">
<path d="M255.98 432.782L164.472 545.769C156.988 555.008 166.995 568.091 177.799 563.193L260.109 525.88C263.069 524.538 266.462 524.55 269.412 525.911L349.749 562.988C360.509 567.954 370.602 554.968 363.207 545.672L273.462 432.859C268.99 427.238 260.5 427.201 255.98 432.782Z" fill="#27C289"/>
</g>
<g filter="url(#filter1_d_3_114)">
<path d="M256.51 347.246L106.92 530.365C99.4567 539.502 109.447 552.43 120.227 547.585L260.631 484.481C263.587 483.153 266.975 483.164 269.922 484.513L407.322 547.382C418.057 552.295 428.134 539.462 420.759 530.27L273.962 347.322C269.5 341.76 261.021 341.723 256.51 347.246Z" fill="#27C289"/>
</g>
<g filter="url(#filter2_d_3_114)">
<path d="M256.807 290.528L120.895 457.173C113.434 466.321 123.414 479.273 134.189 474.423L260.926 417.369C263.878 416.04 267.262 416.052 270.206 417.401L394.182 474.22C404.912 479.137 414.979 466.281 407.606 457.077L274.244 290.604C269.784 285.038 261.315 285.001 256.807 290.528Z" fill="#27C289"/>
</g>
<g filter="url(#filter3_d_3_114)">
<path d="M256.272 234.641L136.5 382.36C129.07 391.523 139.031 404.474 149.768 399.612L260.377 349.526C263.325 348.191 266.706 348.203 269.645 349.558L377.781 399.408C388.474 404.338 398.521 391.482 391.179 382.264L273.67 234.718C269.224 229.135 260.767 229.098 256.272 234.641Z" fill="#27C289"/>
</g>
<g filter="url(#filter4_d_3_114)">
<path d="M255.902 205.893L180.88 299.243C173.477 308.453 183.407 321.467 194.107 316.579L259.993 286.479C262.932 285.137 266.304 285.148 269.234 286.511L333.442 316.374C344.098 321.33 354.113 308.412 346.799 299.146L273.245 205.969C268.814 200.356 260.381 200.318 255.902 205.893Z" fill="#27C289"/>
</g>
<path d="M34.458 449.814C34.458 438.563 43.5921 429.442 54.8597 429.442H88.8624C100.13 429.442 109.264 438.563 109.264 449.814V502.783C109.264 514.034 100.13 523.155 88.8624 523.155H54.8597C43.5921 523.155 34.458 514.034 34.458 502.783V449.814Z" fill="url(#paint1_linear_3_114)"/>
<g filter="url(#filter5_d_3_114)">
<path d="M62.4221 343.19L-47.9041 478.774C-56.9261 489.861 -44.8621 505.56 -31.8364 499.683L67.401 454.907C70.9695 453.297 75.0597 453.31 78.6173 454.945L175.475 499.437C188.448 505.396 200.616 489.812 191.701 478.658L83.4991 343.282C78.1082 336.537 67.8718 336.492 62.4221 343.19Z" fill="#33B988"/>
</g>
<g filter="url(#filter6_d_3_114)">
<path d="M62.6458 239.592L-117.787 460.801C-126.789 471.838 -114.739 487.455 -101.736 481.602L67.6165 405.373C71.1818 403.768 75.2691 403.782 78.8234 405.411L244.553 481.357C257.502 487.291 269.657 471.789 260.761 460.686L83.6971 239.684C78.3145 232.966 68.0871 232.921 62.6458 239.592Z" fill="#33B988"/>
</g>
<g filter="url(#filter7_d_3_114)">
<path d="M62.9037 171.352L-101.339 372.05C-110.356 383.068 -98.2948 398.666 -85.2748 392.825L67.8806 324.113C71.4485 322.512 75.5383 322.526 79.0953 324.151L228.914 392.58C241.881 398.503 254.047 383.02 245.136 371.935L83.9751 171.444C78.5862 164.74 68.3514 164.695 62.9037 171.352Z" fill="#33B988"/>
</g>
<g filter="url(#filter8_d_3_114)">
<path d="M62.3389 103.973L-82.4494 282.377C-91.4302 293.443 -79.3894 309.085 -66.4102 303.213L67.3016 242.723C70.8654 241.111 74.9524 241.124 78.5052 242.761L209.227 302.967C222.153 308.92 234.298 293.394 225.423 282.261L83.3709 104.065C77.9961 97.3226 67.7724 97.2778 62.3389 103.973Z" fill="#33B988"/>
</g>
<g filter="url(#filter9_d_3_114)">
<path d="M61.8707 69.4661L-29.0215 182.016C-37.9894 193.121 -25.9596 208.812 -12.9962 202.918L66.8276 166.628C70.3886 165.009 74.4729 165.023 78.0229 166.666L155.814 202.671C168.724 208.646 180.858 193.071 171.996 181.899L82.8829 69.5585C77.5142 62.7904 67.2981 62.7455 61.8707 69.4661Z" fill="#33B988"/>
</g>
<g filter="url(#filter10_f_3_114)">
<path d="M251.964 719.329C253.655 711.003 261.016 704.736 269.841 704.736H377.467C387.542 704.736 395.709 712.903 395.709 722.977V724.194C395.709 734.268 387.542 742.435 377.467 742.435H367.981C366.291 750.762 358.93 757.029 350.104 757.029H334.285C333.964 766.822 325.924 774.662 316.053 774.662H208.428C201.676 774.662 195.78 770.994 192.626 765.541H173.769C163.694 765.541 155.527 757.374 155.527 747.3V746.084C155.527 736.009 163.694 727.842 173.769 727.842H205.387C212.139 727.842 218.035 731.51 221.189 736.963H224.247C224.568 727.17 232.608 719.329 242.479 719.329H251.964Z" fill="#1C9D6E" fill-opacity="0.45"/>
</g>
<path d="M-12.9627 834.789C-35.6626 821.013 -51.9194 797.12 -56.3542 770.987C-60.789 744.866 -53.33 716.969 -36.4396 696.508C-20.9477 677.752 3.46148 665.251 27.6436 668.29C51.8257 671.328 73.7605 692.397 73.6051 716.695C89.4436 691.348 125.125 680.612 152.391 692.969C179.669 705.327 194.994 739.194 186.244 767.758C200.48 760.894 218.411 762.407 231.285 771.571C244.159 780.723 251.427 797.144 249.538 812.791C247.374 830.737 234.154 845.895 218.387 854.821C202.62 863.758 184.475 867.405 166.592 870.443C131.305 876.425 95.1096 880.477 59.8106 874.566C24.5117 868.644 -10.1536 851.663 -12.9747 834.789H-12.9508H-12.9627Z" fill="#33B988"/>
<path d="M193.988 843.745V843.665C193.528 837.018 196.014 829.855 201.582 826.181C204.424 824.31 208.509 823.587 211.098 825.791C212.893 827.318 213.767 830.027 216.023 830.704C218.45 831.427 220.913 829.063 221.269 826.56C221.626 824.057 220.544 821.601 219.486 819.305L213.089 805.46C211.19 801.351 209.245 797.034 209.476 792.511C209.694 787.988 212.858 783.27 217.38 782.914C221.983 782.558 225.653 786.553 228.288 790.33C230.244 793.142 233.075 797.964 236.757 798.745C241.255 799.697 241.29 795.083 241.14 791.719C240.726 781.973 238.298 770.608 244.201 762.021C248.596 755.627 257.145 751.058 265.004 752.929C273.07 754.846 278.374 764.248 277.741 772.169C276.809 783.878 265.671 792.04 261.368 802.981C260.758 804.542 260.298 806.356 261.069 807.848C262.231 810.087 265.453 810.236 267.823 809.363C270.193 808.491 272.345 806.895 274.853 806.643C278.846 806.229 282.585 809.593 283.448 813.496C284.311 817.399 282.815 821.543 280.365 824.723C277.914 827.903 274.612 830.291 271.355 832.633L252.52 846.19C251.599 846.845 250.61 847.625 250.426 848.739C250.207 850.013 251.231 851.253 252.451 851.689C253.67 852.125 255.028 851.907 256.282 851.551C259.585 850.622 262.542 848.75 265.775 847.591C269.008 846.432 272.851 846.064 275.682 848.004C279.214 850.426 279.778 855.719 277.914 859.576C275.532 864.501 270.308 867.29 265.43 869.77L238.275 883.5C234.455 885.428 228.461 887.196 225.423 890.215C224.364 891.271 223.962 892.936 222.915 894.073C221.868 895.209 219.382 895.576 218.68 896.38C216 896.414 213.848 894.015 213.008 891.478C212.168 888.941 212.272 886.209 211.846 883.569C210.638 875.889 204.643 868.84 200.777 862.285C197.406 856.568 194.46 850.381 193.988 843.768V843.745Z" fill="#1C9D6E"/>
<g clip-path="url(#clip1_3_114)">
<path fill-rule="evenodd" clip-rule="evenodd" d="M355.527 783.094C357.917 788.376 351.559 793.28 347.057 789.626L301.421 752.59C298.695 750.379 298.713 746.213 301.458 744.026L347.021 707.706C351.549 704.096 357.861 709.042 355.438 714.302L340.559 746.608C340.066 747.678 340.062 748.909 340.547 749.982L355.527 783.094ZM347.96 788.513C351.288 791.214 355.987 787.589 354.221 783.685L339.241 750.573C338.584 749.121 338.59 747.456 339.256 746.008L354.136 713.702C355.927 709.814 351.262 706.158 347.914 708.827L302.352 745.147C300.323 746.764 300.31 749.842 302.324 751.477L347.96 788.513Z" fill="#85DD91" fill-opacity="0.24"/>
<path fill-rule="evenodd" clip-rule="evenodd" d="M303.915 783.094C306.305 788.376 299.947 793.28 295.445 789.626L249.809 752.59C247.083 750.379 247.102 746.213 249.846 744.026L295.409 707.706C299.938 704.096 306.249 709.042 303.826 714.302L288.947 746.608C288.454 747.678 288.45 748.909 288.935 749.982L303.915 783.094ZM296.348 788.513C299.676 791.214 304.375 787.589 302.609 783.685L287.629 750.573C286.972 749.121 286.978 747.456 287.645 746.008L302.524 713.702C304.315 709.814 299.65 706.158 296.302 708.827L250.74 745.147C248.711 746.764 248.698 749.842 250.712 751.477L296.348 788.513Z" fill="#85DD91" fill-opacity="0.24"/>
<path fill-rule="evenodd" clip-rule="evenodd" d="M-37.7088 868.637C-40.0985 873.919 -33.7402 878.823 -29.2385 875.169L16.3977 838.133C19.1232 835.921 19.1049 831.756 16.3603 829.568L-29.2022 793.249C-33.7311 789.638 -40.0426 794.585 -37.6196 799.845L-22.7402 832.151C-22.2475 833.221 -22.2433 834.452 -22.7288 835.525L-37.7088 868.637ZM-30.1419 874.056C-33.4693 876.756 -38.1689 873.132 -36.4026 869.228L-21.4225 836.116C-20.7658 834.664 -20.7714 832.999 -21.438 831.551L-36.3174 799.245C-38.1083 795.357 -33.4433 791.701 -30.0959 794.37L15.4666 830.69C17.4953 832.307 17.5087 835.385 15.4943 837.02L-30.1419 874.056Z" fill="#85DD91" fill-opacity="0.24"/>
<path fill-rule="evenodd" clip-rule="evenodd" d="M252.303 783.094C254.693 788.376 248.334 793.28 243.833 789.626L198.197 752.59C195.471 750.379 195.489 746.213 198.234 744.026L243.796 707.706C248.325 704.096 254.637 709.042 252.214 714.302L237.334 746.608C236.842 747.678 236.838 748.909 237.323 749.982L252.303 783.094ZM244.736 788.513C248.064 791.214 252.763 787.589 250.997 783.685L236.017 750.573C235.36 749.121 235.366 747.456 236.032 746.008L250.912 713.702C252.703 709.814 248.038 706.158 244.69 708.827L199.128 745.147C197.099 746.764 197.085 749.842 199.1 751.477L244.736 788.513Z" fill="#85DD91" fill-opacity="0.24"/>
<path fill-rule="evenodd" clip-rule="evenodd" d="M13.903 868.637C11.5133 873.919 17.8716 878.823 22.3733 875.169L68.0095 838.133C70.735 835.921 70.7168 831.756 67.9721 829.568L22.4096 793.249C17.8807 789.638 11.5693 794.585 13.9922 799.845L28.8716 832.151C29.3643 833.221 29.3685 834.452 28.8831 835.525L13.903 868.637ZM21.4699 874.056C18.1425 876.756 13.4429 873.132 15.2092 869.228L30.1893 836.116C30.8461 834.664 30.8404 832.999 30.1738 831.551L15.2944 799.245C13.5035 795.357 18.1685 791.701 21.5159 794.37L67.0784 830.69C69.1071 832.307 69.1206 835.385 67.1061 837.02L21.4699 874.056Z" fill="#85DD91" fill-opacity="0.24"/>
<path fill-rule="evenodd" clip-rule="evenodd" d="M200.69 783.094C203.08 788.376 196.722 793.28 192.22 789.626L146.584 752.59C143.858 750.379 143.877 746.213 146.621 744.026L192.184 707.706C196.713 704.096 203.024 709.042 200.601 714.302L185.722 746.608C185.229 747.678 185.225 748.909 185.71 749.982L200.69 783.094ZM193.123 788.513C196.451 791.214 201.15 787.589 199.384 783.685L184.404 750.573C183.747 749.121 183.753 747.456 184.419 746.008L199.299 713.702C201.09 709.814 196.425 706.158 193.077 708.827L147.515 745.147C145.486 746.764 145.473 749.842 147.487 751.477L193.123 788.513Z" fill="#85DD91" fill-opacity="0.24"/>
<path fill-rule="evenodd" clip-rule="evenodd" d="M65.5168 868.637C63.1271 873.919 69.4854 878.823 73.9871 875.169L119.623 838.133C122.349 835.921 122.331 831.756 119.586 829.568L74.0234 793.249C69.4945 789.638 63.183 794.585 65.6059 799.845L80.4854 832.151C80.9781 833.221 80.9823 834.452 80.4968 835.525L65.5168 868.637ZM73.0837 874.056C69.7563 876.756 65.0567 873.132 66.823 869.228L81.8031 836.116C82.4598 834.664 82.4542 832.999 81.7876 831.551L66.9081 799.245C65.1173 795.357 69.7823 791.701 73.1297 794.37L118.692 830.69C120.721 832.307 120.734 835.385 118.72 837.02L73.0837 874.056Z" fill="#85DD91" fill-opacity="0.24"/>
<path fill-rule="evenodd" clip-rule="evenodd" d="M149.078 783.094C151.468 788.376 145.109 793.28 140.608 789.626L94.9714 752.59C92.246 750.379 92.2642 746.213 95.0089 744.026L140.571 707.706C145.1 704.096 151.412 709.042 148.989 714.302L134.109 746.608C133.617 747.678 133.612 748.909 134.098 749.982L149.078 783.094ZM141.511 788.513C144.838 791.214 149.538 787.589 147.772 783.685L132.792 750.573C132.135 749.121 132.141 747.456 132.807 746.008L147.687 713.702C149.477 709.814 144.812 706.158 141.465 708.827L95.9025 745.147C93.8739 746.764 93.8604 749.842 95.8748 751.477L141.511 788.513Z" fill="#85DD91" fill-opacity="0.24"/>
<path fill-rule="evenodd" clip-rule="evenodd" d="M117.129 868.637C114.739 873.919 121.097 878.823 125.599 875.169L171.235 838.133C173.961 835.921 173.942 831.756 171.198 829.568L125.635 793.249C121.106 789.638 114.795 794.585 117.218 799.845L132.097 832.151C132.59 833.221 132.594 834.452 132.109 835.525L117.129 868.637ZM124.695 874.056C121.368 876.756 116.669 873.132 118.435 869.228L133.415 836.116C134.072 834.664 134.066 832.999 133.399 831.551L118.52 799.245C116.729 795.357 121.394 791.701 124.742 794.37L170.304 830.69C172.333 832.307 172.346 835.385 170.332 837.02L124.695 874.056Z" fill="#85DD91" fill-opacity="0.24"/>
<path fill-rule="evenodd" clip-rule="evenodd" d="M97.4657 783.094C99.8554 788.376 93.497 793.28 88.9953 789.626L43.3591 752.59C40.6337 750.379 40.6519 746.213 43.3966 744.026L88.9591 707.706C93.4879 704.096 99.7994 709.042 97.3765 714.302L82.497 746.608C82.0043 747.678 82.0001 748.909 82.4856 749.982L97.4657 783.094ZM89.8988 788.513C93.2261 791.214 97.9257 787.589 96.1594 783.685L81.1794 750.573C80.5226 749.121 80.5282 747.456 81.1948 746.008L96.0743 713.702C97.8651 709.814 93.2001 706.158 89.8527 708.827L44.2902 745.147C42.2616 746.764 42.2481 749.842 44.2625 751.477L89.8988 788.513Z" fill="#85DD91" fill-opacity="0.24"/>
<path fill-rule="evenodd" clip-rule="evenodd" d="M168.741 868.637C166.351 873.919 172.71 878.823 177.211 875.169L222.847 838.133C225.573 835.921 225.555 831.756 222.81 829.568L177.247 793.249C172.719 789.638 166.407 794.585 168.83 799.845L183.71 832.151C184.202 833.221 184.206 834.452 183.721 835.525L168.741 868.637ZM176.308 874.056C172.98 876.756 168.281 873.132 170.047 869.228L185.027 836.116C185.684 834.664 185.678 832.999 185.012 831.551L170.132 799.245C168.341 795.357 173.006 791.701 176.354 794.37L221.916 830.69C223.945 832.307 223.958 835.385 221.944 837.02L176.308 874.056Z" fill="#85DD91" fill-opacity="0.24"/>
<path fill-rule="evenodd" clip-rule="evenodd" d="M45.8538 783.094C48.2435 788.376 41.8852 793.28 37.3835 789.626L-8.2527 752.59C-10.9781 750.379 -10.9599 746.213 -8.21524 744.026L37.3472 707.706C41.8761 704.096 48.1876 709.042 45.7647 714.302L30.8852 746.608C30.3925 747.678 30.3883 748.909 30.8738 749.982L45.8538 783.094ZM38.2869 788.513C41.6143 791.214 46.3139 787.589 44.5476 783.685L29.5676 750.573C28.9108 749.121 28.9164 747.456 29.583 746.008L44.4625 713.702C46.2533 709.814 41.5883 706.158 38.2409 708.827L-7.32158 745.147C-9.35026 746.764 -9.36373 749.842 -7.34927 751.477L38.2869 788.513Z" fill="#85DD91" fill-opacity="0.24"/>
<path fill-rule="evenodd" clip-rule="evenodd" d="M220.353 868.637C217.963 873.919 224.322 878.823 228.824 875.169L274.46 838.133C277.185 835.921 277.167 831.756 274.422 829.568L228.86 793.249C224.331 789.638 218.019 794.585 220.442 799.845L235.322 832.151C235.815 833.221 235.819 834.452 235.333 835.525L220.353 868.637ZM227.92 874.056C224.593 876.756 219.893 873.132 221.659 869.228L236.639 836.116C237.296 834.664 237.291 832.999 236.624 831.551L221.745 799.245C219.954 795.357 224.619 791.701 227.966 794.37L273.529 830.69C275.557 832.307 275.571 835.385 273.556 837.02L227.92 874.056Z" fill="#85DD91" fill-opacity="0.24"/>
<path fill-rule="evenodd" clip-rule="evenodd" d="M271.965 868.637C269.576 873.919 275.934 878.823 280.436 875.169L326.072 838.133C328.797 835.921 328.779 831.756 326.035 829.568L280.472 793.249C275.943 789.638 269.632 794.585 272.055 799.845L286.934 832.151C287.427 833.221 287.431 834.452 286.946 835.525L271.965 868.637ZM279.532 874.056C276.205 876.756 271.505 873.132 273.272 869.228L288.252 836.116C288.909 834.664 288.903 832.999 288.236 831.551L273.357 799.245C271.566 795.357 276.231 791.701 279.578 794.37L325.141 830.69C327.17 832.307 327.183 835.385 325.169 837.02L279.532 874.056Z" fill="#85DD91" fill-opacity="0.24"/>
<path fill-rule="evenodd" clip-rule="evenodd" d="M323.577 868.637C321.188 873.919 327.546 878.823 332.048 875.169L377.684 838.133C380.409 835.921 380.391 831.756 377.646 829.568L332.084 793.249C327.555 789.638 321.244 794.585 323.666 799.845L338.546 832.151C339.039 833.221 339.043 834.452 338.557 835.525L323.577 868.637ZM331.144 874.056C327.817 876.756 323.117 873.132 324.884 869.228L339.864 836.116C340.52 834.664 340.515 832.999 339.848 831.551L324.969 799.245C323.178 795.357 327.843 791.701 331.19 794.37L376.753 830.69C378.781 832.307 378.795 835.385 376.78 837.02L331.144 874.056Z" fill="#85DD91" fill-opacity="0.24"/>
</g>
<g clip-path="url(#clip2_3_114)">
<path d="M221.689 398.963C221.689 398.963 218.429 390.05 220.231 371.75C220.732 366.698 222.224 356.752 224.744 356.061L254.704 367.165C254.704 367.165 262.035 393.431 261.243 395.793C260.451 398.154 221.689 398.957 221.689 398.957V398.963Z" fill="#147171"/>
<path d="M266.238 367.02C266.238 367.02 239.387 362.475 227.733 360.1C216.08 357.726 207.481 353.904 205.139 364.83C203.383 373.046 207.039 377.091 219.927 380.985C234.207 385.294 245.656 388.32 255.093 395.069C263.414 401.022 272.468 388.886 274.058 382.742C276.678 372.605 266.238 367.02 266.238 367.02Z" fill="#F0D6C8"/>
<path d="M364.504 718.825C362.617 713.721 379.642 712.01 386.116 715.648C392.642 719.319 395.4 726.429 395.4 726.429C395.4 726.429 397.901 734.185 387.238 734.185C379.761 734.185 365.646 721.91 364.504 718.819V718.825Z" fill="#261B14"/>
<path d="M364.503 712.392C364.668 706.965 374.587 707.083 380.763 710.761C387.125 714.55 393.974 724.903 393.974 724.903C393.974 724.903 395.961 729.935 389.553 731.271C383.667 732.501 364.292 719.141 364.497 712.392H364.503Z" fill="#3B2C21"/>
<path d="M256.459 715.693C256.775 709.194 252.235 706.411 249.061 705.925C238.107 704.254 233.936 709.174 231.772 710.082C224.176 713.266 206.676 721.113 210.14 726.053C211.876 728.527 225.82 725.185 237.427 722.139C241.875 720.975 242.079 718.199 244.884 717.462C246.309 717.087 246.791 719.035 247.451 719.002C254.565 717.699 256.459 715.686 256.459 715.686V715.693Z" fill="#3B2C21"/>
<path d="M209.85 724.468C211.586 726.941 225.529 723.6 237.137 720.554C241.591 719.39 241.789 716.614 244.594 715.877C246.019 715.502 246.501 717.449 247.161 717.417C254.274 716.114 256.168 714.101 256.168 714.101C256.201 713.43 256.168 712.812 256.109 712.22C256.386 713.239 256.525 714.384 256.465 715.687C256.465 715.687 254.571 717.699 247.458 719.002C246.804 719.035 246.323 717.088 244.891 717.463C242.086 718.199 241.888 720.969 237.434 722.14C225.82 725.185 211.876 728.52 210.147 726.053C209.751 725.494 209.639 724.896 209.745 724.271C209.784 724.337 209.811 724.402 209.857 724.468H209.85Z" fill="#261B14"/>
<path d="M237.097 574.444C226.017 606.393 206.458 651.255 181.171 660.951C181.171 660.951 185.652 693.683 210.114 712.273C220.586 720.232 226.427 724.784 242.95 727.507L244.362 721.456L290.687 731.112L290.813 734.776C290.813 734.776 306.214 736.605 331.027 733.184C349.022 730.704 391.908 721.304 391.908 721.304C391.908 721.304 377.054 666.766 372.752 641.329C366.694 605.525 357.482 566.629 349.147 523.3C340.08 476.156 318.792 462.861 318.792 462.861C318.792 462.861 304.096 468.091 293.406 466.769C282.716 465.447 272.87 464.815 272.87 464.815L237.09 574.431L237.097 574.444Z" fill="#147171"/>
<path d="M188.859 656.84C192 661.004 198.896 688.527 211.407 701.821C220.705 711.694 223.576 715.641 244.435 719.068L244.851 716.884L266.245 722.614L266.311 724.62C266.311 724.62 294.581 731.106 331.462 725.199C348.058 722.541 383.944 715.924 389.704 713.03C390.424 716.286 391.922 721.305 391.922 721.305C391.922 721.305 349.055 730.856 331.04 733.185C288.846 738.638 265.288 732.619 265.288 732.619L265.162 728.955L243.769 723.226L242.957 727.514C220.553 726.337 213.572 718.838 206.616 712.227C185.539 692.184 181.171 660.952 181.171 660.952C183.434 660.083 187.262 657.899 188.865 656.84H188.859Z" fill="#29ADA9"/>
<path d="M276.228 468.019L244.435 719.068L266.369 726.284L276.228 468.019Z" fill="#29ADA9"/>
<path opacity="0.15" d="M276.23 468.019L243.763 723.219L254.486 726.094L276.23 468.019Z" fill="#08422A"/>
<mask id="mask0_3_114" style="mask-type:luminance" maskUnits="userSpaceOnUse" x="136" y="210" width="124" height="158">
<path d="M217.393 366.849C217.393 366.849 235.25 365.087 254.38 367.599C256.439 367.869 256.676 364.192 258.847 363.771C265.565 350.273 223.517 174.608 155.66 217.792C87.8025 260.977 217.386 366.849 217.386 366.849H217.393Z" fill="white"/>
</mask>
<g mask="url(#mask0_3_114)">
<path d="M247.154 324.297L243.762 314.594C243.597 314.127 242.937 314.114 242.759 314.574L240.66 319.981C240.614 320.1 240.614 320.231 240.66 320.35C240.621 320.231 240.535 320.126 240.423 320.067L235.407 317.126C234.978 316.877 234.464 317.291 234.629 317.765L238.021 327.467C238.06 327.586 238.146 327.691 238.258 327.75L241.05 329.388L240.403 330.125C239.763 330.855 239.565 331.868 239.882 332.782L245.154 347.865C245.431 348.661 246.065 349.28 246.87 349.536L249.43 350.365C250.578 350.733 251.839 350.299 252.505 349.299L253.997 347.063C254.465 346.366 254.577 345.484 254.3 344.688L249.028 329.605C248.711 328.691 247.919 328.02 246.962 327.842L245.992 327.664L247.16 324.652C247.206 324.533 247.206 324.402 247.16 324.283L247.154 324.297Z" fill="#AAB0C3"/>
<path d="M239.063 315.825L286.688 452.062" stroke="#0F4961" stroke-width="2.5" stroke-miterlimit="10" stroke-linecap="round"/>
<path d="M224.981 333.723L220.005 324.731C219.761 324.297 219.108 324.395 219.009 324.882L217.854 330.565C217.828 330.69 217.854 330.822 217.907 330.927C217.847 330.815 217.748 330.73 217.63 330.684L212.186 328.632C211.717 328.454 211.288 328.954 211.526 329.388L216.501 338.38C216.561 338.492 216.66 338.577 216.778 338.624L219.807 339.768L219.293 340.603C218.784 341.426 218.758 342.465 219.227 343.314L226.967 357.298C227.376 358.035 228.102 358.535 228.94 358.66L231.606 359.048C232.801 359.219 233.969 358.581 234.457 357.483L235.553 355.029C235.896 354.259 235.856 353.378 235.447 352.641L227.706 338.656C227.238 337.808 226.347 337.275 225.377 337.268L224.394 337.255L225.04 334.091C225.067 333.966 225.04 333.835 224.988 333.729L224.981 333.723Z" fill="#AAB0C3"/>
<path d="M215.42 326.428L285.494 453.041" stroke="#0F4961" stroke-width="2.5" stroke-miterlimit="10" stroke-linecap="round"/>
<path d="M234.734 325.099L230.966 315.535C230.782 315.074 230.122 315.087 229.963 315.554L228.076 321.04C228.036 321.159 228.036 321.29 228.083 321.409C228.036 321.29 227.951 321.192 227.838 321.132L222.711 318.389C222.269 318.153 221.774 318.593 221.959 319.054L225.727 328.618C225.773 328.737 225.859 328.835 225.971 328.894L228.822 330.421L228.201 331.184C227.588 331.934 227.429 332.96 227.786 333.861L233.639 348.734C233.949 349.516 234.602 350.109 235.414 350.339L238.007 351.069C239.169 351.398 240.409 350.911 241.043 349.885L242.449 347.596C242.891 346.879 242.963 345.997 242.66 345.214L236.806 330.342C236.45 329.44 235.638 328.796 234.675 328.664L233.705 328.526L234.754 325.474C234.794 325.356 234.794 325.224 234.748 325.106L234.734 325.099Z" fill="#AAB0C3"/>
<path d="M226.241 316.731L279.197 451.238" stroke="#0F4961" stroke-width="2.5" stroke-miterlimit="10" stroke-linecap="round"/>
</g>
<path d="M246.554 446.989C247.168 451.239 246.554 455.554 242.12 456.422C242.12 456.422 242.879 454.85 240.358 449.989C228.447 434.485 244.113 435.728 240.919 423.216C237.718 410.705 246.046 403.39 253.668 398.095C261.29 392.806 254.354 377.335 253.305 367.336C252.256 357.331 249.953 332.171 261.191 327.658C272.429 323.139 294.819 315.943 300.778 338.808C300.778 338.808 303.523 345.386 300.158 359.897C296.799 374.408 305.166 392.122 309.614 402.035C314.055 411.948 328.573 409.968 318.232 433.531C318.232 433.531 317.671 452.758 295.697 455.08C287.455 454.771 284.941 440.97 274.402 457.238C262.59 443.819 246.561 446.983 246.561 446.983L246.554 446.989Z" fill="#72523D"/>
<path d="M300.545 333.013C300.545 333.013 301.581 319.501 293.669 312.397C287.44 306.799 282.068 306.51 276.756 306.911C271.444 307.312 266.013 311.279 266.013 311.279C266.013 311.279 253.363 306.891 247.028 320.08C245.622 323.014 244.784 327.901 246.111 331.177C246.144 336.63 247.18 340.623 247.18 340.623C247.18 340.623 248.486 363.087 265.993 363.962C283.494 364.837 292.712 358.048 296.903 346.59C299.899 338.387 300.545 333.006 300.545 333.006V333.013Z" fill="#92745A"/>
<path d="M321.22 446.989C321.774 440.53 313.479 436.589 316 426.979C318.151 422.526 320.883 419.033 319.643 416.513C316.673 410.488 312.437 411.251 311.948 404.89C311.302 396.51 315.796 393.582 311.843 386.669C307.897 379.755 296.276 374.486 296.276 364.481C296.104 357.101 293.056 356.732 287.46 354.147C276.967 349.299 293.61 338.656 288.793 330.427L293.92 326.349C293.92 326.349 300.486 327.467 306.188 335.847C311.064 343.017 310.002 347.017 312.113 355.18C313.988 362.429 319.188 362.679 322.52 372.033C325.866 381.413 319.353 389.445 328.584 397.371C336.239 403.943 326.255 409.337 329.983 416.619C333.065 422.644 335.685 423.506 334.015 433.537C332.933 440.036 330.881 445.279 330.815 445.7C330.828 440.53 323.226 433.55 323.8 429.406C321.088 430.551 325.344 443.47 321.227 446.989H321.22Z" fill="#72523D"/>
<path d="M298.125 326.546C301.774 331.059 298.435 334.308 299.181 338.926C299.478 340.393 300.157 342.005 301.081 343.228C301.682 343.912 302.401 344.392 303.219 344.886C308.789 347.945 316.12 350.497 315.394 358.351C315.216 361.324 314.418 364.1 314.226 366.883C314.147 368.284 314.207 369.382 314.669 370.349C315.025 371.092 315.757 371.829 316.371 372.382C324.521 378.637 329.721 380.953 325.326 392.418C324.56 394.668 323.485 397.247 323.788 399.384C324.184 401.443 326.329 403.423 327.88 405.14C330.651 408.008 334.036 411.85 332.921 416.382C331.879 421.355 327.207 424.894 326.382 429.762C326.243 435.241 332.004 440.03 330.81 445.707C330.869 442.766 329.028 440.411 327.49 438.063C324.527 433.847 322.304 430.117 324.712 424.96C325.814 422.315 327.438 419.862 328.368 417.303C328.784 416.125 328.968 415.027 328.764 414.185C328.223 412.04 326.091 410.238 324.409 408.561C322.119 406.39 319.374 403.739 318.654 400.457C317.631 395.181 320.7 390.873 321.386 386.044C321.432 385.413 321.459 384.676 321.228 384.097C320.482 382.163 318.179 380.611 316.358 379.216C314.213 377.605 311.574 375.697 310.201 373.184C308.301 369.566 309.211 365.488 310.016 361.943C310.412 360.199 310.769 358.713 310.868 357.095C310.868 356.345 310.868 355.634 310.531 354.957C309.548 352.832 307.199 351.319 305.126 349.984C300.421 347.089 297.518 345.202 297.063 339.156C296.772 334.236 300.778 331.539 298.125 326.553V326.546Z" fill="#81624C"/>
<path d="M289.883 338.794C293.842 342.326 291.282 345.707 292.496 349.753C292.919 350.97 293.658 352.338 294.582 353.292C295.156 353.818 295.855 354.173 296.561 354.515C301.491 356.62 308.321 358.6 308.796 365.126C309.086 368.191 308.36 371.276 308.347 374.138C308.373 375.69 308.479 376.584 309.284 377.551C309.515 377.815 310.03 378.295 310.3 378.518C318.146 384.103 322.924 386.701 318.925 397.378C318.265 399.331 317.348 401.587 317.546 403.364C317.81 405.028 319.664 406.863 320.911 408.383C323.148 410.968 325.768 414.099 325.385 418.039C324.811 423.203 319.724 426.433 318.503 431.142C318.179 434.681 320.72 438.26 321.386 441.779C321.65 443.095 321.756 444.522 321.301 445.772C321.367 444.45 320.984 443.226 320.436 442.088C315.876 433.76 312.656 432.241 318.252 422.854C319.176 421.131 320.555 418.881 320.238 417.151C319.796 415.382 318.041 413.783 316.629 412.303C314.543 410.238 312.009 407.619 311.396 404.534C310.465 399.654 313.138 395.707 313.771 391.299C313.903 389.898 313.461 389.234 312.234 388.063C310.412 386.425 308.162 385.136 306.13 383.347C301.642 379.656 301.887 374.776 302.843 369.776C303.292 367.264 303.655 364.836 303.048 363.863C302.144 362.119 300.012 360.909 298.165 359.857C293.684 357.456 290.833 355.785 289.975 350.279C289.329 345.852 292.707 343.004 289.876 338.801L289.883 338.794Z" fill="#81624C"/>
<path d="M300.71 331.453C301.529 334.315 300.348 337.452 298.704 339.788C297.952 340.998 297.266 342.136 296.956 343.3C296.349 345.478 296.85 348.208 298.236 349.938C298.916 350.799 299.853 351.536 301.001 352.378C303.739 354.193 306.148 357.272 306.531 360.758C307.151 364.356 305.646 367.935 303.528 370.579C302.03 372.658 301.318 373.875 301.601 376.269C301.958 378.368 302.684 379.341 304.947 381.137C306.036 382.032 307.435 383.202 308.537 384.854C309.659 386.498 310.266 388.478 310.477 390.274C310.662 392.076 310.49 394.142 309.751 395.99C308.372 399.845 304.347 402.094 304.848 405.857C305.112 410.008 309.256 411.159 311.355 414.724C313.295 417.98 313.598 421.782 312.173 425.262C310.49 429.288 306.333 431.09 306.597 435.616C306.676 441.95 313.928 442.871 313.691 449.818C313.328 448.43 312.767 447.134 311.876 446.121C309.995 443.865 307.171 442.963 305.303 440.477C303.271 437.754 302.677 434.221 303.7 430.926C304.558 428.104 306.914 425.999 307.705 423.539C308.53 420.177 307.369 417.651 304.221 415.421C303.113 414.547 301.714 413.441 300.611 411.836C298.427 408.528 297.926 404.62 299.252 400.864C299.938 399.016 301.034 397.562 301.878 396.431C303.66 394.148 304.096 393.043 303.924 390.978C303.654 388.919 302.981 387.939 300.757 386.09C294.349 381.19 293.452 373.066 298.922 367.06C301.522 364.205 302.116 361.475 300.578 358.377C299.272 356.154 296.52 354.608 295.068 352.036C292.442 347.53 293.577 342.103 297.266 338.683C299.298 336.67 300.717 334.387 300.717 331.453H300.71Z" fill="#81624C"/>
<path opacity="0.55" d="M264.278 378.841C264.278 378.841 239.374 366.738 227.997 361.239C216.832 358.075 208.735 353.983 205.686 364.541C204.828 367.514 204.749 369.974 205.614 372.138C207.541 375 208.999 376.868 212.721 378.776C216.383 380.334 241.545 387.847 261.936 389.05C266.047 389.031 268.053 391.379 269.855 386.432C271.735 381.269 264.278 378.835 264.278 378.835V378.841Z" fill="#D3AFA2"/>
<path d="M284.748 369.895C286.893 370.875 274.876 372.625 279.284 377.459C283.95 382.571 283.455 391.168 279.542 394.793C275.53 399.726 262.754 400.029 244.086 398.614C243.056 398.535 240.799 400.239 239.209 400.206C238.292 400.186 237.209 399.187 236.338 399.114C234.953 398.996 235.177 399.687 232.669 399.64C230.828 399.608 230.452 399.213 229.541 399.121C225.001 399.943 221.722 398.976 221.722 398.976C221.722 398.976 227.944 387.616 227.621 374.973C227.423 367.119 228.459 361.435 224.737 356.074L284.742 369.901L284.748 369.895Z" fill="#147171"/>
<path opacity="0.3" d="M278.268 368.75C279.845 369.691 270.857 371.665 274.051 376.407C277.43 381.42 277.067 392.944 274.084 396.635C270.996 401.64 261.309 399.259 247.418 398.194C247.418 398.194 256.815 392.786 259.006 381.933C261.434 369.908 259.131 365.461 259.131 365.461L278.268 368.75Z" fill="#114062"/>
<path d="M226.361 428.735C243.248 416.619 228.664 412.994 229.324 402.068C229.872 392.984 238.332 395.984 238.906 389.346C239.909 377.789 233.646 380.4 235.824 372.98C237.421 367.521 241.361 368.501 242.529 364.475C245.313 354.865 230.076 350.852 243.743 338.472C246.343 336.117 245.577 335.381 246.435 334.743L265.935 334.052C260.669 341.748 268.007 342.491 266.72 347.635C264.681 355.786 269.109 352.812 271.359 358.614C273.201 363.357 270.739 369.435 268.073 374.842C262.504 386.136 276.447 386.689 275.754 396.523C275.154 405.061 269.637 404.917 268.621 412.751C267.671 420.105 273.636 425.289 273.636 433.531C273.636 441.773 262.913 440.142 264.681 446.983C266.45 453.824 261.87 460.895 261.87 460.895C262.616 457.225 249.834 452.081 246.547 450.535C247.135 455.975 242.7 456.376 242.113 456.422C241.473 448.312 235.58 445.121 233.429 443.556C233.244 446.259 231.277 446.989 229.753 447.647C231.37 442.247 221.927 431.899 226.348 428.729L226.361 428.735Z" fill="#92745A"/>
<path d="M229.649 355.799C229.384 355.772 229.14 355.752 228.901 355.746C229.146 355.812 229.391 355.818 229.649 355.799Z" fill="#29ADA9"/>
<path d="M221.689 398.963C221.689 398.963 223.899 399.43 226.11 399.246C227.331 397.075 230.604 385.991 230.63 375.355C230.657 367.178 231.554 361.245 228.895 355.746C226.664 355.673 225.741 356.331 224.737 356.062C227.41 361.344 226.532 367.04 226.532 374.881C226.532 387.498 221.682 398.963 221.682 398.963H221.689Z" fill="#29ADA9"/>
<path d="M265.934 347.457C265.934 347.457 277.647 366.139 274.07 367.763C272.572 368.447 262.364 395.766 291.716 392.516C308.457 390.661 308.748 369.789 302.142 369.007C296.566 368.349 294.837 368.513 292.052 367.836C283.784 365.803 290.713 357.831 290.713 357.831L265.927 347.457H265.934Z" fill="#D0A69C"/>
<path d="M270.052 376.275C266.179 389.405 263.011 391.142 258.59 401.87C253.997 413.014 253.001 423.453 263.381 432.951C264.338 434.043 264.635 434.852 265.776 435.984C270.686 441.055 275.615 457.658 274.276 466.973C274.276 466.973 287.295 474.702 313.625 465.769C313.625 465.769 302.447 448.482 320.158 417.986C324.243 400.463 319.228 403.521 319.973 397.937C323.134 374.243 316.186 369.066 311.949 368.757C309.917 368.605 297.036 367.974 296.679 369.941C296.257 372.289 291.459 382.386 279.317 384.287C273.062 385.268 271.247 381.077 272.197 375.703L270.052 376.269V376.275Z" fill="#147171"/>
<path d="M279.317 384.294C273.062 385.274 271.247 381.084 272.197 375.71L270.052 376.276C266.179 389.405 263.011 391.142 258.59 401.871C253.997 413.014 253.001 423.453 263.381 432.952C264.338 434.044 264.635 434.853 265.776 435.984L279.317 384.294Z" fill="#13626D"/>
<path d="M320.151 417.987C327.377 398.93 312.892 375.664 302.044 371.559C300.011 374.368 294.415 369.908 291.65 382.702C288.892 395.49 319.419 416.362 295.174 435.195C289.189 439.845 309.804 437.846 320.151 417.993V417.987Z" fill="#13626D"/>
<path d="M318.515 418.322C314.278 418.322 303.674 402.233 299.767 398.332C294.561 393.142 290.047 390.675 289.922 384.235C289.572 366.067 298.52 361.89 298.52 361.89C298.52 361.89 307.693 357.857 311.467 357.996C311.467 357.996 325.932 363.903 326.453 379.506C327.41 408.094 322.751 418.309 318.508 418.309L318.515 418.322Z" fill="#147171"/>
<path d="M310.002 400.22C319.092 400.22 326.46 390.557 326.46 378.637C326.46 366.718 319.092 357.055 310.002 357.055C300.913 357.055 293.544 366.718 293.544 378.637C293.544 390.557 300.913 400.22 310.002 400.22Z" fill="#147171"/>
<path d="M317.624 378.769C311.942 389.254 308.247 395.766 309.804 410.744C300.711 410.744 293.538 390.557 293.538 378.637C293.538 366.718 299.16 358.811 308.247 358.693C317.551 358.574 323.919 367.132 317.624 378.762V378.769Z" fill="#13626D"/>
<path d="M291.156 367.62C290.734 369.968 288.603 381.835 278.46 382.052C274.382 382.137 272.765 376.822 273.418 372.172L269.967 373.033C269.024 377.539 269.598 385.42 276.566 385.979C292.206 387.235 293.486 371.553 293.902 366.574L291.163 367.626L291.156 367.62Z" fill="#29ADA9"/>
<path d="M280.696 383.295C280.696 383.295 272.316 398.845 271.907 409.126C271.088 429.597 276.849 434.629 276.849 434.629C276.849 434.629 279.106 467.736 276.849 468.19C276.249 467.835 276.849 468.19 274.282 466.973C274.652 463.921 269.663 438.563 268.693 436.129C268.693 436.129 254.023 424.565 262.127 407.962C269.584 392.688 273.279 382.821 273.279 382.821L280.703 383.295H280.696Z" fill="#29ADA9"/>
<path d="M276.229 468.019C276.011 448.555 271.88 435.339 271.88 435.339C271.88 435.339 263.605 429.169 264.41 415.526C265.162 402.759 277.793 383.209 277.793 383.209" stroke="#147171" stroke-width="0.5" stroke-miterlimit="10"/>
<path d="M264.687 434.36L263.908 433.623C263.908 433.623 249.707 429.236 267.847 404.621C285.203 381.072 293.887 366.574 293.887 366.574L295.484 366.988C295.484 366.988 287.44 387.281 271.893 409.133C256.92 430.17 264.68 434.36 264.68 434.36H264.687Z" fill="#3B2C21"/>
<path d="M318.515 418.322C314.991 416.29 303.456 409.245 299.16 406.219C296.046 404.028 289.038 393.339 288.582 386.919C287.665 374.02 294.284 365.376 294.284 365.376C294.284 365.376 300.375 358.936 306.782 357.476C306.782 357.476 297.511 362.449 300.177 386.676C302.698 409.567 318.515 418.329 318.515 418.329V418.322Z" fill="#147171"/>
<path opacity="0.3" d="M314.278 417.007C310.755 414.974 306.234 412.823 300.592 407.758C297.761 405.213 289.783 393.234 288.582 386.913C288.582 386.913 291.426 393.464 298.302 402.476C305.178 411.495 314.278 417.007 314.278 417.007Z" fill="#114062"/>
<path d="M306.781 357.47C305.356 357.634 304.657 357.891 302.941 358.897C299.094 362.383 295.781 372.869 296.335 384.887C296.883 396.8 303.502 409.377 309.797 414.711C313.605 417.007 316.515 418.29 318.508 418.323C318.508 418.323 303.495 411.896 299.886 383.644C297.305 363.449 306.775 357.47 306.775 357.47H306.781Z" fill="#29ADA9"/>
<path d="M275.028 467.302C275.028 467.302 274.414 458.389 272.679 450.127C271.075 442.476 268.686 436.129 268.686 436.129C264.608 434.885 263.381 432.945 263.381 432.945C277.608 456.277 273.457 466.854 273.457 466.854L275.028 467.295V467.302Z" fill="#5E4C3F"/>
<path d="M319.432 418.039C314.694 429.097 295.346 435.313 295.346 435.313C295.346 435.313 293.307 443.687 292.541 453.804C291.934 461.829 292.409 469.9 292.409 469.9L318.495 463.026C312.978 451.955 313.401 429.827 319.478 419.111C319.703 418.717 319.927 418.342 320.151 417.986L319.432 418.039Z" fill="#49382C"/>
<path d="M268.409 435.155C268.409 435.155 265.341 434.951 263.381 432.952C273.919 450.067 272.883 464.829 272.883 464.829L275.53 467.46C275.53 467.46 274.546 458.29 273.543 450.949C272.613 444.154 268.416 435.162 268.416 435.162L268.409 435.155Z" fill="#49382C"/>
<path opacity="0.26" d="M273.537 450.942C272.606 444.147 268.409 435.155 268.409 435.155C268.409 435.155 265.295 434.734 263.381 432.952C273.919 450.067 273.457 466.861 273.457 466.861C273.457 466.861 274.612 458.823 273.537 450.942Z" fill="#261B14"/>
<path d="M319.433 418.04C312.266 434.774 279.674 434.682 276.196 434.623C276.031 434.623 275.899 434.754 275.906 434.925L276.85 468.19L289.962 470.256C300.25 470.177 318.509 463.027 318.509 463.027C312.992 451.956 313.414 429.827 319.492 419.112L319.446 418.04H319.433Z" fill="#5E4C3F"/>
<path d="M319.432 418.04C312.926 433.879 281.099 434.537 281.099 434.537L278.849 468.94C278.849 468.94 290.925 470.683 301.404 468.986C311.883 467.289 318.502 463.02 318.502 463.02C312.985 451.949 313.407 429.821 319.485 419.105L319.439 418.033L319.432 418.04Z" fill="#49382C"/>
<path opacity="0.26" d="M319.433 418.04C317.737 421.993 315.626 426.834 300.184 431.702C300.184 431.702 301.873 439.885 305.034 446.996C310.558 459.409 318.503 463.027 318.503 463.027C312.986 451.956 313.494 430.262 319.433 418.04Z" fill="#261B14"/>
<path opacity="0.15" d="M318.501 463.02C320.718 469.157 340.264 478.024 346.658 516.032C353.614 557.368 368.527 611.827 374.433 650.177C375.291 666.227 391.538 718.601 391.921 721.305C374.394 725.363 357.883 727.666 357.883 727.666C329.943 670.417 334.523 623.431 321.985 540.535C312.456 477.544 303.765 477.031 301.403 468.98L318.501 463.013V463.02Z" fill="#01514F"/>
<path d="M275.898 434.873L269.715 438.089L276.043 440.135L271.661 443.477L276.202 445.72L273.179 448.923L276.353 450.93L273.852 453.35L276.584 454.955L274.393 457.258L276.565 458.481L274.671 460.632L276.736 462.06L275.172 464.073L276.782 466.158L275.291 467.276L276.835 468.19L275.225 465.974L276.729 464.073L274.882 462.389L276.611 460.284L274.525 458.823L276.505 456.679L274.143 455.317L276.4 453.028C276.4 453.028 273.608 451.456 273.602 451.581L276.261 448.233L272.612 446.299L276.221 443.161L270.685 440.826L276.149 437.195C276.149 437.195 274.163 436.721 268.395 435.393L275.885 434.879L275.898 434.873Z" stroke="#3B2C21" stroke-width="0.5" stroke-linecap="round" stroke-linejoin="round"/>
<path d="M252.354 332.374C252.275 335.321 250.301 337.906 248.064 339.649C247.009 340.57 246.039 341.452 245.418 342.458C243.425 345.754 244.118 349.253 246.54 352.174C248.559 354.667 249.912 358.324 249.239 361.686C248.955 363.363 248.309 365.165 247.187 366.672C246.078 368.185 244.673 369.237 243.57 370.079C241.287 371.783 240.509 372.822 240.132 374.868C239.347 378.538 243.062 381.045 244.079 384.972C245.101 388.813 244.356 392.635 241.954 395.806C240.74 397.345 239.268 398.384 238.14 399.187C235.784 400.772 235.025 401.66 234.497 403.686C233.52 407.653 237.044 409.961 237.942 413.928C238.786 417.566 237.955 421.21 235.606 424.078C232.86 427.387 228.446 427.893 227.363 432.215C225.562 438.161 232.049 441.233 229.759 447.64C229.818 446.232 229.673 444.851 229.145 443.641C228.056 440.97 225.674 439.286 224.665 436.398C223.576 433.241 224.044 429.761 225.951 426.946C227.568 424.532 230.386 423.223 231.831 421.131C233.566 418.21 233.237 415.513 230.953 412.494C230.175 411.349 229.191 409.889 228.637 408.047C227.581 404.291 228.248 400.489 230.577 397.325C231.758 395.779 233.21 394.714 234.332 393.891C236.661 392.247 237.367 391.352 237.816 389.359C238.747 385.827 235.071 383.117 234.127 379.269C232.61 373.677 235.401 368.106 240.185 365.363C243.445 363.422 244.778 361.041 244.27 357.686C243.716 355.213 241.604 352.943 241.01 350.102C239.895 345.129 242.548 340.307 246.989 338.163C249.483 336.847 251.469 335.11 252.334 332.361L252.354 332.374Z" fill="#81624C"/>
<path d="M267.294 323.573C267.399 325.211 267.149 326.921 266.429 328.493C265.704 330.065 264.549 331.401 263.467 332.624C261.315 334.907 259.83 337.314 259.989 340.439C260.081 343.563 261.533 345.484 263.777 347.675C266.555 350.234 268.673 353.917 268.521 357.93C268.574 362.107 266.344 365.672 263.486 368.31C262.331 369.468 261.46 370.454 260.939 371.448C259.923 373.303 259.883 376.171 260.834 378.039C262.233 380.716 265.162 382.637 266.634 385.926C268.475 389.997 268.304 394.471 266.139 398.384C263.816 402.68 259.032 404.094 258.794 409.008C258.366 413.882 262.978 415.994 264.819 420.401C267.32 426.367 265.195 432.518 260.273 436.3C259.032 437.366 257.989 438.319 257.263 439.411C255.792 441.608 255.455 444.838 256.399 447.358C256.881 448.7 257.798 449.949 258.775 451.265C259.758 452.574 260.807 453.995 261.401 455.62C261.995 457.244 262.107 458.974 261.87 460.599C261.513 454.396 256.835 453.186 254.056 448.463C252.261 445.082 252.215 441.01 253.938 437.523C255.422 434.478 258.478 432.524 259.85 429.834C260.886 427.768 260.9 424.762 259.797 422.749C259.263 421.717 258.392 420.723 257.263 419.539C254.419 416.796 252.334 412.994 252.532 408.771C252.525 404.509 254.914 400.785 257.851 398.148C259.032 397.01 259.91 396.082 260.431 395.141C261.454 393.379 261.566 390.557 260.688 388.715C259.362 386.038 256.465 384.031 255.04 380.762C253.271 376.868 253.509 372.237 255.673 368.468C258.108 364.172 263.018 362.771 263.341 357.732C263.922 350.589 255.911 349.385 256.749 340.32C257.58 331.197 266.093 331.795 267.281 323.58L267.294 323.573Z" fill="#81624C"/>
<path d="M264.437 320.659C264.338 322.297 263.882 323.967 262.985 325.454C262.081 326.934 260.767 328.125 259.547 329.217C257.138 331.236 255.383 333.466 255.152 336.591C254.855 339.715 256.036 341.814 257.983 344.287C260.405 347.181 262.021 351.115 261.381 355.075C260.906 359.239 258.299 362.488 255.139 364.791C253.852 365.81 252.869 366.692 252.228 367.619C250.994 369.356 250.599 372.217 251.298 374.21C252.341 377.052 255 379.341 256.036 382.801C257.329 387.07 256.61 391.464 254.004 395.095C251.173 399.101 246.256 399.963 245.425 404.831C244.382 409.633 248.672 412.33 249.939 416.954C251.648 423.164 248.79 429.044 243.478 432.208C242.119 433.123 240.971 433.952 240.119 434.958C238.39 436.977 237.658 440.155 238.272 442.786C238.575 444.18 239.321 445.542 240.126 446.976C241.908 449.785 243.056 453.357 242 456.646C242.416 450.41 237.962 448.64 235.81 443.569C234.471 439.984 234.933 435.945 237.044 432.689C238.885 429.827 242.145 428.248 243.835 425.729C245.115 423.789 245.498 420.789 244.673 418.638C244.277 417.539 243.538 416.441 242.574 415.112C240.113 412.02 238.542 407.982 239.255 403.818C239.776 399.595 242.574 396.174 245.808 393.898C248.196 392.089 249.463 390.918 249.965 388.116C250.394 385.301 249.569 383.788 247.893 381.308C246.995 379.953 245.867 378.249 245.214 376.157C243.973 371.928 244.765 367.58 247.365 364.034C250.302 360.041 255.343 359.212 256.28 354.233C257.534 349.391 253.284 346.339 252.057 341.768C251.1 338.005 251.958 334.045 254.38 331.072C256.63 328.322 259.943 327.388 262.193 324.869C263.262 323.718 263.968 322.244 264.443 320.665L264.437 320.659Z" fill="#81624C"/>
<path d="M276.843 468.19C276.843 468.19 306.961 467.375 316.265 458.619C319.486 455.593 321.294 464.237 317.777 465.335C289.606 474.17 276.843 468.993 276.843 468.184V468.19Z" fill="#261B14"/>
<path d="M275.524 467.572C275.524 467.572 274.706 463.691 273.465 460.842C272.574 458.797 271.182 463.664 271.828 465.335C272.277 466.493 273.736 467.229 275.524 467.572Z" fill="#261B14"/>
<path d="M285.843 363.778C289.75 362.995 297.339 354.102 296.521 344.327C296.342 342.577 295.326 340.761 294.871 338.709C294.521 337.15 294.554 332.835 294.02 331.19C292.97 327.987 285.758 320.179 277.766 321.843L270.415 319.061C262.424 320.725 260.708 333.802 262.378 341.768C262.378 341.768 260.543 344.307 262.938 348.898C264.1 351.115 267.234 355.74 268.495 358.693C271.84 362.225 283.375 364.159 285.85 363.778H285.843Z" fill="#F0D6C8"/>
<path opacity="0.31" d="M264.048 338.36C269.538 333.216 268.594 324.829 268.594 324.829C268.594 324.829 273.669 329.236 279.7 330.598C285.514 331.913 288.431 332.466 293.789 333.347C293.769 333.288 293.75 333.222 293.73 333.163C292.681 329.96 285.23 319.586 277.239 321.257L272.336 319.797C264.345 321.461 255.832 325.566 257.224 334.676L263.507 349.588L264.048 338.366V338.36Z" fill="#D3AFA2"/>
<path d="M262.833 336.979C262.886 338.432 263.453 341.143 263.506 343.175C263.559 344.951 263.189 348.194 264.232 350.391C265.849 353.812 269.333 358.002 268.469 360.916C268.469 360.916 267.901 357.055 262.932 350.45C261.421 348.444 259.454 344.859 258.874 340.774C258.874 340.774 258.458 338.386 258.88 336.452L262.833 336.979Z" fill="#92745A"/>
<g opacity="0.55">
<path d="M276.268 321.842C276.611 321.77 276.947 321.73 277.284 321.704L272.856 320.388C272.586 320.448 272.322 320.513 272.058 320.599L276.261 321.849L276.268 321.842Z" fill="#D3AFA2"/>
<path opacity="0.32" d="M287.837 362.817C291.473 361.33 297.94 352.095 296.521 344.333C296.184 342.504 295.3 340.577 294.812 338.393C294.482 336.939 294.112 334.321 293.611 332.795C292.608 329.73 286.372 321.047 278.77 321.704C285.758 322.297 290.562 330.111 291.994 333.676C293.723 337.965 281.554 338.084 284.979 346.227C288.094 353.621 268.462 350.207 268.462 356.061L268.482 358.693C269.161 359.317 269.234 360.35 273.174 361.613C277.113 362.876 285.105 363.731 287.83 362.81L287.837 362.817Z" fill="#D3AFA2"/>
</g>
<path d="M246.117 335.407C246.117 335.407 244.349 329.329 256.313 321.001C264.555 315.265 270.322 314.397 270.322 314.397C270.322 314.397 287.81 312.72 297.537 322.541C303.746 328.81 295.141 332.25 295.141 332.25C295.141 332.25 294.613 333.269 293.61 332.796C287.579 331.809 284.537 331.243 278.228 329.809C271.913 328.382 267.406 322.968 267.406 322.968C267.406 322.968 268.752 328.652 265.571 333.802L246.124 335.401L246.117 335.407Z" fill="#92745A"/>
<path d="M267.4 316.449C272.065 320.231 277.496 323.218 283.475 323.191C288.299 322.908 293.835 323.704 297.379 327.335C298.527 328.559 299.471 330.026 299.689 331.644C298.758 330.348 297.59 329.381 296.323 328.645C292.397 326.375 287.909 326.329 283.468 326.48C276.724 326.428 270.449 322.297 267.4 316.442V316.449Z" fill="#81624C"/>
<path d="M284.755 350.313L279.759 354.753C279.515 354.97 279.819 355.529 280.221 355.608L284.88 356.502C284.979 356.522 285.071 356.502 285.131 356.45C285.071 356.502 285.038 356.595 285.045 356.693L285.401 361.41C285.434 361.811 285.956 362.179 286.2 361.962L291.195 357.522C291.255 357.469 291.288 357.377 291.281 357.279L291.083 354.654L291.888 355.082C292.68 355.503 293.465 355.509 293.94 355.088L301.714 348.188C302.123 347.826 302.249 347.188 302.044 346.471L301.404 344.175C301.12 343.143 300.229 342.156 299.239 341.748L297.022 340.853C296.329 340.571 295.683 340.623 295.273 340.985L287.5 347.885C287.031 348.306 286.939 349.083 287.276 349.918L287.612 350.76L285.019 350.26C284.92 350.24 284.827 350.26 284.768 350.313H284.755Z" fill="#AAB0C3"/>
<path d="M271.834 334.959C271.834 334.959 271.391 337.011 269.9 337.84C268.409 338.669 266.422 337.952 266.422 337.952C266.422 337.952 266.865 335.9 268.356 335.071C269.847 334.242 271.834 334.959 271.834 334.959Z" fill="#3B2C21"/>
<path d="M275.819 334.735C275.819 334.735 275.377 336.788 273.886 337.617C272.395 338.445 270.408 337.728 270.408 337.728C270.408 337.728 270.85 335.676 272.342 334.847C273.833 334.018 275.819 334.735 275.819 334.735Z" fill="#3B2C21"/>
<path d="M279.844 334.512C279.844 334.512 279.402 336.565 277.911 337.393C276.419 338.222 274.433 337.505 274.433 337.505C274.433 337.505 274.875 335.453 276.367 334.624C277.858 333.795 279.844 334.512 279.844 334.512Z" fill="#3B2C21"/>
<path d="M283.607 333.656C283.607 333.656 283.429 335.748 282.049 336.755C280.67 337.761 278.611 337.301 278.611 337.301C278.611 337.301 278.79 335.209 280.169 334.202C281.548 333.196 283.607 333.656 283.607 333.656Z" fill="#3B2C21"/>
<path d="M287.446 333.124C287.446 333.124 287.328 335.222 285.975 336.268C284.622 337.314 282.557 336.906 282.557 336.906C282.557 336.906 282.675 334.808 284.028 333.762C285.381 332.716 287.446 333.124 287.446 333.124Z" fill="#3B2C21"/>
<path d="M291.373 332.032C291.373 332.032 291.426 334.13 290.166 335.281C288.905 336.432 286.814 336.196 286.814 336.196C286.814 336.196 286.523 334.064 287.784 332.913C289.044 331.762 291.373 332.032 291.373 332.032Z" fill="#3B2C21"/>
<path d="M295.121 330.46C295.121 330.46 295.372 332.545 294.23 333.814C293.089 335.084 290.977 335.051 290.977 335.051C290.977 335.051 290.726 332.966 291.868 331.696C293.009 330.427 295.121 330.46 295.121 330.46Z" fill="#3B2C21"/>
<path d="M298.301 328.657C298.301 328.657 298.942 330.657 298.051 332.117C297.166 333.571 295.088 333.933 295.088 333.933C295.088 333.933 294.448 331.933 295.339 330.473C296.223 329.019 298.301 328.657 298.301 328.657Z" fill="#3B2C21"/>
<path d="M301.053 327.038C301.053 327.038 301.864 328.979 301.106 330.505C300.347 332.031 298.308 332.571 298.308 332.571C298.308 332.571 297.496 330.63 298.255 329.104C299.014 327.578 301.053 327.038 301.053 327.038Z" fill="#3B2C21"/>
<path d="M300.064 328.27C300.064 328.27 298.553 329.736 296.85 329.598C295.148 329.46 293.894 327.77 293.894 327.77C293.894 327.77 295.405 326.303 297.108 326.441C298.81 326.579 300.064 328.27 300.064 328.27Z" fill="#3B2C21"/>
<path d="M296.758 330.052C296.758 330.052 295.022 331.453 293.34 331.163C291.657 330.874 290.562 329.078 290.562 329.078C290.562 329.078 292.198 327.756 293.881 328.045C295.564 328.335 296.751 330.052 296.751 330.052H296.758Z" fill="#3B2C21"/>
<path d="M293.412 331.65C293.412 331.65 291.419 332.913 289.756 332.525C288.093 332.13 287.11 330.275 287.11 330.275C287.11 330.275 288.826 329.052 290.489 329.446C292.151 329.841 293.418 331.657 293.418 331.657L293.412 331.65Z" fill="#3B2C21"/>
<path d="M289.388 332.735C289.388 332.735 287.665 333.952 286.009 333.551C284.346 333.149 283.376 331.288 283.376 331.288C283.376 331.288 285.098 330.071 286.755 330.472C288.418 330.873 289.388 332.735 289.388 332.735Z" fill="#3B2C21"/>
<path d="M285.566 333.637C285.566 333.637 283.844 334.854 282.187 334.452C280.524 334.051 279.554 332.189 279.554 332.189C279.554 332.189 281.277 330.973 282.933 331.374C284.596 331.775 285.566 333.637 285.566 333.637Z" fill="#3B2C21"/>
<path d="M281.481 333.992C281.481 333.992 279.759 335.209 278.103 334.808C276.44 334.407 275.47 332.545 275.47 332.545C275.47 332.545 277.192 331.328 278.848 331.729C280.511 332.131 281.481 333.992 281.481 333.992Z" fill="#3B2C21"/>
<path d="M277.435 334.354C277.435 334.354 275.713 335.571 274.056 335.169C272.4 334.768 271.423 332.907 271.423 332.907C271.423 332.907 273.146 331.69 274.802 332.091C276.458 332.492 277.435 334.354 277.435 334.354Z" fill="#3B2C21"/>
<path d="M273.417 334.696C273.417 334.696 271.695 335.913 270.039 335.512C268.376 335.11 267.406 333.249 267.406 333.249C267.406 333.249 269.128 332.032 270.784 332.433C272.441 332.834 273.417 334.696 273.417 334.696Z" fill="#3B2C21"/>
<path d="M269.333 335.492C269.333 335.492 267.492 336.518 265.881 335.939C264.271 335.367 263.506 333.406 263.506 333.406C263.506 333.406 265.347 332.38 266.957 332.959C268.567 333.531 269.333 335.492 269.333 335.492Z" fill="#3B2C21"/>
<path d="M265.281 335.492C265.281 335.492 263.44 336.518 261.83 335.939C260.22 335.367 259.455 333.407 259.455 333.407C259.455 333.407 261.296 332.381 262.906 332.959C264.516 333.532 265.281 335.492 265.281 335.492Z" fill="#3B2C21"/>
<path d="M261.421 335.445C261.421 335.445 259.488 336.281 257.943 335.544C256.399 334.807 255.838 332.788 255.838 332.788C255.838 332.788 257.772 331.952 259.316 332.689C260.86 333.426 261.421 335.445 261.421 335.445Z" fill="#3B2C21"/>
<path d="M257.963 334.965C257.963 334.965 256.03 335.801 254.485 335.064C252.941 334.327 252.38 332.308 252.38 332.308C252.38 332.308 254.314 331.472 255.858 332.209C257.402 332.946 257.963 334.965 257.963 334.965Z" fill="#3B2C21"/>
<path d="M254.532 334.373C254.532 334.373 252.598 335.209 251.054 334.472C249.51 333.735 248.949 331.716 248.949 331.716C248.949 331.716 250.883 330.881 252.427 331.617C253.971 332.354 254.532 334.373 254.532 334.373Z" fill="#3B2C21"/>
<path d="M250.704 333.781C250.704 333.781 247.279 334.018 245.873 333.045C244.468 332.071 245.629 330.242 245.629 330.242C245.629 330.242 247.675 329.736 249.074 330.716C250.473 331.696 250.697 333.781 250.697 333.781H250.704Z" fill="#3B2C21"/>
<path d="M301.43 327.842C301.43 327.842 301.47 328.282 299.787 327.986C298.104 327.69 297.016 325.888 297.016 325.888C297.016 325.888 298.659 324.572 300.341 324.868C302.024 325.164 301.43 327.842 301.43 327.842Z" fill="#3B2C21"/>
<path d="M267.532 335.301C267.532 335.301 267.09 337.353 265.598 338.182C264.107 339.011 262.121 338.294 262.121 338.294C262.121 338.294 262.563 336.241 264.054 335.413C265.545 334.584 267.532 335.301 267.532 335.301Z" fill="#3B2C21"/>
<path d="M263.67 335.242C263.67 335.242 263.155 337.281 261.631 338.05C260.107 338.82 258.153 338.037 258.153 338.037C258.153 338.037 258.668 335.998 260.192 335.228C261.717 334.459 263.67 335.242 263.67 335.242Z" fill="#3B2C21"/>
<path d="M260.081 335.031C260.081 335.031 259.421 337.024 257.844 337.689C256.266 338.353 254.373 337.432 254.373 337.432C254.373 337.432 255.032 335.439 256.61 334.775C258.187 334.11 260.081 335.031 260.081 335.031Z" fill="#3B2C21"/>
<path d="M256.517 334.584C256.517 334.584 255.758 336.544 254.155 337.13C252.551 337.715 250.704 336.702 250.704 336.702C250.704 336.702 251.462 334.742 253.066 334.156C254.67 333.571 256.517 334.584 256.517 334.584Z" fill="#3B2C21"/>
<path d="M253.086 333.828C253.086 333.828 252.327 335.788 250.723 336.373C249.12 336.959 247.272 335.946 247.272 335.946C247.272 335.946 248.031 333.985 249.634 333.4C251.238 332.815 253.086 333.828 253.086 333.828Z" fill="#3B2C21"/>
<path d="M249.588 333.018C249.588 333.018 248.909 334.788 247.457 335.314C246.005 335.84 245.108 335.643 245.108 335.643C245.108 335.643 245.029 333.163 246.474 332.637C247.919 332.111 249.588 333.025 249.588 333.025V333.018Z" fill="#3B2C21"/>
<path d="M272.811 362.363L268.693 366.1C268.495 366.284 268.818 366.823 269.188 366.922L273.497 368.093C273.589 368.119 273.669 368.106 273.721 368.06C273.669 368.106 273.649 368.185 273.669 368.277L274.434 372.665C274.5 373.039 275.008 373.414 275.206 373.237L279.324 369.501C279.377 369.454 279.396 369.376 279.377 369.283L278.948 366.843L279.72 367.297C280.479 367.744 281.191 367.81 281.581 367.455L287.982 361.64C288.318 361.331 288.371 360.752 288.12 360.074L287.322 357.904C286.965 356.93 286.068 355.95 285.131 355.503L283.039 354.509C282.386 354.2 281.798 354.194 281.462 354.503L275.061 360.318C274.672 360.673 274.665 361.383 275.048 362.179L275.43 362.982L273.035 362.331C272.943 362.304 272.864 362.317 272.811 362.363Z" fill="#9199AF"/>
<path d="M272.91 367.619L362.18 287.335" stroke="#0F4961" stroke-width="3" stroke-miterlimit="10"/>
<path d="M283.574 361.896C283.574 361.896 287.46 359.074 288.094 359.686C288.529 360.114 289.579 362.521 286.853 364.1C287.5 365.047 287.942 365.725 287.678 366.646C287.619 366.981 287.269 367.83 286.853 368.139C286.721 369.257 285.131 371.349 283.362 371.954C278.921 373.48 272.646 362.666 276.559 357.996L283.574 361.89V361.896Z" fill="#F0D6C8"/>
<path d="M291.274 331.182H291.267V331.211C291.267 331.211 291.267 331.189 291.274 331.182Z" fill="#261B14"/>
<path d="M289.026 331C289.026 331 289.005 330.986 288.991 330.979L289.005 331.007H289.026V331Z" fill="#261B14"/>
<path d="M301.133 329.183C300.368 330.729 298.302 331.268 298.302 331.268C298.302 331.268 298.21 331.038 298.111 330.676C298.084 330.722 298.065 330.768 298.038 330.808C297.141 332.281 295.036 332.643 295.036 332.643C295.036 332.643 294.864 332.097 294.824 331.367C294.686 331.775 294.481 332.176 294.171 332.525C293.016 333.807 290.885 333.775 290.885 333.775C290.885 333.775 290.832 333.367 290.878 332.801C290.7 333.235 290.436 333.669 290.06 334.011C288.786 335.176 286.668 334.939 286.668 334.939C286.668 334.939 286.655 334.426 286.794 333.768C286.576 334.222 286.266 334.669 285.83 335.005C284.464 336.064 282.372 335.656 282.372 335.656C282.372 335.656 282.392 335.32 282.498 334.86C282.319 335.097 282.102 335.32 281.851 335.505C280.452 336.524 278.373 336.057 278.373 336.057C278.373 336.057 278.393 335.833 278.466 335.498C278.241 335.748 277.971 335.978 277.661 336.149C276.149 336.985 274.143 336.261 274.143 336.261C274.143 336.261 274.176 336.11 274.256 335.873C274.064 336.064 273.846 336.235 273.596 336.373C272.084 337.208 270.078 336.485 270.078 336.485C270.078 336.485 270.105 336.353 270.171 336.143C269.993 336.314 269.788 336.471 269.564 336.596C268.053 337.432 266.046 336.708 266.046 336.708C266.046 336.708 266.112 336.393 266.291 335.958C266.013 336.34 265.664 336.695 265.215 336.945C263.704 337.781 261.698 337.057 261.698 337.057C261.698 337.057 261.77 336.721 261.955 336.268C261.737 336.478 261.487 336.662 261.203 336.807C259.659 337.59 257.686 336.794 257.686 336.794C257.686 336.794 257.758 336.524 257.917 336.143C257.752 336.261 257.567 336.36 257.375 336.439C255.778 337.11 253.865 336.175 253.865 336.175C253.865 336.175 253.937 335.965 254.076 335.662C253.937 335.741 253.792 335.814 253.64 335.866C252.017 336.458 250.15 335.432 250.15 335.432C250.15 335.432 250.209 335.274 250.334 335.037C250.282 335.064 250.229 335.084 250.169 335.11C248.546 335.702 246.679 334.676 246.679 334.676C246.679 334.676 246.797 334.367 247.041 333.959C246.982 333.985 246.929 334.011 246.87 334.031C246.203 334.274 245.662 334.36 245.26 334.386C245.115 335.044 245.128 335.623 245.128 335.623C245.128 335.623 246.032 335.82 247.477 335.294C247.536 335.274 247.589 335.248 247.649 335.222C247.411 335.623 247.292 335.932 247.292 335.932C247.292 335.932 249.14 336.945 250.743 336.36C250.796 336.34 250.849 336.314 250.902 336.294C250.783 336.531 250.717 336.689 250.717 336.689C250.717 336.689 252.565 337.702 254.168 337.116C254.32 337.064 254.465 336.991 254.597 336.912C254.452 337.215 254.386 337.419 254.386 337.419C254.386 337.419 256.28 338.34 257.857 337.675C258.049 337.596 258.227 337.491 258.392 337.379C258.233 337.754 258.167 338.024 258.167 338.024C258.167 338.024 260.121 338.807 261.645 338.037C261.929 337.892 262.173 337.708 262.384 337.504C262.206 337.952 262.133 338.28 262.133 338.28C262.133 338.28 264.113 338.997 265.611 338.169C266.053 337.925 266.403 337.57 266.673 337.195C266.502 337.623 266.436 337.938 266.436 337.938C266.436 337.938 268.415 338.655 269.913 337.827C270.138 337.702 270.336 337.55 270.514 337.379C270.448 337.583 270.422 337.715 270.422 337.715C270.422 337.715 272.401 338.432 273.899 337.603C274.143 337.465 274.361 337.294 274.552 337.103C274.48 337.333 274.44 337.491 274.44 337.491C274.44 337.491 276.42 338.208 277.918 337.379C278.228 337.208 278.492 336.985 278.716 336.735C278.644 337.064 278.624 337.287 278.624 337.287C278.624 337.287 280.683 337.748 282.062 336.741C282.313 336.557 282.524 336.34 282.702 336.103C282.597 336.564 282.577 336.892 282.577 336.892C282.577 336.892 284.642 337.294 285.995 336.254C286.424 335.919 286.734 335.478 286.945 335.031C286.807 335.682 286.82 336.189 286.82 336.189C286.82 336.189 288.912 336.425 290.172 335.274C290.548 334.932 290.806 334.505 290.984 334.077C290.944 334.636 290.99 335.044 290.99 335.044C290.99 335.044 293.096 335.077 294.244 333.807C294.554 333.465 294.752 333.071 294.89 332.663C294.93 333.38 295.102 333.919 295.102 333.919C295.102 333.919 297.18 333.557 298.065 332.104C298.091 332.058 298.111 332.018 298.137 331.972C298.23 332.327 298.322 332.558 298.322 332.558C298.322 332.558 300.361 332.025 301.12 330.492C301.463 329.801 301.483 329.025 301.404 328.381C301.351 328.644 301.272 328.913 301.146 329.163L301.133 329.183Z" fill="#261B14"/>
<path d="M301.463 326.486C301.463 326.486 301.463 326.559 301.358 326.631C301.417 326.94 301.463 327.309 301.463 327.69C301.51 327.427 301.576 326.868 301.496 326.309C301.477 326.42 301.463 326.493 301.463 326.493V326.486Z" fill="#261B14"/>
<path d="M284.181 359.403L352.077 468.447" stroke="#2A211A" stroke-miterlimit="10"/>
<path d="M244.033 214.075L281.832 357.199" stroke="#2A211A" stroke-miterlimit="10"/>
<path d="M305.509 359.627C306.783 358.246 309.627 358.357 315.797 353.588C321.967 348.813 320.97 340.143 325.082 339.189C331.483 337.709 336.933 346.563 330.572 355.147C324.211 363.732 320.97 373.947 315.797 377.157C310.742 380.295 304.757 378.999 302.513 372.112C300.269 365.225 304.229 361.015 305.509 359.634V359.627Z" fill="#F0D6C8"/>
<path opacity="0.13" d="M320.151 364.041C330.901 347.944 328.961 348.582 325.087 339.182C331.488 337.702 336.939 346.556 330.578 355.141C324.216 363.725 320.976 373.941 315.803 377.151C310.748 380.288 304.763 378.992 302.519 372.105C302.519 372.105 309.402 380.144 320.151 364.041Z" fill="#D3AFA2"/>
<path d="M264.042 363.001C264.042 363.001 223.702 357.101 220.429 356.68C214.418 355.634 205.192 358.219 204.051 365.415C202.817 373.23 209.204 377.631 217.301 379.012C221.089 379.361 265.982 373.506 265.982 373.506C265.982 373.506 277.576 372.908 278.579 367.672C279.846 361.061 264.035 363.001 264.035 363.001H264.042Z" fill="#F0D6C8"/>
<path opacity="0.55" d="M277.813 359.548C277.813 359.548 277.542 361.449 279.119 361.765C279.119 361.765 277.951 360.896 277.813 359.548Z" fill="#D3AFA2"/>
<path opacity="0.13" d="M221.517 373.658C207.573 373.355 205.171 357.982 204.01 365.172C202.75 372.98 209.131 377.407 217.221 378.808C221.009 379.17 263.031 373.651 263.031 373.651C263.031 373.651 270.303 373.756 270.917 368.474C270.917 368.474 252.46 376.979 221.517 373.658Z" fill="#D3AFA2"/>
<path opacity="0.45" d="M250.836 361.449C250.836 361.449 248.315 360.936 244.435 360.153C243.689 360.752 242.97 361.87 242.614 363.929C242.224 366.178 257.692 373.421 258.412 367.553C259.091 362.008 250.829 361.449 250.829 361.449H250.836Z" fill="#D3AFA2"/>
<path d="M243.235 359.778C243.235 359.778 240.034 361.061 239.487 367.304C239.064 372.152 240.47 376.269 242.021 377.157L275.675 372.454C278.585 373.434 281.199 372.211 282.512 371.474C271.195 368.606 275.147 360.982 272.125 361.475C266.311 362.423 243.228 359.778 243.228 359.778H243.235Z" fill="#3B2C21"/>
<path d="M320.106 345.451C320.106 345.451 319.625 349.582 322.31 352.95C327.002 358.851 330.81 356.489 331.978 354.496C331.978 354.496 335.686 344.156 335.719 342.689C334.776 342.498 329.008 335.736 327.332 333.039L320.106 345.445V345.451Z" fill="#3B2C21"/>
<path d="M327.205 356.581C329.33 357.134 331.528 355.845 332.102 354.207C332.102 354.207 336.919 341.149 337.295 339.735C337.077 339.636 336.82 339.452 336.543 339.189L327.199 356.581H327.205Z" fill="#261B14"/>
<path d="M327.714 323.737L335.349 325.98C335.349 325.98 336.781 326.454 337.237 329.052C337.989 329.927 338.378 331.23 338.372 332.637C339.078 334.65 338.121 336.781 335.692 338.058C333.33 339.301 332.538 340.143 330.063 340.564C327.325 341.024 325.154 343.28 323.748 340.103C311.824 324.481 327.701 323.737 327.701 323.737H327.714Z" fill="#F0D6C8"/>
<path d="M304.505 282.809C295.511 269.548 277.258 248.268 263.44 234.586C250.361 221.634 247.121 214.615 247.121 214.615C247.121 214.615 243.537 208.517 242.706 201.571C241.875 194.624 239.228 192.421 237.895 193.105C236.193 193.98 237.532 205.294 249.615 222.048C261.658 238.75 298.659 267.976 325.727 325.079L329.588 334.111C352.196 393.109 347.887 440.293 351.648 460.52C355.416 480.813 362.682 489.608 364.496 488.99C365.915 488.503 366.146 485.076 361.698 479.669C357.251 474.261 355.311 467.466 355.311 467.466C355.311 467.466 352.466 460.277 352.143 441.904C351.8 422.499 349.028 394.635 345.65 378.986C338.899 347.721 334.53 340.018 331.924 333.525H331.93L327.925 324.152C324.962 317.738 322.791 309.772 304.505 282.816V282.809Z" fill="#885E3B" stroke="#885E3B" stroke-width="3" stroke-miterlimit="10"/>
<path d="M325.318 329.487L326.235 331.638C327.819 335.341 329.191 339.124 330.333 342.952C332.339 349.662 335.883 358.279 337.301 361.555C337.301 361.555 337.658 362.291 339.42 362.225C341.261 362.153 341.716 361.305 341.716 361.305C342.369 357.16 337.565 340.794 334.602 334.427H334.622L329.178 321.692C325.173 313.022 322.018 306.497 316.363 299.715C316.363 299.715 315.776 298.985 314.04 300.024C311.803 301.366 312.443 302.432 312.443 302.432C315.043 307.983 315.809 310.726 320.124 319.015C321.919 322.462 323.774 325.895 325.311 329.487H325.318Z" fill="#3A2C22"/>
<path d="M246.349 211.208C245.465 210.734 243.353 212.497 243.043 213.813C243.043 213.813 243.023 213.99 243.254 214.03C243.247 214.142 243.353 214.345 243.399 214.28C243.795 213.721 244.983 211.688 246.659 211.681C246.785 211.681 246.791 212.037 246.916 212.083C246.916 212.083 244.521 212.701 243.749 214.701" stroke="#2A211A" stroke-width="2" stroke-linecap="round" stroke-linejoin="round"/>
<path d="M356.387 467.9C356.129 468.861 353.622 469.571 352.467 468.881C352.467 468.881 352.322 468.775 352.454 468.578C352.368 468.506 352.295 468.288 352.374 468.302C353.047 468.407 355.258 468.979 356.261 467.348C356.327 467.243 356.09 467.006 356.149 466.887C356.149 466.887 354.281 468.598 352.315 467.756" stroke="#2A211A" stroke-width="2" stroke-linecap="round" stroke-linejoin="round"/>
<path d="M275.061 360.317C274.474 359.548 272.831 354.838 277.787 352.45C279.932 351.417 280.413 352.924 281.238 352.924C282.103 352.878 286.095 351.898 286.326 353.608C286.352 353.799 286.359 353.897 286.346 354.068C286.326 354.108 285.013 355.463 284.274 355.976C283.561 356.673 283.33 356.818 283.33 356.818C283.33 356.818 285.983 356.134 286.814 355.956C289.553 355.371 289.097 358.554 288.695 359.041C287.969 359.929 287.25 360.258 285.415 361.12L283.574 361.889L276.269 361.495L275.068 360.311L275.061 360.317Z" fill="#F0D6C8"/>
<path opacity="0.3" d="M287.836 355.93C287.836 355.93 286.734 355.95 285.724 356.292C284.563 356.687 283.401 357.141 283.012 357.351C281.257 358.292 282.227 360.292 283.368 360.943C284.51 361.594 285.665 361.022 285.157 361.232C284.649 361.443 281.969 362.022 281.831 362.035C281.692 362.048 280.214 361.936 279.831 362.508C279.482 363.028 279.27 363.956 279.812 364.548C280.353 365.14 280.92 365.383 280.92 365.383C280.92 365.383 280.834 366.488 281.758 367.284C282.682 368.08 283.553 368.008 283.434 368.343C283.316 368.679 285.916 370.047 284.173 370.803C279.99 372.632 277.786 367.613 277.786 367.613C277.786 367.613 276.057 366.047 275.687 364.64C275.318 363.232 275.225 362.706 275.225 362.706C275.225 362.706 274.526 359.397 274.315 357.627C274.103 355.858 274.882 354.273 275.839 354.463C276.235 354.542 274.829 355.819 275.813 357.193C276.882 358.687 277.99 359.331 278.677 359.173C279.363 359.015 281.983 357.647 282.425 357.325C285.81 354.852 286.345 353.786 286.338 353.924C286.331 354.062 286.496 354.128 283.316 356.812C283.903 356.661 287.216 355.648 287.823 355.924L287.836 355.93Z" fill="#D3AFA2"/>
<path d="M322.17 341.3L319.366 331.242C319.366 331.242 318.461 325.428 320.138 322.461C320.91 321.093 326.473 321.362 327.04 323.04C327.608 324.717 324.546 327.414 324.546 327.414C324.546 327.414 329.31 333.472 329.409 338.222C329.502 342.761 331.851 347.194 331.824 347.951C330.887 349.444 323.655 346.596 322.177 341.3H322.17Z" fill="#F0D6C8"/>
<path opacity="0.55" d="M325.675 328.092C325.675 328.092 323.352 330.026 323.042 332.459C322.904 333.571 323.94 334.071 323.94 334.071C323.94 334.071 320.594 336.248 323.214 337.926C325.834 339.603 334.155 335.847 334.155 335.847L325.675 328.092Z" fill="#D3AFA2"/>
<path d="M323.517 331.802C323.253 333.229 325.015 333.295 325.015 333.295C325.015 333.295 320.897 335.722 323.517 337.4C324.269 337.88 326.13 337.544 326.599 337.314C326.077 337.683 327.285 339.143 328.968 338.702C332.445 337.801 334.749 335.532 334.749 335.532L337.421 341.774C337.421 341.774 342.621 334.92 341.618 331.835C341.512 331.506 341.46 330.94 341.176 330.499C340.734 329.822 339.777 329.19 339.242 328.302C338.952 327.816 338.912 326.618 338.616 326.118C338.167 325.355 337.626 324.842 337.144 324.336C336.834 324.007 336.821 323.04 336.596 322.645C335.884 321.395 335.131 321.172 335.131 321.172C335.131 321.172 338.688 318.396 336.438 316.146C334.194 313.897 330.637 316.508 329.892 317.626C329.192 318.324 328.79 319.297 328.565 320.31C328.737 321.159 329.535 321.974 329.562 322.533C329.562 322.533 324.698 327.987 323.537 331.802H323.517Z" fill="#F0D6C8"/>
<path d="M285.514 370.474C285.514 370.474 285.376 371.21 283.911 371.96C282.657 372.605 280.638 373.217 278.849 372.171C275.339 370.112 272.396 363.152 273.273 358.699C273.847 355.772 275.108 354.706 275.108 354.706C275.022 355.364 273.96 357.956 275.306 359.548C275.708 360.021 277.094 360.534 277.906 360.659C278.143 360.699 278.453 360.732 278.275 360.83C276.203 365.902 278.196 368.981 280.69 369.987C282.769 370.829 285.514 370.474 285.514 370.474Z" fill="#3B2C21"/>
<path d="M280.202 358.548C278.592 359.588 277.753 361.311 280.202 361.857C280.769 361.969 281.376 362.008 282.003 362.015C281.429 362.271 280.789 362.39 280.136 362.363C277.173 362.186 277.489 359.002 280.202 358.555V358.548Z" fill="#2A211A"/>
<path d="M283.738 370.145C283.738 370.145 283.712 371.086 281.191 372.21C279.937 372.77 278.024 373.263 274.605 372.559L241.749 377.341C241.749 377.341 240.053 375.611 239.591 371.737C239.591 371.737 248.342 375.184 262.074 373.566C271.438 372.46 272.058 364.337 272.058 364.337C272.058 364.337 274.434 372.441 280.987 371.954C282.828 371.599 283.738 370.138 283.738 370.138V370.145Z" fill="#261B14"/>
<path opacity="0.55" d="M311.837 376.249C309.877 376.249 308.187 375.565 307.402 374.579C307.402 374.605 307.396 374.631 307.396 374.657C307.396 376.032 309.276 377.151 311.599 377.151C313.658 377.151 315.367 376.269 315.73 375.111C314.833 375.802 313.427 376.249 311.843 376.249H311.837Z" fill="#D3AFA2"/>
<path opacity="0.55" d="M278.849 353.207C277.826 353.463 276.401 353.91 275.576 354.706C275.576 354.706 278.38 353.457 280.98 352.878C280.98 352.878 279.456 353.055 278.849 353.207Z" fill="#D3AFA2"/>
<path opacity="0.55" d="M283.118 364.773C283.118 364.773 285.17 364.357 286.847 364.251L283.118 364.773Z" fill="#D3AFA2"/>
<path opacity="0.55" d="M325.015 333.296C325.015 333.296 332.254 326.58 333.409 326.461C334.563 326.343 336.794 327.033 336.794 327.033C336.794 327.033 334.438 326.501 333.818 327.047C333.197 327.586 325.015 333.302 325.015 333.302V333.296Z" fill="#D3AFA2"/>
<path d="M327.331 336.795C327.331 336.795 334.775 331.19 335.791 330.999C336.807 330.809 338.609 330.973 338.609 330.973C338.609 330.973 337.414 331.401 335.791 331.651C334.174 331.901 327.331 336.795 327.331 336.795Z" fill="#D3AFA2"/>
<path d="M329.944 322.303C330.697 322.238 335.111 321.172 335.111 321.172L335.646 320.692C335.646 320.692 333.864 320.494 332.967 321.119C332.069 321.744 328.671 322.481 328.757 319.981C328.545 320.31 328.347 320.481 329.542 322.441L329.944 322.31V322.303Z" fill="#D3AFA2"/>
<path opacity="0.55" d="M322.091 327.04C322.091 327.04 323.345 327.263 325.192 325.908C327.033 324.553 327.033 323.034 327.033 323.034C327.033 323.034 327.555 324.066 325.912 325.954C324.598 327.461 324.539 327.408 324.539 327.408L322.091 327.033V327.04Z" fill="#D3AFA2"/>
<path opacity="0.55" d="M279.667 362.817C279.667 362.817 279.337 363.455 279.482 364.113C279.588 364.606 280.03 365.139 280.703 365.27C280.703 365.27 279.997 364.83 279.687 364.067C279.542 363.718 279.627 363.133 279.667 362.81V362.817Z" fill="#D3AFA2"/>
<path opacity="0.55" d="M282.109 358.397C282.109 358.397 281.501 360.015 283.29 360.922C283.29 360.922 281.831 359.942 282.109 358.397Z" fill="#D3AFA2"/>
<path opacity="0.55" d="M275.496 355.786C275.496 355.786 274.836 357.805 277.205 358.667C277.205 358.667 275.212 357.206 275.496 355.786Z" fill="#D3AFA2"/>
<path d="M281.001 366.106C281.001 366.106 281.113 367.816 282.624 367.836C282.624 367.836 281.437 367.435 281.001 366.106Z" fill="#D3AFA2"/>
<path opacity="0.55" d="M286.853 368.145C286.853 368.145 284.933 368.777 285.21 369.145C285.487 369.513 286.853 368.145 286.853 368.145Z" fill="#D3AFA2"/>
<path d="M365.427 283.999L357.541 284.723C357.093 284.723 356.921 285.308 357.297 285.558L361.831 287.65C361.897 287.696 361.956 287.762 361.989 287.834L363.507 292.571C363.698 292.978 364.305 292.886 364.371 292.439L365.889 284.519C365.929 284.243 365.711 283.993 365.434 283.999H365.427Z" fill="#0F4961"/>
</g>
</g>
<defs>
<filter id="filter0_d_3_114" x="147.078" y="415.467" width="236.749" height="168.519" filterUnits="userSpaceOnUse" color-interpolation-filters="sRGB">
<feFlood flood-opacity="0" result="BackgroundImageFix"/>
<feColorMatrix in="SourceAlpha" type="matrix" values="0 0 0 0 0 0 0 0 0 0 0 0 0 0 0 0 0 0 127 0" result="hardAlpha"/>
<feOffset dx="1.64409" dy="3.28818"/>
<feGaussianBlur stdDeviation="8.22045"/>
<feComposite in2="hardAlpha" operator="out"/>
<feColorMatrix type="matrix" values="0 0 0 0 0.0460417 0 0 0 0 0.603958 0 0 0 0 0.401381 0 0 0 0.24 0"/>
<feBlend mode="normal" in2="BackgroundImageFix" result="effect1_dropShadow_3_114"/>
<feBlend mode="normal" in="SourceGraphic" in2="effect1_dropShadow_3_114" result="shape"/>
</filter>
<filter id="filter1_d_3_114" x="89.5352" y="329.975" width="351.835" height="238.393" filterUnits="userSpaceOnUse" color-interpolation-filters="sRGB">
<feFlood flood-opacity="0" result="BackgroundImageFix"/>
<feColorMatrix in="SourceAlpha" type="matrix" values="0 0 0 0 0 0 0 0 0 0 0 0 0 0 0 0 0 0 127 0" result="hardAlpha"/>
<feOffset dx="1.64409" dy="3.28818"/>
<feGaussianBlur stdDeviation="8.22045"/>
<feComposite in2="hardAlpha" operator="out"/>
<feColorMatrix type="matrix" values="0 0 0 0 0.0460417 0 0 0 0 0.603958 0 0 0 0 0.401381 0 0 0 0.24 0"/>
<feBlend mode="normal" in2="BackgroundImageFix" result="effect1_dropShadow_3_114"/>
<feBlend mode="normal" in="SourceGraphic" in2="effect1_dropShadow_3_114" result="shape"/>
</filter>
<filter id="filter2_d_3_114" x="103.51" y="273.253" width="324.708" height="221.952" filterUnits="userSpaceOnUse" color-interpolation-filters="sRGB">
<feFlood flood-opacity="0" result="BackgroundImageFix"/>
<feColorMatrix in="SourceAlpha" type="matrix" values="0 0 0 0 0 0 0 0 0 0 0 0 0 0 0 0 0 0 127 0" result="hardAlpha"/>
<feOffset dx="1.64409" dy="3.28818"/>
<feGaussianBlur stdDeviation="8.22045"/>
<feComposite in2="hardAlpha" operator="out"/>
<feColorMatrix type="matrix" values="0 0 0 0 0.0460417 0 0 0 0 0.603958 0 0 0 0 0.401381 0 0 0 0.24 0"/>
<feBlend mode="normal" in2="BackgroundImageFix" result="effect1_dropShadow_3_114"/>
<feBlend mode="normal" in="SourceGraphic" in2="effect1_dropShadow_3_114" result="shape"/>
</filter>
<filter id="filter3_d_3_114" x="119.129" y="217.354" width="292.648" height="203.045" filterUnits="userSpaceOnUse" color-interpolation-filters="sRGB">
<feFlood flood-opacity="0" result="BackgroundImageFix"/>
<feColorMatrix in="SourceAlpha" type="matrix" values="0 0 0 0 0 0 0 0 0 0 0 0 0 0 0 0 0 0 127 0" result="hardAlpha"/>
<feOffset dx="1.64409" dy="3.28818"/>
<feGaussianBlur stdDeviation="8.22045"/>
<feComposite in2="hardAlpha" operator="out"/>
<feColorMatrix type="matrix" values="0 0 0 0 0.0460417 0 0 0 0 0.603958 0 0 0 0 0.401381 0 0 0 0.24 0"/>
<feBlend mode="normal" in2="BackgroundImageFix" result="effect1_dropShadow_3_114"/>
<feBlend mode="normal" in="SourceGraphic" in2="effect1_dropShadow_3_114" result="shape"/>
</filter>
<filter id="filter4_d_3_114" x="163.519" y="188.583" width="203.867" height="148.79" filterUnits="userSpaceOnUse" color-interpolation-filters="sRGB">
<feFlood flood-opacity="0" result="BackgroundImageFix"/>
<feColorMatrix in="SourceAlpha" type="matrix" values="0 0 0 0 0 0 0 0 0 0 0 0 0 0 0 0 0 0 127 0" result="hardAlpha"/>
<feOffset dx="1.64409" dy="3.28818"/>
<feGaussianBlur stdDeviation="8.22045"/>
<feComposite in2="hardAlpha" operator="out"/>
<feColorMatrix type="matrix" values="0 0 0 0 0.0460417 0 0 0 0 0.603958 0 0 0 0 0.401381 0 0 0 0.24 0"/>
<feBlend mode="normal" in2="BackgroundImageFix" result="effect1_dropShadow_3_114"/>
<feBlend mode="normal" in="SourceGraphic" in2="effect1_dropShadow_3_114" result="shape"/>
</filter>
<filter id="filter5_d_3_114" x="-65.8315" y="325.042" width="278.673" height="195.647" filterUnits="userSpaceOnUse" color-interpolation-filters="sRGB">
<feFlood flood-opacity="0" result="BackgroundImageFix"/>
<feColorMatrix in="SourceAlpha" type="matrix" values="0 0 0 0 0 0 0 0 0 0 0 0 0 0 0 0 0 0 127 0" result="hardAlpha"/>
<feOffset dx="1.64409" dy="3.28818"/>
<feGaussianBlur stdDeviation="8.22045"/>
<feComposite in2="hardAlpha" operator="out"/>
<feColorMatrix type="matrix" values="0 0 0 0 0.0460417 0 0 0 0 0.603958 0 0 0 0 0.401381 0 0 0 0.24 0"/>
<feBlend mode="normal" in2="BackgroundImageFix" result="effect1_dropShadow_3_114"/>
<feBlend mode="normal" in="SourceGraphic" in2="effect1_dropShadow_3_114" result="shape"/>
</filter>
<filter id="filter6_d_3_114" x="-135.706" y="221.464" width="417.599" height="281.139" filterUnits="userSpaceOnUse" color-interpolation-filters="sRGB">
<feFlood flood-opacity="0" result="BackgroundImageFix"/>
<feColorMatrix in="SourceAlpha" type="matrix" values="0 0 0 0 0 0 0 0 0 0 0 0 0 0 0 0 0 0 127 0" result="hardAlpha"/>
<feOffset dx="1.64409" dy="3.28818"/>
<feGaussianBlur stdDeviation="8.22045"/>
<feComposite in2="hardAlpha" operator="out"/>
<feColorMatrix type="matrix" values="0 0 0 0 0.0460417 0 0 0 0 0.603958 0 0 0 0 0.401381 0 0 0 0.24 0"/>
<feBlend mode="normal" in2="BackgroundImageFix" result="effect1_dropShadow_3_114"/>
<feBlend mode="normal" in="SourceGraphic" in2="effect1_dropShadow_3_114" result="shape"/>
</filter>
<filter id="filter7_d_3_114" x="-119.264" y="153.235" width="385.539" height="260.588" filterUnits="userSpaceOnUse" color-interpolation-filters="sRGB">
<feFlood flood-opacity="0" result="BackgroundImageFix"/>
<feColorMatrix in="SourceAlpha" type="matrix" values="0 0 0 0 0 0 0 0 0 0 0 0 0 0 0 0 0 0 127 0" result="hardAlpha"/>
<feOffset dx="1.64409" dy="3.28818"/>
<feGaussianBlur stdDeviation="8.22045"/>
<feComposite in2="hardAlpha" operator="out"/>
<feColorMatrix type="matrix" values="0 0 0 0 0.0460417 0 0 0 0 0.603958 0 0 0 0 0.401381 0 0 0 0.24 0"/>
<feBlend mode="normal" in2="BackgroundImageFix" result="effect1_dropShadow_3_114"/>
<feBlend mode="normal" in="SourceGraphic" in2="effect1_dropShadow_3_114" result="shape"/>
</filter>
<filter id="filter8_d_3_114" x="-100.358" y="85.827" width="346.903" height="238.393" filterUnits="userSpaceOnUse" color-interpolation-filters="sRGB">
<feFlood flood-opacity="0" result="BackgroundImageFix"/>
<feColorMatrix in="SourceAlpha" type="matrix" values="0 0 0 0 0 0 0 0 0 0 0 0 0 0 0 0 0 0 127 0" result="hardAlpha"/>
<feOffset dx="1.64409" dy="3.28818"/>
<feGaussianBlur stdDeviation="8.22045"/>
<feComposite in2="hardAlpha" operator="out"/>
<feColorMatrix type="matrix" values="0 0 0 0 0.0460417 0 0 0 0 0.603958 0 0 0 0 0.401381 0 0 0 0.24 0"/>
<feBlend mode="normal" in2="BackgroundImageFix" result="effect1_dropShadow_3_114"/>
<feBlend mode="normal" in="SourceGraphic" in2="effect1_dropShadow_3_114" result="shape"/>
</filter>
<filter id="filter9_d_3_114" x="-46.9243" y="51.3012" width="240.037" height="172.629" filterUnits="userSpaceOnUse" color-interpolation-filters="sRGB">
<feFlood flood-opacity="0" result="BackgroundImageFix"/>
<feColorMatrix in="SourceAlpha" type="matrix" values="0 0 0 0 0 0 0 0 0 0 0 0 0 0 0 0 0 0 127 0" result="hardAlpha"/>
<feOffset dx="1.64409" dy="3.28818"/>
<feGaussianBlur stdDeviation="8.22045"/>
<feComposite in2="hardAlpha" operator="out"/>
<feColorMatrix type="matrix" values="0 0 0 0 0.0460417 0 0 0 0 0.603958 0 0 0 0 0.401381 0 0 0 0.24 0"/>
<feBlend mode="normal" in2="BackgroundImageFix" result="effect1_dropShadow_3_114"/>
<feBlend mode="normal" in="SourceGraphic" in2="effect1_dropShadow_3_114" result="shape"/>
</filter>
<filter id="filter10_f_3_114" x="143.366" y="692.575" width="264.504" height="94.2485" filterUnits="userSpaceOnUse" color-interpolation-filters="sRGB">
<feFlood flood-opacity="0" result="BackgroundImageFix"/>
<feBlend mode="normal" in="SourceGraphic" in2="BackgroundImageFix" result="shape"/>
<feGaussianBlur stdDeviation="6.08055" result="effect1_foregroundBlur_3_114"/>
</filter>
<linearGradient id="paint0_linear_3_114" x1="264.22" y1="504.248" x2="264.22" y2="582.342" gradientUnits="userSpaceOnUse">
<stop stop-color="#F8744B"/>
<stop offset="1" stop-color="#D8B792"/>
</linearGradient>
<linearGradient id="paint1_linear_3_114" x1="71.8611" y1="429.442" x2="71.8611" y2="523.155" gradientUnits="userSpaceOnUse">
<stop stop-color="#F8744B"/>
<stop offset="1" stop-color="#D8B792"/>
</linearGradient>
<clipPath id="clip0_3_114">
<rect width="621" height="792" fill="white"/>
</clipPath>
<clipPath id="clip1_3_114">
<rect width="441.438" height="308.267" fill="white" transform="translate(-113.51 733.599)"/>
</clipPath>
<clipPath id="clip2_3_114">
<rect width="260" height="544" fill="white" transform="translate(136 192)"/>
</clipPath>
</defs>
</svg>
