<svg width="1080" height="932" viewBox="0 0 1080 932" fill="none" xmlns="http://www.w3.org/2000/svg">
<g clip-path="url(#clip0_276_3733)">
<rect x="1080" y="932" width="1080" height="932" transform="rotate(180 1080 932)" fill="url(#paint0_linear_276_3733)" fill-opacity="0.1"/>
<g clip-path="url(#clip1_276_3733)">
<path d="M434.115 720.179L467.819 692.814H467.799C484.173 679.548 484.053 654.545 467.578 641.4L32.0703 294.091C4.86743 272.384 -33.0841 302.07 -18.5383 333.686L39.6654 460.11H-262.711V1613.44L-62.2713 1444.4L324.783 1130.14H324.763C326.348 1128.86 327.777 1127.46 329.053 1125.98L601.793 904.901H601.773C618.173 891.636 618.053 866.633 601.551 853.488L434.115 720.179Z" fill="#3AEAAA"/>
<path d="M233.393 661.225C233.393 651.849 240.921 644.248 250.208 644.248H278.232C287.518 644.248 295.046 651.849 295.046 661.225V705.365C295.046 714.742 287.518 722.342 278.232 722.342H250.208C240.921 722.342 233.393 714.742 233.393 705.365V661.225Z" fill="url(#paint1_linear_276_3733)"/>
<g filter="url(#filter0_d_276_3733)">
<path d="M255.98 572.782L164.472 685.769C156.988 695.009 166.995 708.091 177.799 703.193L260.109 665.88C263.069 664.538 266.462 664.55 269.412 665.911L349.749 702.989C360.509 707.954 370.602 694.968 363.207 685.672L273.462 572.859C268.99 567.239 260.5 567.201 255.98 572.782Z" fill="#27C289"/>
</g>
<g filter="url(#filter1_d_276_3733)">
<path d="M256.51 487.246L106.92 670.366C99.4567 679.502 109.447 692.43 120.227 687.585L260.631 624.481C263.587 623.153 266.975 623.164 269.922 624.513L407.322 687.382C418.057 692.295 428.134 679.462 420.759 670.27L273.962 487.322C269.5 481.76 261.021 481.724 256.51 487.246Z" fill="#27C289"/>
</g>
<g filter="url(#filter2_d_276_3733)">
<path d="M256.807 430.528L120.895 597.173C113.434 606.321 123.414 619.273 134.189 614.423L260.926 557.369C263.878 556.04 267.262 556.052 270.206 557.401L394.182 614.22C404.912 619.137 414.979 606.281 407.606 597.077L274.244 430.605C269.784 425.038 261.315 425.001 256.807 430.528Z" fill="#27C289"/>
</g>
<g filter="url(#filter3_d_276_3733)">
<path d="M256.272 374.641L136.5 522.36C129.07 531.523 139.031 544.474 149.768 539.612L260.377 489.526C263.325 488.191 266.706 488.203 269.645 489.558L377.781 539.408C388.474 544.338 398.521 531.482 391.179 522.264L273.67 374.718C269.224 369.135 260.767 369.098 256.272 374.641Z" fill="#27C289"/>
</g>
<g filter="url(#filter4_d_276_3733)">
<path d="M255.902 345.893L180.88 439.243C173.477 448.453 183.407 461.467 194.107 456.579L259.993 426.48C262.932 425.137 266.304 425.148 269.234 426.511L333.442 456.374C344.098 461.33 354.113 448.412 346.799 439.146L273.245 345.969C268.814 340.356 260.381 340.318 255.902 345.893Z" fill="#27C289"/>
</g>
<path d="M34.458 589.815C34.458 578.563 43.5921 569.442 54.8597 569.442H88.8624C100.13 569.442 109.264 578.563 109.264 589.815V642.783C109.264 654.034 100.13 663.155 88.8624 663.155H54.8597C43.5921 663.155 34.458 654.034 34.458 642.783V589.815Z" fill="url(#paint2_linear_276_3733)"/>
<g filter="url(#filter5_d_276_3733)">
<path d="M62.4221 483.19L-47.9041 618.774C-56.9261 629.861 -44.8621 645.56 -31.8364 639.683L67.401 594.907C70.9695 593.297 75.0597 593.311 78.6173 594.945L175.475 639.437C188.448 645.396 200.616 629.813 191.701 618.658L83.4991 483.282C78.1082 476.537 67.8718 476.492 62.4221 483.19Z" fill="#33B988"/>
</g>
<g filter="url(#filter6_d_276_3733)">
<path d="M62.6458 379.592L-117.787 600.801C-126.789 611.838 -114.739 627.455 -101.736 621.602L67.6165 545.373C71.1818 543.768 75.2691 543.782 78.8234 545.411L244.553 621.357C257.502 627.292 269.657 611.789 260.761 600.686L83.6971 379.684C78.3145 372.966 68.0871 372.921 62.6458 379.592Z" fill="#33B988"/>
</g>
<g filter="url(#filter7_d_276_3733)">
<path d="M62.9037 311.352L-101.339 512.05C-110.356 523.068 -98.2948 538.666 -85.2748 532.825L67.8806 464.113C71.4485 462.512 75.5383 462.526 79.0953 464.151L228.914 532.58C241.881 538.503 254.047 523.02 245.136 511.935L83.9751 311.444C78.5862 304.74 68.3514 304.695 62.9037 311.352Z" fill="#33B988"/>
</g>
<g filter="url(#filter8_d_276_3733)">
<path d="M62.3389 243.973L-82.4494 422.377C-91.4302 433.443 -79.3894 449.085 -66.4102 443.213L67.3016 382.723C70.8654 381.111 74.9524 381.124 78.5052 382.761L209.227 442.967C222.153 448.92 234.298 433.394 225.423 422.261L83.3709 244.065C77.9961 237.323 67.7724 237.278 62.3389 243.973Z" fill="#33B988"/>
</g>
<g filter="url(#filter9_d_276_3733)">
<path d="M61.8707 209.466L-29.0215 322.016C-37.9894 333.121 -25.9596 348.812 -12.9962 342.918L66.8276 306.628C70.3886 305.009 74.4729 305.023 78.0229 306.666L155.814 342.671C168.724 348.646 180.858 333.071 171.996 321.899L82.8829 209.559C77.5142 202.79 67.2982 202.746 61.8707 209.466Z" fill="#33B988"/>
</g>
<g filter="url(#filter10_f_276_3733)">
<path d="M251.964 859.329C253.655 851.003 261.016 844.736 269.841 844.736H377.467C387.542 844.736 395.709 852.903 395.709 862.978V864.194C395.709 874.268 387.542 882.435 377.467 882.435H367.981C366.291 890.762 358.93 897.029 350.104 897.029H334.285C333.964 906.822 325.924 914.662 316.053 914.662H208.428C201.676 914.662 195.78 910.994 192.626 905.541H173.769C163.694 905.541 155.527 897.374 155.527 887.3V886.084C155.527 876.009 163.694 867.842 173.769 867.842H205.387C212.139 867.842 218.035 871.51 221.189 876.963H224.247C224.568 867.17 232.608 859.329 242.479 859.329H251.964Z" fill="#1C9D6E" fill-opacity="0.45"/>
</g>
<path d="M-12.9627 974.789C-35.6626 961.013 -51.9194 937.12 -56.3542 910.987C-60.789 884.866 -53.33 856.969 -36.4396 836.508C-20.9477 817.752 3.46148 805.251 27.6436 808.29C51.8257 811.329 73.7605 832.397 73.6051 856.695C89.4436 831.349 125.125 820.612 152.391 832.969C179.669 845.327 194.994 879.194 186.244 907.758C200.48 900.894 218.411 902.407 231.285 911.571C244.159 920.723 251.427 937.144 249.538 952.791C247.374 970.737 234.154 985.895 218.387 994.821C202.62 1003.76 184.475 1007.4 166.592 1010.44C131.305 1016.43 95.1096 1020.48 59.8106 1014.57C24.5117 1008.64 -10.1536 991.663 -12.9747 974.789H-12.9508H-12.9627Z" fill="#33B988"/>
<path d="M193.988 983.745V983.665C193.528 977.018 196.014 969.855 201.582 966.181C204.424 964.31 208.509 963.587 211.098 965.791C212.893 967.318 213.767 970.027 216.023 970.704C218.45 971.428 220.913 969.063 221.269 966.56C221.626 964.058 220.544 961.601 219.486 959.305L213.089 945.46C211.19 941.351 209.245 937.034 209.476 932.511C209.694 927.988 212.858 923.27 217.38 922.914C221.983 922.558 225.653 926.553 228.288 930.33C230.244 933.143 233.075 937.964 236.757 938.745C241.255 939.698 241.29 935.083 241.14 931.719C240.726 921.973 238.298 910.608 244.201 902.021C248.596 895.627 257.145 891.058 265.004 892.929C273.07 894.846 278.374 904.248 277.741 912.169C276.809 923.878 265.671 932.041 261.368 942.981C260.758 944.542 260.298 946.356 261.069 947.848C262.231 950.087 265.453 950.236 267.823 949.363C270.193 948.491 272.345 946.895 274.853 946.643C278.846 946.23 282.585 949.593 283.448 953.496C284.311 957.399 282.815 961.544 280.365 964.723C277.914 967.903 274.612 970.291 271.355 972.633L252.52 986.191C251.599 986.845 250.61 987.626 250.426 988.739C250.207 990.013 251.231 991.253 252.451 991.689C253.67 992.126 255.028 991.907 256.282 991.552C259.585 990.622 262.542 988.751 265.775 987.591C269.008 986.432 272.851 986.064 275.682 988.004C279.214 990.427 279.778 995.719 277.914 999.576C275.532 1004.5 270.308 1007.29 265.43 1009.77L238.275 1023.5C234.455 1025.43 228.461 1027.2 225.423 1030.22C224.364 1031.27 223.962 1032.94 222.915 1034.07C221.868 1035.21 219.382 1035.58 218.68 1036.38C216 1036.41 213.848 1034.02 213.008 1031.48C212.168 1028.94 212.272 1026.21 211.846 1023.57C210.638 1015.89 204.643 1008.84 200.777 1002.29C197.406 996.568 194.46 990.381 193.988 983.768V983.745Z" fill="#1C9D6E"/>
<g clip-path="url(#clip2_276_3733)">
<path fill-rule="evenodd" clip-rule="evenodd" d="M355.527 923.094C357.917 928.376 351.559 933.28 347.057 929.627L301.421 892.59C298.695 890.379 298.713 886.214 301.458 884.026L347.021 847.706C351.549 844.096 357.861 849.042 355.438 854.302L340.559 886.608C340.066 887.678 340.062 888.909 340.547 889.982L355.527 923.094ZM347.96 928.513C351.288 931.214 355.987 927.589 354.221 923.685L339.241 890.573C338.584 889.121 338.59 887.456 339.256 886.008L354.136 853.703C355.927 849.814 351.262 846.159 347.914 848.827L302.352 885.147C300.323 886.764 300.31 889.842 302.324 891.477L347.96 928.513Z" fill="#85DD91" fill-opacity="0.24"/>
<path fill-rule="evenodd" clip-rule="evenodd" d="M303.915 923.094C306.305 928.376 299.947 933.28 295.445 929.627L249.809 892.59C247.083 890.379 247.102 886.214 249.846 884.026L295.409 847.706C299.938 844.096 306.249 849.042 303.826 854.302L288.947 886.608C288.454 887.678 288.45 888.909 288.935 889.982L303.915 923.094ZM296.348 928.513C299.676 931.214 304.375 927.589 302.609 923.685L287.629 890.573C286.972 889.121 286.978 887.456 287.645 886.008L302.524 853.703C304.315 849.814 299.65 846.159 296.302 848.827L250.74 885.147C248.711 886.764 248.698 889.842 250.712 891.477L296.348 928.513Z" fill="#85DD91" fill-opacity="0.24"/>
<path fill-rule="evenodd" clip-rule="evenodd" d="M-37.7088 1008.64C-40.0985 1013.92 -33.7402 1018.82 -29.2385 1015.17L16.3977 978.133C19.1232 975.922 19.1049 971.757 16.3603 969.569L-29.2022 933.249C-33.7311 929.639 -40.0426 934.585 -37.6196 939.845L-22.7402 972.151C-22.2475 973.221 -22.2433 974.452 -22.7288 975.525L-37.7088 1008.64ZM-30.1419 1014.06C-33.4693 1016.76 -38.1689 1013.13 -36.4026 1009.23L-21.4225 976.116C-20.7657 974.664 -20.7714 972.999 -21.438 971.551L-36.3174 939.246C-38.1083 935.357 -33.4433 931.701 -30.0959 934.37L15.4666 970.69C17.4953 972.307 17.5087 975.385 15.4943 977.02L-30.1419 1014.06Z" fill="#85DD91" fill-opacity="0.24"/>
<path fill-rule="evenodd" clip-rule="evenodd" d="M252.303 923.094C254.693 928.376 248.334 933.28 243.833 929.627L198.197 892.59C195.471 890.379 195.489 886.214 198.234 884.026L243.796 847.706C248.325 844.096 254.637 849.042 252.214 854.302L237.334 886.608C236.842 887.678 236.838 888.909 237.323 889.982L252.303 923.094ZM244.736 928.513C248.064 931.214 252.763 927.589 250.997 923.685L236.017 890.573C235.36 889.121 235.366 887.456 236.032 886.008L250.912 853.703C252.703 849.814 248.038 846.159 244.69 848.827L199.128 885.147C197.099 886.764 197.085 889.842 199.1 891.477L244.736 928.513Z" fill="#85DD91" fill-opacity="0.24"/>
<path fill-rule="evenodd" clip-rule="evenodd" d="M13.903 1008.64C11.5133 1013.92 17.8716 1018.82 22.3733 1015.17L68.0095 978.133C70.735 975.922 70.7167 971.757 67.9721 969.569L22.4096 933.249C17.8807 929.639 11.5693 934.585 13.9922 939.845L28.8716 972.151C29.3643 973.221 29.3685 974.452 28.8831 975.525L13.903 1008.64ZM21.4699 1014.06C18.1425 1016.76 13.4429 1013.13 15.2092 1009.23L30.1893 976.116C30.8461 974.664 30.8404 972.999 30.1738 971.551L15.2944 939.246C13.5035 935.357 18.1685 931.701 21.5159 934.37L67.0784 970.69C69.1071 972.307 69.1206 975.385 67.1061 977.02L21.4699 1014.06Z" fill="#85DD91" fill-opacity="0.24"/>
<path fill-rule="evenodd" clip-rule="evenodd" d="M200.69 923.094C203.08 928.376 196.722 933.28 192.22 929.627L146.584 892.59C143.858 890.379 143.877 886.214 146.621 884.026L192.184 847.706C196.713 844.096 203.024 849.042 200.601 854.302L185.722 886.608C185.229 887.678 185.225 888.909 185.71 889.982L200.69 923.094ZM193.123 928.513C196.451 931.214 201.15 927.589 199.384 923.685L184.404 890.573C183.747 889.121 183.753 887.456 184.419 886.008L199.299 853.703C201.09 849.814 196.425 846.159 193.077 848.827L147.515 885.147C145.486 886.764 145.473 889.842 147.487 891.477L193.123 928.513Z" fill="#85DD91" fill-opacity="0.24"/>
<path fill-rule="evenodd" clip-rule="evenodd" d="M65.5168 1008.64C63.1271 1013.92 69.4854 1018.82 73.9871 1015.17L119.623 978.133C122.349 975.922 122.331 971.757 119.586 969.569L74.0234 933.249C69.4945 929.639 63.183 934.585 65.6059 939.845L80.4854 972.151C80.9781 973.221 80.9823 974.452 80.4968 975.525L65.5168 1008.64ZM73.0837 1014.06C69.7563 1016.76 65.0567 1013.13 66.823 1009.23L81.8031 976.116C82.4598 974.664 82.4542 972.999 81.7876 971.551L66.9081 939.246C65.1173 935.357 69.7823 931.701 73.1297 934.37L118.692 970.69C120.721 972.307 120.734 975.385 118.72 977.02L73.0837 1014.06Z" fill="#85DD91" fill-opacity="0.24"/>
<path fill-rule="evenodd" clip-rule="evenodd" d="M149.078 923.094C151.468 928.376 145.109 933.28 140.608 929.627L94.9714 892.59C92.246 890.379 92.2642 886.214 95.0089 884.026L140.571 847.706C145.1 844.096 151.412 849.042 148.989 854.302L134.109 886.608C133.617 887.678 133.612 888.909 134.098 889.982L149.078 923.094ZM141.511 928.513C144.838 931.214 149.538 927.589 147.772 923.685L132.792 890.573C132.135 889.121 132.141 887.456 132.807 886.008L147.687 853.703C149.477 849.814 144.812 846.159 141.465 848.827L95.9025 885.147C93.8739 886.764 93.8604 889.842 95.8748 891.477L141.511 928.513Z" fill="#85DD91" fill-opacity="0.24"/>
<path fill-rule="evenodd" clip-rule="evenodd" d="M117.129 1008.64C114.739 1013.92 121.097 1018.82 125.599 1015.17L171.235 978.133C173.961 975.922 173.942 971.757 171.198 969.569L125.635 933.249C121.106 929.639 114.795 934.585 117.218 939.845L132.097 972.151C132.59 973.221 132.594 974.452 132.109 975.525L117.129 1008.64ZM124.695 1014.06C121.368 1016.76 116.669 1013.13 118.435 1009.23L133.415 976.116C134.072 974.664 134.066 972.999 133.399 971.551L118.52 939.246C116.729 935.357 121.394 931.701 124.742 934.37L170.304 970.69C172.333 972.307 172.346 975.385 170.332 977.02L124.695 1014.06Z" fill="#85DD91" fill-opacity="0.24"/>
<path fill-rule="evenodd" clip-rule="evenodd" d="M97.4657 923.094C99.8554 928.376 93.497 933.28 88.9953 929.627L43.3591 892.59C40.6337 890.379 40.6519 886.214 43.3966 884.026L88.9591 847.706C93.4879 844.096 99.7994 849.042 97.3765 854.302L82.497 886.608C82.0043 887.678 82.0001 888.909 82.4856 889.982L97.4657 923.094ZM89.8988 928.513C93.2261 931.214 97.9257 927.589 96.1594 923.685L81.1794 890.573C80.5226 889.121 80.5282 887.456 81.1948 886.008L96.0743 853.703C97.8651 849.814 93.2001 846.159 89.8527 848.827L44.2902 885.147C42.2616 886.764 42.2481 889.842 44.2625 891.477L89.8988 928.513Z" fill="#85DD91" fill-opacity="0.24"/>
<path fill-rule="evenodd" clip-rule="evenodd" d="M168.741 1008.64C166.351 1013.92 172.71 1018.82 177.211 1015.17L222.847 978.133C225.573 975.922 225.555 971.757 222.81 969.569L177.247 933.249C172.719 929.639 166.407 934.585 168.83 939.845L183.71 972.151C184.202 973.221 184.206 974.452 183.721 975.525L168.741 1008.64ZM176.308 1014.06C172.98 1016.76 168.281 1013.13 170.047 1009.23L185.027 976.116C185.684 974.664 185.678 972.999 185.012 971.551L170.132 939.246C168.341 935.357 173.006 931.701 176.354 934.37L221.916 970.69C223.945 972.307 223.958 975.385 221.944 977.02L176.308 1014.06Z" fill="#85DD91" fill-opacity="0.24"/>
<path fill-rule="evenodd" clip-rule="evenodd" d="M45.8538 923.094C48.2435 928.376 41.8852 933.28 37.3835 929.627L-8.2527 892.59C-10.9781 890.379 -10.9599 886.214 -8.21524 884.026L37.3472 847.706C41.8761 844.096 48.1876 849.042 45.7647 854.302L30.8852 886.608C30.3925 887.678 30.3883 888.909 30.8738 889.982L45.8538 923.094ZM38.2869 928.513C41.6143 931.214 46.3139 927.589 44.5476 923.685L29.5676 890.573C28.9108 889.121 28.9164 887.456 29.583 886.008L44.4625 853.703C46.2533 849.814 41.5883 846.159 38.2409 848.827L-7.32158 885.147C-9.35026 886.764 -9.36373 889.842 -7.34927 891.477L38.2869 928.513Z" fill="#85DD91" fill-opacity="0.24"/>
<path fill-rule="evenodd" clip-rule="evenodd" d="M220.353 1008.64C217.963 1013.92 224.322 1018.82 228.824 1015.17L274.46 978.133C277.185 975.922 277.167 971.757 274.422 969.569L228.86 933.249C224.331 929.639 218.019 934.585 220.442 939.845L235.322 972.151C235.815 973.221 235.819 974.452 235.333 975.525L220.353 1008.64ZM227.92 1014.06C224.593 1016.76 219.893 1013.13 221.659 1009.23L236.639 976.116C237.296 974.664 237.291 972.999 236.624 971.551L221.745 939.246C219.954 935.357 224.619 931.701 227.966 934.37L273.529 970.69C275.557 972.307 275.571 975.385 273.556 977.02L227.92 1014.06Z" fill="#85DD91" fill-opacity="0.24"/>
<path fill-rule="evenodd" clip-rule="evenodd" d="M271.965 1008.64C269.576 1013.92 275.934 1018.82 280.436 1015.17L326.072 978.133C328.797 975.922 328.779 971.757 326.035 969.569L280.472 933.249C275.943 929.639 269.632 934.585 272.055 939.845L286.934 972.151C287.427 973.221 287.431 974.452 286.946 975.525L271.965 1008.64ZM279.532 1014.06C276.205 1016.76 271.505 1013.13 273.272 1009.23L288.252 976.116C288.909 974.664 288.903 972.999 288.236 971.551L273.357 939.246C271.566 935.357 276.231 931.701 279.578 934.37L325.141 970.69C327.17 972.307 327.183 975.385 325.169 977.02L279.532 1014.06Z" fill="#85DD91" fill-opacity="0.24"/>
<path fill-rule="evenodd" clip-rule="evenodd" d="M323.577 1008.64C321.188 1013.92 327.546 1018.82 332.048 1015.17L377.684 978.133C380.409 975.922 380.391 971.757 377.646 969.569L332.084 933.249C327.555 929.639 321.244 934.585 323.666 939.845L338.546 972.151C339.039 973.221 339.043 974.452 338.557 975.525L323.577 1008.64ZM331.144 1014.06C327.817 1016.76 323.117 1013.13 324.884 1009.23L339.864 976.116C340.52 974.664 340.515 972.999 339.848 971.551L324.969 939.246C323.178 935.357 327.843 931.701 331.19 934.37L376.753 970.69C378.781 972.307 378.795 975.385 376.78 977.02L331.144 1014.06Z" fill="#85DD91" fill-opacity="0.24"/>
</g>
<g clip-path="url(#clip3_276_3733)">
<path d="M221.689 538.963C221.689 538.963 218.429 530.05 220.231 511.75C220.732 506.698 222.224 496.752 224.744 496.062L254.704 507.165C254.704 507.165 262.035 533.431 261.243 535.793C260.451 538.154 221.689 538.957 221.689 538.957V538.963Z" fill="#147171"/>
<path d="M266.238 507.02C266.238 507.02 239.387 502.475 227.733 500.1C216.08 497.726 207.481 493.904 205.139 504.83C203.383 513.046 207.039 517.091 219.927 520.985C234.207 525.294 245.656 528.32 255.093 535.069C263.414 541.022 272.468 528.886 274.058 522.742C276.678 512.605 266.238 507.02 266.238 507.02Z" fill="#F0D6C8"/>
<path d="M364.504 858.825C362.617 853.721 379.642 852.011 386.116 855.648C392.642 859.319 395.4 866.43 395.4 866.43C395.4 866.43 397.901 874.185 387.238 874.185C379.761 874.185 365.646 861.91 364.504 858.819V858.825Z" fill="#261B14"/>
<path d="M364.503 852.392C364.668 846.965 374.587 847.084 380.763 850.761C387.125 854.55 393.974 864.903 393.974 864.903C393.974 864.903 395.961 869.936 389.553 871.271C383.667 872.501 364.292 859.141 364.497 852.392H364.503Z" fill="#3B2C21"/>
<path d="M256.459 855.693C256.775 849.194 252.235 846.412 249.061 845.925C238.107 844.254 233.936 849.174 231.772 850.082C224.176 853.266 206.676 861.113 210.14 866.053C211.876 868.527 225.82 865.185 237.427 862.139C241.875 860.975 242.079 858.199 244.884 857.463C246.309 857.088 246.791 859.035 247.451 859.002C254.565 857.699 256.459 855.686 256.459 855.686V855.693Z" fill="#3B2C21"/>
<path d="M209.85 864.468C211.586 866.942 225.529 863.6 237.137 860.554C241.591 859.39 241.789 856.614 244.594 855.877C246.019 855.502 246.501 857.45 247.161 857.417C254.274 856.114 256.168 854.101 256.168 854.101C256.201 853.43 256.168 852.812 256.109 852.22C256.386 853.24 256.525 854.384 256.465 855.687C256.465 855.687 254.571 857.699 247.458 859.002C246.804 859.035 246.323 857.088 244.891 857.463C242.086 858.199 241.888 860.969 237.434 862.14C225.82 865.185 211.876 868.52 210.147 866.054C209.751 865.494 209.639 864.896 209.745 864.271C209.784 864.337 209.811 864.402 209.857 864.468H209.85Z" fill="#261B14"/>
<path d="M237.097 714.444C226.017 746.393 206.458 791.255 181.171 800.951C181.171 800.951 185.652 833.683 210.114 852.273C220.586 860.232 226.427 864.784 242.95 867.507L244.362 861.456L290.687 871.112L290.813 874.776C290.813 874.776 306.214 876.605 331.027 873.184C349.022 870.704 391.908 861.304 391.908 861.304C391.908 861.304 377.054 806.766 372.752 781.329C366.694 745.525 357.482 706.629 349.147 663.3C340.08 616.156 318.792 602.862 318.792 602.862C318.792 602.862 304.096 608.091 293.406 606.769C282.716 605.447 272.87 604.815 272.87 604.815L237.09 714.431L237.097 714.444Z" fill="#147171"/>
<path d="M188.859 796.841C192 801.004 198.896 828.527 211.407 841.821C220.705 851.694 223.576 855.641 244.435 859.068L244.851 856.884L266.245 862.614L266.311 864.62C266.311 864.62 294.581 871.106 331.462 865.199C348.058 862.542 383.944 855.924 389.704 853.03C390.424 856.286 391.922 861.305 391.922 861.305C391.922 861.305 349.055 870.856 331.04 873.185C288.846 878.638 265.288 872.619 265.288 872.619L265.162 868.955L243.769 863.226L242.957 867.514C220.553 866.337 213.572 858.838 206.616 852.227C185.539 832.184 181.171 800.952 181.171 800.952C183.434 800.083 187.262 797.9 188.865 796.841H188.859Z" fill="#29ADA9"/>
<path d="M276.228 608.019L244.435 859.068L266.369 866.284L276.228 608.019Z" fill="#29ADA9"/>
<path opacity="0.15" d="M276.23 608.019L243.763 863.219L254.486 866.094L276.23 608.019Z" fill="#08422A"/>
<mask id="mask0_276_3733" style="mask-type:luminance" maskUnits="userSpaceOnUse" x="136" y="350" width="124" height="158">
<path d="M217.393 506.85C217.393 506.85 235.25 505.087 254.38 507.599C256.439 507.869 256.676 504.192 258.847 503.771C265.565 490.273 223.517 314.608 155.66 357.792C87.8025 400.977 217.386 506.85 217.386 506.85H217.393Z" fill="white"/>
</mask>
<g mask="url(#mask0_276_3733)">
<path d="M247.154 464.297L243.762 454.594C243.597 454.127 242.937 454.114 242.759 454.574L240.66 459.981C240.614 460.1 240.614 460.231 240.66 460.35C240.621 460.231 240.535 460.126 240.423 460.067L235.407 457.127C234.978 456.877 234.464 457.291 234.629 457.765L238.021 467.467C238.06 467.586 238.146 467.691 238.258 467.75L241.05 469.388L240.403 470.125C239.763 470.855 239.565 471.868 239.882 472.782L245.154 487.866C245.431 488.661 246.065 489.28 246.87 489.536L249.43 490.365C250.578 490.734 251.839 490.299 252.505 489.3L253.997 487.063C254.465 486.366 254.577 485.484 254.3 484.688L249.028 469.605C248.711 468.691 247.919 468.02 246.962 467.842L245.992 467.665L247.16 464.652C247.206 464.533 247.206 464.402 247.16 464.283L247.154 464.297Z" fill="#AAB0C3"/>
<path d="M239.063 455.825L286.688 592.062" stroke="#0F4961" stroke-width="2.5" stroke-miterlimit="10" stroke-linecap="round"/>
<path d="M224.981 473.723L220.005 464.731C219.761 464.297 219.108 464.395 219.009 464.882L217.854 470.566C217.828 470.691 217.854 470.822 217.907 470.927C217.847 470.816 217.748 470.73 217.63 470.684L212.186 468.632C211.717 468.454 211.288 468.954 211.526 469.388L216.501 478.38C216.561 478.492 216.66 478.578 216.778 478.624L219.807 479.768L219.293 480.604C218.784 481.426 218.758 482.465 219.227 483.314L226.967 497.299C227.376 498.035 228.102 498.535 228.94 498.66L231.606 499.048C232.801 499.219 233.969 498.581 234.457 497.483L235.553 495.029C235.896 494.26 235.856 493.378 235.447 492.641L227.706 478.657C227.238 477.808 226.347 477.275 225.377 477.269L224.394 477.255L225.04 474.091C225.067 473.966 225.04 473.835 224.988 473.73L224.981 473.723Z" fill="#AAB0C3"/>
<path d="M215.42 466.428L285.494 593.041" stroke="#0F4961" stroke-width="2.5" stroke-miterlimit="10" stroke-linecap="round"/>
<path d="M234.734 465.099L230.966 455.535C230.782 455.074 230.122 455.087 229.963 455.554L228.076 461.04C228.036 461.159 228.036 461.29 228.083 461.409C228.036 461.29 227.951 461.192 227.838 461.133L222.711 458.389C222.269 458.153 221.774 458.593 221.959 459.054L225.727 468.618C225.773 468.737 225.859 468.835 225.971 468.895L228.822 470.421L228.201 471.184C227.588 471.934 227.429 472.96 227.786 473.861L233.639 488.734C233.949 489.517 234.602 490.109 235.414 490.339L238.007 491.069C239.169 491.398 240.409 490.911 241.043 489.885L242.449 487.596C242.891 486.879 242.963 485.997 242.66 485.215L236.806 470.342C236.45 469.441 235.638 468.796 234.675 468.664L233.705 468.526L234.754 465.474C234.794 465.356 234.794 465.224 234.748 465.106L234.734 465.099Z" fill="#AAB0C3"/>
<path d="M226.241 456.731L279.197 591.238" stroke="#0F4961" stroke-width="2.5" stroke-miterlimit="10" stroke-linecap="round"/>
</g>
<path d="M246.554 586.989C247.168 591.239 246.554 595.554 242.12 596.422C242.12 596.422 242.879 594.85 240.358 589.989C228.447 574.485 244.113 575.728 240.919 563.217C237.718 550.705 246.046 543.391 253.668 538.095C261.29 532.807 254.354 517.335 253.305 507.337C252.256 497.331 249.953 472.171 261.191 467.658C272.429 463.139 294.819 455.943 300.778 478.808C300.778 478.808 303.523 485.386 300.158 499.897C296.799 514.408 305.166 532.122 309.614 542.035C314.055 551.949 328.573 549.969 318.232 573.531C318.232 573.531 317.671 592.758 295.697 595.08C287.455 594.771 284.941 580.971 274.402 597.238C262.59 583.819 246.561 586.983 246.561 586.983L246.554 586.989Z" fill="#72523D"/>
<path d="M300.545 473.013C300.545 473.013 301.581 459.501 293.669 452.397C287.44 446.799 282.068 446.51 276.756 446.911C271.444 447.312 266.013 451.279 266.013 451.279C266.013 451.279 253.363 446.891 247.028 460.08C245.622 463.014 244.784 467.902 246.111 471.177C246.144 476.631 247.18 480.623 247.18 480.623C247.18 480.623 248.486 503.087 265.993 503.962C283.494 504.837 292.712 498.048 296.903 486.59C299.899 478.387 300.545 473.006 300.545 473.006V473.013Z" fill="#92745A"/>
<path d="M321.22 586.989C321.774 580.53 313.479 576.589 316 566.979C318.151 562.526 320.883 559.033 319.643 556.513C316.673 550.488 312.437 551.251 311.948 544.89C311.302 536.51 315.796 533.582 311.843 526.669C307.897 519.756 296.276 514.487 296.276 504.481C296.104 497.101 293.056 496.733 287.46 494.147C276.967 489.299 293.61 478.656 288.793 470.427L293.92 466.349C293.92 466.349 300.486 467.467 306.188 475.847C311.064 483.017 310.002 487.017 312.113 495.18C313.988 502.429 319.188 502.679 322.52 512.033C325.866 521.413 319.353 529.445 328.584 537.371C336.239 543.943 326.255 549.337 329.983 556.619C333.065 562.644 335.685 563.506 334.015 573.537C332.933 580.036 330.881 585.279 330.815 585.7C330.828 580.53 323.226 573.55 323.8 569.406C321.088 570.551 325.344 583.47 321.227 586.989H321.22Z" fill="#72523D"/>
<path d="M298.125 466.546C301.774 471.059 298.435 474.308 299.181 478.926C299.478 480.393 300.157 482.005 301.081 483.228C301.682 483.912 302.401 484.392 303.219 484.886C308.789 487.945 316.12 490.497 315.394 498.351C315.216 501.324 314.418 504.1 314.226 506.883C314.147 508.284 314.207 509.382 314.669 510.349C315.025 511.093 315.757 511.829 316.371 512.382C324.521 518.638 329.721 520.953 325.326 532.418C324.56 534.668 323.485 537.247 323.788 539.384C324.184 541.443 326.329 543.423 327.88 545.14C330.651 548.008 334.036 551.85 332.921 556.382C331.879 561.355 327.207 564.894 326.382 569.762C326.243 575.241 332.004 580.03 330.81 585.707C330.869 582.766 329.028 580.411 327.49 578.063C324.527 573.847 322.304 570.117 324.712 564.96C325.814 562.315 327.438 559.862 328.368 557.303C328.784 556.125 328.968 555.027 328.764 554.185C328.223 552.041 326.091 550.238 324.409 548.561C322.119 546.39 319.374 543.739 318.654 540.457C317.631 535.181 320.7 530.873 321.386 526.044C321.432 525.413 321.459 524.676 321.228 524.097C320.482 522.163 318.179 520.611 316.358 519.216C314.213 517.605 311.574 515.697 310.201 513.184C308.301 509.566 309.211 505.488 310.016 501.943C310.412 500.199 310.769 498.713 310.868 497.095C310.868 496.345 310.868 495.634 310.531 494.957C309.548 492.832 307.199 491.319 305.126 489.984C300.421 487.089 297.518 485.202 297.063 479.156C296.772 474.236 300.778 471.539 298.125 466.553V466.546Z" fill="#81624C"/>
<path d="M289.883 478.794C293.842 482.326 291.282 485.708 292.496 489.753C292.919 490.97 293.658 492.338 294.582 493.292C295.156 493.818 295.855 494.173 296.561 494.515C301.491 496.62 308.321 498.6 308.796 505.126C309.086 508.191 308.36 511.276 308.347 514.138C308.373 515.69 308.479 516.585 309.284 517.552C309.515 517.815 310.03 518.295 310.3 518.519C318.146 524.103 322.924 526.702 318.925 537.378C318.265 539.331 317.348 541.588 317.546 543.364C317.81 545.028 319.664 546.863 320.911 548.383C323.148 550.968 325.768 554.099 325.385 558.039C324.811 563.203 319.724 566.433 318.503 571.142C318.179 574.681 320.72 578.26 321.386 581.779C321.65 583.095 321.756 584.522 321.301 585.772C321.367 584.45 320.984 583.226 320.436 582.088C315.876 573.761 312.656 572.241 318.252 562.854C319.176 561.131 320.555 558.881 320.238 557.151C319.796 555.382 318.041 553.783 316.629 552.303C314.543 550.238 312.009 547.62 311.396 544.535C310.465 539.654 313.138 535.707 313.771 531.3C313.903 529.898 313.461 529.234 312.234 528.063C310.412 526.425 308.162 525.136 306.13 523.347C301.642 519.657 301.887 514.776 302.843 509.776C303.292 507.264 303.655 504.836 303.048 503.863C302.144 502.12 300.012 500.909 298.165 499.857C293.684 497.456 290.833 495.785 289.975 490.279C289.329 485.852 292.707 483.004 289.876 478.801L289.883 478.794Z" fill="#81624C"/>
<path d="M300.71 471.453C301.529 474.315 300.348 477.453 298.704 479.788C297.952 480.998 297.266 482.136 296.956 483.3C296.349 485.478 296.85 488.208 298.236 489.938C298.916 490.799 299.853 491.536 301.001 492.378C303.739 494.194 306.148 497.272 306.531 500.758C307.151 504.357 305.646 507.935 303.528 510.579C302.03 512.658 301.318 513.875 301.601 516.269C301.958 518.368 302.684 519.341 304.947 521.137C306.036 522.032 307.435 523.203 308.537 524.854C309.659 526.498 310.266 528.478 310.477 530.274C310.662 532.076 310.49 534.142 309.751 535.99C308.372 539.845 304.347 542.095 304.848 545.857C305.112 550.008 309.256 551.159 311.355 554.724C313.295 557.98 313.598 561.782 312.173 565.262C310.49 569.288 306.333 571.09 306.597 575.616C306.676 581.951 313.928 582.872 313.691 589.818C313.328 588.43 312.767 587.134 311.876 586.121C309.995 583.865 307.171 582.964 305.303 580.477C303.271 577.754 302.677 574.221 303.7 570.926C304.558 568.104 306.914 565.999 307.705 563.539C308.53 560.177 307.369 557.652 304.221 555.422C303.112 554.547 301.714 553.442 300.611 551.837C298.427 548.528 297.926 544.62 299.252 540.864C299.938 539.016 301.034 537.562 301.878 536.431C303.66 534.148 304.096 533.043 303.924 530.978C303.654 528.919 302.981 527.939 300.757 526.09C294.349 521.19 293.452 513.066 298.922 507.06C301.522 504.205 302.116 501.475 300.578 498.377C299.272 496.154 296.52 494.608 295.068 492.036C292.442 487.53 293.577 482.103 297.266 478.683C299.298 476.67 300.717 474.387 300.717 471.453H300.71Z" fill="#81624C"/>
<path opacity="0.55" d="M264.278 518.841C264.278 518.841 239.374 506.738 227.997 501.239C216.832 498.075 208.735 493.983 205.686 504.541C204.828 507.514 204.749 509.974 205.614 512.138C207.541 515 208.999 516.868 212.721 518.776C216.383 520.335 241.545 527.847 261.936 529.05C266.047 529.031 268.053 531.379 269.855 526.432C271.735 521.269 264.278 518.835 264.278 518.835V518.841Z" fill="#D3AFA2"/>
<path d="M284.748 509.895C286.893 510.875 274.876 512.625 279.284 517.46C283.95 522.571 283.455 531.168 279.542 534.793C275.53 539.726 262.754 540.029 244.086 538.614C243.056 538.535 240.799 540.239 239.209 540.206C238.292 540.187 237.209 539.187 236.338 539.114C234.953 538.996 235.177 539.687 232.669 539.641C230.828 539.608 230.452 539.213 229.541 539.121C225.001 539.943 221.722 538.976 221.722 538.976C221.722 538.976 227.944 527.616 227.621 514.973C227.423 507.119 228.459 501.436 224.737 496.075L284.742 509.901L284.748 509.895Z" fill="#147171"/>
<path opacity="0.3" d="M278.268 508.751C279.845 509.691 270.857 511.665 274.051 516.407C277.43 521.42 277.067 532.944 274.084 536.635C270.996 541.641 261.309 539.259 247.418 538.194C247.418 538.194 256.815 532.787 259.006 521.933C261.434 509.908 259.131 505.462 259.131 505.462L278.268 508.751Z" fill="#114062"/>
<path d="M226.361 568.736C243.248 556.619 228.664 552.994 229.324 542.068C229.872 532.984 238.332 535.984 238.906 529.347C239.909 517.789 233.646 520.4 235.824 512.981C237.421 507.521 241.361 508.501 242.529 504.475C245.313 494.865 230.076 490.852 243.743 478.472C246.343 476.117 245.577 475.381 246.435 474.743L265.935 474.052C260.669 481.748 268.007 482.492 266.72 487.636C264.681 495.786 269.109 492.812 271.359 498.614C273.201 503.357 270.739 509.435 268.073 514.842C262.504 526.136 276.447 526.689 275.754 536.523C275.154 545.061 269.637 544.917 268.621 552.751C267.671 560.105 273.636 565.289 273.636 573.531C273.636 581.773 262.913 580.142 264.681 586.983C266.45 593.824 261.87 600.895 261.87 600.895C262.616 597.225 249.834 592.081 246.547 590.535C247.135 595.975 242.7 596.376 242.113 596.422C241.473 588.312 235.58 585.121 233.429 583.556C233.244 586.259 231.277 586.99 229.753 587.647C231.37 582.247 221.927 571.9 226.348 568.729L226.361 568.736Z" fill="#92745A"/>
<path d="M229.649 495.799C229.384 495.772 229.14 495.752 228.901 495.746C229.146 495.812 229.391 495.819 229.649 495.799Z" fill="#29ADA9"/>
<path d="M221.689 538.963C221.689 538.963 223.899 539.43 226.11 539.246C227.331 537.075 230.604 525.992 230.63 515.355C230.657 507.178 231.554 501.245 228.895 495.746C226.664 495.674 225.741 496.331 224.737 496.062C227.41 501.344 226.532 507.04 226.532 514.881C226.532 527.498 221.682 538.963 221.682 538.963H221.689Z" fill="#29ADA9"/>
<path d="M265.934 487.457C265.934 487.457 277.647 506.139 274.07 507.763C272.572 508.448 262.364 535.766 291.716 532.516C308.457 530.661 308.748 509.789 302.142 509.007C296.566 508.349 294.837 508.513 292.052 507.836C283.784 505.803 290.713 497.831 290.713 497.831L265.927 487.457H265.934Z" fill="#D0A69C"/>
<path d="M270.052 516.275C266.179 529.405 263.011 531.142 258.59 541.87C253.997 553.014 253.001 563.453 263.381 572.951C264.338 574.043 264.635 574.853 265.776 575.984C270.686 581.056 275.615 597.658 274.276 606.973C274.276 606.973 287.295 614.702 313.625 605.769C313.625 605.769 302.447 588.482 320.158 557.987C324.243 540.463 319.228 543.522 319.973 537.937C323.134 514.243 316.186 509.066 311.949 508.757C309.917 508.606 297.036 507.974 296.679 509.941C296.257 512.289 291.459 522.386 279.317 524.287C273.062 525.268 271.247 521.077 272.197 515.703L270.052 516.269V516.275Z" fill="#147171"/>
<path d="M279.317 524.294C273.062 525.275 271.247 521.084 272.197 515.71L270.052 516.276C266.179 529.406 263.011 531.142 258.59 541.871C253.997 553.014 253.001 563.453 263.381 572.952C264.338 574.044 264.635 574.853 265.776 575.984L279.317 524.294Z" fill="#13626D"/>
<path d="M320.151 557.987C327.377 538.93 312.892 515.664 302.044 511.559C300.011 514.368 294.415 509.908 291.65 522.703C288.892 535.49 319.419 556.362 295.174 575.195C289.189 579.846 309.804 577.846 320.151 557.993V557.987Z" fill="#13626D"/>
<path d="M318.515 558.322C314.278 558.322 303.674 542.233 299.767 538.332C294.561 533.142 290.047 530.675 289.922 524.235C289.572 506.067 298.52 501.89 298.52 501.89C298.52 501.89 307.693 497.858 311.467 497.996C311.467 497.996 325.932 503.903 326.453 519.506C327.41 548.094 322.751 558.309 318.508 558.309L318.515 558.322Z" fill="#147171"/>
<path d="M310.002 540.22C319.092 540.22 326.46 530.557 326.46 518.637C326.46 506.718 319.092 497.055 310.002 497.055C300.913 497.055 293.544 506.718 293.544 518.637C293.544 530.557 300.913 540.22 310.002 540.22Z" fill="#147171"/>
<path d="M317.624 518.769C311.942 529.254 308.247 535.767 309.804 550.745C300.711 550.745 293.538 530.557 293.538 518.637C293.538 506.718 299.16 498.811 308.247 498.693C317.551 498.575 323.919 507.132 317.624 518.762V518.769Z" fill="#13626D"/>
<path d="M291.156 507.62C290.734 509.968 288.603 521.835 278.46 522.052C274.382 522.137 272.765 516.822 273.418 512.172L269.967 513.033C269.024 517.539 269.598 525.42 276.566 525.979C292.206 527.235 293.486 511.553 293.902 506.574L291.163 507.626L291.156 507.62Z" fill="#29ADA9"/>
<path d="M280.696 523.295C280.696 523.295 272.316 538.845 271.907 549.126C271.088 569.597 276.849 574.629 276.849 574.629C276.849 574.629 279.106 607.736 276.849 608.19C276.249 607.835 276.849 608.19 274.282 606.973C274.652 603.921 269.663 578.563 268.693 576.129C268.693 576.129 254.023 564.565 262.127 547.962C269.584 532.688 273.279 522.821 273.279 522.821L280.703 523.295H280.696Z" fill="#29ADA9"/>
<path d="M276.229 608.019C276.011 588.555 271.88 575.339 271.88 575.339C271.88 575.339 263.605 569.169 264.41 555.527C265.162 542.759 277.793 523.209 277.793 523.209" stroke="#147171" stroke-width="0.5" stroke-miterlimit="10"/>
<path d="M264.687 574.36L263.908 573.623C263.908 573.623 249.707 569.236 267.847 544.621C285.203 521.072 293.887 506.574 293.887 506.574L295.484 506.988C295.484 506.988 287.44 527.281 271.893 549.133C256.92 570.17 264.68 574.36 264.68 574.36H264.687Z" fill="#3B2C21"/>
<path d="M318.515 558.322C314.991 556.29 303.456 549.245 299.16 546.219C296.046 544.028 289.038 533.339 288.582 526.919C287.665 514.02 294.284 505.376 294.284 505.376C294.284 505.376 300.375 498.936 306.782 497.476C306.782 497.476 297.511 502.449 300.177 526.676C302.698 549.567 318.515 558.329 318.515 558.329V558.322Z" fill="#147171"/>
<path opacity="0.3" d="M314.278 557.007C310.755 554.974 306.234 552.823 300.592 547.758C297.761 545.213 289.783 533.234 288.582 526.913C288.582 526.913 291.426 533.464 298.302 542.476C305.178 551.495 314.278 557.007 314.278 557.007Z" fill="#114062"/>
<path d="M306.781 497.47C305.356 497.634 304.657 497.891 302.941 498.897C299.094 502.384 295.781 512.869 296.335 524.887C296.883 536.8 303.502 549.377 309.797 554.712C313.605 557.007 316.515 558.29 318.508 558.323C318.508 558.323 303.495 551.896 299.886 523.644C297.305 503.449 306.775 497.47 306.775 497.47H306.781Z" fill="#29ADA9"/>
<path d="M275.028 607.302C275.028 607.302 274.414 598.389 272.679 590.127C271.075 582.477 268.686 576.129 268.686 576.129C264.608 574.886 263.381 572.945 263.381 572.945C277.608 596.277 273.457 606.855 273.457 606.855L275.028 607.295V607.302Z" fill="#5E4C3F"/>
<path d="M319.432 558.039C314.694 569.097 295.346 575.313 295.346 575.313C295.346 575.313 293.307 583.687 292.541 593.804C291.934 601.829 292.409 609.9 292.409 609.9L318.495 603.026C312.978 591.955 313.401 569.827 319.478 559.111C319.703 558.717 319.927 558.342 320.151 557.987L319.432 558.039Z" fill="#49382C"/>
<path d="M268.409 575.155C268.409 575.155 265.341 574.951 263.381 572.952C273.919 590.068 272.883 604.829 272.883 604.829L275.53 607.46C275.53 607.46 274.546 598.29 273.543 590.949C272.613 584.154 268.416 575.162 268.416 575.162L268.409 575.155Z" fill="#49382C"/>
<path opacity="0.26" d="M273.537 590.942C272.606 584.147 268.409 575.155 268.409 575.155C268.409 575.155 265.295 574.734 263.381 572.952C273.919 590.068 273.457 606.861 273.457 606.861C273.457 606.861 274.612 598.823 273.537 590.942Z" fill="#261B14"/>
<path d="M319.433 558.04C312.266 574.774 279.674 574.682 276.196 574.623C276.031 574.623 275.899 574.754 275.906 574.925L276.85 608.19L289.962 610.256C300.25 610.177 318.509 603.027 318.509 603.027C312.992 591.956 313.414 569.828 319.492 559.112L319.446 558.04H319.433Z" fill="#5E4C3F"/>
<path d="M319.432 558.04C312.926 573.879 281.099 574.537 281.099 574.537L278.849 608.94C278.849 608.94 290.925 610.683 301.404 608.986C311.883 607.289 318.502 603.02 318.502 603.02C312.985 591.949 313.407 569.821 319.485 559.105L319.439 558.033L319.432 558.04Z" fill="#49382C"/>
<path opacity="0.26" d="M319.433 558.04C317.737 561.993 315.626 566.835 300.184 571.702C300.184 571.702 301.873 579.885 305.034 586.996C310.558 599.409 318.503 603.027 318.503 603.027C312.986 591.956 313.494 570.262 319.433 558.04Z" fill="#261B14"/>
<path opacity="0.15" d="M318.501 603.02C320.718 609.157 340.264 618.024 346.658 656.032C353.614 697.368 368.527 751.827 374.433 790.177C375.291 806.227 391.538 858.601 391.921 861.305C374.394 865.363 357.883 867.666 357.883 867.666C329.943 810.418 334.523 763.431 321.985 680.535C312.456 617.544 303.765 617.031 301.403 608.98L318.501 603.013V603.02Z" fill="#01514F"/>
<path d="M275.898 574.873L269.715 578.09L276.043 580.135L271.661 583.477L276.202 585.72L273.179 588.924L276.353 590.93L273.852 593.351L276.584 594.956L274.393 597.258L276.565 598.481L274.671 600.632L276.736 602.06L275.172 604.073L276.782 606.158L275.291 607.276L276.835 608.19L275.225 605.974L276.729 604.073L274.882 602.389L276.611 600.284L274.525 598.823L276.505 596.679L274.143 595.317L276.4 593.028C276.4 593.028 273.608 591.456 273.602 591.581L276.261 588.233L272.612 586.299L276.221 583.161L270.685 580.826L276.149 577.195C276.149 577.195 274.163 576.721 268.395 575.393L275.885 574.88L275.898 574.873Z" stroke="#3B2C21" stroke-width="0.5" stroke-linecap="round" stroke-linejoin="round"/>
<path d="M252.354 472.374C252.275 475.321 250.301 477.906 248.064 479.649C247.009 480.57 246.039 481.452 245.418 482.458C243.425 485.754 244.118 489.253 246.54 492.174C248.559 494.667 249.912 498.324 249.239 501.686C248.955 503.363 248.309 505.165 247.187 506.672C246.078 508.185 244.673 509.237 243.57 510.079C241.287 511.783 240.509 512.822 240.132 514.868C239.347 518.538 243.062 521.045 244.079 524.972C245.101 528.813 244.356 532.635 241.954 535.806C240.74 537.345 239.268 538.384 238.14 539.187C235.784 540.772 235.025 541.66 234.497 543.686C233.52 547.653 237.044 549.962 237.942 553.928C238.786 557.566 237.955 561.21 235.606 564.078C232.86 567.387 228.446 567.893 227.363 572.215C225.562 578.161 232.049 581.233 229.759 587.64C229.818 586.233 229.673 584.851 229.145 583.641C228.056 580.97 225.674 579.286 224.665 576.399C223.576 573.241 224.044 569.761 225.951 566.946C227.568 564.532 230.386 563.223 231.831 561.131C233.566 558.21 233.237 555.513 230.953 552.494C230.175 551.35 229.191 549.889 228.637 548.047C227.581 544.291 228.248 540.489 230.577 537.325C231.758 535.779 233.21 534.714 234.332 533.892C236.661 532.247 237.367 531.352 237.816 529.359C238.747 525.827 235.071 523.117 234.127 519.269C232.61 513.677 235.401 508.106 240.185 505.363C243.445 503.422 244.778 501.041 244.27 497.686C243.716 495.213 241.604 492.944 241.01 490.102C239.895 485.129 242.548 480.307 246.989 478.163C249.483 476.847 251.469 475.111 252.334 472.361L252.354 472.374Z" fill="#81624C"/>
<path d="M267.294 463.573C267.399 465.211 267.149 466.921 266.429 468.493C265.704 470.065 264.549 471.401 263.467 472.624C261.315 474.907 259.83 477.314 259.989 480.439C260.081 483.564 261.533 485.484 263.777 487.675C266.555 490.234 268.673 493.917 268.521 497.93C268.574 502.107 266.344 505.672 263.486 508.31C262.331 509.468 261.46 510.454 260.939 511.448C259.923 513.303 259.883 516.171 260.834 518.039C262.233 520.716 265.162 522.637 266.634 525.926C268.475 529.998 268.304 534.471 266.139 538.385C263.816 542.68 259.032 544.094 258.794 549.008C258.366 553.882 262.978 555.994 264.819 560.401C267.32 566.367 265.195 572.518 260.273 576.3C259.032 577.366 257.989 578.319 257.263 579.411C255.792 581.608 255.455 584.838 256.399 587.358C256.881 588.7 257.798 589.949 258.775 591.265C259.758 592.574 260.807 593.995 261.401 595.62C261.995 597.244 262.107 598.974 261.87 600.599C261.513 594.396 256.835 593.186 254.056 588.463C252.261 585.082 252.215 581.01 253.938 577.524C255.422 574.478 258.478 572.524 259.85 569.834C260.886 567.768 260.9 564.762 259.797 562.749C259.263 561.717 258.392 560.723 257.263 559.539C254.419 556.796 252.334 552.994 252.532 548.771C252.525 544.509 254.914 540.785 257.851 538.148C259.032 537.01 259.91 536.082 260.431 535.142C261.454 533.379 261.566 530.557 260.688 528.715C259.362 526.038 256.465 524.031 255.04 520.762C253.271 516.868 253.509 512.237 255.673 508.468C258.108 504.172 263.018 502.771 263.341 497.733C263.922 490.589 255.911 489.385 256.749 480.321C257.58 471.197 266.093 471.795 267.281 463.58L267.294 463.573Z" fill="#81624C"/>
<path d="M264.437 460.659C264.338 462.297 263.882 463.968 262.985 465.454C262.081 466.934 260.767 468.125 259.547 469.217C257.138 471.236 255.383 473.466 255.152 476.591C254.855 479.715 256.036 481.814 257.983 484.287C260.405 487.181 262.021 491.115 261.381 495.075C260.906 499.239 258.299 502.488 255.139 504.791C253.852 505.81 252.869 506.692 252.228 507.619C250.994 509.356 250.598 512.217 251.298 514.21C252.341 517.052 255 519.341 256.036 522.801C257.329 527.07 256.61 531.464 254.004 535.095C251.173 539.101 246.256 539.963 245.425 544.831C244.382 549.633 248.672 552.33 249.939 556.954C251.648 563.164 248.79 569.044 243.478 572.208C242.119 573.123 240.971 573.952 240.119 574.958C238.39 576.978 237.658 580.155 238.272 582.786C238.575 584.18 239.321 585.542 240.126 586.976C241.908 589.785 243.056 593.357 242 596.646C242.416 590.41 237.962 588.64 235.81 583.569C234.471 579.984 234.933 575.945 237.044 572.689C238.885 569.827 242.145 568.249 243.835 565.729C245.115 563.789 245.498 560.789 244.673 558.638C244.277 557.54 243.538 556.441 242.574 555.112C240.113 552.021 238.542 547.982 239.255 543.818C239.776 539.595 242.574 536.174 245.808 533.898C248.196 532.089 249.463 530.918 249.965 528.116C250.394 525.301 249.569 523.788 247.893 521.308C246.995 519.953 245.867 518.249 245.214 516.157C243.973 511.928 244.765 507.58 247.365 504.034C250.302 500.041 255.343 499.212 256.28 494.233C257.534 489.392 253.284 486.339 252.057 481.768C251.1 478.005 251.958 474.045 254.38 471.072C256.63 468.322 259.943 467.388 262.193 464.869C263.262 463.718 263.968 462.244 264.443 460.665L264.437 460.659Z" fill="#81624C"/>
<path d="M276.843 608.19C276.843 608.19 306.961 607.375 316.265 598.619C319.486 595.594 321.294 604.237 317.777 605.336C289.606 614.17 276.843 608.993 276.843 608.184V608.19Z" fill="#261B14"/>
<path d="M275.524 607.572C275.524 607.572 274.706 603.691 273.465 600.842C272.574 598.797 271.182 603.664 271.828 605.335C272.277 606.493 273.736 607.23 275.524 607.572Z" fill="#261B14"/>
<path d="M285.843 503.778C289.75 502.995 297.339 494.102 296.521 484.327C296.342 482.577 295.326 480.762 294.871 478.709C294.521 477.15 294.554 472.835 294.02 471.191C292.97 467.987 285.758 460.179 277.766 461.843L270.415 459.061C262.424 460.725 260.708 473.802 262.378 481.768C262.378 481.768 260.543 484.307 262.938 488.899C264.1 491.115 267.234 495.74 268.495 498.693C271.84 502.226 283.375 504.159 285.85 503.778H285.843Z" fill="#F0D6C8"/>
<path opacity="0.31" d="M264.048 478.36C269.538 473.216 268.594 464.829 268.594 464.829C268.594 464.829 273.669 469.236 279.7 470.598C285.514 471.913 288.431 472.466 293.789 473.347C293.769 473.288 293.75 473.222 293.73 473.163C292.681 469.96 285.23 459.586 277.239 461.257L272.336 459.797C264.345 461.461 255.832 465.566 257.224 474.676L263.507 489.588L264.048 478.366V478.36Z" fill="#D3AFA2"/>
<path d="M262.833 476.979C262.886 478.433 263.453 481.143 263.506 483.175C263.559 484.951 263.189 488.194 264.232 490.391C265.849 493.812 269.333 498.002 268.469 500.916C268.469 500.916 267.901 497.055 262.932 490.451C261.421 488.444 259.454 484.859 258.874 480.774C258.874 480.774 258.458 478.387 258.88 476.453L262.833 476.979Z" fill="#92745A"/>
<g opacity="0.55">
<path d="M276.268 461.842C276.611 461.77 276.947 461.73 277.284 461.704L272.856 460.389C272.586 460.448 272.322 460.514 272.058 460.599L276.261 461.849L276.268 461.842Z" fill="#D3AFA2"/>
<path opacity="0.32" d="M287.837 502.817C291.473 501.33 297.94 492.095 296.521 484.333C296.184 482.504 295.3 480.577 294.812 478.393C294.482 476.939 294.112 474.321 293.611 472.795C292.608 469.73 286.372 461.047 278.77 461.705C285.758 462.297 290.562 470.111 291.994 473.677C293.723 477.965 281.554 478.084 284.979 486.227C288.094 493.621 268.462 490.207 268.462 496.061L268.482 498.693C269.161 499.318 269.234 500.35 273.174 501.613C277.113 502.876 285.105 503.731 287.83 502.81L287.837 502.817Z" fill="#D3AFA2"/>
</g>
<path d="M246.117 475.407C246.117 475.407 244.349 469.329 256.313 461.002C264.555 455.266 270.322 454.397 270.322 454.397C270.322 454.397 287.81 452.72 297.537 462.541C303.746 468.81 295.141 472.25 295.141 472.25C295.141 472.25 294.613 473.27 293.61 472.796C287.579 471.809 284.537 471.243 278.228 469.809C271.913 468.382 267.406 462.968 267.406 462.968C267.406 462.968 268.752 468.652 265.571 473.802L246.124 475.401L246.117 475.407Z" fill="#92745A"/>
<path d="M267.4 456.449C272.065 460.231 277.496 463.218 283.475 463.191C288.299 462.909 293.835 463.704 297.379 467.336C298.527 468.559 299.471 470.026 299.689 471.644C298.758 470.348 297.59 469.381 296.323 468.645C292.397 466.375 287.909 466.329 283.468 466.48C276.724 466.428 270.449 462.297 267.4 456.442V456.449Z" fill="#81624C"/>
<path d="M284.755 490.313L279.759 494.753C279.515 494.97 279.819 495.529 280.221 495.608L284.88 496.503C284.979 496.522 285.071 496.503 285.131 496.45C285.071 496.503 285.038 496.595 285.045 496.693L285.401 501.41C285.434 501.811 285.956 502.179 286.2 501.962L291.195 497.522C291.255 497.47 291.288 497.377 291.281 497.279L291.083 494.654L291.888 495.082C292.68 495.503 293.465 495.509 293.94 495.088L301.714 488.188C302.123 487.826 302.249 487.188 302.044 486.471L301.404 484.175C301.12 483.143 300.229 482.156 299.239 481.748L297.022 480.854C296.329 480.571 295.683 480.623 295.273 480.985L287.5 487.885C287.031 488.306 286.939 489.083 287.276 489.918L287.612 490.76L285.019 490.26C284.92 490.24 284.827 490.26 284.768 490.313H284.755Z" fill="#AAB0C3"/>
<path d="M271.834 474.959C271.834 474.959 271.391 477.011 269.9 477.84C268.409 478.669 266.422 477.952 266.422 477.952C266.422 477.952 266.865 475.9 268.356 475.071C269.847 474.242 271.834 474.959 271.834 474.959Z" fill="#3B2C21"/>
<path d="M275.819 474.735C275.819 474.735 275.377 476.788 273.886 477.617C272.395 478.445 270.408 477.728 270.408 477.728C270.408 477.728 270.85 475.676 272.342 474.847C273.833 474.018 275.819 474.735 275.819 474.735Z" fill="#3B2C21"/>
<path d="M279.844 474.512C279.844 474.512 279.402 476.565 277.911 477.393C276.419 478.222 274.433 477.505 274.433 477.505C274.433 477.505 274.875 475.453 276.367 474.624C277.858 473.795 279.844 474.512 279.844 474.512Z" fill="#3B2C21"/>
<path d="M283.607 473.657C283.607 473.657 283.429 475.748 282.049 476.755C280.67 477.761 278.611 477.301 278.611 477.301C278.611 477.301 278.79 475.209 280.169 474.203C281.548 473.196 283.607 473.657 283.607 473.657Z" fill="#3B2C21"/>
<path d="M287.446 473.124C287.446 473.124 287.328 475.222 285.975 476.268C284.622 477.314 282.557 476.906 282.557 476.906C282.557 476.906 282.675 474.808 284.028 473.762C285.381 472.716 287.446 473.124 287.446 473.124Z" fill="#3B2C21"/>
<path d="M291.373 472.032C291.373 472.032 291.426 474.13 290.166 475.281C288.905 476.432 286.814 476.196 286.814 476.196C286.814 476.196 286.523 474.064 287.784 472.913C289.044 471.762 291.373 472.032 291.373 472.032Z" fill="#3B2C21"/>
<path d="M295.121 470.46C295.121 470.46 295.372 472.545 294.23 473.814C293.089 475.084 290.977 475.051 290.977 475.051C290.977 475.051 290.726 472.966 291.868 471.696C293.009 470.427 295.121 470.46 295.121 470.46Z" fill="#3B2C21"/>
<path d="M298.301 468.657C298.301 468.657 298.942 470.657 298.051 472.117C297.166 473.571 295.088 473.933 295.088 473.933C295.088 473.933 294.448 471.933 295.339 470.473C296.223 469.019 298.301 468.657 298.301 468.657Z" fill="#3B2C21"/>
<path d="M301.053 467.039C301.053 467.039 301.864 468.979 301.106 470.505C300.347 472.031 298.308 472.571 298.308 472.571C298.308 472.571 297.496 470.63 298.255 469.104C299.014 467.578 301.053 467.039 301.053 467.039Z" fill="#3B2C21"/>
<path d="M300.064 468.27C300.064 468.27 298.553 469.737 296.85 469.598C295.148 469.46 293.894 467.77 293.894 467.77C293.894 467.77 295.405 466.303 297.108 466.441C298.81 466.579 300.064 468.27 300.064 468.27Z" fill="#3B2C21"/>
<path d="M296.758 470.052C296.758 470.052 295.022 471.453 293.34 471.163C291.657 470.874 290.562 469.078 290.562 469.078C290.562 469.078 292.198 467.756 293.881 468.046C295.564 468.335 296.751 470.052 296.751 470.052H296.758Z" fill="#3B2C21"/>
<path d="M293.412 471.65C293.412 471.65 291.419 472.913 289.756 472.525C288.093 472.13 287.11 470.275 287.11 470.275C287.11 470.275 288.826 469.052 290.489 469.446C292.151 469.841 293.418 471.657 293.418 471.657L293.412 471.65Z" fill="#3B2C21"/>
<path d="M289.388 472.735C289.388 472.735 287.665 473.952 286.009 473.551C284.346 473.149 283.376 471.288 283.376 471.288C283.376 471.288 285.098 470.071 286.755 470.472C288.418 470.873 289.388 472.735 289.388 472.735Z" fill="#3B2C21"/>
<path d="M285.566 473.637C285.566 473.637 283.844 474.854 282.187 474.452C280.524 474.051 279.554 472.19 279.554 472.19C279.554 472.19 281.277 470.973 282.933 471.374C284.596 471.775 285.566 473.637 285.566 473.637Z" fill="#3B2C21"/>
<path d="M281.481 473.992C281.481 473.992 279.759 475.209 278.103 474.808C276.44 474.407 275.47 472.545 275.47 472.545C275.47 472.545 277.192 471.328 278.848 471.729C280.511 472.131 281.481 473.992 281.481 473.992Z" fill="#3B2C21"/>
<path d="M277.435 474.354C277.435 474.354 275.713 475.571 274.056 475.17C272.4 474.768 271.423 472.907 271.423 472.907C271.423 472.907 273.146 471.69 274.802 472.091C276.458 472.492 277.435 474.354 277.435 474.354Z" fill="#3B2C21"/>
<path d="M273.417 474.696C273.417 474.696 271.695 475.913 270.039 475.512C268.376 475.11 267.406 473.249 267.406 473.249C267.406 473.249 269.128 472.032 270.784 472.433C272.441 472.834 273.417 474.696 273.417 474.696Z" fill="#3B2C21"/>
<path d="M269.333 475.492C269.333 475.492 267.492 476.518 265.881 475.939C264.271 475.367 263.506 473.406 263.506 473.406C263.506 473.406 265.347 472.38 266.957 472.959C268.567 473.531 269.333 475.492 269.333 475.492Z" fill="#3B2C21"/>
<path d="M265.281 475.492C265.281 475.492 263.44 476.518 261.83 475.939C260.22 475.367 259.455 473.407 259.455 473.407C259.455 473.407 261.296 472.381 262.906 472.96C264.516 473.532 265.281 475.492 265.281 475.492Z" fill="#3B2C21"/>
<path d="M261.421 475.445C261.421 475.445 259.488 476.281 257.943 475.544C256.399 474.807 255.838 472.788 255.838 472.788C255.838 472.788 257.772 471.952 259.316 472.689C260.86 473.426 261.421 475.445 261.421 475.445Z" fill="#3B2C21"/>
<path d="M257.963 474.965C257.963 474.965 256.03 475.801 254.485 475.064C252.941 474.327 252.38 472.308 252.38 472.308C252.38 472.308 254.314 471.472 255.858 472.209C257.402 472.946 257.963 474.965 257.963 474.965Z" fill="#3B2C21"/>
<path d="M254.532 474.374C254.532 474.374 252.598 475.209 251.054 474.472C249.51 473.735 248.949 471.716 248.949 471.716C248.949 471.716 250.883 470.881 252.427 471.617C253.971 472.354 254.532 474.374 254.532 474.374Z" fill="#3B2C21"/>
<path d="M250.704 473.781C250.704 473.781 247.279 474.018 245.873 473.045C244.468 472.071 245.629 470.243 245.629 470.243C245.629 470.243 247.675 469.736 249.074 470.716C250.473 471.696 250.697 473.781 250.697 473.781H250.704Z" fill="#3B2C21"/>
<path d="M301.43 467.842C301.43 467.842 301.47 468.282 299.787 467.986C298.104 467.69 297.016 465.888 297.016 465.888C297.016 465.888 298.659 464.572 300.341 464.868C302.024 465.164 301.43 467.842 301.43 467.842Z" fill="#3B2C21"/>
<path d="M267.532 475.301C267.532 475.301 267.09 477.353 265.598 478.182C264.107 479.011 262.121 478.294 262.121 478.294C262.121 478.294 262.563 476.241 264.054 475.413C265.545 474.584 267.532 475.301 267.532 475.301Z" fill="#3B2C21"/>
<path d="M263.67 475.242C263.67 475.242 263.155 477.281 261.631 478.05C260.107 478.82 258.153 478.037 258.153 478.037C258.153 478.037 258.668 475.998 260.192 475.229C261.717 474.459 263.67 475.242 263.67 475.242Z" fill="#3B2C21"/>
<path d="M260.081 475.031C260.081 475.031 259.421 477.025 257.844 477.689C256.266 478.353 254.373 477.432 254.373 477.432C254.373 477.432 255.032 475.439 256.61 474.775C258.187 474.11 260.081 475.031 260.081 475.031Z" fill="#3B2C21"/>
<path d="M256.517 474.584C256.517 474.584 255.758 476.544 254.155 477.13C252.551 477.715 250.704 476.702 250.704 476.702C250.704 476.702 251.462 474.742 253.066 474.156C254.67 473.571 256.517 474.584 256.517 474.584Z" fill="#3B2C21"/>
<path d="M253.086 473.828C253.086 473.828 252.327 475.788 250.723 476.373C249.12 476.959 247.272 475.946 247.272 475.946C247.272 475.946 248.031 473.986 249.634 473.4C251.238 472.815 253.086 473.828 253.086 473.828Z" fill="#3B2C21"/>
<path d="M249.588 473.019C249.588 473.019 248.909 474.788 247.457 475.314C246.005 475.84 245.108 475.643 245.108 475.643C245.108 475.643 245.029 473.163 246.474 472.637C247.919 472.111 249.588 473.025 249.588 473.025V473.019Z" fill="#3B2C21"/>
<path d="M272.811 502.363L268.693 506.1C268.495 506.284 268.818 506.823 269.188 506.922L273.497 508.093C273.589 508.119 273.669 508.106 273.721 508.06C273.669 508.106 273.649 508.185 273.669 508.277L274.434 512.665C274.5 513.04 275.008 513.415 275.206 513.237L279.324 509.501C279.377 509.455 279.396 509.376 279.377 509.284L278.948 506.843L279.72 507.297C280.479 507.744 281.191 507.81 281.581 507.455L287.982 501.64C288.318 501.331 288.371 500.752 288.12 500.074L287.322 497.904C286.965 496.93 286.068 495.95 285.131 495.503L283.039 494.509C282.386 494.2 281.798 494.194 281.462 494.503L275.061 500.318C274.672 500.673 274.665 501.383 275.048 502.179L275.43 502.982L273.035 502.331C272.943 502.304 272.864 502.317 272.811 502.363Z" fill="#9199AF"/>
<path d="M272.91 507.619L362.18 427.335" stroke="#0F4961" stroke-width="3" stroke-miterlimit="10"/>
<path d="M283.574 501.896C283.574 501.896 287.46 499.075 288.094 499.686C288.529 500.114 289.579 502.521 286.853 504.1C287.5 505.047 287.942 505.725 287.678 506.646C287.619 506.981 287.269 507.83 286.853 508.139C286.721 509.257 285.131 511.349 283.362 511.954C278.921 513.48 272.646 502.666 276.559 497.996L283.574 501.89V501.896Z" fill="#F0D6C8"/>
<path d="M291.274 471.182H291.267V471.211C291.267 471.211 291.267 471.189 291.274 471.182Z" fill="#261B14"/>
<path d="M289.026 471C289.026 471 289.005 470.986 288.991 470.979L289.005 471.007H289.026V471Z" fill="#261B14"/>
<path d="M301.133 469.183C300.368 470.729 298.302 471.268 298.302 471.268C298.302 471.268 298.21 471.038 298.111 470.676C298.084 470.722 298.065 470.768 298.038 470.808C297.141 472.281 295.036 472.643 295.036 472.643C295.036 472.643 294.864 472.097 294.824 471.367C294.686 471.775 294.481 472.176 294.171 472.525C293.016 473.807 290.885 473.775 290.885 473.775C290.885 473.775 290.832 473.367 290.878 472.801C290.7 473.235 290.436 473.669 290.06 474.011C288.786 475.176 286.668 474.939 286.668 474.939C286.668 474.939 286.655 474.426 286.794 473.768C286.576 474.222 286.266 474.669 285.83 475.005C284.464 476.064 282.372 475.656 282.372 475.656C282.372 475.656 282.392 475.32 282.498 474.86C282.319 475.097 282.102 475.32 281.851 475.505C280.452 476.524 278.373 476.057 278.373 476.057C278.373 476.057 278.393 475.833 278.466 475.498C278.241 475.748 277.971 475.978 277.661 476.149C276.149 476.985 274.143 476.261 274.143 476.261C274.143 476.261 274.176 476.11 274.256 475.873C274.064 476.064 273.846 476.235 273.596 476.373C272.084 477.208 270.078 476.485 270.078 476.485C270.078 476.485 270.105 476.353 270.171 476.143C269.993 476.314 269.788 476.472 269.564 476.597C268.053 477.432 266.046 476.708 266.046 476.708C266.046 476.708 266.112 476.393 266.291 475.958C266.013 476.34 265.664 476.695 265.215 476.945C263.704 477.781 261.698 477.057 261.698 477.057C261.698 477.057 261.77 476.722 261.955 476.268C261.737 476.478 261.487 476.662 261.203 476.807C259.659 477.59 257.686 476.794 257.686 476.794C257.686 476.794 257.758 476.524 257.917 476.143C257.752 476.261 257.567 476.36 257.375 476.439C255.778 477.11 253.865 476.176 253.865 476.176C253.865 476.176 253.937 475.965 254.076 475.662C253.937 475.741 253.792 475.814 253.64 475.866C252.017 476.458 250.15 475.432 250.15 475.432C250.15 475.432 250.209 475.274 250.334 475.038C250.282 475.064 250.229 475.084 250.169 475.11C248.546 475.702 246.679 474.676 246.679 474.676C246.679 474.676 246.797 474.367 247.041 473.959C246.982 473.985 246.929 474.011 246.87 474.031C246.203 474.274 245.662 474.36 245.26 474.386C245.115 475.044 245.128 475.623 245.128 475.623C245.128 475.623 246.032 475.82 247.477 475.294C247.536 475.274 247.589 475.248 247.649 475.222C247.411 475.623 247.292 475.932 247.292 475.932C247.292 475.932 249.14 476.945 250.743 476.36C250.796 476.34 250.849 476.314 250.902 476.294C250.783 476.531 250.717 476.689 250.717 476.689C250.717 476.689 252.565 477.702 254.168 477.116C254.32 477.064 254.465 476.991 254.597 476.912C254.452 477.215 254.386 477.419 254.386 477.419C254.386 477.419 256.28 478.34 257.857 477.675C258.049 477.596 258.227 477.491 258.392 477.379C258.233 477.754 258.167 478.024 258.167 478.024C258.167 478.024 260.121 478.807 261.645 478.037C261.929 477.892 262.173 477.708 262.384 477.504C262.206 477.952 262.133 478.28 262.133 478.28C262.133 478.28 264.113 478.998 265.611 478.169C266.053 477.925 266.403 477.57 266.673 477.195C266.502 477.623 266.436 477.938 266.436 477.938C266.436 477.938 268.415 478.655 269.913 477.827C270.138 477.702 270.336 477.55 270.514 477.379C270.448 477.583 270.422 477.715 270.422 477.715C270.422 477.715 272.401 478.432 273.899 477.603C274.143 477.465 274.361 477.294 274.552 477.103C274.48 477.333 274.44 477.491 274.44 477.491C274.44 477.491 276.42 478.208 277.918 477.379C278.228 477.208 278.492 476.985 278.716 476.735C278.644 477.064 278.624 477.287 278.624 477.287C278.624 477.287 280.683 477.748 282.062 476.741C282.313 476.557 282.524 476.34 282.702 476.103C282.597 476.564 282.577 476.893 282.577 476.893C282.577 476.893 284.642 477.294 285.995 476.254C286.424 475.919 286.734 475.478 286.945 475.031C286.807 475.682 286.82 476.189 286.82 476.189C286.82 476.189 288.912 476.425 290.172 475.274C290.548 474.932 290.806 474.505 290.984 474.077C290.944 474.636 290.99 475.044 290.99 475.044C290.99 475.044 293.096 475.077 294.244 473.807C294.554 473.465 294.752 473.071 294.89 472.663C294.93 473.38 295.102 473.919 295.102 473.919C295.102 473.919 297.18 473.557 298.065 472.104C298.091 472.058 298.111 472.018 298.137 471.972C298.23 472.327 298.322 472.558 298.322 472.558C298.322 472.558 300.361 472.025 301.12 470.492C301.463 469.801 301.483 469.025 301.404 468.381C301.351 468.644 301.272 468.913 301.146 469.163L301.133 469.183Z" fill="#261B14"/>
<path d="M301.463 466.486C301.463 466.486 301.463 466.559 301.358 466.631C301.417 466.94 301.463 467.309 301.463 467.69C301.51 467.427 301.576 466.868 301.496 466.309C301.477 466.421 301.463 466.493 301.463 466.493V466.486Z" fill="#261B14"/>
<path d="M284.181 499.403L352.077 608.447" stroke="#2A211A" stroke-miterlimit="10"/>
<path d="M244.033 354.075L281.832 497.199" stroke="#2A211A" stroke-miterlimit="10"/>
<path d="M305.509 499.627C306.783 498.246 309.627 498.358 315.797 493.588C321.967 488.813 320.97 480.143 325.082 479.189C331.483 477.709 336.933 486.563 330.572 495.147C324.211 503.732 320.97 513.947 315.797 517.157C310.742 520.295 304.757 518.999 302.513 512.112C300.269 505.225 304.229 501.015 305.509 499.634V499.627Z" fill="#F0D6C8"/>
<path opacity="0.13" d="M320.151 504.041C330.901 487.944 328.961 488.582 325.087 479.183C331.488 477.702 336.939 486.556 330.578 495.141C324.216 503.725 320.976 513.941 315.803 517.151C310.748 520.288 304.763 518.993 302.519 512.105C302.519 512.105 309.402 520.144 320.151 504.041Z" fill="#D3AFA2"/>
<path d="M264.042 503.001C264.042 503.001 223.702 497.101 220.429 496.68C214.418 495.634 205.192 498.219 204.051 505.415C202.817 513.23 209.204 517.631 217.301 519.012C221.089 519.361 265.982 513.506 265.982 513.506C265.982 513.506 277.576 512.908 278.579 507.672C279.846 501.061 264.035 503.001 264.035 503.001H264.042Z" fill="#F0D6C8"/>
<path opacity="0.55" d="M277.813 499.548C277.813 499.548 277.542 501.449 279.119 501.765C279.119 501.765 277.951 500.896 277.813 499.548Z" fill="#D3AFA2"/>
<path opacity="0.13" d="M221.517 513.658C207.573 513.355 205.171 497.982 204.01 505.172C202.75 512.98 209.131 517.407 217.221 518.808C221.009 519.17 263.031 513.651 263.031 513.651C263.031 513.651 270.303 513.756 270.917 508.474C270.917 508.474 252.46 516.98 221.517 513.658Z" fill="#D3AFA2"/>
<path opacity="0.45" d="M250.836 501.449C250.836 501.449 248.315 500.936 244.435 500.153C243.689 500.752 242.97 501.87 242.614 503.929C242.224 506.179 257.692 513.421 258.412 507.553C259.091 502.008 250.829 501.449 250.829 501.449H250.836Z" fill="#D3AFA2"/>
<path d="M243.235 499.778C243.235 499.778 240.034 501.061 239.487 507.304C239.064 512.152 240.47 516.269 242.021 517.158L275.675 512.454C278.585 513.434 281.199 512.211 282.512 511.474C271.195 508.606 275.147 500.982 272.125 501.476C266.311 502.423 243.228 499.778 243.228 499.778H243.235Z" fill="#3B2C21"/>
<path d="M320.106 485.451C320.106 485.451 319.625 489.582 322.31 492.95C327.002 498.851 330.81 496.489 331.978 494.496C331.978 494.496 335.686 484.156 335.719 482.689C334.776 482.498 329.008 475.736 327.332 473.039L320.106 485.445V485.451Z" fill="#3B2C21"/>
<path d="M327.205 496.581C329.33 497.134 331.528 495.845 332.102 494.207C332.102 494.207 336.919 481.149 337.295 479.735C337.077 479.637 336.82 479.452 336.543 479.189L327.199 496.581H327.205Z" fill="#261B14"/>
<path d="M327.714 463.737L335.349 465.98C335.349 465.98 336.781 466.454 337.237 469.052C337.989 469.927 338.378 471.23 338.372 472.637C339.078 474.65 338.121 476.781 335.692 478.058C333.33 479.301 332.538 480.143 330.063 480.564C327.325 481.024 325.154 483.281 323.748 480.103C311.824 464.481 327.701 463.737 327.701 463.737H327.714Z" fill="#F0D6C8"/>
<path d="M304.505 422.809C295.511 409.548 277.258 388.268 263.44 374.586C250.361 361.634 247.121 354.615 247.121 354.615C247.121 354.615 243.537 348.517 242.706 341.571C241.875 334.625 239.228 332.421 237.895 333.105C236.193 333.98 237.532 345.294 249.615 362.048C261.658 378.75 298.659 407.976 325.727 465.079L329.588 474.111C352.196 533.109 347.887 580.293 351.648 600.52C355.416 620.813 362.682 629.608 364.496 628.99C365.915 628.503 366.146 625.076 361.698 619.669C357.251 614.262 355.311 607.467 355.311 607.467C355.311 607.467 352.466 600.277 352.143 581.904C351.8 562.499 349.028 534.635 345.65 518.986C338.899 487.721 334.53 480.018 331.924 473.525H331.93L327.925 464.152C324.962 457.738 322.791 449.772 304.505 422.816V422.809Z" fill="#885E3B" stroke="#885E3B" stroke-width="3" stroke-miterlimit="10"/>
<path d="M325.318 469.487L326.235 471.638C327.819 475.341 329.191 479.124 330.333 482.952C332.339 489.662 335.883 498.279 337.301 501.555C337.301 501.555 337.658 502.291 339.42 502.226C341.261 502.153 341.716 501.305 341.716 501.305C342.369 497.161 337.565 480.794 334.602 474.427H334.622L329.178 461.692C325.173 453.022 322.018 446.497 316.363 439.715C316.363 439.715 315.776 438.985 314.04 440.024C311.803 441.366 312.443 442.432 312.443 442.432C315.043 447.983 315.809 450.726 320.124 459.015C321.919 462.462 323.774 465.895 325.311 469.487H325.318Z" fill="#3A2C22"/>
<path d="M246.349 351.208C245.465 350.734 243.353 352.497 243.043 353.813C243.043 353.813 243.023 353.99 243.254 354.03C243.247 354.142 243.353 354.345 243.399 354.28C243.795 353.721 244.983 351.688 246.659 351.681C246.785 351.681 246.791 352.037 246.916 352.083C246.916 352.083 244.521 352.701 243.749 354.701" stroke="#2A211A" stroke-width="2" stroke-linecap="round" stroke-linejoin="round"/>
<path d="M356.387 607.9C356.129 608.861 353.622 609.571 352.467 608.881C352.467 608.881 352.322 608.775 352.454 608.578C352.368 608.506 352.295 608.289 352.374 608.302C353.047 608.407 355.258 608.979 356.261 607.348C356.327 607.243 356.09 607.006 356.149 606.887C356.149 606.887 354.281 608.598 352.315 607.756" stroke="#2A211A" stroke-width="2" stroke-linecap="round" stroke-linejoin="round"/>
<path d="M275.061 500.317C274.474 499.548 272.831 494.838 277.787 492.45C279.932 491.417 280.413 492.924 281.238 492.924C282.103 492.878 286.095 491.898 286.326 493.608C286.352 493.799 286.359 493.897 286.346 494.068C286.326 494.108 285.013 495.463 284.274 495.976C283.561 496.673 283.33 496.818 283.33 496.818C283.33 496.818 285.983 496.134 286.814 495.956C289.553 495.371 289.097 498.555 288.695 499.041C287.969 499.929 287.25 500.258 285.415 501.12L283.574 501.89L276.269 501.495L275.068 500.311L275.061 500.317Z" fill="#F0D6C8"/>
<path opacity="0.3" d="M287.836 495.93C287.836 495.93 286.734 495.95 285.724 496.292C284.563 496.687 283.401 497.141 283.012 497.351C281.257 498.292 282.227 500.292 283.368 500.943C284.51 501.594 285.665 501.022 285.157 501.232C284.649 501.443 281.969 502.022 281.831 502.035C281.692 502.048 280.214 501.936 279.831 502.508C279.482 503.028 279.27 503.956 279.812 504.548C280.353 505.14 280.92 505.383 280.92 505.383C280.92 505.383 280.834 506.488 281.758 507.284C282.682 508.08 283.553 508.008 283.434 508.343C283.316 508.679 285.916 510.047 284.173 510.803C279.99 512.632 277.786 507.613 277.786 507.613C277.786 507.613 276.057 506.047 275.687 504.64C275.318 503.232 275.225 502.706 275.225 502.706C275.225 502.706 274.526 499.397 274.315 497.628C274.103 495.858 274.882 494.273 275.839 494.464C276.235 494.543 274.829 495.819 275.813 497.193C276.882 498.687 277.99 499.331 278.677 499.173C279.363 499.016 281.983 497.647 282.425 497.325C285.81 494.852 286.345 493.786 286.338 493.924C286.331 494.062 286.496 494.128 283.316 496.812C283.903 496.661 287.216 495.648 287.823 495.924L287.836 495.93Z" fill="#D3AFA2"/>
<path d="M322.17 481.3L319.366 471.243C319.366 471.243 318.461 465.428 320.138 462.461C320.91 461.093 326.473 461.362 327.04 463.04C327.608 464.717 324.546 467.414 324.546 467.414C324.546 467.414 329.31 473.472 329.409 478.222C329.502 482.761 331.851 487.194 331.824 487.951C330.887 489.444 323.655 486.596 322.177 481.3H322.17Z" fill="#F0D6C8"/>
<path opacity="0.55" d="M325.675 468.092C325.675 468.092 323.352 470.026 323.042 472.459C322.904 473.571 323.94 474.071 323.94 474.071C323.94 474.071 320.594 476.248 323.214 477.926C325.834 479.603 334.155 475.847 334.155 475.847L325.675 468.092Z" fill="#D3AFA2"/>
<path d="M323.517 471.802C323.253 473.229 325.015 473.295 325.015 473.295C325.015 473.295 320.897 475.722 323.517 477.4C324.269 477.88 326.13 477.545 326.599 477.314C326.077 477.683 327.285 479.143 328.968 478.702C332.445 477.801 334.749 475.532 334.749 475.532L337.421 481.774C337.421 481.774 342.621 474.92 341.618 471.835C341.512 471.506 341.46 470.94 341.176 470.5C340.734 469.822 339.777 469.191 339.242 468.302C338.952 467.816 338.912 466.619 338.616 466.119C338.167 465.356 337.626 464.842 337.144 464.336C336.834 464.007 336.821 463.04 336.596 462.645C335.884 461.396 335.131 461.172 335.131 461.172C335.131 461.172 338.688 458.396 336.438 456.146C334.194 453.897 330.637 456.508 329.892 457.626C329.192 458.324 328.79 459.297 328.565 460.31C328.737 461.159 329.535 461.974 329.562 462.534C329.562 462.534 324.698 467.987 323.537 471.802H323.517Z" fill="#F0D6C8"/>
<path d="M285.514 510.474C285.514 510.474 285.376 511.211 283.911 511.96C282.657 512.605 280.638 513.217 278.849 512.171C275.339 510.112 272.396 503.153 273.273 498.699C273.847 495.772 275.108 494.706 275.108 494.706C275.022 495.364 273.96 497.956 275.306 499.548C275.708 500.021 277.094 500.535 277.906 500.659C278.143 500.699 278.453 500.732 278.275 500.831C276.203 505.902 278.196 508.981 280.69 509.987C282.769 510.829 285.514 510.474 285.514 510.474Z" fill="#3B2C21"/>
<path d="M280.202 498.548C278.592 499.588 277.753 501.311 280.202 501.857C280.769 501.969 281.376 502.008 282.003 502.015C281.429 502.271 280.789 502.39 280.136 502.364C277.173 502.186 277.489 499.002 280.202 498.555V498.548Z" fill="#2A211A"/>
<path d="M283.738 510.145C283.738 510.145 283.712 511.086 281.191 512.211C279.937 512.77 278.024 513.263 274.605 512.559L241.749 517.341C241.749 517.341 240.053 515.611 239.591 511.737C239.591 511.737 248.342 515.184 262.074 513.566C271.438 512.46 272.058 504.337 272.058 504.337C272.058 504.337 274.434 512.441 280.987 511.954C282.828 511.599 283.738 510.138 283.738 510.138V510.145Z" fill="#261B14"/>
<path opacity="0.55" d="M311.837 516.249C309.877 516.249 308.187 515.565 307.402 514.579C307.402 514.605 307.396 514.631 307.396 514.658C307.396 516.032 309.276 517.151 311.599 517.151C313.658 517.151 315.367 516.269 315.73 515.111C314.833 515.802 313.427 516.249 311.843 516.249H311.837Z" fill="#D3AFA2"/>
<path opacity="0.55" d="M278.849 493.207C277.826 493.463 276.401 493.911 275.576 494.706C275.576 494.706 278.38 493.457 280.98 492.878C280.98 492.878 279.456 493.055 278.849 493.207Z" fill="#D3AFA2"/>
<path opacity="0.55" d="M283.118 504.773C283.118 504.773 285.17 504.357 286.847 504.251L283.118 504.773Z" fill="#D3AFA2"/>
<path opacity="0.55" d="M325.015 473.296C325.015 473.296 332.254 466.58 333.409 466.461C334.563 466.343 336.794 467.034 336.794 467.034C336.794 467.034 334.438 466.501 333.818 467.047C333.197 467.586 325.015 473.302 325.015 473.302V473.296Z" fill="#D3AFA2"/>
<path d="M327.331 476.795C327.331 476.795 334.775 471.19 335.791 471C336.807 470.809 338.609 470.973 338.609 470.973C338.609 470.973 337.414 471.401 335.791 471.651C334.174 471.901 327.331 476.795 327.331 476.795Z" fill="#D3AFA2"/>
<path d="M329.944 462.303C330.697 462.238 335.111 461.172 335.111 461.172L335.646 460.692C335.646 460.692 333.864 460.494 332.967 461.119C332.069 461.744 328.671 462.481 328.757 459.981C328.545 460.31 328.347 460.481 329.542 462.442L329.944 462.31V462.303Z" fill="#D3AFA2"/>
<path opacity="0.55" d="M322.091 467.04C322.091 467.04 323.345 467.263 325.192 465.908C327.033 464.553 327.033 463.034 327.033 463.034C327.033 463.034 327.555 464.066 325.912 465.954C324.598 467.461 324.539 467.408 324.539 467.408L322.091 467.033V467.04Z" fill="#D3AFA2"/>
<path opacity="0.55" d="M279.667 502.817C279.667 502.817 279.337 503.455 279.482 504.113C279.588 504.606 280.03 505.139 280.703 505.271C280.703 505.271 279.997 504.83 279.687 504.067C279.542 503.718 279.627 503.133 279.667 502.81V502.817Z" fill="#D3AFA2"/>
<path opacity="0.55" d="M282.109 498.397C282.109 498.397 281.501 500.015 283.29 500.923C283.29 500.923 281.831 499.942 282.109 498.397Z" fill="#D3AFA2"/>
<path opacity="0.55" d="M275.496 495.786C275.496 495.786 274.836 497.805 277.205 498.667C277.205 498.667 275.212 497.206 275.496 495.786Z" fill="#D3AFA2"/>
<path d="M281.001 506.106C281.001 506.106 281.113 507.816 282.624 507.836C282.624 507.836 281.437 507.435 281.001 506.106Z" fill="#D3AFA2"/>
<path opacity="0.55" d="M286.853 508.145C286.853 508.145 284.933 508.777 285.21 509.145C285.487 509.513 286.853 508.145 286.853 508.145Z" fill="#D3AFA2"/>
<path d="M365.427 424L357.541 424.723C357.093 424.723 356.921 425.309 357.297 425.558L361.831 427.65C361.897 427.696 361.956 427.762 361.989 427.834L363.507 432.571C363.698 432.978 364.305 432.886 364.371 432.439L365.889 424.519C365.929 424.243 365.711 423.993 365.434 424H365.427Z" fill="#0F4961"/>
</g>
</g>
</g>
<defs>
<filter id="filter0_d_276_3733" x="147.078" y="555.467" width="236.749" height="168.519" filterUnits="userSpaceOnUse" color-interpolation-filters="sRGB">
<feFlood flood-opacity="0" result="BackgroundImageFix"/>
<feColorMatrix in="SourceAlpha" type="matrix" values="0 0 0 0 0 0 0 0 0 0 0 0 0 0 0 0 0 0 127 0" result="hardAlpha"/>
<feOffset dx="1.64409" dy="3.28818"/>
<feGaussianBlur stdDeviation="8.22045"/>
<feComposite in2="hardAlpha" operator="out"/>
<feColorMatrix type="matrix" values="0 0 0 0 0.0460417 0 0 0 0 0.603958 0 0 0 0 0.401381 0 0 0 0.24 0"/>
<feBlend mode="normal" in2="BackgroundImageFix" result="effect1_dropShadow_276_3733"/>
<feBlend mode="normal" in="SourceGraphic" in2="effect1_dropShadow_276_3733" result="shape"/>
</filter>
<filter id="filter1_d_276_3733" x="89.5352" y="469.975" width="351.835" height="238.393" filterUnits="userSpaceOnUse" color-interpolation-filters="sRGB">
<feFlood flood-opacity="0" result="BackgroundImageFix"/>
<feColorMatrix in="SourceAlpha" type="matrix" values="0 0 0 0 0 0 0 0 0 0 0 0 0 0 0 0 0 0 127 0" result="hardAlpha"/>
<feOffset dx="1.64409" dy="3.28818"/>
<feGaussianBlur stdDeviation="8.22045"/>
<feComposite in2="hardAlpha" operator="out"/>
<feColorMatrix type="matrix" values="0 0 0 0 0.0460417 0 0 0 0 0.603958 0 0 0 0 0.401381 0 0 0 0.24 0"/>
<feBlend mode="normal" in2="BackgroundImageFix" result="effect1_dropShadow_276_3733"/>
<feBlend mode="normal" in="SourceGraphic" in2="effect1_dropShadow_276_3733" result="shape"/>
</filter>
<filter id="filter2_d_276_3733" x="103.51" y="413.253" width="324.708" height="221.952" filterUnits="userSpaceOnUse" color-interpolation-filters="sRGB">
<feFlood flood-opacity="0" result="BackgroundImageFix"/>
<feColorMatrix in="SourceAlpha" type="matrix" values="0 0 0 0 0 0 0 0 0 0 0 0 0 0 0 0 0 0 127 0" result="hardAlpha"/>
<feOffset dx="1.64409" dy="3.28818"/>
<feGaussianBlur stdDeviation="8.22045"/>
<feComposite in2="hardAlpha" operator="out"/>
<feColorMatrix type="matrix" values="0 0 0 0 0.0460417 0 0 0 0 0.603958 0 0 0 0 0.401381 0 0 0 0.24 0"/>
<feBlend mode="normal" in2="BackgroundImageFix" result="effect1_dropShadow_276_3733"/>
<feBlend mode="normal" in="SourceGraphic" in2="effect1_dropShadow_276_3733" result="shape"/>
</filter>
<filter id="filter3_d_276_3733" x="119.129" y="357.354" width="292.648" height="203.045" filterUnits="userSpaceOnUse" color-interpolation-filters="sRGB">
<feFlood flood-opacity="0" result="BackgroundImageFix"/>
<feColorMatrix in="SourceAlpha" type="matrix" values="0 0 0 0 0 0 0 0 0 0 0 0 0 0 0 0 0 0 127 0" result="hardAlpha"/>
<feOffset dx="1.64409" dy="3.28818"/>
<feGaussianBlur stdDeviation="8.22045"/>
<feComposite in2="hardAlpha" operator="out"/>
<feColorMatrix type="matrix" values="0 0 0 0 0.0460417 0 0 0 0 0.603958 0 0 0 0 0.401381 0 0 0 0.24 0"/>
<feBlend mode="normal" in2="BackgroundImageFix" result="effect1_dropShadow_276_3733"/>
<feBlend mode="normal" in="SourceGraphic" in2="effect1_dropShadow_276_3733" result="shape"/>
</filter>
<filter id="filter4_d_276_3733" x="163.519" y="328.583" width="203.867" height="148.79" filterUnits="userSpaceOnUse" color-interpolation-filters="sRGB">
<feFlood flood-opacity="0" result="BackgroundImageFix"/>
<feColorMatrix in="SourceAlpha" type="matrix" values="0 0 0 0 0 0 0 0 0 0 0 0 0 0 0 0 0 0 127 0" result="hardAlpha"/>
<feOffset dx="1.64409" dy="3.28818"/>
<feGaussianBlur stdDeviation="8.22045"/>
<feComposite in2="hardAlpha" operator="out"/>
<feColorMatrix type="matrix" values="0 0 0 0 0.0460417 0 0 0 0 0.603958 0 0 0 0 0.401381 0 0 0 0.24 0"/>
<feBlend mode="normal" in2="BackgroundImageFix" result="effect1_dropShadow_276_3733"/>
<feBlend mode="normal" in="SourceGraphic" in2="effect1_dropShadow_276_3733" result="shape"/>
</filter>
<filter id="filter5_d_276_3733" x="-65.8315" y="465.042" width="278.673" height="195.647" filterUnits="userSpaceOnUse" color-interpolation-filters="sRGB">
<feFlood flood-opacity="0" result="BackgroundImageFix"/>
<feColorMatrix in="SourceAlpha" type="matrix" values="0 0 0 0 0 0 0 0 0 0 0 0 0 0 0 0 0 0 127 0" result="hardAlpha"/>
<feOffset dx="1.64409" dy="3.28818"/>
<feGaussianBlur stdDeviation="8.22045"/>
<feComposite in2="hardAlpha" operator="out"/>
<feColorMatrix type="matrix" values="0 0 0 0 0.0460417 0 0 0 0 0.603958 0 0 0 0 0.401381 0 0 0 0.24 0"/>
<feBlend mode="normal" in2="BackgroundImageFix" result="effect1_dropShadow_276_3733"/>
<feBlend mode="normal" in="SourceGraphic" in2="effect1_dropShadow_276_3733" result="shape"/>
</filter>
<filter id="filter6_d_276_3733" x="-135.706" y="361.465" width="417.599" height="281.139" filterUnits="userSpaceOnUse" color-interpolation-filters="sRGB">
<feFlood flood-opacity="0" result="BackgroundImageFix"/>
<feColorMatrix in="SourceAlpha" type="matrix" values="0 0 0 0 0 0 0 0 0 0 0 0 0 0 0 0 0 0 127 0" result="hardAlpha"/>
<feOffset dx="1.64409" dy="3.28818"/>
<feGaussianBlur stdDeviation="8.22045"/>
<feComposite in2="hardAlpha" operator="out"/>
<feColorMatrix type="matrix" values="0 0 0 0 0.0460417 0 0 0 0 0.603958 0 0 0 0 0.401381 0 0 0 0.24 0"/>
<feBlend mode="normal" in2="BackgroundImageFix" result="effect1_dropShadow_276_3733"/>
<feBlend mode="normal" in="SourceGraphic" in2="effect1_dropShadow_276_3733" result="shape"/>
</filter>
<filter id="filter7_d_276_3733" x="-119.264" y="293.235" width="385.539" height="260.588" filterUnits="userSpaceOnUse" color-interpolation-filters="sRGB">
<feFlood flood-opacity="0" result="BackgroundImageFix"/>
<feColorMatrix in="SourceAlpha" type="matrix" values="0 0 0 0 0 0 0 0 0 0 0 0 0 0 0 0 0 0 127 0" result="hardAlpha"/>
<feOffset dx="1.64409" dy="3.28818"/>
<feGaussianBlur stdDeviation="8.22045"/>
<feComposite in2="hardAlpha" operator="out"/>
<feColorMatrix type="matrix" values="0 0 0 0 0.0460417 0 0 0 0 0.603958 0 0 0 0 0.401381 0 0 0 0.24 0"/>
<feBlend mode="normal" in2="BackgroundImageFix" result="effect1_dropShadow_276_3733"/>
<feBlend mode="normal" in="SourceGraphic" in2="effect1_dropShadow_276_3733" result="shape"/>
</filter>
<filter id="filter8_d_276_3733" x="-100.358" y="225.827" width="346.903" height="238.393" filterUnits="userSpaceOnUse" color-interpolation-filters="sRGB">
<feFlood flood-opacity="0" result="BackgroundImageFix"/>
<feColorMatrix in="SourceAlpha" type="matrix" values="0 0 0 0 0 0 0 0 0 0 0 0 0 0 0 0 0 0 127 0" result="hardAlpha"/>
<feOffset dx="1.64409" dy="3.28818"/>
<feGaussianBlur stdDeviation="8.22045"/>
<feComposite in2="hardAlpha" operator="out"/>
<feColorMatrix type="matrix" values="0 0 0 0 0.0460417 0 0 0 0 0.603958 0 0 0 0 0.401381 0 0 0 0.24 0"/>
<feBlend mode="normal" in2="BackgroundImageFix" result="effect1_dropShadow_276_3733"/>
<feBlend mode="normal" in="SourceGraphic" in2="effect1_dropShadow_276_3733" result="shape"/>
</filter>
<filter id="filter9_d_276_3733" x="-46.9243" y="191.301" width="240.037" height="172.629" filterUnits="userSpaceOnUse" color-interpolation-filters="sRGB">
<feFlood flood-opacity="0" result="BackgroundImageFix"/>
<feColorMatrix in="SourceAlpha" type="matrix" values="0 0 0 0 0 0 0 0 0 0 0 0 0 0 0 0 0 0 127 0" result="hardAlpha"/>
<feOffset dx="1.64409" dy="3.28818"/>
<feGaussianBlur stdDeviation="8.22045"/>
<feComposite in2="hardAlpha" operator="out"/>
<feColorMatrix type="matrix" values="0 0 0 0 0.0460417 0 0 0 0 0.603958 0 0 0 0 0.401381 0 0 0 0.24 0"/>
<feBlend mode="normal" in2="BackgroundImageFix" result="effect1_dropShadow_276_3733"/>
<feBlend mode="normal" in="SourceGraphic" in2="effect1_dropShadow_276_3733" result="shape"/>
</filter>
<filter id="filter10_f_276_3733" x="143.366" y="832.575" width="264.504" height="94.2485" filterUnits="userSpaceOnUse" color-interpolation-filters="sRGB">
<feFlood flood-opacity="0" result="BackgroundImageFix"/>
<feBlend mode="normal" in="SourceGraphic" in2="BackgroundImageFix" result="shape"/>
<feGaussianBlur stdDeviation="6.08055" result="effect1_foregroundBlur_276_3733"/>
</filter>
<linearGradient id="paint0_linear_276_3733" x1="1619.74" y1="932" x2="1619.74" y2="1864" gradientUnits="userSpaceOnUse">
<stop stop-color="#61D9D6"/>
<stop offset="1" stop-color="#4CBCFB"/>
</linearGradient>
<linearGradient id="paint1_linear_276_3733" x1="264.22" y1="644.248" x2="264.22" y2="722.342" gradientUnits="userSpaceOnUse">
<stop stop-color="#F8744B"/>
<stop offset="1" stop-color="#D8B792"/>
</linearGradient>
<linearGradient id="paint2_linear_276_3733" x1="71.8611" y1="569.442" x2="71.8611" y2="663.155" gradientUnits="userSpaceOnUse">
<stop stop-color="#F8744B"/>
<stop offset="1" stop-color="#D8B792"/>
</linearGradient>
<clipPath id="clip0_276_3733">
<rect width="1080" height="932" fill="white"/>
</clipPath>
<clipPath id="clip1_276_3733">
<rect width="621" height="792" fill="white" transform="translate(0 140)"/>
</clipPath>
<clipPath id="clip2_276_3733">
<rect width="441.438" height="308.267" fill="white" transform="translate(-113.51 873.599)"/>
</clipPath>
<clipPath id="clip3_276_3733">
<rect width="260" height="544" fill="white" transform="translate(136 332)"/>
</clipPath>
</defs>
</svg>
