<svg width="1080" height="1920" viewBox="0 0 1080 1920" fill="none" xmlns="http://www.w3.org/2000/svg">
<g clip-path="url(#clip0_276_3153)">
<rect width="1080" height="1920" transform="translate(1080 1920) rotate(-180)" fill="white"/>
<rect x="1080" y="1920" width="1080" height="1923" transform="rotate(180 1080 1920)" fill="#EAF0FF"/>
<path fill-rule="evenodd" clip-rule="evenodd" d="M253.659 1029.75L210.757 1007.87L210.757 1007.89C189.96 997.26 150.761 997.339 130.153 1008.03L-414.348 1290.68C-448.379 1308.34 -401.838 1332.97 -352.272 1323.53L-154.067 1285.75L-154.067 1479.6L-154.067 1482L1654.09 1482L1389.03 1351.89L896.386 1100.71L896.386 1100.72C894.374 1099.69 892.19 1098.76 889.868 1097.94L543.262 920.923L543.262 920.936C522.465 910.292 483.266 910.37 462.658 921.08L253.659 1029.75Z" fill="#D8E5F8"/>
<path d="M1.00006 1353C1.00006 1353 489.5 1340.5 1080 1467C1080 1633 1080 1920 1080 1920H1.00006V1353Z" fill="url(#paint0_linear_276_3153)"/>
<path opacity="0.2" d="M1034.35 1534.52C1249.92 1534.52 1424.66 1522.66 1424.66 1508.04C1424.66 1493.42 1249.92 1481.57 1034.35 1481.57C818.79 1481.57 644.042 1493.42 644.042 1508.04C644.042 1522.66 818.79 1534.52 1034.35 1534.52Z" fill="#231F20"/>
<path d="M1017.09 1190.46L1015.06 1482.65C1015.06 1482.65 1015.11 1508.58 1035.97 1508.04C1056.83 1507.5 1057.52 1488.23 1057.52 1488.23L1056.7 1188.71L1017.09 1190.46Z" fill="#8B5E3C"/>
<path d="M868.424 1220.07L733.614 1479.36C733.614 1479.36 721.862 1502.46 740.661 1511.49C759.46 1520.51 768.873 1503.65 768.873 1503.65L904.454 1236.54L868.398 1220.09L868.424 1220.07Z" fill="#C49A6C"/>
<g filter="url(#filter0_d_276_3153)">
<path d="M1034.35 1354.7C1221.32 1354.7 1372.89 1203.22 1372.89 1016.35C1372.89 829.484 1221.32 678 1034.35 678C847.381 678 695.81 829.484 695.81 1016.35C695.81 1203.22 847.381 1354.7 1034.35 1354.7Z" fill="#E6E7E8"/>
</g>
<path d="M1034.35 1272.35C1175.82 1272.35 1290.5 1157.73 1290.5 1016.35C1290.5 874.966 1175.82 760.352 1034.35 760.352C892.888 760.352 778.208 874.966 778.208 1016.35C778.208 1157.73 892.888 1272.35 1034.35 1272.35Z" fill="#065277"/>
<path d="M1034.35 1188.71C1129.6 1188.71 1206.81 1111.54 1206.81 1016.35C1206.81 921.157 1129.6 843.988 1034.35 843.988C939.105 843.988 861.892 921.157 861.892 1016.35C861.892 1111.54 939.105 1188.71 1034.35 1188.71Z" fill="#00AD6E"/>
<path d="M1034.35 1106.87C1084.38 1106.87 1124.93 1066.34 1124.93 1016.35C1124.93 966.354 1084.38 925.825 1034.35 925.825C984.328 925.825 943.776 966.354 943.776 1016.35C943.776 1066.34 984.328 1106.87 1034.35 1106.87Z" fill="#EBB750"/>
<path d="M625.366 815.375L727.374 862.935L713.043 823.559L611.035 776L625.366 815.375Z" fill="#7DA8E8"/>
<path d="M620.315 824.786L722.45 872.07L683.135 886.513L581 839.25L620.315 824.786Z" fill="#528BE0"/>
<path d="M1000.36 996.434L618.606 818.484" stroke="#414042" stroke-width="10" stroke-miterlimit="10" stroke-linecap="round"/>
<path d="M754.239 651.526L826.286 738.023L830.084 696.294L758.037 609.797L754.239 651.526Z" fill="#00AD6E"/>
<path d="M745.661 657.892L817.938 744.192L776.218 740.504L703.932 654.223L745.661 657.892Z" fill="#009444"/>
<path d="M1016.43 975.129L746.789 651.46" stroke="#414042" stroke-width="10" stroke-miterlimit="10" stroke-linecap="round"/>
<path d="M592.675 1029.37L705.055 1023.27L673.88 995.286L561.499 1001.38L592.675 1029.37Z" fill="#62DBD3"/>
<path d="M592.651 1040.05L705.012 1033.65L677.124 1064.91L564.773 1071.33L592.651 1040.05Z" fill="#24BBB2"/>
<path d="M1008.73 1012.46L588.176 1035.31" stroke="#414042" stroke-width="10" stroke-miterlimit="10" stroke-linecap="round"/>
<path d="M650.105 1222.82L749.316 1169.67L709.219 1157.54L610.009 1210.68L650.105 1222.82Z" fill="#EBB750"/>
<path d="M654.604 1232.51L753.672 1179.09L741.657 1219.23L642.606 1272.65L654.604 1232.51Z" fill="#D19217"/>
<path d="M1019.8 1031.17L648.538 1230.09" stroke="#414042" stroke-width="10" stroke-miterlimit="10" stroke-linecap="round"/>
</g>
<defs>
<filter id="filter0_d_276_3153" x="645.81" y="632" width="777.084" height="776.7" filterUnits="userSpaceOnUse" color-interpolation-filters="sRGB">
<feFlood flood-opacity="0" result="BackgroundImageFix"/>
<feColorMatrix in="SourceAlpha" type="matrix" values="0 0 0 0 0 0 0 0 0 0 0 0 0 0 0 0 0 0 127 0" result="hardAlpha"/>
<feOffset dy="4"/>
<feGaussianBlur stdDeviation="25"/>
<feComposite in2="hardAlpha" operator="out"/>
<feColorMatrix type="matrix" values="0 0 0 0 0.646667 0 0 0 0 0.708958 0 0 0 0 0.8 0 0 0 0.56 0"/>
<feBlend mode="normal" in2="BackgroundImageFix" result="effect1_dropShadow_276_3153"/>
<feBlend mode="normal" in="SourceGraphic" in2="effect1_dropShadow_276_3153" result="shape"/>
</filter>
<linearGradient id="paint0_linear_276_3153" x1="-168" y1="1535" x2="1078" y2="1669" gradientUnits="userSpaceOnUse">
<stop stop-color="#39E7A9"/>
<stop offset="0.740654" stop-color="#33B988"/>
</linearGradient>
<clipPath id="clip0_276_3153">
<rect width="1080" height="1920" fill="white" transform="translate(1080 1920) rotate(-180)"/>
</clipPath>
</defs>
</svg>
