<svg width="1081" height="311" viewBox="0 0 1081 311" fill="none" xmlns="http://www.w3.org/2000/svg">
<g clip-path="url(#clip0_276_3740)">
<g filter="url(#filter0_d_276_3740)">
<path d="M0 103C0 103 220.296 63.0003 540.5 63.0001C860.703 62.9999 1080 103 1080 103V311H0V103Z" fill="url(#paint0_linear_276_3740)"/>
</g>
<path fill-rule="evenodd" clip-rule="evenodd" d="M907.61 243.172C907.763 243.446 908.034 243.583 908.421 243.583L908.427 243.589L908.6 243.582C909.37 243.548 910.009 243.52 910.513 243.502C910.997 243.483 911.474 243.466 911.943 243.449L912.107 243.443C912.629 243.424 913.274 243.415 914.049 243.415C915.21 243.415 916.242 243.424 917.151 243.443C918.057 243.462 919.13 243.512 920.368 243.589C920.715 243.589 920.976 243.452 921.151 243.179C921.326 242.905 921.412 242.612 921.412 242.298C921.372 241.632 921.228 241.259 920.976 241.181C920.724 241.103 920.386 241.063 919.962 241.063C918.457 241.063 917.385 240.966 916.746 240.77C916.107 240.574 915.8 240.154 915.818 239.507C915.836 238.86 916.058 237.873 916.485 236.541C916.522 236.504 916.571 236.386 916.629 236.19C916.687 235.994 916.841 235.564 917.093 234.898C917.345 234.233 917.76 233.156 918.34 231.668H932.658L934.631 236.541C935.171 238.147 935.356 239.298 935.18 240.005C935.005 240.711 933.97 241.063 932.078 241.063C931.691 241.063 931.362 241.103 931.092 241.181C930.821 241.262 930.665 241.632 930.628 242.298C930.628 242.612 930.705 242.905 930.858 243.179C931.012 243.452 931.282 243.589 931.669 243.589C934.182 243.471 936.578 243.412 938.858 243.412C940.016 243.412 941.06 243.421 941.988 243.44C942.916 243.459 943.997 243.508 945.235 243.586C945.582 243.586 945.843 243.449 946.018 243.176C946.193 242.902 946.279 242.609 946.279 242.295C946.239 241.629 946.095 241.256 945.843 241.178C945.591 241.1 945.253 241.06 944.829 241.06C944.018 241.019 943.352 240.776 942.83 240.325C942.307 239.874 941.893 239.295 941.582 238.592C941.272 237.889 940.983 237.204 940.713 236.538L930.975 212.227C930.281 210.465 929.525 209.143 928.714 208.262C927.9 207.379 926.935 206.784 925.814 206.47C924.693 206.156 923.341 206 921.756 206C921.139 206 920.598 206.028 920.134 206.087C919.67 206.146 919.44 206.507 919.44 207.173C919.44 207.758 919.535 208.104 919.729 208.2C919.919 208.3 920.306 208.405 920.887 208.524C921.544 208.639 922.143 208.807 922.684 209.022C923.224 209.239 923.612 209.591 923.842 210.08C924.075 210.571 923.999 211.284 923.612 212.224L913.468 236.535C913.158 237.279 912.841 238.004 912.513 238.707C912.184 239.41 911.748 239.98 911.207 240.409C910.663 240.842 909.874 241.056 908.829 241.056C908.442 241.056 908.114 241.097 907.843 241.175C907.573 241.256 907.419 241.626 907.379 242.292C907.379 242.606 907.456 242.899 907.61 243.172ZM931.608 229.139H919.434L925.578 214.047H925.753L931.608 229.139ZM891.335 243.997C890.524 241.766 889.799 239.74 889.16 237.92C888.521 236.099 887.805 234.102 887.016 231.93L886.985 231.845L886.983 231.841L886.982 231.837C886.201 229.696 885.419 227.555 884.638 225.411C883.845 223.239 883.13 221.25 882.494 219.452C881.855 217.65 881.13 215.656 880.319 213.462C879.701 211.856 879.081 210.702 878.463 209.999C877.846 209.295 876.918 208.825 875.68 208.589C875.14 208.471 874.762 208.374 874.55 208.296C874.338 208.219 874.23 207.867 874.23 207.238C874.23 206.573 874.461 206.212 874.925 206.153C875.388 206.093 875.929 206.065 876.547 206.065C879.136 206.106 881.145 206.585 882.577 207.503C884.005 208.424 885.148 209.999 885.996 212.23L894.401 235.132H894.576L902.575 211.586C902.999 210.335 903.017 209.541 902.633 209.208C902.246 208.875 901.377 208.71 900.025 208.71C899.638 208.71 899.31 208.673 899.039 208.592C898.769 208.514 898.612 208.144 898.575 207.475C898.575 207.161 898.652 206.868 898.806 206.594C898.959 206.321 899.211 206.184 899.558 206.184C900.793 206.224 901.869 206.261 902.775 206.302C903.681 206.342 904.716 206.361 905.877 206.361C906.652 206.361 907.287 206.352 907.791 206.333L908.004 206.325C908.437 206.309 908.879 206.293 909.327 206.274C909.813 206.256 910.425 206.228 911.161 206.194L911.327 206.187C911.714 206.187 911.984 206.324 912.138 206.597C912.292 206.871 912.368 207.167 912.368 207.478C912.328 208.144 912.184 208.514 911.932 208.595C911.68 208.673 911.342 208.713 910.918 208.713C909.45 208.713 908.289 208.987 907.441 209.535C906.59 210.083 905.856 211.141 905.238 212.706C905.238 212.668 905.036 213.204 904.63 214.321C904.225 215.438 903.693 216.925 903.036 218.783C902.378 220.644 901.653 222.688 900.861 224.919C900.068 227.15 899.267 229.381 898.456 231.612C897.645 233.843 896.91 235.9 896.253 237.777C895.596 239.656 894.861 241.732 894.05 244H891.326L891.335 243.997ZM842.984 243.583C842.637 243.583 842.385 243.446 842.231 243.172C842.078 242.898 842.001 242.606 842.001 242.292C842.038 241.626 842.194 241.255 842.465 241.174C842.735 241.097 843.064 241.056 843.451 241.056C844.686 241.056 845.558 240.832 846.059 240.381C846.56 239.933 846.879 239.363 847.014 238.679C847.149 237.994 847.217 237.279 847.217 236.535V226.304L836.198 226.299C836.076 228.984 835.485 231.345 834.426 233.386C833.228 235.695 831.624 237.606 829.615 239.112C827.606 240.618 825.354 241.735 822.863 242.46C820.371 243.185 817.828 243.546 815.238 243.546H807.239C806.081 243.546 804.96 243.555 803.875 243.574C802.794 243.593 801.614 243.642 800.339 243.72H800.336C799.989 243.72 799.737 243.583 799.584 243.309C799.43 243.036 799.353 242.743 799.353 242.429C799.39 241.763 799.547 241.393 799.817 241.312C800.087 241.234 800.416 241.193 800.803 241.193C802.038 241.193 802.911 240.969 803.411 240.518C803.912 240.07 804.232 239.501 804.367 238.816C804.502 238.132 804.569 237.416 804.569 236.672V227.163H810.308V237.378C810.308 238.944 810.781 240.002 811.727 240.549C812.673 241.097 814.132 241.371 816.105 241.371C819.235 241.371 821.766 240.696 823.698 239.345C825.631 237.995 827.031 236.106 827.901 233.679C828.672 231.525 829.102 229.064 829.19 226.295L792.828 226.279C792.151 226.793 791.561 227.418 791.084 228.13L790.554 228.919C790.483 229.025 790.365 229.088 790.239 229.088H780.192C780.04 229.088 779.949 228.917 780.031 228.787L780.154 228.593C781.074 227.143 782.44 226.046 784.037 225.473L784.324 225.37C784.495 225.309 784.495 225.063 784.324 225.002L784.037 224.899C782.44 224.326 781.074 223.229 780.154 221.779L780.031 221.585C779.949 221.456 780.04 221.284 780.192 221.284H790.239C790.365 221.284 790.483 221.348 790.554 221.454L791.084 222.243C791.52 222.893 792.05 223.471 792.655 223.959L829.176 223.957C829.046 221.258 828.495 218.822 827.526 216.651C826.405 214.147 824.774 212.18 822.626 210.749C820.482 209.32 817.883 208.605 814.83 208.605C814.212 208.605 813.398 208.614 812.394 208.633C811.389 208.651 810.692 208.661 810.308 208.661V223.118H804.569V213.362C804.569 212.619 804.502 211.903 804.367 211.218C804.232 210.534 803.912 209.968 803.411 209.516C802.908 209.068 802.038 208.841 800.803 208.841C800.416 208.841 800.087 208.804 799.817 208.723C799.547 208.645 799.39 208.275 799.353 207.606C799.353 207.292 799.43 206.999 799.584 206.725C799.737 206.451 799.989 206.314 800.336 206.314L800.391 206.316C801.645 206.356 802.806 206.393 803.872 206.433C804.953 206.473 806.075 206.492 807.236 206.492H816.28C819.991 206.492 823.351 207.235 826.368 208.723C829.381 210.21 831.778 212.345 833.556 215.124C835.142 217.601 836.019 220.545 836.191 223.956L847.217 223.956V213.225C847.217 212.481 847.149 211.766 847.014 211.081C846.879 210.397 846.56 209.83 846.059 209.379C845.555 208.931 844.686 208.704 843.451 208.704C843.064 208.704 842.735 208.667 842.465 208.586C842.194 208.508 842.038 208.138 842.001 207.469C842.001 207.154 842.078 206.862 842.231 206.588C842.385 206.314 842.637 206.177 842.984 206.177L843.039 206.179C844.292 206.219 845.454 206.256 846.52 206.295C847.601 206.336 848.722 206.355 849.884 206.355H868.085C868.509 206.355 868.868 206.454 869.157 206.647C869.446 206.843 869.593 207.217 869.593 207.764L869.768 215.985C869.768 216.377 869.584 216.67 869.218 216.866C868.85 217.062 868.512 217.158 868.205 217.158C867.778 217.158 867.394 217.071 867.046 216.894C866.699 216.717 866.484 216.452 866.407 216.1C866.137 214.339 865.818 212.92 865.452 211.844C865.083 210.767 864.543 209.986 863.83 209.494C863.114 209.006 862.082 208.741 860.727 208.701H852.959V223.618H863.452C863.508 223.626 863.561 223.637 863.611 223.651C862.771 222.345 861.978 221.068 861.6 219.632C861.526 219.348 861.849 219.175 862.056 219.383C862.216 219.543 862.375 219.705 862.535 219.867L862.535 219.867C863.37 220.713 864.206 221.561 865.123 222.306C866.044 223.054 867.044 223.702 868.06 224.36C868.346 224.545 868.633 224.731 868.92 224.92C869.124 225.055 869.097 225.367 868.877 225.473C866.281 226.723 864.165 228.688 862.175 230.845C861.975 231.062 861.636 230.904 861.702 230.614C862.044 229.096 862.886 227.796 863.768 226.432L863.769 226.432L863.847 226.311L852.959 226.306V237.244C852.995 237.755 853.075 238.312 853.189 238.918C853.306 239.525 853.644 240.045 854.203 240.474C854.762 240.907 855.699 241.1 857.013 241.062H862.346C863.698 241.025 864.733 240.798 865.449 240.387C866.165 239.976 866.733 239.283 867.16 238.302C867.584 237.325 868.048 235.975 868.552 234.251C868.705 233.859 868.966 233.604 869.335 233.489C869.701 233.37 870.097 233.352 870.524 233.429C870.834 233.47 871.151 233.607 871.479 233.84C871.808 234.074 871.952 234.388 871.915 234.78L870.757 242.18C870.641 242.727 870.456 243.069 870.207 243.206C869.956 243.343 869.578 243.412 869.077 243.412H849.948C848.79 243.412 847.659 243.421 846.557 243.44C845.454 243.458 844.268 243.508 842.99 243.586L842.984 243.583ZM951.906 243.583C951.519 243.583 951.248 243.446 951.095 243.172C950.941 242.898 950.864 242.606 950.864 242.292C950.901 241.626 951.058 241.255 951.328 241.175C951.598 241.097 951.927 241.056 952.314 241.056C953.549 241.056 954.409 240.832 954.895 240.381C955.377 239.933 955.678 239.364 955.795 238.679C955.911 237.994 955.97 237.279 955.97 236.535L956.087 213.222C956.087 211.383 955.776 210.207 955.159 209.7C954.541 209.193 953.555 208.801 952.204 208.527C951.623 208.408 951.236 208.303 951.045 208.203C950.852 208.107 950.757 207.761 950.757 207.176C950.757 206.51 950.987 206.149 951.451 206.09C951.915 206.031 952.455 206.003 953.073 206.003C955.236 206.003 956.987 206.18 958.32 206.532C959.653 206.884 960.833 207.512 961.856 208.412C962.879 209.314 963.991 210.584 965.189 212.23L981.074 233.37H981.249L981.132 213.228C981.132 212.485 981.074 211.769 980.957 211.085C980.84 210.4 980.542 209.834 980.057 209.382C979.575 208.934 978.714 208.707 977.476 208.707C977.089 208.707 976.761 208.67 976.49 208.589C976.22 208.511 976.045 208.141 975.968 207.472C975.968 207.158 976.054 206.865 976.229 206.591C976.404 206.317 976.665 206.18 977.013 206.18C977.863 206.221 978.549 206.249 979.071 206.268C979.332 206.277 979.593 206.287 979.854 206.297C980.115 206.307 980.376 206.317 980.637 206.327C981.16 206.345 981.805 206.355 982.579 206.355C983.353 206.355 983.989 206.345 984.493 206.327L984.706 206.319C985.139 206.303 985.58 206.286 986.029 206.268C986.515 206.25 987.126 206.222 987.863 206.188L988.028 206.18C988.416 206.18 988.686 206.317 988.839 206.591C988.993 206.865 989.07 207.161 989.07 207.472C989.03 208.138 988.886 208.508 988.634 208.589C988.382 208.667 988.044 208.707 987.62 208.707C986.422 208.707 985.571 208.934 985.07 209.382C984.566 209.834 984.268 210.4 984.17 211.085C984.072 211.769 984.004 212.485 983.967 213.228L983.851 242.824C983.811 243.138 983.626 243.343 983.301 243.44C982.972 243.536 982.671 243.586 982.404 243.586C981.67 243.586 981.107 243.331 980.723 242.824L958.87 213.228H958.695L958.811 236.541C958.848 237.285 958.916 238.001 959.014 238.685C959.109 239.37 959.41 239.939 959.914 240.387C960.415 240.839 961.266 241.063 962.464 241.063C962.888 241.063 963.238 241.103 963.508 241.181C963.779 241.259 963.932 241.632 963.972 242.298C963.972 242.612 963.886 242.905 963.711 243.179C963.536 243.452 963.275 243.589 962.928 243.589C962.117 243.549 961.429 243.521 960.87 243.502C960.515 243.49 960.17 243.477 959.833 243.465L959.827 243.464L959.546 243.454L959.248 243.443C958.725 243.424 958.077 243.415 957.306 243.415C956.535 243.415 955.905 243.424 955.423 243.443L955.218 243.451C954.801 243.467 954.375 243.483 953.945 243.502C953.557 243.517 953.065 243.538 952.472 243.565L952.471 243.565L951.918 243.589L951.906 243.583ZM990.978 243.172C991.131 243.446 991.402 243.583 991.789 243.583L991.795 243.589L991.967 243.582C992.738 243.548 993.377 243.52 993.881 243.502C994.365 243.483 994.841 243.466 995.311 243.449L995.475 243.443C995.997 243.424 996.642 243.415 997.416 243.415C998.578 243.415 999.61 243.424 1000.52 243.443C1001.43 243.462 1002.5 243.512 1003.74 243.589C1004.08 243.589 1004.34 243.452 1004.52 243.179C1004.69 242.905 1004.78 242.612 1004.78 242.298C1004.74 241.632 1004.6 241.259 1004.34 241.181C1004.09 241.103 1003.75 241.063 1003.33 241.063C1001.82 241.063 1000.75 240.966 1000.11 240.77C999.475 240.574 999.167 240.154 999.186 239.507C999.204 238.86 999.425 237.873 999.852 236.541C999.889 236.504 999.938 236.386 999.997 236.19C1000.06 235.994 1000.21 235.564 1000.46 234.898C1000.71 234.233 1001.13 233.156 1001.71 231.668H1016.03L1018 236.541C1018.54 238.147 1018.72 239.298 1018.55 240.005C1018.37 240.711 1017.34 241.063 1015.45 241.063C1015.06 241.063 1014.73 241.103 1014.46 241.181C1014.19 241.262 1014.03 241.632 1014 242.298C1014 242.612 1014.07 242.905 1014.23 243.179C1014.38 243.452 1014.65 243.589 1015.04 243.589C1017.55 243.471 1019.95 243.412 1022.23 243.412C1023.38 243.412 1024.43 243.421 1025.36 243.44C1026.28 243.459 1027.36 243.508 1028.6 243.586C1028.95 243.586 1029.21 243.449 1029.39 243.176C1029.56 242.902 1029.65 242.609 1029.65 242.295C1029.61 241.629 1029.46 241.256 1029.21 241.178C1028.96 241.1 1028.62 241.06 1028.2 241.06C1027.39 241.019 1026.72 240.776 1026.2 240.325C1025.68 239.874 1025.26 239.295 1024.95 238.592C1024.64 237.889 1024.35 237.204 1024.08 236.538L1014.34 212.227C1013.65 210.465 1012.89 209.143 1012.08 208.262C1011.27 207.379 1010.3 206.784 1009.18 206.47C1008.06 206.156 1006.71 206 1005.12 206C1004.51 206 1003.97 206.028 1003.5 206.087C1003.04 206.146 1002.81 206.507 1002.81 207.173C1002.81 207.758 1002.9 208.104 1003.1 208.2C1003.29 208.3 1003.67 208.405 1004.25 208.524C1004.91 208.639 1005.51 208.807 1006.05 209.022C1006.59 209.239 1006.98 209.591 1007.21 210.08C1007.44 210.571 1007.37 211.284 1006.98 212.224L996.836 236.535C996.526 237.279 996.209 238.004 995.88 238.707C995.552 239.41 995.116 239.98 994.575 240.409C994.031 240.842 993.242 241.056 992.197 241.056C991.81 241.056 991.481 241.097 991.211 241.175C990.941 241.256 990.787 241.626 990.747 242.292C990.747 242.606 990.824 242.899 990.978 243.172ZM1014.98 229.139H1002.8L1008.95 214.047H1009.12L1014.98 229.139Z" fill="white"/>
</g>
<defs>
<filter id="filter0_d_276_3740" x="-40" y="18.0001" width="1160" height="328" filterUnits="userSpaceOnUse" color-interpolation-filters="sRGB">
<feFlood flood-opacity="0" result="BackgroundImageFix"/>
<feColorMatrix in="SourceAlpha" type="matrix" values="0 0 0 0 0 0 0 0 0 0 0 0 0 0 0 0 0 0 127 0" result="hardAlpha"/>
<feOffset dy="-5"/>
<feGaussianBlur stdDeviation="20"/>
<feComposite in2="hardAlpha" operator="out"/>
<feColorMatrix type="matrix" values="0 0 0 0 0.152941 0 0 0 0 0.717647 0 0 0 0 0.513726 0 0 0 0.25 0"/>
<feBlend mode="normal" in2="BackgroundImageFix" result="effect1_dropShadow_276_3740"/>
<feBlend mode="normal" in="SourceGraphic" in2="effect1_dropShadow_276_3740" result="shape"/>
</filter>
<linearGradient id="paint0_linear_276_3740" x1="540" y1="63.0001" x2="540" y2="290" gradientUnits="userSpaceOnUse">
<stop stop-color="#39E7A9"/>
<stop offset="0.837777" stop-color="#33B988"/>
</linearGradient>
<clipPath id="clip0_276_3740">
<rect width="1081" height="311" fill="white" transform="translate(1081 311) rotate(-180)"/>
</clipPath>
</defs>
</svg>
