<svg width="328" height="155" viewBox="0 0 328 155" fill="none" xmlns="http://www.w3.org/2000/svg">
<path d="M77.3295 155C34.6216 155 -4.85153e-07 131.926 0 103.463C3.39106e-07 83.5676 16.9146 66.3055 41.6823 57.7155C41.07 55.7201 40.7484 53.6539 40.7484 51.5375C40.7484 34.6307 61.2726 20.925 86.5904 20.925C95.4057 20.925 103.64 22.5866 110.629 25.4663C124.063 10.2287 148.913 2.48588e-06 177.348 0C219.899 -3.71991e-06 254.423 22.9046 254.677 51.2235C295.447 52.6661 327.84 75.1556 327.84 102.688C327.84 131.151 293.218 154.225 250.51 154.225C231.309 154.225 213.742 149.561 200.221 141.839C189.286 145.785 176.764 148.025 163.457 148.025C160.499 148.025 157.58 147.914 154.709 147.699C146.917 151.787 137.091 154.225 126.413 154.225C119.286 154.225 112.539 153.139 106.522 151.201C97.5147 153.65 87.6586 155 77.3295 155Z" fill="white"/>
</svg>
