<svg width="354" height="200" viewBox="0 0 354 200" fill="none" xmlns="http://www.w3.org/2000/svg">
<path d="M270.5 200C316.616 200 354 170.227 354 133.5C354 107.829 335.736 85.5554 308.992 74.4716C309.653 71.8969 310 69.2308 310 66.5C310 44.6848 287.838 27 260.5 27C250.981 27 242.09 29.144 234.544 32.8597C220.038 13.1982 193.204 2.68424e-06 162.5 0C116.554 -4.01673e-06 79.2752 29.5544 79.0015 66.0949C34.9774 67.9561 3.1057e-06 96.975 0 132.5C-3.21077e-06 169.227 37.3842 199 83.5 199C104.234 199 123.203 192.982 137.802 183.019C149.609 188.109 163.131 191 177.5 191C180.694 191 183.845 190.857 186.946 190.579C195.36 195.854 205.97 199 217.5 199C225.196 199 232.481 197.599 238.978 195.098C248.704 198.258 259.347 200 270.5 200Z" fill="white"/>
</svg>
