<svg width="180" height="115" viewBox="0 0 180 115" fill="none" xmlns="http://www.w3.org/2000/svg">
<g clip-path="url(#clip0_276_3044)">
<path d="M26.457 94.2929L43.0499 81.4786L59.3142 90.0214L84.4499 74.0857L100.55 83.45" stroke="#00CC82" stroke-width="3.28572" stroke-linecap="round" stroke-linejoin="round"/>
<path d="M68.0206 12.3142H18.5714C14.9421 12.3142 12 15.2563 12 18.8856V53.0571C12 56.6864 14.9421 59.6285 18.5714 59.6285H67.2C70.8293 59.6285 73.7715 56.6864 73.7715 53.0571V18.0651C73.7715 14.8889 71.1967 12.3142 68.0206 12.3142Z" stroke="url(#paint0_linear_276_3044)" stroke-width="1.31429" stroke-linecap="round" stroke-linejoin="round" stroke-dasharray="2.3 3.29"/>
<path d="M163.15 65.2142H128.314C124.685 65.2142 121.743 68.1563 121.743 71.7856V96.4285C121.743 100.058 124.685 103 128.314 103H161.171C164.801 103 167.743 100.058 167.743 96.4285V69.8069C167.743 67.2704 165.686 65.2142 163.15 65.2142Z" stroke="url(#paint1_linear_276_3044)" stroke-width="1.31429" stroke-linecap="round" stroke-linejoin="round" stroke-dasharray="2.3 3.29"/>
<g filter="url(#filter0_dd_276_3044)">
<rect x="78.3713" y="10.9999" width="89.3715" height="48.6286" rx="7.37824" fill="url(#paint2_linear_276_3044)" fill-opacity="0.8" shape-rendering="crispEdges"/>
</g>
<g filter="url(#filter1_dd_276_3044)">
<rect x="12" y="65.5428" width="103.5" height="37.4572" rx="7.37824" fill="url(#paint3_linear_276_3044)" fill-opacity="0.7" shape-rendering="crispEdges"/>
</g>
<path opacity="0.9" fill-rule="evenodd" clip-rule="evenodd" d="M125.195 18.5571C124.491 18.5571 123.921 19.2533 123.921 20.1122V49.2043C123.921 50.0632 124.491 50.7594 125.195 50.7594H127.754C128.457 50.7594 129.028 50.0632 129.028 49.2043V20.1122C129.028 19.2533 128.457 18.5571 127.754 18.5571H125.195ZM97.0599 28.3455C96.3561 28.3455 95.7856 28.916 95.7856 29.6197V49.4852C95.7856 50.189 96.3561 50.7594 97.0599 50.7594H99.6184C100.322 50.7594 100.893 50.189 100.893 49.4852V29.6197C100.893 28.916 100.322 28.3455 99.6184 28.3455H97.0599ZM106.438 38.4175C105.735 38.4175 105.164 38.9815 105.164 39.6772V49.4996C105.164 50.1953 105.735 50.7593 106.438 50.7593H108.997C109.701 50.7593 110.271 50.1953 110.271 49.4996V39.6772C110.271 38.9815 109.701 38.4175 108.997 38.4175H106.438ZM114.542 34.4228C114.542 33.7302 115.113 33.1688 115.817 33.1688H118.375C119.079 33.1688 119.649 33.7302 119.649 34.4228V49.5055C119.649 50.198 119.079 50.7595 118.375 50.7595H115.817C115.113 50.7595 114.542 50.198 114.542 49.5055V34.4228ZM133.299 29.6197C133.299 28.916 133.886 28.3455 134.609 28.3455H137.239C137.962 28.3455 138.548 28.916 138.548 29.6197V49.4852C138.548 50.189 137.962 50.7594 137.239 50.7594H134.609C133.886 50.7594 133.299 50.189 133.299 49.4852V29.6197ZM144.094 41.5385C143.39 41.5385 142.819 42.1003 142.819 42.7934V49.5045C142.819 50.1975 143.39 50.7594 144.094 50.7594H146.652C147.356 50.7594 147.926 50.1975 147.926 49.5045V42.7934C147.926 42.1003 147.356 41.5385 146.652 41.5385H144.094Z" fill="url(#paint4_linear_276_3044)" fill-opacity="0.5"/>
</g>
<defs>
<filter id="filter0_dd_276_3044" x="63.4094" y="-1.71775" width="119.295" height="78.5525" filterUnits="userSpaceOnUse" color-interpolation-filters="sRGB">
<feFlood flood-opacity="0" result="BackgroundImageFix"/>
<feColorMatrix in="SourceAlpha" type="matrix" values="0 0 0 0 0 0 0 0 0 0 0 0 0 0 0 0 0 0 127 0" result="hardAlpha"/>
<feOffset dy="2.24429"/>
<feGaussianBlur stdDeviation="7.48097"/>
<feComposite in2="hardAlpha" operator="out"/>
<feColorMatrix type="matrix" values="0 0 0 0 0.0996528 0 0 0 0 0.27497 0 0 0 0 0.483681 0 0 0 0.1 0"/>
<feBlend mode="normal" in2="BackgroundImageFix" result="effect1_dropShadow_276_3044"/>
<feColorMatrix in="SourceAlpha" type="matrix" values="0 0 0 0 0 0 0 0 0 0 0 0 0 0 0 0 0 0 127 0" result="hardAlpha"/>
<feOffset dy="2.24429"/>
<feGaussianBlur stdDeviation="3.74049"/>
<feComposite in2="hardAlpha" operator="out"/>
<feColorMatrix type="matrix" values="0 0 0 0 0.153472 0 0 0 0 0.241778 0 0 0 0 0.554861 0 0 0 0.1 0"/>
<feBlend mode="normal" in2="effect1_dropShadow_276_3044" result="effect2_dropShadow_276_3044"/>
<feBlend mode="normal" in="SourceGraphic" in2="effect2_dropShadow_276_3044" result="shape"/>
</filter>
<filter id="filter1_dd_276_3044" x="-2.96195" y="52.8252" width="133.424" height="67.3811" filterUnits="userSpaceOnUse" color-interpolation-filters="sRGB">
<feFlood flood-opacity="0" result="BackgroundImageFix"/>
<feColorMatrix in="SourceAlpha" type="matrix" values="0 0 0 0 0 0 0 0 0 0 0 0 0 0 0 0 0 0 127 0" result="hardAlpha"/>
<feOffset dy="2.24429"/>
<feGaussianBlur stdDeviation="7.48097"/>
<feComposite in2="hardAlpha" operator="out"/>
<feColorMatrix type="matrix" values="0 0 0 0 0.0996528 0 0 0 0 0.27497 0 0 0 0 0.483681 0 0 0 0.1 0"/>
<feBlend mode="normal" in2="BackgroundImageFix" result="effect1_dropShadow_276_3044"/>
<feColorMatrix in="SourceAlpha" type="matrix" values="0 0 0 0 0 0 0 0 0 0 0 0 0 0 0 0 0 0 127 0" result="hardAlpha"/>
<feOffset dy="2.24429"/>
<feGaussianBlur stdDeviation="3.74049"/>
<feComposite in2="hardAlpha" operator="out"/>
<feColorMatrix type="matrix" values="0 0 0 0 0.153472 0 0 0 0 0.241778 0 0 0 0 0.554861 0 0 0 0.1 0"/>
<feBlend mode="normal" in2="effect1_dropShadow_276_3044" result="effect2_dropShadow_276_3044"/>
<feBlend mode="normal" in="SourceGraphic" in2="effect2_dropShadow_276_3044" result="shape"/>
</filter>
<linearGradient id="paint0_linear_276_3044" x1="42.8857" y1="12.3142" x2="42.8857" y2="59.6285" gradientUnits="userSpaceOnUse">
<stop stop-color="#2ECCA3"/>
<stop offset="1" stop-color="#108DCA"/>
</linearGradient>
<linearGradient id="paint1_linear_276_3044" x1="144.743" y1="65.2142" x2="144.743" y2="103" gradientUnits="userSpaceOnUse">
<stop stop-color="#2ECCA3"/>
<stop offset="1" stop-color="#108DCA"/>
</linearGradient>
<linearGradient id="paint2_linear_276_3044" x1="123.057" y1="10.9999" x2="123.057" y2="59.6285" gradientUnits="userSpaceOnUse">
<stop stop-color="#F5FBFF"/>
<stop offset="1" stop-color="#F0F5FF"/>
</linearGradient>
<linearGradient id="paint3_linear_276_3044" x1="63.75" y1="65.5428" x2="63.75" y2="103" gradientUnits="userSpaceOnUse">
<stop stop-color="#F5FBFF"/>
<stop offset="1" stop-color="#F0F5FF"/>
</linearGradient>
<linearGradient id="paint4_linear_276_3044" x1="133.662" y1="25.0827" x2="133.804" y2="50.7595" gradientUnits="userSpaceOnUse">
<stop offset="0.0260417" stop-color="#4BBCF1"/>
<stop offset="0.488886" stop-color="#26A7E4"/>
<stop offset="1" stop-color="#2494D2"/>
</linearGradient>
<clipPath id="clip0_276_3044">
<rect width="180" height="115" fill="white"/>
</clipPath>
</defs>
</svg>
