<svg version="1.0" xmlns="http://www.w3.org/2000/svg" xmlns:xlink="http://www.w3.org/1999/xlink"
	 viewBox="0 0 100 100" enable-background="new 0 0 100 100" xml:space="preserve">
	
<svg xmlns="http://www.w3.org/2000/svg" xmlns:xlink="http://www.w3.org/1999/xlink" version="1.1" width="100" height="100" viewBox="0 0 2000 2000" x="0" y="0" shape-rendering="crispEdges"><defs/><rect x="0" y="0" width="2000" height="2000" fill="#ffffff"/><rect x="629" y="173" width="57" height="57" fill="#00a86b"/><rect x="686" y="173" width="57" height="57" fill="#00a86b"/><rect x="743" y="173" width="57" height="57" fill="#00a86b"/><rect x="800" y="173" width="57" height="57" fill="#00a86b"/><rect x="914" y="173" width="57" height="57" fill="#00a86b"/><rect x="971" y="173" width="57" height="57" fill="#00a86b"/><rect x="1028" y="173" width="57" height="57" fill="#00a86b"/><rect x="1142" y="173" width="57" height="57" fill="#00a86b"/><rect x="1199" y="173" width="57" height="57" fill="#00a86b"/><rect x="800" y="230" width="57" height="57" fill="#00a86b"/><rect x="857" y="230" width="57" height="57" fill="#00a86b"/><rect x="914" y="230" width="57" height="57" fill="#00a86b"/><rect x="971" y="230" width="57" height="57" fill="#00a86b"/><rect x="1085" y="230" width="57" height="57" fill="#00a86b"/><rect x="1142" y="230" width="57" height="57" fill="#00a86b"/><rect x="1313" y="230" width="57" height="57" fill="#00a86b"/><rect x="686" y="287" width="57" height="57" fill="#00a86b"/><rect x="800" y="287" width="57" height="57" fill="#00a86b"/><rect x="914" y="287" width="57" height="57" fill="#00a86b"/><rect x="1199" y="287" width="57" height="57" fill="#00a86b"/><rect x="1313" y="287" width="57" height="57" fill="#00a86b"/><rect x="743" y="344" width="57" height="57" fill="#00a86b"/><rect x="800" y="344" width="57" height="57" fill="#00a86b"/><rect x="971" y="344" width="57" height="57" fill="#00a86b"/><rect x="1199" y="344" width="57" height="57" fill="#00a86b"/><rect x="743" y="401" width="57" height="57" fill="#00a86b"/><rect x="800" y="401" width="57" height="57" fill="#00a86b"/><rect x="857" y="401" width="57" height="57" fill="#00a86b"/><rect x="914" y="401" width="57" height="57" fill="#00a86b"/><rect x="971" y="401" width="57" height="57" fill="#00a86b"/><rect x="1142" y="401" width="57" height="57" fill="#00a86b"/><rect x="1313" y="401" width="57" height="57" fill="#00a86b"/><rect x="686" y="458" width="57" height="57" fill="#00a86b"/><rect x="800" y="458" width="57" height="57" fill="#00a86b"/><rect x="914" y="458" width="57" height="57" fill="#00a86b"/><rect x="971" y="458" width="57" height="57" fill="#00a86b"/><rect x="1199" y="458" width="57" height="57" fill="#00a86b"/><rect x="629" y="515" width="57" height="57" fill="#00a86b"/><rect x="743" y="515" width="57" height="57" fill="#00a86b"/><rect x="857" y="515" width="57" height="57" fill="#00a86b"/><rect x="971" y="515" width="57" height="57" fill="#00a86b"/><rect x="1085" y="515" width="57" height="57" fill="#00a86b"/><rect x="1199" y="515" width="57" height="57" fill="#00a86b"/><rect x="1313" y="515" width="57" height="57" fill="#00a86b"/><rect x="629" y="572" width="57" height="57" fill="#00a86b"/><rect x="686" y="572" width="57" height="57" fill="#00a86b"/><rect x="857" y="572" width="57" height="57" fill="#00a86b"/><rect x="971" y="572" width="57" height="57" fill="#00a86b"/><rect x="1028" y="572" width="57" height="57" fill="#00a86b"/><rect x="1085" y="572" width="57" height="57" fill="#00a86b"/><rect x="1142" y="572" width="57" height="57" fill="#00a86b"/><rect x="1199" y="572" width="57" height="57" fill="#00a86b"/><rect x="173" y="629" width="57" height="57" fill="#00a86b"/><rect x="230" y="629" width="57" height="57" fill="#00a86b"/><rect x="344" y="629" width="57" height="57" fill="#00a86b"/><rect x="401" y="629" width="57" height="57" fill="#00a86b"/><rect x="515" y="629" width="57" height="57" fill="#00a86b"/><rect x="686" y="629" width="57" height="57" fill="#00a86b"/><rect x="857" y="629" width="57" height="57" fill="#00a86b"/><rect x="914" y="629" width="57" height="57" fill="#00a86b"/><rect x="971" y="629" width="57" height="57" fill="#00a86b"/><rect x="1028" y="629" width="57" height="57" fill="#00a86b"/><rect x="1256" y="629" width="57" height="57" fill="#00a86b"/><rect x="1427" y="629" width="57" height="57" fill="#00a86b"/><rect x="1769" y="629" width="57" height="57" fill="#00a86b"/><rect x="401" y="686" width="57" height="57" fill="#00a86b"/><rect x="458" y="686" width="57" height="57" fill="#00a86b"/><rect x="572" y="686" width="57" height="57" fill="#00a86b"/><rect x="629" y="686" width="57" height="57" fill="#00a86b"/><rect x="743" y="686" width="57" height="57" fill="#00a86b"/><rect x="971" y="686" width="57" height="57" fill="#00a86b"/><rect x="1256" y="686" width="57" height="57" fill="#00a86b"/><rect x="1370" y="686" width="57" height="57" fill="#00a86b"/><rect x="1541" y="686" width="57" height="57" fill="#00a86b"/><rect x="1598" y="686" width="57" height="57" fill="#00a86b"/><rect x="1655" y="686" width="57" height="57" fill="#00a86b"/><rect x="1769" y="686" width="57" height="57" fill="#00a86b"/><rect x="173" y="743" width="57" height="57" fill="#00a86b"/><rect x="287" y="743" width="57" height="57" fill="#00a86b"/><rect x="344" y="743" width="57" height="57" fill="#00a86b"/><rect x="401" y="743" width="57" height="57" fill="#00a86b"/><rect x="515" y="743" width="57" height="57" fill="#00a86b"/><rect x="572" y="743" width="57" height="57" fill="#00a86b"/><rect x="629" y="743" width="57" height="57" fill="#00a86b"/><rect x="686" y="743" width="57" height="57" fill="#00a86b"/><rect x="857" y="743" width="57" height="57" fill="#00a86b"/><rect x="971" y="743" width="57" height="57" fill="#00a86b"/><rect x="1028" y="743" width="57" height="57" fill="#00a86b"/><rect x="1142" y="743" width="57" height="57" fill="#00a86b"/><rect x="1484" y="743" width="57" height="57" fill="#00a86b"/><rect x="1598" y="743" width="57" height="57" fill="#00a86b"/><rect x="173" y="800" width="57" height="57" fill="#00a86b"/><rect x="230" y="800" width="57" height="57" fill="#00a86b"/><rect x="344" y="800" width="57" height="57" fill="#00a86b"/><rect x="401" y="800" width="57" height="57" fill="#00a86b"/><rect x="572" y="800" width="57" height="57" fill="#00a86b"/><rect x="629" y="800" width="57" height="57" fill="#00a86b"/><rect x="971" y="800" width="57" height="57" fill="#00a86b"/><rect x="1028" y="800" width="57" height="57" fill="#00a86b"/><rect x="1142" y="800" width="57" height="57" fill="#00a86b"/><rect x="1199" y="800" width="57" height="57" fill="#00a86b"/><rect x="1256" y="800" width="57" height="57" fill="#00a86b"/><rect x="1313" y="800" width="57" height="57" fill="#00a86b"/><rect x="1541" y="800" width="57" height="57" fill="#00a86b"/><rect x="1598" y="800" width="57" height="57" fill="#00a86b"/><rect x="1712" y="800" width="57" height="57" fill="#00a86b"/><rect x="287" y="857" width="57" height="57" fill="#00a86b"/><rect x="344" y="857" width="57" height="57" fill="#00a86b"/><rect x="458" y="857" width="57" height="57" fill="#00a86b"/><rect x="515" y="857" width="57" height="57" fill="#00a86b"/><rect x="629" y="857" width="57" height="57" fill="#00a86b"/><rect x="686" y="857" width="57" height="57" fill="#00a86b"/><rect x="743" y="857" width="57" height="57" fill="#00a86b"/><rect x="914" y="857" width="57" height="57" fill="#00a86b"/><rect x="971" y="857" width="57" height="57" fill="#00a86b"/><rect x="1028" y="857" width="57" height="57" fill="#00a86b"/><rect x="1142" y="857" width="57" height="57" fill="#00a86b"/><rect x="1256" y="857" width="57" height="57" fill="#00a86b"/><rect x="1484" y="857" width="57" height="57" fill="#00a86b"/><rect x="1598" y="857" width="57" height="57" fill="#00a86b"/><rect x="1655" y="857" width="57" height="57" fill="#00a86b"/><rect x="1769" y="857" width="57" height="57" fill="#00a86b"/><rect x="173" y="914" width="57" height="57" fill="#00a86b"/><rect x="230" y="914" width="57" height="57" fill="#00a86b"/><rect x="287" y="914" width="57" height="57" fill="#00a86b"/><rect x="344" y="914" width="57" height="57" fill="#00a86b"/><rect x="401" y="914" width="57" height="57" fill="#00a86b"/><rect x="743" y="914" width="57" height="57" fill="#00a86b"/><rect x="857" y="914" width="57" height="57" fill="#00a86b"/><rect x="1085" y="914" width="57" height="57" fill="#00a86b"/><rect x="1199" y="914" width="57" height="57" fill="#00a86b"/><rect x="1256" y="914" width="57" height="57" fill="#00a86b"/><rect x="1370" y="914" width="57" height="57" fill="#00a86b"/><rect x="1427" y="914" width="57" height="57" fill="#00a86b"/><rect x="1541" y="914" width="57" height="57" fill="#00a86b"/><rect x="1655" y="914" width="57" height="57" fill="#00a86b"/><rect x="230" y="971" width="57" height="57" fill="#00a86b"/><rect x="287" y="971" width="57" height="57" fill="#00a86b"/><rect x="401" y="971" width="57" height="57" fill="#00a86b"/><rect x="458" y="971" width="57" height="57" fill="#00a86b"/><rect x="515" y="971" width="57" height="57" fill="#00a86b"/><rect x="686" y="971" width="57" height="57" fill="#00a86b"/><rect x="743" y="971" width="57" height="57" fill="#00a86b"/><rect x="971" y="971" width="57" height="57" fill="#00a86b"/><rect x="1028" y="971" width="57" height="57" fill="#00a86b"/><rect x="1142" y="971" width="57" height="57" fill="#00a86b"/><rect x="1256" y="971" width="57" height="57" fill="#00a86b"/><rect x="1370" y="971" width="57" height="57" fill="#00a86b"/><rect x="1427" y="971" width="57" height="57" fill="#00a86b"/><rect x="1484" y="971" width="57" height="57" fill="#00a86b"/><rect x="1655" y="971" width="57" height="57" fill="#00a86b"/><rect x="1712" y="971" width="57" height="57" fill="#00a86b"/><rect x="173" y="1028" width="57" height="57" fill="#00a86b"/><rect x="230" y="1028" width="57" height="57" fill="#00a86b"/><rect x="287" y="1028" width="57" height="57" fill="#00a86b"/><rect x="344" y="1028" width="57" height="57" fill="#00a86b"/><rect x="401" y="1028" width="57" height="57" fill="#00a86b"/><rect x="686" y="1028" width="57" height="57" fill="#00a86b"/><rect x="857" y="1028" width="57" height="57" fill="#00a86b"/><rect x="914" y="1028" width="57" height="57" fill="#00a86b"/><rect x="971" y="1028" width="57" height="57" fill="#00a86b"/><rect x="1028" y="1028" width="57" height="57" fill="#00a86b"/><rect x="1199" y="1028" width="57" height="57" fill="#00a86b"/><rect x="1256" y="1028" width="57" height="57" fill="#00a86b"/><rect x="1484" y="1028" width="57" height="57" fill="#00a86b"/><rect x="1541" y="1028" width="57" height="57" fill="#00a86b"/><rect x="1655" y="1028" width="57" height="57" fill="#00a86b"/><rect x="173" y="1085" width="57" height="57" fill="#00a86b"/><rect x="287" y="1085" width="57" height="57" fill="#00a86b"/><rect x="515" y="1085" width="57" height="57" fill="#00a86b"/><rect x="686" y="1085" width="57" height="57" fill="#00a86b"/><rect x="743" y="1085" width="57" height="57" fill="#00a86b"/><rect x="800" y="1085" width="57" height="57" fill="#00a86b"/><rect x="857" y="1085" width="57" height="57" fill="#00a86b"/><rect x="1028" y="1085" width="57" height="57" fill="#00a86b"/><rect x="1085" y="1085" width="57" height="57" fill="#00a86b"/><rect x="1142" y="1085" width="57" height="57" fill="#00a86b"/><rect x="1313" y="1085" width="57" height="57" fill="#00a86b"/><rect x="1427" y="1085" width="57" height="57" fill="#00a86b"/><rect x="1541" y="1085" width="57" height="57" fill="#00a86b"/><rect x="1655" y="1085" width="57" height="57" fill="#00a86b"/><rect x="173" y="1142" width="57" height="57" fill="#00a86b"/><rect x="344" y="1142" width="57" height="57" fill="#00a86b"/><rect x="458" y="1142" width="57" height="57" fill="#00a86b"/><rect x="629" y="1142" width="57" height="57" fill="#00a86b"/><rect x="686" y="1142" width="57" height="57" fill="#00a86b"/><rect x="743" y="1142" width="57" height="57" fill="#00a86b"/><rect x="800" y="1142" width="57" height="57" fill="#00a86b"/><rect x="1085" y="1142" width="57" height="57" fill="#00a86b"/><rect x="1142" y="1142" width="57" height="57" fill="#00a86b"/><rect x="1313" y="1142" width="57" height="57" fill="#00a86b"/><rect x="1484" y="1142" width="57" height="57" fill="#00a86b"/><rect x="1541" y="1142" width="57" height="57" fill="#00a86b"/><rect x="1598" y="1142" width="57" height="57" fill="#00a86b"/><rect x="1712" y="1142" width="57" height="57" fill="#00a86b"/><rect x="173" y="1199" width="57" height="57" fill="#00a86b"/><rect x="230" y="1199" width="57" height="57" fill="#00a86b"/><rect x="401" y="1199" width="57" height="57" fill="#00a86b"/><rect x="458" y="1199" width="57" height="57" fill="#00a86b"/><rect x="515" y="1199" width="57" height="57" fill="#00a86b"/><rect x="629" y="1199" width="57" height="57" fill="#00a86b"/><rect x="686" y="1199" width="57" height="57" fill="#00a86b"/><rect x="857" y="1199" width="57" height="57" fill="#00a86b"/><rect x="914" y="1199" width="57" height="57" fill="#00a86b"/><rect x="971" y="1199" width="57" height="57" fill="#00a86b"/><rect x="1028" y="1199" width="57" height="57" fill="#00a86b"/><rect x="1256" y="1199" width="57" height="57" fill="#00a86b"/><rect x="1313" y="1199" width="57" height="57" fill="#00a86b"/><rect x="1427" y="1199" width="57" height="57" fill="#00a86b"/><rect x="1712" y="1199" width="57" height="57" fill="#00a86b"/><rect x="1769" y="1199" width="57" height="57" fill="#00a86b"/><rect x="173" y="1256" width="57" height="57" fill="#00a86b"/><rect x="230" y="1256" width="57" height="57" fill="#00a86b"/><rect x="287" y="1256" width="57" height="57" fill="#00a86b"/><rect x="344" y="1256" width="57" height="57" fill="#00a86b"/><rect x="572" y="1256" width="57" height="57" fill="#00a86b"/><rect x="629" y="1256" width="57" height="57" fill="#00a86b"/><rect x="686" y="1256" width="57" height="57" fill="#00a86b"/><rect x="800" y="1256" width="57" height="57" fill="#00a86b"/><rect x="914" y="1256" width="57" height="57" fill="#00a86b"/><rect x="1028" y="1256" width="57" height="57" fill="#00a86b"/><rect x="1085" y="1256" width="57" height="57" fill="#00a86b"/><rect x="1142" y="1256" width="57" height="57" fill="#00a86b"/><rect x="1199" y="1256" width="57" height="57" fill="#00a86b"/><rect x="1256" y="1256" width="57" height="57" fill="#00a86b"/><rect x="1427" y="1256" width="57" height="57" fill="#00a86b"/><rect x="1484" y="1256" width="57" height="57" fill="#00a86b"/><rect x="1541" y="1256" width="57" height="57" fill="#00a86b"/><rect x="1598" y="1256" width="57" height="57" fill="#00a86b"/><rect x="1655" y="1256" width="57" height="57" fill="#00a86b"/><rect x="1769" y="1256" width="57" height="57" fill="#00a86b"/><rect x="173" y="1313" width="57" height="57" fill="#00a86b"/><rect x="230" y="1313" width="57" height="57" fill="#00a86b"/><rect x="287" y="1313" width="57" height="57" fill="#00a86b"/><rect x="344" y="1313" width="57" height="57" fill="#00a86b"/><rect x="401" y="1313" width="57" height="57" fill="#00a86b"/><rect x="515" y="1313" width="57" height="57" fill="#00a86b"/><rect x="572" y="1313" width="57" height="57" fill="#00a86b"/><rect x="686" y="1313" width="57" height="57" fill="#00a86b"/><rect x="800" y="1313" width="57" height="57" fill="#00a86b"/><rect x="914" y="1313" width="57" height="57" fill="#00a86b"/><rect x="1028" y="1313" width="57" height="57" fill="#00a86b"/><rect x="1256" y="1313" width="57" height="57" fill="#00a86b"/><rect x="1313" y="1313" width="57" height="57" fill="#00a86b"/><rect x="1370" y="1313" width="57" height="57" fill="#00a86b"/><rect x="1427" y="1313" width="57" height="57" fill="#00a86b"/><rect x="1484" y="1313" width="57" height="57" fill="#00a86b"/><rect x="1541" y="1313" width="57" height="57" fill="#00a86b"/><rect x="1655" y="1313" width="57" height="57" fill="#00a86b"/><rect x="1712" y="1313" width="57" height="57" fill="#00a86b"/><rect x="1769" y="1313" width="57" height="57" fill="#00a86b"/><rect x="629" y="1370" width="57" height="57" fill="#00a86b"/><rect x="686" y="1370" width="57" height="57" fill="#00a86b"/><rect x="743" y="1370" width="57" height="57" fill="#00a86b"/><rect x="857" y="1370" width="57" height="57" fill="#00a86b"/><rect x="914" y="1370" width="57" height="57" fill="#00a86b"/><rect x="1256" y="1370" width="57" height="57" fill="#00a86b"/><rect x="1313" y="1370" width="57" height="57" fill="#00a86b"/><rect x="1541" y="1370" width="57" height="57" fill="#00a86b"/><rect x="1655" y="1370" width="57" height="57" fill="#00a86b"/><rect x="1769" y="1370" width="57" height="57" fill="#00a86b"/><rect x="686" y="1427" width="57" height="57" fill="#00a86b"/><rect x="743" y="1427" width="57" height="57" fill="#00a86b"/><rect x="800" y="1427" width="57" height="57" fill="#00a86b"/><rect x="914" y="1427" width="57" height="57" fill="#00a86b"/><rect x="1028" y="1427" width="57" height="57" fill="#00a86b"/><rect x="1256" y="1427" width="57" height="57" fill="#00a86b"/><rect x="1313" y="1427" width="57" height="57" fill="#00a86b"/><rect x="1427" y="1427" width="57" height="57" fill="#00a86b"/><rect x="1541" y="1427" width="57" height="57" fill="#00a86b"/><rect x="1598" y="1427" width="57" height="57" fill="#00a86b"/><rect x="800" y="1484" width="57" height="57" fill="#00a86b"/><rect x="857" y="1484" width="57" height="57" fill="#00a86b"/><rect x="914" y="1484" width="57" height="57" fill="#00a86b"/><rect x="1028" y="1484" width="57" height="57" fill="#00a86b"/><rect x="1199" y="1484" width="57" height="57" fill="#00a86b"/><rect x="1256" y="1484" width="57" height="57" fill="#00a86b"/><rect x="1313" y="1484" width="57" height="57" fill="#00a86b"/><rect x="1541" y="1484" width="57" height="57" fill="#00a86b"/><rect x="1655" y="1484" width="57" height="57" fill="#00a86b"/><rect x="629" y="1541" width="57" height="57" fill="#00a86b"/><rect x="686" y="1541" width="57" height="57" fill="#00a86b"/><rect x="743" y="1541" width="57" height="57" fill="#00a86b"/><rect x="800" y="1541" width="57" height="57" fill="#00a86b"/><rect x="857" y="1541" width="57" height="57" fill="#00a86b"/><rect x="914" y="1541" width="57" height="57" fill="#00a86b"/><rect x="1028" y="1541" width="57" height="57" fill="#00a86b"/><rect x="1085" y="1541" width="57" height="57" fill="#00a86b"/><rect x="1313" y="1541" width="57" height="57" fill="#00a86b"/><rect x="1370" y="1541" width="57" height="57" fill="#00a86b"/><rect x="1427" y="1541" width="57" height="57" fill="#00a86b"/><rect x="1484" y="1541" width="57" height="57" fill="#00a86b"/><rect x="1541" y="1541" width="57" height="57" fill="#00a86b"/><rect x="1598" y="1541" width="57" height="57" fill="#00a86b"/><rect x="1712" y="1541" width="57" height="57" fill="#00a86b"/><rect x="629" y="1598" width="57" height="57" fill="#00a86b"/><rect x="914" y="1598" width="57" height="57" fill="#00a86b"/><rect x="971" y="1598" width="57" height="57" fill="#00a86b"/><rect x="1028" y="1598" width="57" height="57" fill="#00a86b"/><rect x="1256" y="1598" width="57" height="57" fill="#00a86b"/><rect x="1370" y="1598" width="57" height="57" fill="#00a86b"/><rect x="1484" y="1598" width="57" height="57" fill="#00a86b"/><rect x="1598" y="1598" width="57" height="57" fill="#00a86b"/><rect x="1655" y="1598" width="57" height="57" fill="#00a86b"/><rect x="1712" y="1598" width="57" height="57" fill="#00a86b"/><rect x="743" y="1655" width="57" height="57" fill="#00a86b"/><rect x="800" y="1655" width="57" height="57" fill="#00a86b"/><rect x="857" y="1655" width="57" height="57" fill="#00a86b"/><rect x="914" y="1655" width="57" height="57" fill="#00a86b"/><rect x="1028" y="1655" width="57" height="57" fill="#00a86b"/><rect x="1142" y="1655" width="57" height="57" fill="#00a86b"/><rect x="1199" y="1655" width="57" height="57" fill="#00a86b"/><rect x="1256" y="1655" width="57" height="57" fill="#00a86b"/><rect x="1370" y="1655" width="57" height="57" fill="#00a86b"/><rect x="1427" y="1655" width="57" height="57" fill="#00a86b"/><rect x="1484" y="1655" width="57" height="57" fill="#00a86b"/><rect x="1598" y="1655" width="57" height="57" fill="#00a86b"/><rect x="1655" y="1655" width="57" height="57" fill="#00a86b"/><rect x="1712" y="1655" width="57" height="57" fill="#00a86b"/><rect x="1769" y="1655" width="57" height="57" fill="#00a86b"/><rect x="629" y="1712" width="57" height="57" fill="#00a86b"/><rect x="686" y="1712" width="57" height="57" fill="#00a86b"/><rect x="800" y="1712" width="57" height="57" fill="#00a86b"/><rect x="1028" y="1712" width="57" height="57" fill="#00a86b"/><rect x="1142" y="1712" width="57" height="57" fill="#00a86b"/><rect x="1199" y="1712" width="57" height="57" fill="#00a86b"/><rect x="1256" y="1712" width="57" height="57" fill="#00a86b"/><rect x="1313" y="1712" width="57" height="57" fill="#00a86b"/><rect x="1370" y="1712" width="57" height="57" fill="#00a86b"/><rect x="1427" y="1712" width="57" height="57" fill="#00a86b"/><rect x="1598" y="1712" width="57" height="57" fill="#00a86b"/><rect x="1712" y="1712" width="57" height="57" fill="#00a86b"/><rect x="629" y="1769" width="57" height="57" fill="#00a86b"/><rect x="686" y="1769" width="57" height="57" fill="#00a86b"/><rect x="971" y="1769" width="57" height="57" fill="#00a86b"/><rect x="1028" y="1769" width="57" height="57" fill="#00a86b"/><rect x="1085" y="1769" width="57" height="57" fill="#00a86b"/><rect x="1142" y="1769" width="57" height="57" fill="#00a86b"/><rect x="1256" y="1769" width="57" height="57" fill="#00a86b"/><rect x="1313" y="1769" width="57" height="57" fill="#00a86b"/><rect x="1370" y="1769" width="57" height="57" fill="#00a86b"/><rect x="1427" y="1769" width="57" height="57" fill="#00a86b"/><rect x="1484" y="1769" width="57" height="57" fill="#00a86b"/><rect x="1541" y="1769" width="57" height="57" fill="#00a86b"/><rect x="1598" y="1769" width="57" height="57" fill="#00a86b"/><svg version="1.0" id="Ebene_1" x="173" y="173" width="399" height="399" viewBox="0 0 699.988 699.986" enable-background="new 0 0 699.988 699.986" xml:space="preserve" shape-rendering="auto">
<g>
	<path fill="#00a86b" d="M67.1,632.887C23.83,589.616,0,532.286,0,471.464V-0.001h471.468c60.822,0,118.15,23.83,161.42,67.101   s67.1,100.599,67.1,161.425v471.462H228.52C167.696,699.987,110.369,676.157,67.1,632.887z M599.988,599.989V239.233   c0-76.774-62.459-139.236-139.229-139.236H99.999v360.76c0,76.771,62.459,139.232,139.231,139.232H599.988L599.988,599.989z"/>
</g>
</svg>
<svg version="1.0" id="Ebene_1" x="173" y="173" width="399" height="399" viewBox="0 0 699.988 699.986" enable-background="new 0 0 699.988 699.986" xml:space="preserve" shape-rendering="auto">
<path fill="#065277" d="M499.99,291.612v208.377H291.61c-50.382,0-91.612-41.229-91.612-91.613V199.996h208.383  C458.76,199.996,499.99,241.228,499.99,291.612z"/>
</svg>
<svg version="1.1" id="Ebene_1" x="1427" y="173" width="399" height="399" viewBox="0 0 699.988 699.986" enable-background="new 0 0 699.988 699.986" xml:space="preserve" shape-rendering="auto">
<g>
	<path fill="#00a86b" d="M472.469,699.987H1V228.525C1,167.698,24.829,110.37,68.099,67.1C111.368,23.83,168.697,0,229.523,0   h471.465v471.463c0,60.824-23.83,118.153-67.1,161.426C590.618,676.158,533.292,699.987,472.469,699.987z M100.998,599.989H461.76   c76.771,0,139.229-62.461,139.229-139.234V99.997H240.232c-76.773,0-139.233,62.461-139.233,139.235L100.998,599.989   L100.998,599.989z"/>
</g>
</svg>
<svg version="1.1" id="Ebene_1" x="1427" y="173" width="399" height="399" viewBox="0 0 699.988 699.986" enable-background="new 0 0 699.988 699.986" xml:space="preserve" shape-rendering="auto">
<path fill="#065277" d="M199.997,291.612V499.99h208.382c50.383,0,91.612-41.229,91.612-91.614V199.997H291.61  C241.227,199.997,199.997,241.228,199.997,291.612z"/>
</svg>
<svg version="1.1" id="Ebene_1" x="173" y="1427" width="399" height="399" viewBox="0 0 699.988 699.986" enable-background="new 0 0 699.988 699.986" xml:space="preserve" shape-rendering="auto">
<g>
	<path fill="#00a86b" d="M472.469,699.987H1V228.525C1,167.698,24.829,110.37,68.099,67.1C111.368,23.83,168.697,0,229.523,0   h471.465v471.463c0,60.824-23.83,118.153-67.1,161.426C590.618,676.158,533.292,699.987,472.469,699.987z M100.998,599.989H461.76   c76.771,0,139.229-62.461,139.229-139.234V99.997H240.232c-76.773,0-139.233,62.461-139.233,139.235L100.998,599.989   L100.998,599.989z"/>
</g>
</svg>
<svg version="1.1" id="Ebene_1" x="173" y="1427" width="399" height="399" viewBox="0 0 699.988 699.986" enable-background="new 0 0 699.988 699.986" xml:space="preserve" shape-rendering="auto">
<path fill="#065277" d="M199.997,291.612V499.99h208.382c50.383,0,91.612-41.229,91.612-91.614V199.997H291.61  C241.227,199.997,199.997,241.228,199.997,291.612z"/>
</svg>
</svg>

</svg>
