<svg width="254" height="38" viewBox="0 0 254 38" fill="none" xmlns="http://www.w3.org/2000/svg">
<g clip-path="url(#clip0_3_2014)">
<path fill-rule="evenodd" clip-rule="evenodd" d="M127.61 37.1723C127.763 37.4461 128.034 37.583 128.421 37.583L128.427 37.5893L128.6 37.5817C129.37 37.5477 130.009 37.5195 130.513 37.5021C130.997 37.4826 131.474 37.4656 131.943 37.4489L132.107 37.443C132.629 37.4243 133.274 37.415 134.049 37.415C135.21 37.415 136.242 37.4243 137.151 37.443C138.057 37.4617 139.13 37.5115 140.368 37.5893C140.715 37.5893 140.976 37.4524 141.151 37.1785C141.326 36.9047 141.412 36.6122 141.412 36.2979C141.372 35.632 141.228 35.2586 140.976 35.1808C140.724 35.103 140.386 35.0626 139.962 35.0626C138.457 35.0626 137.385 34.9661 136.746 34.7701C136.107 34.574 135.8 34.154 135.818 33.5067C135.836 32.8595 136.058 31.8731 136.485 30.5413C136.522 30.5039 136.571 30.3857 136.629 30.1897C136.687 29.9936 136.841 29.5642 137.093 28.8983C137.345 28.2324 137.76 27.1558 138.34 25.6684H152.658L154.631 30.5413C155.171 32.1469 155.356 33.2982 155.18 34.0046C155.005 34.7109 153.97 35.0626 152.078 35.0626C151.691 35.0626 151.362 35.103 151.092 35.1808C150.821 35.2617 150.665 35.632 150.628 36.2979C150.628 36.6122 150.705 36.9047 150.858 37.1785C151.012 37.4524 151.282 37.5893 151.669 37.5893C154.182 37.471 156.578 37.4119 158.858 37.4119C160.016 37.4119 161.06 37.4212 161.988 37.4399C162.916 37.4586 163.997 37.5084 165.235 37.5862C165.582 37.5862 165.843 37.4492 166.018 37.1754C166.193 36.9016 166.279 36.6091 166.279 36.2948C166.239 35.6289 166.095 35.2555 165.843 35.1777C165.591 35.0999 165.253 35.0595 164.829 35.0595C164.018 35.019 163.352 34.7763 162.83 34.3251C162.307 33.8739 161.893 33.2951 161.582 32.5919C161.272 31.8886 160.983 31.2041 160.713 30.5382L150.975 6.2265C150.281 4.46528 149.525 3.14281 148.714 2.2622C147.9 1.37848 146.935 0.784147 145.814 0.469866C144.693 0.155585 143.341 0 141.756 0C141.139 0 140.598 0.0280052 140.134 0.0871274C139.67 0.14625 139.44 0.507206 139.44 1.17311C139.44 1.75811 139.535 2.10351 139.729 2.19997C139.919 2.29954 140.306 2.40534 140.887 2.52358C141.544 2.63872 142.143 2.80675 142.684 3.02146C143.224 3.23927 143.612 3.5909 143.842 4.07943C144.075 4.57108 143.999 5.28366 143.612 6.22339L133.468 30.5351C133.158 31.2788 132.841 32.0038 132.513 32.707C132.184 33.4103 131.748 33.9797 131.207 34.4091C130.663 34.8416 129.874 35.0563 128.829 35.0563C128.442 35.0563 128.114 35.0968 127.843 35.1746C127.573 35.2555 127.419 35.6258 127.379 36.2917C127.379 36.606 127.456 36.8985 127.61 37.1723ZM151.608 23.1386H139.434L145.578 8.04684H145.753L151.608 23.1386ZM111.335 37.9968C110.524 35.7657 109.799 33.74 109.16 31.9197C108.521 30.0993 107.805 28.1016 107.016 25.9297L106.985 25.8444L106.983 25.8407L106.982 25.837C106.201 23.696 105.419 21.5548 104.638 19.4107C103.845 17.2387 103.13 15.2503 102.494 13.4518C101.855 11.6501 101.13 9.65549 100.319 7.46175C99.7014 5.85611 99.0809 4.70168 98.4634 3.99843C97.846 3.29519 96.9183 2.82533 95.6803 2.58884C95.1396 2.47059 94.7618 2.37413 94.5498 2.29634C94.3378 2.21854 94.2303 1.86692 94.2303 1.23836C94.2303 0.572459 94.4607 0.211502 94.9246 0.15238C95.3884 0.093258 95.9291 0.0652527 96.5466 0.0652527C99.1362 0.105705 101.145 0.584906 102.577 1.50286C104.005 2.42392 105.148 3.99843 105.996 6.22952L114.401 29.1316H114.576L122.575 5.5854C122.999 4.3345 123.017 3.54101 122.633 3.20806C122.246 2.87511 121.377 2.71019 120.025 2.71019C119.638 2.71019 119.31 2.67285 119.039 2.59195C118.769 2.51416 118.612 2.14386 118.575 1.47485C118.575 1.16057 118.652 0.86807 118.806 0.594241C118.959 0.320412 119.211 0.183497 119.558 0.183497C120.793 0.223949 121.869 0.261289 122.775 0.301741C123.681 0.342193 124.716 0.360864 125.877 0.360864C126.652 0.360864 127.287 0.351529 127.791 0.332858L128.004 0.324925C128.437 0.308843 128.879 0.292436 129.327 0.273736C129.813 0.256355 130.425 0.228185 131.161 0.194249L131.327 0.186609C131.714 0.186609 131.984 0.323523 132.138 0.597352C132.292 0.871181 132.368 1.16679 132.368 1.47796C132.328 2.14386 132.184 2.51416 131.932 2.59506C131.68 2.67285 131.342 2.7133 130.918 2.7133C129.45 2.7133 128.289 2.98713 127.441 3.53479C126.59 4.08245 125.856 5.14043 125.238 6.70561C125.238 6.66827 125.036 7.20348 124.63 8.32058C124.225 9.43767 123.693 10.9251 123.036 12.7827C122.378 14.6435 121.653 16.6879 120.861 18.919C120.068 21.1501 119.267 23.3812 118.456 25.6123C117.645 27.8433 116.91 29.9002 116.253 31.7765C115.596 33.656 114.861 35.7315 114.05 37.9999H111.326L111.335 37.9968ZM62.9839 37.5828C62.6368 37.5828 62.3849 37.4458 62.2313 37.172C62.0777 36.8982 62.0009 36.6057 62.0009 36.2914C62.0378 35.6255 62.1944 35.2552 62.4648 35.1743C62.7351 35.0965 63.0638 35.0561 63.4509 35.0561C64.6858 35.0561 65.5582 34.832 66.0589 34.3808C66.5597 33.9327 66.8791 33.3633 67.0143 32.6787C67.1495 31.9942 67.2171 31.2785 67.2171 30.5348V20.3036L56.1985 20.2985C56.0755 22.9834 55.4846 25.3452 54.4256 27.3861C53.2275 29.6949 51.624 31.6055 49.6149 33.1116C47.6059 34.6176 45.3542 35.7347 42.8628 36.4598C40.3715 37.1848 37.8279 37.5457 35.2383 37.5457H27.239C26.0808 37.5457 24.9596 37.5551 23.8752 37.5737C22.7939 37.5924 21.6142 37.6422 20.3394 37.72H20.3363C19.9892 37.72 19.7373 37.5831 19.5837 37.3092C19.4301 37.0354 19.3533 36.7429 19.3533 36.4286C19.3902 35.7627 19.5468 35.3924 19.8172 35.3115C20.0875 35.2337 20.4162 35.1933 20.8033 35.1933C22.0382 35.1933 22.9106 34.9692 23.4113 34.5181C23.9121 34.07 24.2315 33.5005 24.3667 32.816C24.5019 32.1314 24.5695 31.4157 24.5695 30.672V21.1627H30.3078V31.3784C30.3078 32.9435 30.7809 34.0015 31.7271 34.5492C32.6732 35.0968 34.1324 35.3707 36.1046 35.3707C39.2349 35.3707 41.7662 34.6954 43.6984 33.3449C45.6306 31.9945 47.0314 30.1057 47.9008 27.6786C48.6721 25.5253 49.1024 23.0635 49.1897 20.2953L12.828 20.2787C12.1509 20.7928 11.5614 21.4181 11.0838 22.1296L10.5543 22.9184C10.483 23.0246 10.365 23.0881 10.2388 23.0881H0.191541C0.0399601 23.0881 -0.0513637 22.9168 0.0310343 22.787L0.154052 22.5932C1.07437 21.1433 2.44018 20.0459 4.03741 19.473L4.32411 19.3702C4.49451 19.3091 4.49451 19.0632 4.32411 19.0021L4.03741 18.8993C2.44018 18.3263 1.07437 17.229 0.154052 15.7791L0.0310343 15.5853C-0.0513608 15.4555 0.0399601 15.2842 0.191541 15.2842H10.2388C10.365 15.2842 10.483 15.3476 10.5543 15.4539L11.0838 16.2427C11.5204 16.8931 12.0504 17.4714 12.6554 17.9586L49.1763 17.9567C49.0462 15.258 48.4948 12.8216 47.526 10.6514C46.4048 8.14644 44.7736 6.17985 42.6263 4.74847C40.4821 3.32021 37.8832 2.60452 34.8297 2.60452C34.2123 2.60452 33.3982 2.61385 32.3937 2.63252C31.3892 2.65119 30.6918 2.66053 30.3078 2.66053V17.1175H24.5695V7.3623C24.5695 6.6186 24.5019 5.90291 24.3667 5.21834C24.2315 4.53377 23.9121 3.96744 23.4113 3.51624C22.9075 3.06816 22.0382 2.841 20.8033 2.841C20.4162 2.841 20.0875 2.80366 19.8172 2.72276C19.5468 2.64497 19.3902 2.27468 19.3533 1.60566C19.3533 1.29138 19.4301 0.998882 19.5837 0.725053C19.7373 0.451223 19.9892 0.314309 20.3363 0.314309L20.3908 0.316037C21.6448 0.355826 22.8062 0.392678 23.8721 0.432553C24.9534 0.473005 26.0747 0.491676 27.2359 0.491676H36.2797C39.9906 0.491676 43.3513 1.23537 46.3679 2.72276C49.3815 4.21015 51.7776 6.34477 53.5562 9.12352C55.1417 11.6005 56.0193 14.5448 56.1913 17.9564L67.2171 17.9558V7.22507C67.2171 6.48137 67.1495 5.76568 67.0143 5.08111C66.8791 4.39654 66.5597 3.83021 66.0589 3.37901C65.5551 2.93093 64.6858 2.70377 63.4509 2.70377C63.0638 2.70377 62.7351 2.66643 62.4648 2.58553C62.1944 2.50774 62.0378 2.13745 62.0009 1.46843C62.0009 1.15415 62.0777 0.861652 62.2313 0.587823C62.3849 0.313993 62.6368 0.177079 62.9839 0.177079L63.0385 0.178811C64.2925 0.218598 65.4539 0.255449 66.5197 0.295323C67.6011 0.335775 68.7223 0.354446 69.8835 0.354446H88.0847C88.5087 0.354446 88.8681 0.45402 89.1568 0.646945C89.4456 0.842982 89.593 1.21638 89.593 1.76404L89.7682 9.98514C89.7682 10.3772 89.5838 10.6697 89.2183 10.8657C88.8496 11.0618 88.5117 11.1582 88.2045 11.1582C87.7775 11.1582 87.3935 11.0711 87.0464 10.8938C86.6993 10.7164 86.4842 10.4519 86.4074 10.1003C86.1371 8.33905 85.8176 6.92012 85.4521 5.84347C85.0835 4.76683 84.5428 3.98579 83.8301 3.49414C83.1143 3.00561 82.0822 2.74111 80.7274 2.70066H72.9585V17.6181H83.4522C83.5082 17.6254 83.5612 17.6364 83.6113 17.6512C82.771 16.3452 81.9779 15.0674 81.6003 13.6321C81.5255 13.3476 81.8493 13.1751 82.0556 13.3824C82.2156 13.5432 82.3751 13.7048 82.5346 13.8665L82.5351 13.867C83.3699 14.7129 84.2065 15.5605 85.1233 16.3058C86.0436 17.0543 87.0436 17.7019 88.0596 18.3598C88.3456 18.545 88.6328 18.731 88.9199 18.9203C89.1243 19.0551 89.0969 19.3665 88.8767 19.4726C86.2812 20.7225 84.165 22.6882 82.1752 24.8449C81.9749 25.0621 81.6362 24.9039 81.7016 24.6142C82.0441 23.0963 82.8856 21.7962 83.7684 20.4322L83.7685 20.4321L83.8467 20.3112L72.9585 20.3062V31.2442C72.9954 31.7546 73.0752 32.3115 73.1889 32.9183C73.3056 33.5251 73.6436 34.0448 74.2026 34.4742C74.7617 34.9067 75.6987 35.0996 77.0135 35.0623H82.3464C83.698 35.0249 84.7332 34.7978 85.449 34.387C86.1648 33.9763 86.7331 33.2824 87.1601 32.3022C87.584 31.3251 88.0479 29.9747 88.5517 28.2508C88.7053 27.8587 88.9664 27.6036 89.335 27.4884C89.7006 27.3702 90.0968 27.3515 90.5238 27.4293C90.8341 27.4697 91.1505 27.6067 91.4792 27.84C91.8079 28.0734 91.9523 28.3877 91.9154 28.7798L90.7573 36.1794C90.6406 36.727 90.4563 37.0693 90.2074 37.2062C89.9555 37.3432 89.5777 37.4116 89.077 37.4116H69.948C68.7899 37.4116 67.6594 37.4209 66.5566 37.4396C65.4538 37.4583 64.268 37.5081 62.9901 37.5859L62.9839 37.5828ZM171.906 37.5829C171.519 37.5829 171.248 37.446 171.095 37.1722C170.941 36.8983 170.864 36.6059 170.864 36.2916C170.901 35.6257 171.058 35.2554 171.328 35.1745C171.598 35.0967 171.927 35.0562 172.314 35.0562C173.549 35.0562 174.409 34.8322 174.895 34.381C175.377 33.9329 175.678 33.3635 175.795 32.6789C175.911 31.9943 175.97 31.2786 175.97 30.5349L176.087 7.22212C176.087 5.38311 175.776 4.20689 175.159 3.69968C174.541 3.19248 173.555 2.8004 172.204 2.52657C171.623 2.40833 171.236 2.30253 171.045 2.20296C170.852 2.10649 170.757 1.7611 170.757 1.1761C170.757 0.510195 170.987 0.149238 171.451 0.0901161C171.915 0.0309939 172.455 0.00298867 173.073 0.00298867C175.236 0.00298867 176.987 0.180355 178.32 0.531977C179.653 0.883598 180.833 1.51216 181.856 2.41144C182.879 3.31383 183.991 4.5834 185.189 6.22949L201.074 27.3703H201.249L201.132 7.22834C201.132 6.48465 201.074 5.76896 200.957 5.08439C200.84 4.39981 200.542 3.83348 200.057 3.38229C199.575 2.9342 198.714 2.70705 197.476 2.70705C197.089 2.70705 196.761 2.66971 196.49 2.58881C196.22 2.51101 196.045 2.14072 195.968 1.47171C195.968 1.15743 196.054 0.864928 196.229 0.591099C196.404 0.31727 196.665 0.180355 197.013 0.180355C197.863 0.220807 198.549 0.248813 199.071 0.267483C199.332 0.276817 199.593 0.286929 199.854 0.297041C200.115 0.307155 200.376 0.317269 200.637 0.326605C201.16 0.345275 201.805 0.35461 202.579 0.35461C203.353 0.35461 203.989 0.345275 204.493 0.326605L204.706 0.318678C205.139 0.302594 205.58 0.286185 206.029 0.267483C206.515 0.250101 207.126 0.221931 207.863 0.187995L208.028 0.180355C208.416 0.180355 208.686 0.31727 208.839 0.591099C208.993 0.864928 209.07 1.16054 209.07 1.47171C209.03 2.13761 208.886 2.5079 208.634 2.58881C208.382 2.6666 208.044 2.70705 207.62 2.70705C206.422 2.70705 205.571 2.9342 205.07 3.38229C204.566 3.83348 204.268 4.39981 204.17 5.08439C204.072 5.76896 204.004 6.48465 203.967 7.22834L203.851 36.8237C203.811 37.138 203.626 37.3433 203.301 37.4398C202.972 37.5362 202.671 37.586 202.404 37.586C201.67 37.586 201.107 37.3309 200.723 36.8237L178.87 7.22834H178.695L178.811 30.5412C178.848 31.2849 178.916 32.0005 179.014 32.6851C179.109 33.3697 179.41 33.9391 179.914 34.3872C180.415 34.8384 181.266 35.0625 182.464 35.0625C182.888 35.0625 183.238 35.1029 183.508 35.1807C183.779 35.2585 183.932 35.6319 183.972 36.2978C183.972 36.6121 183.886 36.9046 183.711 37.1784C183.536 37.4522 183.275 37.5891 182.928 37.5891C182.117 37.5487 181.429 37.5207 180.87 37.502C180.515 37.4903 180.17 37.4773 179.833 37.4646L179.827 37.4644L179.546 37.4539L179.248 37.4429C178.725 37.4242 178.077 37.4149 177.306 37.4149C176.535 37.4149 175.905 37.4242 175.423 37.4429L175.218 37.4508C174.801 37.4669 174.375 37.4833 173.945 37.502C173.557 37.5164 173.065 37.5382 172.472 37.5646L172.471 37.5646L171.918 37.5891L171.906 37.5829ZM210.978 37.1723C211.131 37.4461 211.402 37.583 211.789 37.583L211.795 37.5893L211.967 37.5817C212.738 37.5477 213.377 37.5195 213.881 37.5021C214.365 37.4826 214.841 37.4656 215.311 37.4489L215.475 37.443C215.997 37.4243 216.642 37.415 217.416 37.415C218.578 37.415 219.61 37.4243 220.519 37.443C221.425 37.4617 222.497 37.5115 223.735 37.5893C224.083 37.5893 224.344 37.4524 224.519 37.1785C224.694 36.9047 224.78 36.6122 224.78 36.2979C224.74 35.632 224.596 35.2586 224.344 35.1808C224.092 35.103 223.754 35.0626 223.33 35.0626C221.825 35.0626 220.753 34.9661 220.114 34.7701C219.475 34.574 219.167 34.154 219.186 33.5067C219.204 32.8595 219.425 31.8731 219.852 30.5413C219.889 30.5039 219.938 30.3857 219.997 30.1897C220.055 29.9936 220.209 29.5642 220.461 28.8983C220.713 28.2324 221.127 27.1558 221.708 25.6684H236.026L237.998 30.5413C238.539 32.1469 238.723 33.2982 238.548 34.0046C238.373 34.7109 237.338 35.0626 235.446 35.0626C235.059 35.0626 234.73 35.103 234.46 35.1808C234.189 35.2617 234.033 35.632 233.996 36.2979C233.996 36.6122 234.072 36.9047 234.226 37.1785C234.38 37.4524 234.65 37.5893 235.037 37.5893C237.55 37.471 239.946 37.4119 242.225 37.4119C243.383 37.4119 244.428 37.4212 245.356 37.4399C246.283 37.4586 247.365 37.5084 248.603 37.5862C248.95 37.5862 249.211 37.4492 249.386 37.1754C249.561 36.9016 249.647 36.6091 249.647 36.2948C249.607 35.6289 249.463 35.2555 249.211 35.1777C248.959 35.0999 248.621 35.0595 248.197 35.0595C247.386 35.019 246.72 34.7763 246.197 34.3251C245.675 33.8739 245.26 33.2951 244.95 32.5919C244.64 31.8886 244.351 31.2041 244.081 30.5382L234.343 6.2265C233.649 4.46528 232.893 3.14281 232.082 2.2622C231.268 1.37848 230.303 0.784147 229.182 0.469866C228.061 0.155585 226.709 0 225.124 0C224.506 0 223.966 0.0280052 223.502 0.0871274C223.038 0.14625 222.808 0.507206 222.808 1.17311C222.808 1.75811 222.903 2.10351 223.096 2.19997C223.287 2.29954 223.674 2.40534 224.255 2.52358C224.912 2.63872 225.511 2.80675 226.052 3.02146C226.592 3.23927 226.979 3.5909 227.21 4.07943C227.443 4.57108 227.366 5.28366 226.979 6.22339L216.836 30.5351C216.526 31.2788 216.209 32.0038 215.88 32.707C215.552 33.4103 215.116 33.9797 214.575 34.4091C214.031 34.8416 213.242 35.0563 212.197 35.0563C211.81 35.0563 211.481 35.0968 211.211 35.1746C210.941 35.2555 210.787 35.6258 210.747 36.2917C210.747 36.606 210.824 36.8985 210.978 37.1723ZM234.976 23.1386H222.802L228.945 8.04684H229.12L234.976 23.1386Z" fill="white"/>
</g>
<defs>
<clipPath id="clip0_3_2014">
<rect width="254" height="38" fill="white"/>
</clipPath>
</defs>
</svg>
