<svg width="101" height="80" viewBox="0 0 101 80" fill="none" xmlns="http://www.w3.org/2000/svg">
<g clip-path="url(#clip0_567_2995)">
<g filter="url(#filter0_d_567_2995)">
<path d="M19.1743 27.6964C19.1743 23.7743 22.3539 20.5947 26.276 20.5947H88.7711C92.6933 20.5947 95.8728 23.7743 95.8728 27.6964V66.0457C95.8728 69.9679 92.6933 73.1474 88.7711 73.1474H26.276C22.3539 73.1474 19.1743 69.9679 19.1743 66.0457V27.6964Z" fill="url(#paint0_linear_567_2995)" shape-rendering="crispEdges"/>
</g>
<path d="M19.1743 27.6964C19.1743 23.7743 22.3539 20.5947 26.276 20.5947H88.7711C92.6933 20.5947 95.8728 23.7743 95.8728 27.6964V28.4066H19.1743V27.6964Z" fill="url(#paint1_linear_567_2995)"/>
<path fill-rule="evenodd" clip-rule="evenodd" d="M55.3931 17.7546C55.3931 17.3624 55.711 17.0444 56.1032 17.0444H57.5236C57.9158 17.0444 58.2338 17.3624 58.2338 17.7546C58.2338 18.1468 57.9158 18.4648 57.5236 18.4648H56.1032C55.711 18.4648 55.3931 18.1468 55.3931 17.7546Z" fill="white"/>
<path fill-rule="evenodd" clip-rule="evenodd" d="M59.6543 17.7546C59.6543 17.3624 59.9723 17.0444 60.3645 17.0444H61.7848C62.177 17.0444 62.495 17.3624 62.495 17.7546C62.495 18.1468 62.177 18.4648 61.7848 18.4648H60.3645C59.9723 18.4648 59.6543 18.1468 59.6543 17.7546Z" fill="white"/>
<path fill-rule="evenodd" clip-rule="evenodd" d="M63.915 17.7546C63.915 17.3624 64.233 17.0444 64.6252 17.0444H66.0456C66.4378 17.0444 66.7557 17.3624 66.7557 17.7546C66.7557 18.1468 66.4378 18.4648 66.0456 18.4648H64.6252C64.233 18.4648 63.915 18.1468 63.915 17.7546Z" fill="white"/>
<path fill-rule="evenodd" clip-rule="evenodd" d="M81.6699 24.8562C81.6699 24.464 81.9879 24.146 82.3801 24.146H91.6123C92.0045 24.146 92.3225 24.464 92.3225 24.8562C92.3225 25.2484 92.0045 25.5663 91.6123 25.5663H82.3801C81.9879 25.5663 81.6699 25.2484 81.6699 24.8562Z" fill="white"/>
<path fill-rule="evenodd" clip-rule="evenodd" d="M68.8868 55.7485C67.9062 55.7485 67.1113 54.9536 67.1113 53.9731L67.1113 36.929C67.1113 35.9484 67.9062 35.1536 68.8868 35.1536C69.8673 35.1536 70.6622 35.9484 70.6622 36.929L70.6622 53.9731C70.6622 54.9536 69.8673 55.7485 68.8868 55.7485Z" fill="#D5DEEB"/>
<path fill-rule="evenodd" clip-rule="evenodd" d="M48.2915 62.8501C47.311 62.8501 46.5161 62.0552 46.5161 61.0747L46.5161 44.0306C46.5161 43.05 47.311 42.2551 48.2915 42.2551C49.2721 42.2551 50.067 43.05 50.067 44.0305L50.067 61.0747C50.067 62.0552 49.2721 62.8501 48.2915 62.8501Z" fill="#D5DEEB"/>
<path fill-rule="evenodd" clip-rule="evenodd" d="M59.6543 62.8501C58.6738 62.8501 57.8789 62.0552 57.8789 61.0747L57.8789 44.0306C57.8789 43.05 58.6738 42.2551 59.6543 42.2551C60.6349 42.2551 61.4298 43.05 61.4298 44.0305L61.4298 61.0747C61.4298 62.0552 60.6349 62.8501 59.6543 62.8501Z" fill="#D5DEEB"/>
<path fill-rule="evenodd" clip-rule="evenodd" d="M71.0171 62.8501C70.0366 62.8501 69.2417 62.0552 69.2417 61.0747L69.2417 44.0306C69.2417 43.05 70.0366 42.2551 71.0171 42.2551C71.9977 42.2551 72.7926 43.05 72.7926 44.0305L72.7926 61.0747C72.7926 62.0552 71.9977 62.8501 71.0171 62.8501Z" fill="#D5DEEB"/>
<path fill-rule="evenodd" clip-rule="evenodd" d="M82.3799 62.8501C81.3994 62.8501 80.6045 62.0552 80.6045 61.0747L80.6045 44.0306C80.6045 43.05 81.3994 42.2551 82.3799 42.2551C83.3605 42.2551 84.1553 43.05 84.1553 44.0305L84.1554 61.0747C84.1554 62.0552 83.3605 62.8501 82.3799 62.8501Z" fill="#D5DEEB"/>
<g filter="url(#filter1_d_567_2995)">
<path d="M2.13037 12.0729C2.13037 8.15074 5.30992 4.97119 9.23209 4.97119H71.7272C75.6494 4.97119 78.8289 8.15074 78.8289 12.0729V50.4222C78.8289 54.3443 75.6494 57.5239 71.7272 57.5239H9.23209C5.30992 57.5239 2.13037 54.3443 2.13037 50.4222V12.0729Z" fill="url(#paint2_linear_567_2995)" shape-rendering="crispEdges"/>
</g>
<path d="M2.13037 12.0729C2.13037 8.15074 5.30992 4.97119 9.23209 4.97119H71.7272C75.6494 4.97119 78.8289 8.15074 78.8289 12.0729V12.7831H2.13037V12.0729Z" fill="url(#paint3_linear_567_2995)"/>
<path fill-rule="evenodd" clip-rule="evenodd" d="M6.3916 9.23214C6.3916 8.83993 6.70956 8.52197 7.10177 8.52197H8.52212C8.91433 8.52197 9.23229 8.83993 9.23229 9.23214C9.23229 9.62436 8.91433 9.94232 8.52212 9.94232H7.10177C6.70956 9.94232 6.3916 9.62436 6.3916 9.23214Z" fill="white"/>
<path fill-rule="evenodd" clip-rule="evenodd" d="M10.6523 9.23214C10.6523 8.83993 10.9703 8.52197 11.3625 8.52197H12.7829C13.1751 8.52197 13.493 8.83993 13.493 9.23214C13.493 9.62436 13.1751 9.94232 12.7829 9.94232H11.3625C10.9703 9.94232 10.6523 9.62436 10.6523 9.23214Z" fill="white"/>
<path fill-rule="evenodd" clip-rule="evenodd" d="M14.9136 9.23214C14.9136 8.83993 15.2315 8.52197 15.6237 8.52197H17.0441C17.4363 8.52197 17.7543 8.83993 17.7543 9.23214C17.7543 9.62436 17.4363 9.94232 17.0441 9.94232H15.6237C15.2315 9.94232 14.9136 9.62436 14.9136 9.23214Z" fill="white"/>
<path fill-rule="evenodd" clip-rule="evenodd" d="M64.6255 9.23214C64.6255 8.83993 64.9434 8.52197 65.3357 8.52197H74.5679C74.9601 8.52197 75.2781 8.83993 75.2781 9.23214C75.2781 9.62436 74.9601 9.94232 74.5679 9.94232H65.3357C64.9434 9.94232 64.6255 9.62436 64.6255 9.23214Z" fill="white"/>
<path fill-rule="evenodd" clip-rule="evenodd" d="M15.6236 47.2266C14.643 47.2266 13.8481 46.4317 13.8481 45.4511L13.8481 28.407C13.8481 27.4265 14.643 26.6316 15.6236 26.6316C16.6041 26.6316 17.399 27.4265 17.399 28.407L17.399 45.4511C17.399 46.4317 16.6041 47.2266 15.6236 47.2266Z" fill="#D5DEEB"/>
<path fill-rule="evenodd" clip-rule="evenodd" d="M26.9864 47.2266C26.0058 47.2266 25.2109 46.4317 25.2109 45.4511L25.2109 24.8562C25.2109 23.8756 26.0058 23.0807 26.9864 23.0807C27.9669 23.0807 28.7618 23.8756 28.7618 24.8562L28.7618 45.4511C28.7618 46.4317 27.9669 47.2266 26.9864 47.2266Z" fill="#D5DEEB"/>
<path fill-rule="evenodd" clip-rule="evenodd" d="M38.3492 47.2266C37.3686 47.2266 36.5737 46.4317 36.5737 45.4511L36.5737 28.407C36.5737 27.4265 37.3686 26.6316 38.3492 26.6316C39.3297 26.6316 40.1246 27.4265 40.1246 28.407L40.1246 45.4511C40.1246 46.4317 39.3297 47.2266 38.3492 47.2266Z" fill="#D5DEEB"/>
<path fill-rule="evenodd" clip-rule="evenodd" d="M49.712 47.2266C48.7314 47.2266 47.9365 46.4317 47.9365 45.4511L47.9365 20.5951C47.9365 19.6146 48.7314 18.8197 49.712 18.8197C50.6925 18.8197 51.4874 19.6146 51.4874 20.5951L51.4874 45.4511C51.4874 46.4317 50.6925 47.2266 49.712 47.2266Z" fill="#D5DEEB"/>
<path fill-rule="evenodd" clip-rule="evenodd" d="M61.0747 47.2266C60.0942 47.2266 59.2993 46.4317 59.2993 45.4511L59.2993 28.407C59.2993 27.4265 60.0942 26.6316 61.0747 26.6316C62.0553 26.6316 62.8502 27.4265 62.8502 28.407L62.8502 45.4511C62.8502 46.4317 62.0553 47.2266 61.0747 47.2266Z" fill="#D5DEEB"/>
</g>
<defs>
<filter id="filter0_d_567_2995" x="15.6235" y="17.754" width="85.2208" height="61.0748" filterUnits="userSpaceOnUse" color-interpolation-filters="sRGB">
<feFlood flood-opacity="0" result="BackgroundImageFix"/>
<feColorMatrix in="SourceAlpha" type="matrix" values="0 0 0 0 0 0 0 0 0 0 0 0 0 0 0 0 0 0 127 0" result="hardAlpha"/>
<feOffset dx="0.710172" dy="1.42034"/>
<feGaussianBlur stdDeviation="2.13051"/>
<feComposite in2="hardAlpha" operator="out"/>
<feColorMatrix type="matrix" values="0 0 0 0 0.300521 0 0 0 0 0.421292 0 0 0 0 0.849479 0 0 0 0.16 0"/>
<feBlend mode="normal" in2="BackgroundImageFix" result="effect1_dropShadow_567_2995"/>
<feBlend mode="normal" in="SourceGraphic" in2="effect1_dropShadow_567_2995" result="shape"/>
</filter>
<filter id="filter1_d_567_2995" x="-1.42049" y="2.13051" width="85.2208" height="61.0748" filterUnits="userSpaceOnUse" color-interpolation-filters="sRGB">
<feFlood flood-opacity="0" result="BackgroundImageFix"/>
<feColorMatrix in="SourceAlpha" type="matrix" values="0 0 0 0 0 0 0 0 0 0 0 0 0 0 0 0 0 0 127 0" result="hardAlpha"/>
<feOffset dx="0.710172" dy="1.42034"/>
<feGaussianBlur stdDeviation="2.13051"/>
<feComposite in2="hardAlpha" operator="out"/>
<feColorMatrix type="matrix" values="0 0 0 0 0.300521 0 0 0 0 0.421292 0 0 0 0 0.849479 0 0 0 0.16 0"/>
<feBlend mode="normal" in2="BackgroundImageFix" result="effect1_dropShadow_567_2995"/>
<feBlend mode="normal" in="SourceGraphic" in2="effect1_dropShadow_567_2995" result="shape"/>
</filter>
<linearGradient id="paint0_linear_567_2995" x1="93.7423" y1="23.4354" x2="20.2396" y2="69.9517" gradientUnits="userSpaceOnUse">
<stop stop-color="white"/>
<stop offset="1" stop-color="#F9FAFF" stop-opacity="0.97614"/>
</linearGradient>
<linearGradient id="paint1_linear_567_2995" x1="19.1743" y1="28.4066" x2="95.8728" y2="28.4066" gradientUnits="userSpaceOnUse">
<stop stop-color="#00CC82"/>
<stop offset="1" stop-color="#1DD291"/>
</linearGradient>
<linearGradient id="paint2_linear_567_2995" x1="76.6984" y1="7.81188" x2="3.19563" y2="54.3281" gradientUnits="userSpaceOnUse">
<stop stop-color="white"/>
<stop offset="1" stop-color="#F9FAFF" stop-opacity="0.97614"/>
</linearGradient>
<linearGradient id="paint3_linear_567_2995" x1="2.13037" y1="12.7831" x2="78.8289" y2="12.7831" gradientUnits="userSpaceOnUse">
<stop stop-color="#00CC82"/>
<stop offset="1" stop-color="#1DD291"/>
</linearGradient>
<clipPath id="clip0_567_2995">
<rect width="100.134" height="79.5392" fill="white"/>
</clipPath>
</defs>
</svg>
