<svg width="102" height="80" viewBox="0 0 102 80" fill="none" xmlns="http://www.w3.org/2000/svg">
<g clip-path="url(#clip0_567_2990)">
<g filter="url(#filter0_d_567_2990)">
<path d="M41.1451 0C39.9492 0 38.9797 0.965623 38.9797 2.15678V33.6694L20.8217 61.5133C18.9503 64.383 21.0181 68.1765 24.4538 68.1765H69.0405C72.4762 68.1765 74.544 64.383 72.6726 61.5133L54.5146 33.6693V2.15678C54.5146 0.965622 53.5451 0 52.3491 0H41.1451Z" fill="#CDD6E5"/>
</g>
<path d="M39.0872 40.2467L25.0969 61.7198C24.4813 62.6646 25.1593 63.9155 26.2869 63.9155H66.5173C67.6407 63.9155 68.3195 62.673 67.7125 61.7277L54.3052 40.8485C49.2325 40.8485 48.8267 37.6392 44.7686 37.6392C40.7105 37.6392 39.0872 40.2467 39.0872 40.2467Z" fill="url(#paint0_linear_567_2990)"/>
<path fill-rule="evenodd" clip-rule="evenodd" d="M36.8047 20.2404C36.8047 19.8482 36.4867 19.5303 36.0945 19.5303H35.4689C35.0767 19.5303 34.7587 19.8482 34.7587 20.2404C34.7587 20.6327 35.0767 20.9506 35.4689 20.9506H36.0945C36.4867 20.9506 36.8047 20.6327 36.8047 20.2404ZM33.0509 20.2404C33.0509 19.8482 32.733 19.5303 32.3408 19.5303H31.0895C30.6973 19.5303 30.3793 19.8482 30.3793 20.2404C30.3793 20.6327 30.6973 20.9506 31.0895 20.9506H32.3408C32.733 20.9506 33.0509 20.6327 33.0509 20.2404ZM28.6715 20.2404C28.6715 19.8482 28.3536 19.5303 27.9614 19.5303H26.7101C26.3179 19.5303 25.9999 19.8482 25.9999 20.2404C25.9999 20.6327 26.3179 20.9506 26.7101 20.9506H27.9614C28.3536 20.9506 28.6715 20.6327 28.6715 20.2404ZM24.2921 20.2404C24.2921 19.8482 23.9742 19.5303 23.582 19.5303H22.9563C22.6856 19.5303 22.4212 19.5607 22.1665 19.6186C21.784 19.7055 21.5445 20.0861 21.6314 20.4685C21.7184 20.851 22.0989 21.0905 22.4814 21.0036C22.6334 20.969 22.7923 20.9506 22.9563 20.9506H23.582C23.9742 20.9506 24.2921 20.6327 24.2921 20.2404ZM20.3437 21.7562C19.9613 21.6693 19.5808 21.9088 19.4938 22.2913C19.4359 22.546 19.4055 22.8104 19.4055 23.0811V23.8336C19.4055 24.2258 19.7234 24.5437 20.1157 24.5437C20.5079 24.5437 20.8258 24.2258 20.8258 23.8336V23.0811C20.8258 22.9171 20.8442 22.7582 20.8788 22.6062C20.9658 22.2237 20.7262 21.8432 20.3437 21.7562ZM20.1157 26.8856C19.7234 26.8856 19.4055 27.2036 19.4055 27.5958V29.1007C19.4055 29.4929 19.7234 29.8109 20.1157 29.8109C20.5079 29.8109 20.8258 29.4929 20.8258 29.1007V27.5958C20.8258 27.2036 20.5079 26.8856 20.1157 26.8856ZM20.1157 32.1527C19.7234 32.1527 19.4055 32.4707 19.4055 32.8629V34.3678C19.4055 34.76 19.7234 35.078 20.1157 35.078C20.5079 35.078 20.8258 34.76 20.8258 34.3678V32.8629C20.8258 32.4707 20.5079 32.1527 20.1157 32.1527ZM20.1157 37.4198C19.7234 37.4198 19.4055 37.7378 19.4055 38.13V39.6349C19.4055 40.0271 19.7234 40.3451 20.1157 40.3451C20.5079 40.3451 20.8258 40.0271 20.8258 39.6349V38.13C20.8258 37.7378 20.5079 37.4198 20.1157 37.4198ZM20.1157 42.6869C19.7234 42.6869 19.4055 43.0049 19.4055 43.3971V44.902C19.4055 45.2942 19.7234 45.6122 20.1157 45.6122C20.5079 45.6122 20.8258 45.2942 20.8258 44.902V43.3971C20.8258 43.0049 20.5079 42.6869 20.1157 42.6869ZM20.1157 47.954C19.7234 47.954 19.4055 48.272 19.4055 48.6642V50.1691C19.4055 50.5613 19.7234 50.8793 20.1157 50.8793C20.5079 50.8793 20.8258 50.5613 20.8258 50.1691V48.6642C20.8258 48.272 20.5079 47.954 20.1157 47.954ZM20.1157 53.2212C19.7234 53.2212 19.4055 53.5391 19.4055 53.9313V54.6838C19.4055 55.076 19.7234 55.3939 20.1157 55.3939C20.5079 55.3939 20.8258 55.076 20.8258 54.6838V53.9313C20.8258 53.5391 20.5079 53.2212 20.1157 53.2212Z" fill="#00A86B"/>
<path fill-rule="evenodd" clip-rule="evenodd" d="M41.4207 78.1192C41.2023 78.1192 40.9905 78.0947 40.7876 78.0486C40.4052 77.9616 40.0246 78.2012 39.9377 78.5836C39.8507 78.9661 40.0903 79.3466 40.4728 79.4336C40.7783 79.503 41.0957 79.5396 41.4207 79.5396H42.0992C42.4914 79.5396 42.8093 79.2216 42.8093 78.8294C42.8093 78.4372 42.4914 78.1192 42.0992 78.1192H41.4207ZM44.7813 78.8294C44.7813 79.2216 45.0993 79.5396 45.4915 79.5396H46.8484C47.2407 79.5396 47.5586 79.2216 47.5586 78.8294C47.5586 78.4372 47.2407 78.1192 46.8484 78.1192H45.4915C45.0993 78.1192 44.7813 78.4372 44.7813 78.8294ZM49.5306 78.8294C49.5306 79.2216 49.8486 79.5396 50.2408 79.5396H51.5977C51.9899 79.5396 52.3079 79.2216 52.3079 78.8294C52.3079 78.4372 51.9899 78.1192 51.5977 78.1192H50.2408C49.8486 78.1192 49.5306 78.4372 49.5306 78.8294ZM54.2799 78.8294C54.2799 79.2216 54.5978 79.5396 54.99 79.5396H56.347C56.7392 79.5396 57.0572 79.2216 57.0572 78.8294C57.0572 78.4372 56.7392 78.1192 56.347 78.1192H54.99C54.5978 78.1192 54.2799 78.4372 54.2799 78.8294ZM59.0291 78.8294C59.0291 79.2216 59.3471 79.5396 59.7393 79.5396H61.0963C61.4885 79.5396 61.8064 79.2216 61.8064 78.8294C61.8064 78.4372 61.4885 78.1192 61.0963 78.1192H59.7393C59.3471 78.1192 59.0291 78.4372 59.0291 78.8294ZM63.7784 78.8294C63.7784 79.2216 64.0964 79.5396 64.4886 79.5396H65.8455C66.2377 79.5396 66.5557 79.2216 66.5557 78.8294C66.5557 78.4372 66.2377 78.1192 65.8455 78.1192H64.4886C64.0964 78.1192 63.7784 78.4372 63.7784 78.8294ZM68.5277 78.8294C68.5277 79.2216 68.8456 79.5396 69.2379 79.5396H70.5948C70.987 79.5396 71.305 79.2216 71.305 78.8294C71.305 78.4372 70.987 78.1192 70.5948 78.1192H69.2379C68.8456 78.1192 68.5277 78.4372 68.5277 78.8294ZM73.277 78.8294C73.277 79.2216 73.5949 79.5396 73.9871 79.5396H75.3441C75.7363 79.5396 76.0542 79.2216 76.0542 78.8294C76.0542 78.4372 75.7363 78.1192 75.3441 78.1192H73.9871C73.5949 78.1192 73.277 78.4372 73.277 78.8294ZM78.0262 78.8294C78.0262 79.2216 78.3442 79.5396 78.7364 79.5396H79.4149C79.6856 79.5396 79.95 79.5091 80.2047 79.4512C80.5872 79.3643 80.8267 78.9838 80.7398 78.6013C80.6528 78.2188 80.2723 77.9793 79.8898 78.0662C79.7378 78.1008 79.5789 78.1192 79.4149 78.1192H78.7364C78.3442 78.1192 78.0262 78.4372 78.0262 78.8294ZM82.0275 77.3136C82.4099 77.4005 82.7905 77.161 82.8774 76.7785C82.9353 76.5239 82.9657 76.2594 82.9657 75.9887V75.2658C82.9657 74.8736 82.6478 74.5557 82.2556 74.5557C81.8633 74.5557 81.5454 74.8736 81.5454 75.2658V75.9887C81.5454 76.1527 81.527 76.3116 81.4924 76.4637C81.4055 76.8461 81.645 77.2266 82.0275 77.3136ZM38.1156 76.7615C38.498 76.6746 38.7376 76.294 38.6507 75.9116C38.6045 75.7087 38.58 75.4969 38.58 75.2785V74.6191C38.58 74.2269 38.2621 73.9089 37.8698 73.9089C37.4776 73.9089 37.1597 74.2269 37.1597 74.6191V75.2785C37.1597 75.6036 37.1962 75.9209 37.2657 76.2265C37.3526 76.6089 37.7331 76.8485 38.1156 76.7615ZM82.2556 72.3617C82.6478 72.3617 82.9657 72.0438 82.9657 71.6516V70.2059C82.9657 69.8136 82.6478 69.4957 82.2556 69.4957C81.8633 69.4957 81.5454 69.8136 81.5454 70.2059V71.6516C81.5454 72.0438 81.8633 72.3617 82.2556 72.3617ZM37.8698 72.032C38.2621 72.032 38.58 71.7141 38.58 71.3219V70.6624C38.58 70.2702 38.2621 69.9522 37.8698 69.9522C37.4776 69.9522 37.1597 70.2702 37.1597 70.6624V71.3219C37.1597 71.7141 37.4776 72.032 37.8698 72.032ZM82.2556 67.3018C82.6478 67.3018 82.9657 66.9838 82.9657 66.5916V65.1459C82.9657 64.7537 82.6478 64.4357 82.2556 64.4357C81.8633 64.4357 81.5454 64.7537 81.5454 65.1459V66.5916C81.5454 66.9838 81.8633 67.3018 82.2556 67.3018ZM82.2556 62.2418C82.6478 62.2418 82.9657 61.9238 82.9657 61.5316V60.0859C82.9657 59.6937 82.6478 59.3757 82.2556 59.3757C81.8633 59.3757 81.5454 59.6937 81.5454 60.0859V61.5316C81.5454 61.9238 81.8633 62.2418 82.2556 62.2418ZM82.2556 57.1818C82.6478 57.1818 82.9657 56.8639 82.9657 56.4717V55.0259C82.9657 54.6337 82.6478 54.3158 82.2556 54.3158C81.8633 54.3158 81.5454 54.6337 81.5454 55.0259V56.4717C81.5454 56.8639 81.8633 57.1818 82.2556 57.1818ZM82.2556 52.1219C82.6478 52.1219 82.9657 51.8039 82.9657 51.4117V49.966C82.9657 49.5738 82.6478 49.2558 82.2556 49.2558C81.8633 49.2558 81.5454 49.5738 81.5454 49.966V51.4117C81.5454 51.8039 81.8633 52.1219 82.2556 52.1219ZM82.2556 47.0619C82.6478 47.0619 82.9657 46.7439 82.9657 46.3517V44.906C82.9657 44.5138 82.6478 44.1958 82.2556 44.1958C81.8633 44.1958 81.5454 44.5138 81.5454 44.906V46.3517C81.5454 46.7439 81.8633 47.0619 82.2556 47.0619ZM82.2556 42.0019C82.6478 42.0019 82.9657 41.684 82.9657 41.2917V39.846C82.9657 39.4538 82.6478 39.1359 82.2556 39.1359C81.8633 39.1359 81.5454 39.4538 81.5454 39.846V41.2917C81.5454 41.684 81.8633 42.0019 82.2556 42.0019ZM82.2556 36.9419C82.6478 36.9419 82.9657 36.624 82.9657 36.2318V35.5089C82.9657 35.1839 82.9292 34.8665 82.8598 34.561C82.7728 34.1785 82.3923 33.939 82.0098 34.0259C81.6274 34.1129 81.3878 34.4934 81.4747 34.8759C81.5209 35.0788 81.5454 35.2905 81.5454 35.5089V36.2318C81.5454 36.624 81.8633 36.9419 82.2556 36.9419ZM80.1877 32.2038C80.2747 31.8213 80.0351 31.4408 79.6526 31.3539C79.3471 31.2844 79.0297 31.2479 78.7047 31.2479H78.0579C77.6657 31.2479 77.3478 31.5658 77.3478 31.9581C77.3478 32.3503 77.6657 32.6682 78.0579 32.6682H78.7047C78.9231 32.6682 79.1349 32.6927 79.3378 32.7389C79.7202 32.8258 80.1008 32.5863 80.1877 32.2038ZM59.8852 31.9581C59.8852 32.3503 60.2031 32.6682 60.5953 32.6682H61.2421C61.6343 32.6682 61.9523 32.3503 61.9523 31.9581C61.9523 31.5658 61.6343 31.2479 61.2421 31.2479H60.5953C60.2031 31.2479 59.8852 31.5658 59.8852 31.9581ZM63.7657 31.9581C63.7657 32.3503 64.0837 32.6682 64.4759 32.6682H65.7694C66.1617 32.6682 66.4796 32.3503 66.4796 31.9581C66.4796 31.5658 66.1617 31.2479 65.7694 31.2479H64.4759C64.0837 31.2479 63.7657 31.5658 63.7657 31.9581ZM68.2931 31.9581C68.2931 32.3503 68.611 32.6682 69.0033 32.6682H70.2968C70.689 32.6682 71.007 32.3503 71.007 31.9581C71.007 31.5658 70.689 31.2479 70.2968 31.2479H69.0033C68.611 31.2479 68.2931 31.5658 68.2931 31.9581ZM72.8204 31.9581C72.8204 32.3503 73.1384 32.6682 73.5306 32.6682H74.8241C75.2163 32.6682 75.5343 32.3503 75.5343 31.9581C75.5343 31.5658 75.2163 31.2479 74.8241 31.2479H73.5306C73.1384 31.2479 72.8204 31.5658 72.8204 31.9581Z" fill="#00A86B"/>
</g>
<defs>
<filter id="filter0_d_567_2990" x="8.95264" y="-9.56836" width="75.5889" height="90.5024" filterUnits="userSpaceOnUse" color-interpolation-filters="sRGB">
<feFlood flood-opacity="0" result="BackgroundImageFix"/>
<feColorMatrix in="SourceAlpha" type="matrix" values="0 0 0 0 0 0 0 0 0 0 0 0 0 0 0 0 0 0 127 0" result="hardAlpha"/>
<feOffset dy="1.59473"/>
<feGaussianBlur stdDeviation="5.58154"/>
<feComposite in2="hardAlpha" operator="out"/>
<feColorMatrix type="matrix" values="0 0 0 0 0.0627451 0 0 0 0 0.537255 0 0 0 0 0.803922 0 0 0 0.1 0"/>
<feBlend mode="normal" in2="BackgroundImageFix" result="effect1_dropShadow_567_2990"/>
<feBlend mode="normal" in="SourceGraphic" in2="effect1_dropShadow_567_2990" result="shape"/>
</filter>
<linearGradient id="paint0_linear_567_2990" x1="46.3919" y1="37.6392" x2="46.3919" y2="63.9155" gradientUnits="userSpaceOnUse">
<stop stop-color="#01F89E"/>
<stop offset="1" stop-color="#00CC82"/>
</linearGradient>
<clipPath id="clip0_567_2990">
<rect width="100.134" height="79.5392" fill="white" transform="translate(0.940918)"/>
</clipPath>
</defs>
</svg>
