<svg version="1.0" xmlns="http://www.w3.org/2000/svg" xmlns:xlink="http://www.w3.org/1999/xlink"
	 viewBox="0 0 100 100" enable-background="new 0 0 100 100" xml:space="preserve">
	
<svg xmlns="http://www.w3.org/2000/svg" xmlns:xlink="http://www.w3.org/1999/xlink" version="1.1" width="100" height="100" viewBox="0 0 2000 2000" x="0" y="0" shape-rendering="crispEdges"><defs/><rect x="0" y="0" width="2000" height="2000" fill="#ffffff"/><rect x="617" y="158" width="51" height="51" fill="#015379"/><rect x="923" y="158" width="51" height="51" fill="#015379"/><rect x="974" y="158" width="51" height="51" fill="#015379"/><rect x="1127" y="158" width="51" height="51" fill="#015379"/><rect x="1178" y="158" width="51" height="51" fill="#015379"/><rect x="1229" y="158" width="51" height="51" fill="#015379"/><rect x="1280" y="158" width="51" height="51" fill="#015379"/><rect x="1331" y="158" width="51" height="51" fill="#015379"/><rect x="1382" y="158" width="51" height="51" fill="#015379"/><rect x="566" y="209" width="51" height="51" fill="#015379"/><rect x="617" y="209" width="51" height="51" fill="#015379"/><rect x="719" y="209" width="51" height="51" fill="#015379"/><rect x="770" y="209" width="51" height="51" fill="#015379"/><rect x="1025" y="209" width="51" height="51" fill="#015379"/><rect x="1127" y="209" width="51" height="51" fill="#015379"/><rect x="1280" y="209" width="51" height="51" fill="#015379"/><rect x="1382" y="209" width="51" height="51" fill="#015379"/><rect x="617" y="260" width="51" height="51" fill="#015379"/><rect x="668" y="260" width="51" height="51" fill="#015379"/><rect x="719" y="260" width="51" height="51" fill="#015379"/><rect x="872" y="260" width="51" height="51" fill="#015379"/><rect x="974" y="260" width="51" height="51" fill="#015379"/><rect x="1025" y="260" width="51" height="51" fill="#015379"/><rect x="1076" y="260" width="51" height="51" fill="#015379"/><rect x="1127" y="260" width="51" height="51" fill="#015379"/><rect x="1178" y="260" width="51" height="51" fill="#015379"/><rect x="1331" y="260" width="51" height="51" fill="#015379"/><rect x="566" y="311" width="51" height="51" fill="#015379"/><rect x="617" y="311" width="51" height="51" fill="#015379"/><rect x="719" y="311" width="51" height="51" fill="#015379"/><rect x="974" y="311" width="51" height="51" fill="#015379"/><rect x="1178" y="311" width="51" height="51" fill="#015379"/><rect x="1280" y="311" width="51" height="51" fill="#015379"/><rect x="668" y="362" width="51" height="51" fill="#015379"/><rect x="770" y="362" width="51" height="51" fill="#015379"/><rect x="821" y="362" width="51" height="51" fill="#015379"/><rect x="872" y="362" width="51" height="51" fill="#015379"/><rect x="923" y="362" width="51" height="51" fill="#015379"/><rect x="1076" y="362" width="51" height="51" fill="#015379"/><rect x="1127" y="362" width="51" height="51" fill="#015379"/><rect x="1229" y="362" width="51" height="51" fill="#015379"/><rect x="1280" y="362" width="51" height="51" fill="#015379"/><rect x="1331" y="362" width="51" height="51" fill="#015379"/><rect x="566" y="413" width="51" height="51" fill="#015379"/><rect x="668" y="413" width="51" height="51" fill="#015379"/><rect x="821" y="413" width="51" height="51" fill="#015379"/><rect x="872" y="413" width="51" height="51" fill="#015379"/><rect x="923" y="413" width="51" height="51" fill="#015379"/><rect x="974" y="413" width="51" height="51" fill="#015379"/><rect x="1025" y="413" width="51" height="51" fill="#015379"/><rect x="1178" y="413" width="51" height="51" fill="#015379"/><rect x="1280" y="413" width="51" height="51" fill="#015379"/><rect x="1331" y="413" width="51" height="51" fill="#015379"/><rect x="1382" y="413" width="51" height="51" fill="#015379"/><rect x="566" y="464" width="51" height="51" fill="#015379"/><rect x="668" y="464" width="51" height="51" fill="#015379"/><rect x="770" y="464" width="51" height="51" fill="#015379"/><rect x="872" y="464" width="51" height="51" fill="#015379"/><rect x="974" y="464" width="51" height="51" fill="#015379"/><rect x="1076" y="464" width="51" height="51" fill="#015379"/><rect x="1178" y="464" width="51" height="51" fill="#015379"/><rect x="1280" y="464" width="51" height="51" fill="#015379"/><rect x="1382" y="464" width="51" height="51" fill="#015379"/><rect x="770" y="515" width="51" height="51" fill="#015379"/><rect x="821" y="515" width="51" height="51" fill="#015379"/><rect x="923" y="515" width="51" height="51" fill="#015379"/><rect x="1127" y="515" width="51" height="51" fill="#015379"/><rect x="1178" y="515" width="51" height="51" fill="#015379"/><rect x="1331" y="515" width="51" height="51" fill="#015379"/><rect x="1382" y="515" width="51" height="51" fill="#015379"/><rect x="158" y="566" width="51" height="51" fill="#015379"/><rect x="209" y="566" width="51" height="51" fill="#015379"/><rect x="260" y="566" width="51" height="51" fill="#015379"/><rect x="311" y="566" width="51" height="51" fill="#015379"/><rect x="362" y="566" width="51" height="51" fill="#015379"/><rect x="464" y="566" width="51" height="51" fill="#015379"/><rect x="515" y="566" width="51" height="51" fill="#015379"/><rect x="566" y="566" width="51" height="51" fill="#015379"/><rect x="617" y="566" width="51" height="51" fill="#015379"/><rect x="668" y="566" width="51" height="51" fill="#015379"/><rect x="770" y="566" width="51" height="51" fill="#015379"/><rect x="872" y="566" width="51" height="51" fill="#015379"/><rect x="923" y="566" width="51" height="51" fill="#015379"/><rect x="1178" y="566" width="51" height="51" fill="#015379"/><rect x="1229" y="566" width="51" height="51" fill="#015379"/><rect x="1280" y="566" width="51" height="51" fill="#015379"/><rect x="1433" y="566" width="51" height="51" fill="#015379"/><rect x="1535" y="566" width="51" height="51" fill="#015379"/><rect x="1637" y="566" width="51" height="51" fill="#015379"/><rect x="1739" y="566" width="51" height="51" fill="#015379"/><rect x="209" y="617" width="51" height="51" fill="#015379"/><rect x="260" y="617" width="51" height="51" fill="#015379"/><rect x="311" y="617" width="51" height="51" fill="#015379"/><rect x="413" y="617" width="51" height="51" fill="#015379"/><rect x="617" y="617" width="51" height="51" fill="#015379"/><rect x="923" y="617" width="51" height="51" fill="#015379"/><rect x="974" y="617" width="51" height="51" fill="#015379"/><rect x="1178" y="617" width="51" height="51" fill="#015379"/><rect x="1229" y="617" width="51" height="51" fill="#015379"/><rect x="1280" y="617" width="51" height="51" fill="#015379"/><rect x="1433" y="617" width="51" height="51" fill="#015379"/><rect x="1535" y="617" width="51" height="51" fill="#015379"/><rect x="1586" y="617" width="51" height="51" fill="#015379"/><rect x="1637" y="617" width="51" height="51" fill="#015379"/><rect x="1688" y="617" width="51" height="51" fill="#015379"/><rect x="158" y="668" width="51" height="51" fill="#015379"/><rect x="311" y="668" width="51" height="51" fill="#015379"/><rect x="464" y="668" width="51" height="51" fill="#015379"/><rect x="515" y="668" width="51" height="51" fill="#015379"/><rect x="566" y="668" width="51" height="51" fill="#015379"/><rect x="617" y="668" width="51" height="51" fill="#015379"/><rect x="719" y="668" width="51" height="51" fill="#015379"/><rect x="770" y="668" width="51" height="51" fill="#015379"/><rect x="1025" y="668" width="51" height="51" fill="#015379"/><rect x="1127" y="668" width="51" height="51" fill="#015379"/><rect x="1280" y="668" width="51" height="51" fill="#015379"/><rect x="1331" y="668" width="51" height="51" fill="#015379"/><rect x="1382" y="668" width="51" height="51" fill="#015379"/><rect x="1433" y="668" width="51" height="51" fill="#015379"/><rect x="1535" y="668" width="51" height="51" fill="#015379"/><rect x="1586" y="668" width="51" height="51" fill="#015379"/><rect x="1637" y="668" width="51" height="51" fill="#015379"/><rect x="1739" y="668" width="51" height="51" fill="#015379"/><rect x="566" y="719" width="51" height="51" fill="#015379"/><rect x="617" y="719" width="51" height="51" fill="#015379"/><rect x="668" y="719" width="51" height="51" fill="#015379"/><rect x="719" y="719" width="51" height="51" fill="#015379"/><rect x="872" y="719" width="51" height="51" fill="#015379"/><rect x="974" y="719" width="51" height="51" fill="#015379"/><rect x="1127" y="719" width="51" height="51" fill="#015379"/><rect x="1229" y="719" width="51" height="51" fill="#015379"/><rect x="1280" y="719" width="51" height="51" fill="#015379"/><rect x="1331" y="719" width="51" height="51" fill="#015379"/><rect x="1484" y="719" width="51" height="51" fill="#015379"/><rect x="1688" y="719" width="51" height="51" fill="#015379"/><rect x="1739" y="719" width="51" height="51" fill="#015379"/><rect x="1790" y="719" width="51" height="51" fill="#015379"/><rect x="158" y="770" width="51" height="51" fill="#015379"/><rect x="464" y="770" width="51" height="51" fill="#015379"/><rect x="515" y="770" width="51" height="51" fill="#015379"/><rect x="566" y="770" width="51" height="51" fill="#015379"/><rect x="617" y="770" width="51" height="51" fill="#015379"/><rect x="719" y="770" width="51" height="51" fill="#015379"/><rect x="1178" y="770" width="51" height="51" fill="#015379"/><rect x="1229" y="770" width="51" height="51" fill="#015379"/><rect x="1433" y="770" width="51" height="51" fill="#015379"/><rect x="1484" y="770" width="51" height="51" fill="#015379"/><rect x="1535" y="770" width="51" height="51" fill="#015379"/><rect x="1688" y="770" width="51" height="51" fill="#015379"/><rect x="1739" y="770" width="51" height="51" fill="#015379"/><rect x="260" y="821" width="51" height="51" fill="#015379"/><rect x="413" y="821" width="51" height="51" fill="#015379"/><rect x="668" y="821" width="51" height="51" fill="#015379"/><rect x="770" y="821" width="51" height="51" fill="#015379"/><rect x="821" y="821" width="51" height="51" fill="#015379"/><rect x="872" y="821" width="51" height="51" fill="#015379"/><rect x="923" y="821" width="51" height="51" fill="#015379"/><rect x="1076" y="821" width="51" height="51" fill="#015379"/><rect x="1229" y="821" width="51" height="51" fill="#015379"/><rect x="1331" y="821" width="51" height="51" fill="#015379"/><rect x="1484" y="821" width="51" height="51" fill="#015379"/><rect x="1586" y="821" width="51" height="51" fill="#015379"/><rect x="1637" y="821" width="51" height="51" fill="#015379"/><rect x="1688" y="821" width="51" height="51" fill="#015379"/><rect x="158" y="872" width="51" height="51" fill="#015379"/><rect x="260" y="872" width="51" height="51" fill="#015379"/><rect x="413" y="872" width="51" height="51" fill="#015379"/><rect x="464" y="872" width="51" height="51" fill="#015379"/><rect x="566" y="872" width="51" height="51" fill="#015379"/><rect x="821" y="872" width="51" height="51" fill="#015379"/><rect x="872" y="872" width="51" height="51" fill="#015379"/><rect x="923" y="872" width="51" height="51" fill="#015379"/><rect x="1025" y="872" width="51" height="51" fill="#015379"/><rect x="1280" y="872" width="51" height="51" fill="#015379"/><rect x="1331" y="872" width="51" height="51" fill="#015379"/><rect x="1382" y="872" width="51" height="51" fill="#015379"/><rect x="1433" y="872" width="51" height="51" fill="#015379"/><rect x="1535" y="872" width="51" height="51" fill="#015379"/><rect x="1586" y="872" width="51" height="51" fill="#015379"/><rect x="1637" y="872" width="51" height="51" fill="#015379"/><rect x="1739" y="872" width="51" height="51" fill="#015379"/><rect x="260" y="923" width="51" height="51" fill="#015379"/><rect x="362" y="923" width="51" height="51" fill="#015379"/><rect x="413" y="923" width="51" height="51" fill="#015379"/><rect x="515" y="923" width="51" height="51" fill="#015379"/><rect x="566" y="923" width="51" height="51" fill="#015379"/><rect x="617" y="923" width="51" height="51" fill="#015379"/><rect x="770" y="923" width="51" height="51" fill="#015379"/><rect x="821" y="923" width="51" height="51" fill="#015379"/><rect x="923" y="923" width="51" height="51" fill="#015379"/><rect x="1025" y="923" width="51" height="51" fill="#015379"/><rect x="1076" y="923" width="51" height="51" fill="#015379"/><rect x="1127" y="923" width="51" height="51" fill="#015379"/><rect x="1178" y="923" width="51" height="51" fill="#015379"/><rect x="1229" y="923" width="51" height="51" fill="#015379"/><rect x="1331" y="923" width="51" height="51" fill="#015379"/><rect x="1484" y="923" width="51" height="51" fill="#015379"/><rect x="1688" y="923" width="51" height="51" fill="#015379"/><rect x="1739" y="923" width="51" height="51" fill="#015379"/><rect x="1790" y="923" width="51" height="51" fill="#015379"/><rect x="158" y="974" width="51" height="51" fill="#015379"/><rect x="311" y="974" width="51" height="51" fill="#015379"/><rect x="362" y="974" width="51" height="51" fill="#015379"/><rect x="464" y="974" width="51" height="51" fill="#015379"/><rect x="515" y="974" width="51" height="51" fill="#015379"/><rect x="566" y="974" width="51" height="51" fill="#015379"/><rect x="617" y="974" width="51" height="51" fill="#015379"/><rect x="770" y="974" width="51" height="51" fill="#015379"/><rect x="872" y="974" width="51" height="51" fill="#015379"/><rect x="923" y="974" width="51" height="51" fill="#015379"/><rect x="974" y="974" width="51" height="51" fill="#015379"/><rect x="1076" y="974" width="51" height="51" fill="#015379"/><rect x="1229" y="974" width="51" height="51" fill="#015379"/><rect x="1484" y="974" width="51" height="51" fill="#015379"/><rect x="1535" y="974" width="51" height="51" fill="#015379"/><rect x="1586" y="974" width="51" height="51" fill="#015379"/><rect x="1637" y="974" width="51" height="51" fill="#015379"/><rect x="1739" y="974" width="51" height="51" fill="#015379"/><rect x="209" y="1025" width="51" height="51" fill="#015379"/><rect x="260" y="1025" width="51" height="51" fill="#015379"/><rect x="311" y="1025" width="51" height="51" fill="#015379"/><rect x="413" y="1025" width="51" height="51" fill="#015379"/><rect x="515" y="1025" width="51" height="51" fill="#015379"/><rect x="566" y="1025" width="51" height="51" fill="#015379"/><rect x="617" y="1025" width="51" height="51" fill="#015379"/><rect x="668" y="1025" width="51" height="51" fill="#015379"/><rect x="974" y="1025" width="51" height="51" fill="#015379"/><rect x="1127" y="1025" width="51" height="51" fill="#015379"/><rect x="1178" y="1025" width="51" height="51" fill="#015379"/><rect x="1229" y="1025" width="51" height="51" fill="#015379"/><rect x="1280" y="1025" width="51" height="51" fill="#015379"/><rect x="1331" y="1025" width="51" height="51" fill="#015379"/><rect x="1382" y="1025" width="51" height="51" fill="#015379"/><rect x="1433" y="1025" width="51" height="51" fill="#015379"/><rect x="1484" y="1025" width="51" height="51" fill="#015379"/><rect x="1586" y="1025" width="51" height="51" fill="#015379"/><rect x="1688" y="1025" width="51" height="51" fill="#015379"/><rect x="209" y="1076" width="51" height="51" fill="#015379"/><rect x="413" y="1076" width="51" height="51" fill="#015379"/><rect x="464" y="1076" width="51" height="51" fill="#015379"/><rect x="566" y="1076" width="51" height="51" fill="#015379"/><rect x="668" y="1076" width="51" height="51" fill="#015379"/><rect x="719" y="1076" width="51" height="51" fill="#015379"/><rect x="770" y="1076" width="51" height="51" fill="#015379"/><rect x="1025" y="1076" width="51" height="51" fill="#015379"/><rect x="1127" y="1076" width="51" height="51" fill="#015379"/><rect x="1280" y="1076" width="51" height="51" fill="#015379"/><rect x="1382" y="1076" width="51" height="51" fill="#015379"/><rect x="1433" y="1076" width="51" height="51" fill="#015379"/><rect x="1535" y="1076" width="51" height="51" fill="#015379"/><rect x="1586" y="1076" width="51" height="51" fill="#015379"/><rect x="1637" y="1076" width="51" height="51" fill="#015379"/><rect x="1790" y="1076" width="51" height="51" fill="#015379"/><rect x="158" y="1127" width="51" height="51" fill="#015379"/><rect x="260" y="1127" width="51" height="51" fill="#015379"/><rect x="311" y="1127" width="51" height="51" fill="#015379"/><rect x="362" y="1127" width="51" height="51" fill="#015379"/><rect x="515" y="1127" width="51" height="51" fill="#015379"/><rect x="566" y="1127" width="51" height="51" fill="#015379"/><rect x="617" y="1127" width="51" height="51" fill="#015379"/><rect x="719" y="1127" width="51" height="51" fill="#015379"/><rect x="872" y="1127" width="51" height="51" fill="#015379"/><rect x="1025" y="1127" width="51" height="51" fill="#015379"/><rect x="1076" y="1127" width="51" height="51" fill="#015379"/><rect x="1127" y="1127" width="51" height="51" fill="#015379"/><rect x="1178" y="1127" width="51" height="51" fill="#015379"/><rect x="1331" y="1127" width="51" height="51" fill="#015379"/><rect x="1484" y="1127" width="51" height="51" fill="#015379"/><rect x="1535" y="1127" width="51" height="51" fill="#015379"/><rect x="1790" y="1127" width="51" height="51" fill="#015379"/><rect x="158" y="1178" width="51" height="51" fill="#015379"/><rect x="362" y="1178" width="51" height="51" fill="#015379"/><rect x="464" y="1178" width="51" height="51" fill="#015379"/><rect x="515" y="1178" width="51" height="51" fill="#015379"/><rect x="566" y="1178" width="51" height="51" fill="#015379"/><rect x="617" y="1178" width="51" height="51" fill="#015379"/><rect x="719" y="1178" width="51" height="51" fill="#015379"/><rect x="923" y="1178" width="51" height="51" fill="#015379"/><rect x="974" y="1178" width="51" height="51" fill="#015379"/><rect x="1025" y="1178" width="51" height="51" fill="#015379"/><rect x="1178" y="1178" width="51" height="51" fill="#015379"/><rect x="1280" y="1178" width="51" height="51" fill="#015379"/><rect x="1382" y="1178" width="51" height="51" fill="#015379"/><rect x="1433" y="1178" width="51" height="51" fill="#015379"/><rect x="1586" y="1178" width="51" height="51" fill="#015379"/><rect x="1739" y="1178" width="51" height="51" fill="#015379"/><rect x="158" y="1229" width="51" height="51" fill="#015379"/><rect x="209" y="1229" width="51" height="51" fill="#015379"/><rect x="311" y="1229" width="51" height="51" fill="#015379"/><rect x="362" y="1229" width="51" height="51" fill="#015379"/><rect x="617" y="1229" width="51" height="51" fill="#015379"/><rect x="668" y="1229" width="51" height="51" fill="#015379"/><rect x="770" y="1229" width="51" height="51" fill="#015379"/><rect x="821" y="1229" width="51" height="51" fill="#015379"/><rect x="872" y="1229" width="51" height="51" fill="#015379"/><rect x="1229" y="1229" width="51" height="51" fill="#015379"/><rect x="1331" y="1229" width="51" height="51" fill="#015379"/><rect x="1433" y="1229" width="51" height="51" fill="#015379"/><rect x="1688" y="1229" width="51" height="51" fill="#015379"/><rect x="1790" y="1229" width="51" height="51" fill="#015379"/><rect x="158" y="1280" width="51" height="51" fill="#015379"/><rect x="260" y="1280" width="51" height="51" fill="#015379"/><rect x="311" y="1280" width="51" height="51" fill="#015379"/><rect x="362" y="1280" width="51" height="51" fill="#015379"/><rect x="413" y="1280" width="51" height="51" fill="#015379"/><rect x="464" y="1280" width="51" height="51" fill="#015379"/><rect x="515" y="1280" width="51" height="51" fill="#015379"/><rect x="566" y="1280" width="51" height="51" fill="#015379"/><rect x="617" y="1280" width="51" height="51" fill="#015379"/><rect x="821" y="1280" width="51" height="51" fill="#015379"/><rect x="872" y="1280" width="51" height="51" fill="#015379"/><rect x="923" y="1280" width="51" height="51" fill="#015379"/><rect x="1025" y="1280" width="51" height="51" fill="#015379"/><rect x="1280" y="1280" width="51" height="51" fill="#015379"/><rect x="1331" y="1280" width="51" height="51" fill="#015379"/><rect x="1382" y="1280" width="51" height="51" fill="#015379"/><rect x="1433" y="1280" width="51" height="51" fill="#015379"/><rect x="1586" y="1280" width="51" height="51" fill="#015379"/><rect x="1739" y="1280" width="51" height="51" fill="#015379"/><rect x="158" y="1331" width="51" height="51" fill="#015379"/><rect x="413" y="1331" width="51" height="51" fill="#015379"/><rect x="566" y="1331" width="51" height="51" fill="#015379"/><rect x="770" y="1331" width="51" height="51" fill="#015379"/><rect x="821" y="1331" width="51" height="51" fill="#015379"/><rect x="974" y="1331" width="51" height="51" fill="#015379"/><rect x="1025" y="1331" width="51" height="51" fill="#015379"/><rect x="1076" y="1331" width="51" height="51" fill="#015379"/><rect x="1127" y="1331" width="51" height="51" fill="#015379"/><rect x="1178" y="1331" width="51" height="51" fill="#015379"/><rect x="1280" y="1331" width="51" height="51" fill="#015379"/><rect x="1331" y="1331" width="51" height="51" fill="#015379"/><rect x="1382" y="1331" width="51" height="51" fill="#015379"/><rect x="1484" y="1331" width="51" height="51" fill="#015379"/><rect x="1637" y="1331" width="51" height="51" fill="#015379"/><rect x="1739" y="1331" width="51" height="51" fill="#015379"/><rect x="1790" y="1331" width="51" height="51" fill="#015379"/><rect x="158" y="1382" width="51" height="51" fill="#015379"/><rect x="260" y="1382" width="51" height="51" fill="#015379"/><rect x="464" y="1382" width="51" height="51" fill="#015379"/><rect x="515" y="1382" width="51" height="51" fill="#015379"/><rect x="617" y="1382" width="51" height="51" fill="#015379"/><rect x="668" y="1382" width="51" height="51" fill="#015379"/><rect x="770" y="1382" width="51" height="51" fill="#015379"/><rect x="872" y="1382" width="51" height="51" fill="#015379"/><rect x="923" y="1382" width="51" height="51" fill="#015379"/><rect x="1025" y="1382" width="51" height="51" fill="#015379"/><rect x="1229" y="1382" width="51" height="51" fill="#015379"/><rect x="1382" y="1382" width="51" height="51" fill="#015379"/><rect x="1433" y="1382" width="51" height="51" fill="#015379"/><rect x="1484" y="1382" width="51" height="51" fill="#015379"/><rect x="1535" y="1382" width="51" height="51" fill="#015379"/><rect x="1586" y="1382" width="51" height="51" fill="#015379"/><rect x="1637" y="1382" width="51" height="51" fill="#015379"/><rect x="566" y="1433" width="51" height="51" fill="#015379"/><rect x="923" y="1433" width="51" height="51" fill="#015379"/><rect x="974" y="1433" width="51" height="51" fill="#015379"/><rect x="1076" y="1433" width="51" height="51" fill="#015379"/><rect x="1127" y="1433" width="51" height="51" fill="#015379"/><rect x="1178" y="1433" width="51" height="51" fill="#015379"/><rect x="1229" y="1433" width="51" height="51" fill="#015379"/><rect x="1280" y="1433" width="51" height="51" fill="#015379"/><rect x="1382" y="1433" width="51" height="51" fill="#015379"/><rect x="1586" y="1433" width="51" height="51" fill="#015379"/><rect x="1688" y="1433" width="51" height="51" fill="#015379"/><rect x="566" y="1484" width="51" height="51" fill="#015379"/><rect x="617" y="1484" width="51" height="51" fill="#015379"/><rect x="668" y="1484" width="51" height="51" fill="#015379"/><rect x="719" y="1484" width="51" height="51" fill="#015379"/><rect x="770" y="1484" width="51" height="51" fill="#015379"/><rect x="1025" y="1484" width="51" height="51" fill="#015379"/><rect x="1178" y="1484" width="51" height="51" fill="#015379"/><rect x="1331" y="1484" width="51" height="51" fill="#015379"/><rect x="1382" y="1484" width="51" height="51" fill="#015379"/><rect x="1484" y="1484" width="51" height="51" fill="#015379"/><rect x="1586" y="1484" width="51" height="51" fill="#015379"/><rect x="1739" y="1484" width="51" height="51" fill="#015379"/><rect x="617" y="1535" width="51" height="51" fill="#015379"/><rect x="668" y="1535" width="51" height="51" fill="#015379"/><rect x="719" y="1535" width="51" height="51" fill="#015379"/><rect x="872" y="1535" width="51" height="51" fill="#015379"/><rect x="974" y="1535" width="51" height="51" fill="#015379"/><rect x="1127" y="1535" width="51" height="51" fill="#015379"/><rect x="1178" y="1535" width="51" height="51" fill="#015379"/><rect x="1331" y="1535" width="51" height="51" fill="#015379"/><rect x="1382" y="1535" width="51" height="51" fill="#015379"/><rect x="1586" y="1535" width="51" height="51" fill="#015379"/><rect x="1637" y="1535" width="51" height="51" fill="#015379"/><rect x="1790" y="1535" width="51" height="51" fill="#015379"/><rect x="566" y="1586" width="51" height="51" fill="#015379"/><rect x="668" y="1586" width="51" height="51" fill="#015379"/><rect x="719" y="1586" width="51" height="51" fill="#015379"/><rect x="923" y="1586" width="51" height="51" fill="#015379"/><rect x="1025" y="1586" width="51" height="51" fill="#015379"/><rect x="1076" y="1586" width="51" height="51" fill="#015379"/><rect x="1178" y="1586" width="51" height="51" fill="#015379"/><rect x="1280" y="1586" width="51" height="51" fill="#015379"/><rect x="1331" y="1586" width="51" height="51" fill="#015379"/><rect x="1382" y="1586" width="51" height="51" fill="#015379"/><rect x="1433" y="1586" width="51" height="51" fill="#015379"/><rect x="1484" y="1586" width="51" height="51" fill="#015379"/><rect x="1535" y="1586" width="51" height="51" fill="#015379"/><rect x="1586" y="1586" width="51" height="51" fill="#015379"/><rect x="1637" y="1586" width="51" height="51" fill="#015379"/><rect x="1790" y="1586" width="51" height="51" fill="#015379"/><rect x="566" y="1637" width="51" height="51" fill="#015379"/><rect x="668" y="1637" width="51" height="51" fill="#015379"/><rect x="770" y="1637" width="51" height="51" fill="#015379"/><rect x="821" y="1637" width="51" height="51" fill="#015379"/><rect x="872" y="1637" width="51" height="51" fill="#015379"/><rect x="923" y="1637" width="51" height="51" fill="#015379"/><rect x="974" y="1637" width="51" height="51" fill="#015379"/><rect x="1178" y="1637" width="51" height="51" fill="#015379"/><rect x="1229" y="1637" width="51" height="51" fill="#015379"/><rect x="1280" y="1637" width="51" height="51" fill="#015379"/><rect x="1433" y="1637" width="51" height="51" fill="#015379"/><rect x="1586" y="1637" width="51" height="51" fill="#015379"/><rect x="1637" y="1637" width="51" height="51" fill="#015379"/><rect x="1688" y="1637" width="51" height="51" fill="#015379"/><rect x="1739" y="1637" width="51" height="51" fill="#015379"/><rect x="566" y="1688" width="51" height="51" fill="#015379"/><rect x="617" y="1688" width="51" height="51" fill="#015379"/><rect x="668" y="1688" width="51" height="51" fill="#015379"/><rect x="821" y="1688" width="51" height="51" fill="#015379"/><rect x="872" y="1688" width="51" height="51" fill="#015379"/><rect x="1025" y="1688" width="51" height="51" fill="#015379"/><rect x="1076" y="1688" width="51" height="51" fill="#015379"/><rect x="1280" y="1688" width="51" height="51" fill="#015379"/><rect x="1331" y="1688" width="51" height="51" fill="#015379"/><rect x="1382" y="1688" width="51" height="51" fill="#015379"/><rect x="1637" y="1688" width="51" height="51" fill="#015379"/><rect x="566" y="1739" width="51" height="51" fill="#015379"/><rect x="668" y="1739" width="51" height="51" fill="#015379"/><rect x="770" y="1739" width="51" height="51" fill="#015379"/><rect x="821" y="1739" width="51" height="51" fill="#015379"/><rect x="974" y="1739" width="51" height="51" fill="#015379"/><rect x="1025" y="1739" width="51" height="51" fill="#015379"/><rect x="1076" y="1739" width="51" height="51" fill="#015379"/><rect x="1127" y="1739" width="51" height="51" fill="#015379"/><rect x="1178" y="1739" width="51" height="51" fill="#015379"/><rect x="1229" y="1739" width="51" height="51" fill="#015379"/><rect x="1331" y="1739" width="51" height="51" fill="#015379"/><rect x="1382" y="1739" width="51" height="51" fill="#015379"/><rect x="1433" y="1739" width="51" height="51" fill="#015379"/><rect x="1586" y="1739" width="51" height="51" fill="#015379"/><rect x="1637" y="1739" width="51" height="51" fill="#015379"/><rect x="1688" y="1739" width="51" height="51" fill="#015379"/><rect x="1739" y="1739" width="51" height="51" fill="#015379"/><rect x="1790" y="1739" width="51" height="51" fill="#015379"/><rect x="566" y="1790" width="51" height="51" fill="#015379"/><rect x="617" y="1790" width="51" height="51" fill="#015379"/><rect x="668" y="1790" width="51" height="51" fill="#015379"/><rect x="770" y="1790" width="51" height="51" fill="#015379"/><rect x="872" y="1790" width="51" height="51" fill="#015379"/><rect x="923" y="1790" width="51" height="51" fill="#015379"/><rect x="974" y="1790" width="51" height="51" fill="#015379"/><rect x="1229" y="1790" width="51" height="51" fill="#015379"/><rect x="1280" y="1790" width="51" height="51" fill="#015379"/><rect x="1484" y="1790" width="51" height="51" fill="#015379"/><rect x="1637" y="1790" width="51" height="51" fill="#015379"/><rect x="1739" y="1790" width="51" height="51" fill="#015379"/><svg version="1.1" id="Ebene_1" x="158" y="158" width="357" height="357" viewBox="0 0 699.988 699.988" enable-background="new 0 0 699.988 699.988" xml:space="preserve" shape-rendering="auto">
<path fill="#015379" d="M488.367,0H211.621C94.746,0,0,94.746,0,211.621v276.745c0,116.876,94.746,211.622,211.621,211.622h276.746  c116.875,0,211.621-94.746,211.621-211.622V211.621C699.988,94.746,605.242,0,488.367,0z M599.99,448.832  c0,83.482-67.676,151.158-151.158,151.158H251.156c-83.482,0-151.158-67.676-151.158-151.158V251.156  c0-83.482,67.676-151.158,151.158-151.158h197.676c83.482,0,151.158,67.676,151.158,151.158V448.832z"/>
</svg>
<svg version="1.1" id="Ebene_1" x="158" y="158" width="357" height="357" viewBox="0 0 699.988 699.988" enable-background="new 0 0 699.988 699.988" xml:space="preserve" shape-rendering="auto">
<path fill="#00ad6f" d="M499.991,409.296c0,50.091-40.604,90.694-90.693,90.694H290.691c-50.089,0-90.694-40.604-90.694-90.694  V290.692c0-50.09,40.605-90.694,90.694-90.694h118.605c50.089,0,90.693,40.604,90.693,90.694L499.991,409.296L499.991,409.296z"/>
</svg>
<svg version="1.1" id="Ebene_1" x="1484" y="158" width="357" height="357" viewBox="0 0 699.988 699.988" enable-background="new 0 0 699.988 699.988" xml:space="preserve" shape-rendering="auto">
<path fill="#015379" d="M488.367,0H211.621C94.746,0,0,94.746,0,211.621v276.745c0,116.876,94.746,211.622,211.621,211.622h276.746  c116.875,0,211.621-94.746,211.621-211.622V211.621C699.988,94.746,605.242,0,488.367,0z M599.99,448.832  c0,83.482-67.676,151.158-151.158,151.158H251.156c-83.482,0-151.158-67.676-151.158-151.158V251.156  c0-83.482,67.676-151.158,151.158-151.158h197.676c83.482,0,151.158,67.676,151.158,151.158V448.832z"/>
</svg>
<svg version="1.1" id="Ebene_1" x="1484" y="158" width="357" height="357" viewBox="0 0 699.988 699.988" enable-background="new 0 0 699.988 699.988" xml:space="preserve" shape-rendering="auto">
<path fill="#00ad6f" d="M499.991,409.296c0,50.091-40.604,90.694-90.693,90.694H290.691c-50.089,0-90.694-40.604-90.694-90.694  V290.692c0-50.09,40.605-90.694,90.694-90.694h118.605c50.089,0,90.693,40.604,90.693,90.694L499.991,409.296L499.991,409.296z"/>
</svg>
<svg version="1.1" id="Ebene_1" x="158" y="1484" width="357" height="357" viewBox="0 0 699.988 699.988" enable-background="new 0 0 699.988 699.988" xml:space="preserve" shape-rendering="auto">
<path fill="#015379" d="M488.367,0H211.621C94.746,0,0,94.746,0,211.621v276.745c0,116.876,94.746,211.622,211.621,211.622h276.746  c116.875,0,211.621-94.746,211.621-211.622V211.621C699.988,94.746,605.242,0,488.367,0z M599.99,448.832  c0,83.482-67.676,151.158-151.158,151.158H251.156c-83.482,0-151.158-67.676-151.158-151.158V251.156  c0-83.482,67.676-151.158,151.158-151.158h197.676c83.482,0,151.158,67.676,151.158,151.158V448.832z"/>
</svg>
<svg version="1.1" id="Ebene_1" x="158" y="1484" width="357" height="357" viewBox="0 0 699.988 699.988" enable-background="new 0 0 699.988 699.988" xml:space="preserve" shape-rendering="auto">
<path fill="#00ad6f" d="M499.991,409.296c0,50.091-40.604,90.694-90.693,90.694H290.691c-50.089,0-90.694-40.604-90.694-90.694  V290.692c0-50.09,40.605-90.694,90.694-90.694h118.605c50.089,0,90.693,40.604,90.693,90.694L499.991,409.296L499.991,409.296z"/>
</svg>
</svg>

</svg>
