<svg width="546" height="82" viewBox="0 0 546 82" fill="none" xmlns="http://www.w3.org/2000/svg">
<path fill-rule="evenodd" clip-rule="evenodd" d="M274.311 80.214C274.641 80.8049 275.222 81.1003 276.054 81.1003L276.067 81.1137L276.441 81.0972C278.096 81.024 279.469 80.9632 280.551 80.9257C281.592 80.8836 282.616 80.8469 283.625 80.8108L283.978 80.7981C285.101 80.7579 286.488 80.7377 288.152 80.7377C290.648 80.7377 292.867 80.7579 294.821 80.7981C296.769 80.8384 299.074 80.9459 301.735 81.1137C302.481 81.1137 303.043 80.8183 303.419 80.2274C303.795 79.6365 303.98 79.0053 303.98 78.3271C303.894 76.8902 303.584 76.0844 303.043 75.9166C302.501 75.7487 301.775 75.6614 300.863 75.6614C297.628 75.6614 295.323 75.4532 293.95 75.0302C292.576 74.6072 291.916 73.7007 291.955 72.304C291.995 70.9074 292.47 68.7788 293.388 65.9049C293.468 65.8243 293.573 65.5692 293.699 65.1462C293.824 64.7231 294.154 63.7965 294.696 62.3596C295.237 60.9226 296.129 58.5993 297.377 55.3897H328.155L332.395 65.9049C333.557 69.3697 333.953 71.8541 333.577 73.3784C333.201 74.9026 330.975 75.6614 326.907 75.6614C326.075 75.6614 325.369 75.7487 324.788 75.9166C324.207 76.0911 323.87 76.8902 323.791 78.3271C323.791 79.0053 323.956 79.6365 324.286 80.2274C324.616 80.8183 325.197 81.1137 326.029 81.1137C331.431 80.8586 336.581 80.731 341.481 80.731C343.971 80.731 346.216 80.7511 348.21 80.7914C350.204 80.8317 352.529 80.9392 355.19 81.107C355.936 81.107 356.497 80.8116 356.874 80.2207C357.25 79.6298 357.435 78.9986 357.435 78.3204C357.349 76.8835 357.039 76.0777 356.497 75.9098C355.956 75.742 355.23 75.6547 354.318 75.6547C352.575 75.5674 351.142 75.0436 350.02 74.07C348.897 73.0964 348.005 71.8474 347.339 70.3299C346.672 68.8124 346.051 67.3351 345.47 65.8982L324.537 13.4362C323.044 9.63566 321.42 6.78191 319.677 4.88164C317.927 2.97467 315.853 1.69216 313.443 1.01397C311.033 0.335785 308.127 4.95911e-05 304.72 4.95911e-05C303.393 4.95911e-05 302.23 0.060482 301.233 0.188061C300.236 0.315641 299.741 1.09455 299.741 2.53149C299.741 3.79386 299.946 4.53919 300.362 4.74735C300.771 4.96222 301.603 5.19052 302.851 5.44568C304.264 5.69412 305.552 6.05672 306.714 6.52003C307.876 6.99006 308.708 7.74882 309.204 8.80303C309.705 9.86396 309.54 11.4016 308.708 13.4295L286.904 65.8915C286.237 67.4963 285.557 69.0608 284.85 70.5784C284.143 72.0959 283.206 73.3247 282.044 74.2513C280.875 75.1846 279.178 75.648 276.932 75.648C276.1 75.648 275.394 75.7352 274.813 75.9031C274.232 76.0777 273.901 76.8768 273.816 78.3137C273.816 78.9919 273.981 79.6231 274.311 80.214ZM325.897 49.9306H299.728L312.935 17.3643H313.311L325.897 49.9306ZM239.326 81.9932C237.583 77.1787 236.024 72.8074 234.651 68.8793C233.277 64.9512 231.739 60.6404 230.042 55.9535L230.01 55.8667C228.317 51.2088 226.624 46.5508 224.931 41.8862C223.227 37.1993 221.688 32.9086 220.321 29.0275C218.948 25.1397 217.389 20.8356 215.646 16.1017C214.319 12.6369 212.985 10.1458 211.658 8.62825C210.33 7.11073 208.336 6.0968 205.675 5.58649C204.513 5.33133 203.7 5.12317 203.245 4.9553C202.789 4.78744 202.558 4.02867 202.558 2.6723C202.558 1.23536 203.053 0.456449 204.05 0.32887C205.048 0.20129 206.21 0.140858 207.537 0.140858C213.104 0.228149 217.422 1.26221 220.5 3.24305C223.57 5.23061 226.027 8.62825 227.849 13.4427L245.916 62.8629H246.293L263.488 12.0528C264.399 9.35344 264.439 7.64119 263.614 6.92271C262.782 6.20424 260.913 5.84836 258.007 5.84836C257.175 5.84836 256.469 5.76778 255.888 5.5932C255.306 5.42533 254.97 4.62628 254.89 3.18262C254.89 2.50444 255.056 1.87325 255.386 1.28236C255.716 0.691464 256.257 0.396017 257.004 0.396017C259.658 0.483308 261.969 0.563885 263.917 0.651176C265.865 0.738467 268.091 0.778755 270.587 0.778755C272.251 0.778755 273.618 0.758611 274.701 0.718323L275.159 0.70122C276.089 0.666511 277.039 0.631103 278.003 0.590744C279.048 0.553237 280.362 0.492451 281.945 0.419223L282.301 0.402732C283.133 0.402732 283.715 0.698179 284.045 1.28907C284.375 1.87997 284.54 2.51786 284.54 3.18934C284.454 4.62628 284.144 5.42533 283.602 5.59992C283.061 5.76778 282.334 5.85507 281.423 5.85507C278.267 5.85507 275.771 6.44597 273.948 7.62776C272.119 8.80955 270.541 11.0925 269.213 14.47C269.213 14.3895 268.777 15.5444 267.906 17.955C267.034 20.3656 265.892 23.5752 264.479 27.5839C263.066 31.5993 261.507 36.0108 259.803 40.8253C258.1 45.6397 256.376 50.4542 254.633 55.2686C252.89 60.0831 251.311 64.5215 249.898 68.5705C248.485 72.6261 246.907 77.1048 245.164 81.9999H239.306L239.326 81.9932ZM135.391 81.0997C134.644 81.0997 134.103 80.8042 133.773 80.2133C133.443 79.6224 133.278 78.9913 133.278 78.3131C133.357 76.8761 133.694 76.0771 134.275 75.9025C134.856 75.7346 135.562 75.6473 136.394 75.6473C139.049 75.6473 140.924 75.1639 142.001 74.1903C143.077 73.2233 143.764 71.9945 144.054 70.5173C144.345 69.0401 144.49 67.4957 144.49 65.8909V43.813L120.805 43.8022C120.54 49.5958 119.27 54.6923 116.994 59.0963C114.418 64.0786 110.971 68.2014 106.653 71.4513C102.334 74.7013 97.4936 77.1118 92.1382 78.6764C86.7828 80.2409 81.3152 81.0198 75.7485 81.0198H58.5531C56.0636 81.0198 53.6533 81.0399 51.3223 81.0802C48.9979 81.1205 46.4621 81.2279 43.7217 81.3958H43.7151C42.9689 81.3958 42.4274 81.1004 42.0972 80.5095C41.7671 79.9186 41.602 79.2874 41.602 78.6092C41.6812 77.1723 42.018 76.3732 42.5991 76.1986C43.1802 76.0308 43.8868 75.9435 44.7188 75.9435C47.3734 75.9435 49.2488 75.46 50.3251 74.4864C51.4015 73.5195 52.0883 72.2907 52.3788 70.8134C52.6694 69.3362 52.8147 67.7918 52.8147 66.187V45.6668H65.1499V67.7112C65.1499 71.0887 66.1668 73.3717 68.2007 74.5535C70.2346 75.7353 73.3712 76.3262 77.6106 76.3262C84.3395 76.3262 89.7808 74.8691 93.9344 71.9549C98.0879 69.0407 101.099 64.9649 102.968 59.7274C104.626 55.081 105.551 49.7687 105.739 43.7953L27.5751 43.7594C26.1197 44.8687 24.8525 46.218 23.8259 47.7533L22.6876 49.4555C22.5344 49.6848 22.2806 49.8218 22.0093 49.8218H0.411738C0.0858985 49.8218 -0.110412 49.452 0.0667115 49.1719L0.331151 48.7537C2.30948 45.625 5.24542 43.2571 8.67885 42.0208L9.29513 41.7989C9.66143 41.667 9.66143 41.1364 9.29513 41.0046L8.67885 40.7826C5.24542 39.5464 2.30948 37.1784 0.331151 34.0497L0.0667115 33.6315C-0.110405 33.3514 0.0858985 32.9817 0.411738 32.9817H22.0093C22.2806 32.9817 22.5344 33.1187 22.6876 33.3479L23.8259 35.0501C24.7643 36.4535 25.9036 37.7014 27.2041 38.7528L105.71 38.7488C105.43 32.9253 104.245 27.6676 102.162 22.9846C99.752 17.5792 96.2456 13.3355 91.6298 10.2468C87.0205 7.1647 81.434 5.62032 74.8702 5.62032C73.5429 5.62032 71.793 5.64047 69.6337 5.68075C67.4743 5.72104 65.9753 5.74119 65.1499 5.74119V36.9377H52.8147V15.8871C52.8147 14.2823 52.6694 12.7379 52.3788 11.2607C52.0883 9.78344 51.4015 8.56136 50.3251 7.58773C49.2422 6.62081 47.3734 6.13064 44.7188 6.13064C43.8868 6.13064 43.1802 6.05006 42.5991 5.87548C42.018 5.70761 41.6812 4.90856 41.602 3.4649C41.602 2.78671 41.7671 2.15553 42.0972 1.56464C42.4274 0.973742 42.9689 0.678295 43.7151 0.678295L43.8321 0.682023C46.5278 0.767884 49.0244 0.847407 51.3157 0.933454C53.6401 1.02075 56.0503 1.06103 58.5465 1.06103H77.987C85.964 1.06103 93.1882 2.66585 99.6728 5.87548C106.151 9.08511 111.301 13.6914 115.125 19.6876C118.533 25.0327 120.42 31.3861 120.789 38.748L144.49 38.7468V15.591C144.49 13.9862 144.345 12.4418 144.054 10.9645C143.764 9.48731 143.077 8.26524 142.001 7.2916C140.918 6.32468 139.049 5.83451 136.394 5.83451C135.562 5.83451 134.856 5.75393 134.275 5.57935C133.694 5.41148 133.357 4.61243 133.278 3.16877C133.278 2.49059 133.443 1.8594 133.773 1.26851C134.103 0.677615 134.644 0.382167 135.391 0.382167L135.508 0.3859C138.203 0.47176 140.7 0.551281 142.991 0.637326C145.316 0.724618 147.726 0.764906 150.222 0.764906H189.347C190.259 0.764906 191.031 0.979776 191.652 1.39609C192.273 1.81912 192.59 2.62488 192.59 3.80667L192.966 21.5469C192.966 22.393 192.57 23.0242 191.784 23.4472C190.992 23.8702 190.265 24.0784 189.605 24.0784C188.687 24.0784 187.862 23.8904 187.116 23.5076C186.369 23.1249 185.907 22.5541 185.742 21.7954C185.161 17.9949 184.474 14.9329 183.688 12.6097C182.896 10.2864 181.734 8.60097 180.202 7.54005C178.663 6.48584 176.444 5.91509 173.532 5.8278H156.832V38.0181H179.389C179.51 38.0338 179.624 38.0576 179.731 38.0896C177.925 35.2713 176.22 32.514 175.409 29.4166C175.248 28.8028 175.944 28.4305 176.387 28.878C176.73 29.2241 177.072 29.572 177.414 29.9199L177.415 29.9208L177.417 29.9224L177.418 29.9234C179.212 31.7488 181.011 33.5779 182.981 35.1863C184.96 36.8014 187.109 38.1988 189.293 39.6185C189.908 40.0181 190.526 40.4195 191.143 40.828C191.582 41.1189 191.523 41.7909 191.05 42.0198C185.471 44.717 180.922 48.9588 176.644 53.6128C176.214 54.0815 175.486 53.7401 175.626 53.1148C176.363 49.8395 178.171 47.034 180.069 44.0907L180.069 44.0904L180.238 43.8295L156.832 43.8187V67.4218C156.911 68.523 157.083 69.725 157.327 71.0343C157.578 72.3437 158.305 73.4651 159.506 74.3917C160.708 75.325 162.722 75.7413 165.549 75.6608H177.012C179.918 75.5802 182.143 75.09 183.682 74.2037C185.22 73.3173 186.442 71.82 187.36 69.7048C188.271 67.5964 189.268 64.6822 190.351 60.9623C190.681 60.1162 191.243 59.5656 192.035 59.3172C192.821 59.062 193.673 59.0217 194.591 59.1896C195.258 59.2769 195.938 59.5723 196.644 60.0759C197.351 60.5795 197.661 61.2577 197.582 62.1038L195.092 78.0714C194.842 79.2531 194.445 79.9918 193.91 80.2872C193.369 80.5827 192.557 80.7304 191.48 80.7304H150.361C147.871 80.7304 145.441 80.7505 143.07 80.7908C140.7 80.8311 138.151 80.9385 135.404 81.1064L135.391 81.0997ZM369.529 81.1C368.697 81.1 368.116 80.8046 367.786 80.2137C367.456 79.6228 367.291 78.9916 367.291 78.3134C367.37 76.8765 367.707 76.0774 368.288 75.9029C368.869 75.735 369.576 75.6477 370.408 75.6477C373.062 75.6477 374.911 75.1642 375.954 74.1906C376.991 73.2237 377.638 71.9949 377.889 70.5177C378.14 69.0404 378.266 67.496 378.266 65.8912L378.517 15.5846C378.517 11.6162 377.85 9.07807 376.522 7.98357C375.195 6.88908 373.075 6.04302 370.17 5.45213C368.922 5.19697 368.09 4.96867 367.68 4.7538C367.264 4.54564 367.06 3.80031 367.06 2.53794C367.06 1.101 367.555 0.32209 368.552 0.194511C369.549 0.0669312 370.711 0.00649884 372.039 0.00649884C376.688 0.00649884 380.451 0.389237 383.317 1.148C386.183 1.90676 388.719 3.26313 390.918 5.20368C393.117 7.15095 395.507 9.89055 398.083 13.4426L432.229 59.0624H432.606L432.355 15.5981C432.355 13.9932 432.229 12.4489 431.978 10.9716C431.727 9.49438 431.087 8.27231 430.043 7.29867C429.007 6.33175 427.158 5.84158 424.496 5.84158C423.664 5.84158 422.958 5.761 422.377 5.58642C421.796 5.41855 421.419 4.6195 421.254 3.17584C421.254 2.49766 421.439 1.86647 421.815 1.27558C422.192 0.684684 422.753 0.389237 423.499 0.389237C425.329 0.476528 426.801 0.536961 427.924 0.577249C428.485 0.597393 429.046 0.619216 429.608 0.641039L429.609 0.641085C430.17 0.662892 430.731 0.684699 431.291 0.704829C432.414 0.745117 433.801 0.765261 435.465 0.765261C437.129 0.765261 438.496 0.745117 439.579 0.704829L440.037 0.687727C440.967 0.653017 441.917 0.617609 442.88 0.577249C443.926 0.539742 445.24 0.478957 446.823 0.405728L447.179 0.389237C448.011 0.389237 448.592 0.684684 448.923 1.27558C449.253 1.86647 449.418 2.50437 449.418 3.17584C449.332 4.61279 449.022 5.41184 448.48 5.58642C447.939 5.75429 447.212 5.84158 446.301 5.84158C443.726 5.84158 441.897 6.33175 440.82 7.29867C439.737 8.27231 439.097 9.49438 438.885 10.9716C438.674 12.4489 438.529 13.9932 438.45 15.5981L438.199 79.4617C438.113 80.1398 437.717 80.583 437.017 80.7912C436.31 80.9993 435.663 81.1068 435.088 81.1068C433.51 81.1068 432.302 80.5561 431.476 79.4617L384.499 15.5981H384.123L384.374 65.9047C384.453 67.5095 384.598 69.0539 384.81 70.5311C385.014 72.0083 385.662 73.2371 386.745 74.204C387.821 75.1777 389.65 75.6611 392.225 75.6611C393.137 75.6611 393.889 75.7484 394.471 75.9163C395.052 76.0841 395.382 76.8899 395.468 78.3269C395.468 79.005 395.283 79.6362 394.906 80.2271C394.53 80.818 393.969 81.1135 393.223 81.1135C391.479 81.0262 390 80.9657 388.798 80.9255C388.04 80.9002 387.299 80.8722 386.577 80.845L386.573 80.8448L386.571 80.8447C386.145 80.8286 385.725 80.8128 385.312 80.7979C384.189 80.7576 382.796 80.7374 381.138 80.7374C379.481 80.7374 378.127 80.7576 377.09 80.7979L376.651 80.8149C375.754 80.8496 374.839 80.8851 373.914 80.9255C373.078 80.9566 372.022 81.0037 370.745 81.0606C370.368 81.0774 369.971 81.0951 369.556 81.1135L369.529 81.1ZM453.519 80.214C453.849 80.8049 454.43 81.1003 455.262 81.1003L455.275 81.1137L455.649 81.0972C457.304 81.024 458.677 80.9632 459.759 80.9257C460.8 80.8836 461.824 80.8469 462.833 80.8108L463.186 80.7981C464.309 80.7579 465.696 80.7377 467.36 80.7377C469.856 80.7377 472.075 80.7579 474.029 80.7981C475.977 80.8384 478.282 80.9459 480.943 81.1137C481.689 81.1137 482.25 80.8183 482.627 80.2274C483.003 79.6365 483.188 79.0053 483.188 78.3271C483.102 76.8902 482.792 76.0844 482.25 75.9166C481.709 75.7487 480.983 75.6614 480.071 75.6614C476.836 75.6614 474.531 75.4532 473.158 75.0302C471.784 74.6072 471.124 73.7007 471.163 72.304C471.203 70.9074 471.678 68.7788 472.596 65.9049C472.675 65.8243 472.781 65.5692 472.907 65.1462C473.032 64.7231 473.362 63.7965 473.904 62.3596C474.445 60.9226 475.337 58.5993 476.585 55.3897H507.363L511.603 65.9049C512.765 69.3697 513.161 71.8541 512.785 73.3784C512.409 74.9026 510.183 75.6614 506.115 75.6614C505.283 75.6614 504.577 75.7487 503.996 75.9166C503.415 76.0911 503.078 76.8902 502.999 78.3271C502.999 79.0053 503.164 79.6365 503.494 80.2274C503.824 80.8183 504.405 81.1137 505.237 81.1137C510.639 80.8586 515.789 80.731 520.689 80.731C523.179 80.731 525.424 80.7511 527.418 80.7914C529.412 80.8317 531.737 80.9392 534.398 81.107C535.144 81.107 535.705 80.8116 536.082 80.2207C536.458 79.6298 536.643 78.9986 536.643 78.3204C536.557 76.8835 536.247 76.0777 535.705 75.9098C535.164 75.742 534.438 75.6547 533.526 75.6547C531.783 75.5674 530.35 75.0436 529.227 74.07C528.105 73.0964 527.213 71.8474 526.547 70.3299C525.88 68.8124 525.259 67.3351 524.678 65.8982L503.745 13.4362C502.252 9.63566 500.628 6.78191 498.885 4.88164C497.135 2.97467 495.061 1.69216 492.651 1.01397C490.241 0.335785 487.335 4.95911e-05 483.928 4.95911e-05C482.6 4.95911e-05 481.438 0.060482 480.441 0.188061C479.444 0.315641 478.949 1.09455 478.949 2.53149C478.949 3.79386 479.153 4.53919 479.569 4.74735C479.979 4.96222 480.811 5.19052 482.059 5.44568C483.472 5.69412 484.76 6.05672 485.922 6.52003C487.084 6.99006 487.916 7.74882 488.412 8.80303C488.913 9.86396 488.748 11.4016 487.916 13.4295L466.112 65.8915C465.445 67.4963 464.765 69.0608 464.058 70.5784C463.351 72.0959 462.414 73.3247 461.251 74.2513C460.083 75.1846 458.386 75.648 456.14 75.648C455.308 75.648 454.602 75.7352 454.021 75.9031C453.44 76.0777 453.109 76.8768 453.024 78.3137C453.024 78.9919 453.189 79.6231 453.519 80.214ZM505.105 49.9306H478.936L492.142 17.3643H492.519L505.105 49.9306Z" fill="#00A86B"/>
</svg>
