<svg width="211" height="52" viewBox="0 0 211 52" fill="none" xmlns="http://www.w3.org/2000/svg">
<path d="M196.738 27.336C197.556 27.9876 198.272 28.761 198.862 29.6308L199.577 30.6858C199.673 30.8278 199.833 30.9127 200.003 30.9127H210.741C210.946 30.9127 211.07 30.6836 210.958 30.51L210.792 30.2508C209.549 28.3117 207.703 26.8441 205.545 26.0779L205.158 25.9404C204.928 25.8586 204.928 25.5298 205.158 25.4481L205.545 25.3106C207.703 24.5443 209.549 23.0767 210.792 21.1377L210.958 20.8785C211.07 20.7049 210.946 20.4757 210.741 20.4757L200.003 20.4757C199.833 20.4757 199.673 20.5606 199.577 20.7027L198.862 21.7577C198.216 22.7092 197.42 23.5455 196.505 24.233L147.083 24.1896L147.189 24.0279C148.388 22.1951 149.53 20.4487 149.988 18.4066C150.073 18.0279 149.626 17.8214 149.361 18.1052C146.663 21.0023 143.794 23.6437 140.271 25.319C139.98 25.4572 139.944 25.8637 140.214 26.0398C140.607 26.2964 141 26.5485 141.391 26.7994C142.764 27.6793 144.115 28.5454 145.359 29.5464C146.598 30.5434 147.728 31.6772 148.856 32.8087C149.078 33.0315 149.3 33.2542 149.523 33.4757C149.795 33.7464 150.223 33.521 150.126 33.1493C149.589 31.105 148.413 29.3005 147.199 27.4366L147.137 27.3408L196.738 27.336Z" fill="#1089CD"/>
<path fill-rule="evenodd" clip-rule="evenodd" d="M90.9147 51.9999C90.3742 51.9999 89.996 51.8104 89.7798 51.4312C89.5636 51.052 89.4555 50.6458 89.4555 50.2124C89.5096 49.2916 89.7257 48.777 90.104 48.6687C90.4823 48.5603 90.9417 48.5062 91.4821 48.5062C93.2114 48.5062 94.4003 48.2083 95.0488 47.6124C95.7514 46.9624 96.1837 46.177 96.3458 45.2562C96.5079 44.2812 96.589 43.2791 96.589 42.2499L96.7511 9.99369C96.7511 7.44785 96.3188 5.82285 95.4541 5.11869C94.5895 4.41452 93.2114 3.87286 91.32 3.49369C90.5093 3.33119 89.9689 3.19577 89.6987 3.08744C89.4285 2.92494 89.2934 2.43744 89.2934 1.62494C89.2934 0.704106 89.6177 0.216606 90.2662 0.162436C90.9147 0.0541045 91.6712 -6.10352e-05 92.5359 -6.10352e-05C95.5622 -6.10352e-05 97.9941 0.243688 99.8315 0.731189C101.723 1.21869 103.371 2.08536 104.776 3.33119C106.235 4.57702 107.803 6.33744 109.478 8.61244L131.689 37.8624H131.932L131.77 9.99369C131.77 8.96452 131.689 7.98952 131.527 7.06869C131.365 6.09369 130.932 5.30827 130.23 4.71244C129.581 4.06244 128.392 3.73744 126.663 3.73744C126.123 3.73744 125.663 3.68327 125.285 3.57494C124.907 3.4666 124.664 2.95202 124.555 2.03119C124.555 1.59786 124.664 1.19161 124.88 0.812439C125.15 0.433274 125.528 0.243691 126.015 0.243691C127.203 0.297857 128.149 0.352023 128.852 0.406189C129.608 0.406189 130.338 0.433272 131.04 0.487438H136.472C137.174 0.433272 137.877 0.406189 138.579 0.406189C139.336 0.352023 140.282 0.297857 141.416 0.243691C141.957 0.243691 142.335 0.433274 142.551 0.812439C142.767 1.19161 142.876 1.59786 142.876 2.03119C142.821 2.95202 142.605 3.4666 142.227 3.57494C141.903 3.68327 141.443 3.73744 140.849 3.73744C139.174 3.73744 137.985 4.06244 137.282 4.71244C136.58 5.30827 136.147 6.09369 135.985 7.06869C135.877 7.98952 135.796 8.96452 135.742 9.99369L135.58 50.9437C135.526 51.377 135.256 51.6479 134.769 51.7562C134.337 51.9187 133.932 51.9999 133.553 51.9999C132.527 51.9999 131.743 51.6479 131.203 50.9437L100.642 9.99369H100.399L100.561 42.2499C100.615 43.2791 100.696 44.2812 100.804 45.2562C100.966 46.177 101.399 46.9624 102.101 47.6124C102.804 48.2083 103.993 48.5062 105.668 48.5062C106.262 48.5062 106.749 48.5603 107.127 48.6687C107.505 48.777 107.722 49.2916 107.776 50.2124C107.776 50.6458 107.64 51.052 107.37 51.4312C107.154 51.8104 106.803 51.9999 106.316 51.9999C105.182 51.9458 104.209 51.8916 103.398 51.8374C102.642 51.8374 101.885 51.8104 101.129 51.7562H95.7784C95.1299 51.8104 94.4544 51.8374 93.7518 51.8374C93.0493 51.8916 92.1036 51.9458 90.9147 51.9999ZM50.6793 51.4312C50.8955 51.8104 51.2738 51.9999 51.8142 51.9999C55.3269 51.8374 58.6775 51.7562 61.8659 51.7562H66.6486C68.2158 51.8104 69.864 51.8916 71.5934 51.9999C72.0797 51.9999 72.431 51.8104 72.6472 51.4312C72.8633 51.052 72.9714 50.6458 72.9714 50.2124C72.9174 49.2916 72.7012 48.777 72.3229 48.6687C71.9987 48.5603 71.5393 48.5062 70.9449 48.5062C69.2696 48.5062 68.0536 48.2083 67.2971 47.6124C66.5945 46.9624 66.1622 46.177 66.0001 45.2562C65.8379 44.2812 65.7299 43.2791 65.6758 42.2499V34.3687C65.6758 33.1229 65.7569 32.1208 65.919 31.3624C66.0811 30.6041 66.3243 29.8729 66.6486 29.1687C66.9728 28.4645 67.3781 27.5979 67.8645 26.5687L77.0245 9.26244C78.0513 7.36661 79.2132 5.98535 80.5102 5.11869C81.8072 4.19785 83.4825 3.73744 85.5361 3.73744C86.1305 3.73744 86.5899 3.68327 86.9141 3.57494C87.2924 3.4666 87.5086 2.95202 87.5626 2.03119C87.5626 1.59786 87.4545 1.19161 87.2384 0.812439C87.0222 0.433274 86.6439 0.243691 86.1035 0.243691C84.3742 0.297857 82.9691 0.352023 81.8883 0.406189C80.8615 0.460355 79.5375 0.487438 77.9162 0.487438C76.295 0.487438 74.8359 0.460355 73.5389 0.406189C72.2959 0.352023 70.8098 0.297857 69.0804 0.243691C68.5941 0.243691 68.2428 0.433274 68.0266 0.812439C67.8105 1.19161 67.7024 1.59786 67.7024 2.03119C67.7564 2.95202 67.9726 3.4666 68.3509 3.57494C68.7292 3.68327 69.1885 3.73744 69.7289 3.73744C71.6204 3.73744 72.9174 3.95411 73.6199 4.38744C74.3225 4.76661 74.2144 5.87702 73.2957 7.71869L64.2978 25.5124H64.0546C62.4874 22.6416 61.0553 19.8249 59.7583 17.0624C58.5153 14.2999 57.1102 11.4562 55.543 8.53119C53.7056 5.28119 51.598 3.06036 49.2202 1.86869C46.8964 0.677022 43.8161 0.0811877 39.9791 0.0811877C39.1144 0.0811877 38.3579 0.135356 37.7094 0.243691C37.0609 0.297857 36.7366 0.785355 36.7366 1.70619C36.7366 2.57285 36.8717 3.06035 37.1419 3.16869C37.4662 3.27702 38.0066 3.41244 38.7632 3.57494C40.4925 3.9541 42.0327 4.6041 43.3837 5.52494C44.7348 6.3916 45.9777 7.8541 47.1126 9.91244C47.599 10.7791 48.2475 12.0249 49.0581 13.6499C49.9227 15.2208 50.8414 16.9812 51.8142 18.9312C52.7869 20.8812 53.7056 22.777 54.5703 24.6187C55.489 26.4604 56.2186 28.0854 56.759 29.4937C57.3534 30.8479 57.6507 31.7145 57.6507 32.0937V42.2499C57.6507 43.2791 57.5426 44.2812 57.3264 45.2562C57.1643 46.177 56.732 46.9624 56.0294 47.6124C55.3269 48.2083 54.111 48.5062 52.3816 48.5062C51.8412 48.5062 51.3819 48.5603 51.0036 48.6687C50.6253 48.777 50.4091 49.2916 50.3551 50.2124C50.3551 50.6458 50.4632 51.052 50.6793 51.4312ZM0.324493 51.4312C0.540659 51.8104 0.891928 51.9999 1.3783 51.9999C3.16167 51.8916 4.80993 51.8104 6.3231 51.7562H37.6942C38.3967 51.7562 38.9101 51.6749 39.2343 51.5124C39.6126 51.2958 39.8829 50.8083 40.045 50.0499L41.6662 39.8124C41.7203 39.2708 41.5041 38.8374 41.0177 38.5124C40.5854 38.1874 40.1531 37.9979 39.7207 37.9437C39.1263 37.8354 38.5588 37.8624 38.0184 38.0249C37.532 38.1874 37.1808 38.5395 36.9646 39.0812C36.2621 41.4645 35.6136 43.3333 35.0191 44.6874C34.4247 46.0416 33.614 47.0166 32.5872 47.6124C31.6145 48.1541 30.1824 48.452 28.291 48.5062H20.9954C19.1579 48.5604 17.8339 48.3166 17.0233 47.7749C16.2667 47.2333 15.8074 46.5562 15.6453 45.7437C15.4831 44.9312 15.375 44.1729 15.321 43.4687V9.99369C15.375 8.96452 15.4831 7.98952 15.6453 7.06869C15.8074 6.09369 16.2397 5.30827 16.9422 4.71244C17.6988 4.06244 18.9148 3.73744 20.59 3.73744C21.1305 3.73744 21.5898 3.68327 21.9681 3.57494C22.3464 3.4666 22.5626 2.95202 22.6166 2.03119C22.6166 1.59786 22.5085 1.19161 22.2923 0.812439C22.0762 0.433274 21.6979 0.243691 21.1575 0.243691C17.6988 0.406189 14.3212 0.487438 11.0247 0.487438C9.40346 0.487438 7.83626 0.460355 6.3231 0.406189C4.80993 0.352023 3.16167 0.297857 1.3783 0.243691C0.891928 0.243691 0.540659 0.433274 0.324493 0.812439C0.108327 1.19161 0.000244141 1.59786 0.000244141 2.03119C0.0542857 2.95202 0.270452 3.4666 0.648742 3.57494C1.02703 3.68327 1.48638 3.73744 2.0268 3.73744C3.75613 3.73744 4.97206 4.06244 5.6746 4.71244C6.37714 5.30827 6.80947 6.09369 6.97159 7.06869C7.18776 7.98952 7.29584 8.96452 7.29584 9.99369V42.2499C7.29584 43.2791 7.18776 44.2812 6.97159 45.2562C6.80947 46.177 6.37714 46.9624 5.6746 47.6124C4.97206 48.2083 3.75613 48.5062 2.0268 48.5062C1.48638 48.5062 1.02703 48.5603 0.648742 48.6687C0.270452 48.777 0.0542857 49.2916 0.000244141 50.2124C0.000244141 50.6458 0.108327 51.052 0.324493 51.4312ZM149.466 51.4312C149.682 51.8104 150.061 51.9999 150.601 51.9999C152.33 51.8916 153.952 51.8104 155.465 51.7562H160.248C163.49 51.7562 166.841 51.8374 170.299 51.9999C170.84 51.9999 171.218 51.8104 171.434 51.4312C171.65 51.052 171.758 50.6458 171.758 50.2124C171.704 49.2916 171.488 48.777 171.11 48.6687C170.786 48.5603 170.326 48.5062 169.732 48.5062C168.057 48.5062 166.841 48.2083 166.084 47.6124C165.381 46.9624 164.949 46.177 164.787 45.2562C164.625 44.2812 164.517 43.2791 164.463 42.2499V28.5999H156.438V42.2499C156.438 43.2791 156.33 44.2812 156.113 45.2562C155.951 46.177 155.519 46.9624 154.816 47.6124C154.114 48.2083 152.898 48.5062 151.169 48.5062C150.628 48.5062 150.169 48.5603 149.791 48.6687C149.412 48.777 149.196 49.2916 149.142 50.2124C149.142 50.6458 149.25 51.052 149.466 51.4312ZM156.438 22.9124V9.99369C156.438 8.96452 156.33 7.98952 156.113 7.06869C155.951 6.09369 155.519 5.30827 154.816 4.71244C154.114 4.06244 152.898 3.73744 151.169 3.73744C150.628 3.73744 150.169 3.68327 149.791 3.57494C149.412 3.4666 149.196 2.95202 149.142 2.03119C149.142 1.59786 149.25 1.19161 149.466 0.812439C149.682 0.433274 150.061 0.243691 150.601 0.243691C152.33 0.297857 153.952 0.352023 155.465 0.406189C156.978 0.460355 158.545 0.487438 160.166 0.487438C163.463 0.487438 166.841 0.406189 170.299 0.243691C170.84 0.243691 171.218 0.433274 171.434 0.812439C171.65 1.19161 171.758 1.59786 171.758 2.03119C171.704 2.95202 171.488 3.4666 171.11 3.57494C170.786 3.68327 170.326 3.73744 169.732 3.73744C168.057 3.73744 166.841 4.06244 166.084 4.71244C165.381 5.30827 164.949 6.09369 164.787 7.06869C164.625 7.98952 164.517 8.96452 164.463 9.99369V22.9124H156.438ZM165.529 24.3298V26.993C166.021 27.1299 166.503 27.3405 166.976 27.6249C167.84 28.1124 168.759 28.9249 169.732 30.0624C173.299 34.1791 176.622 37.9979 179.702 41.5187C182.837 45.0395 185.89 48.452 188.863 51.7562H196.482C197.077 51.8104 197.671 51.8374 198.266 51.8374C198.914 51.8916 199.806 51.9458 200.941 51.9999C201.481 51.9999 201.859 51.8104 202.076 51.4312C202.292 51.052 202.4 50.6458 202.4 50.2124C202.346 49.2916 202.103 48.8041 201.67 48.7499C201.238 48.6416 200.806 48.5604 200.373 48.5062C198.536 48.2895 197.023 47.6666 195.834 46.6374C194.699 45.5541 193.213 44.0916 191.375 42.2499C189.052 39.7583 186.241 36.8874 182.945 33.6374C182.811 33.5034 182.676 33.368 182.541 33.2315C182.437 33.1277 182.334 33.0231 182.229 32.918C179.144 29.8136 175.57 26.218 171.812 24.3343C171.812 24.3343 173.623 22.6416 174.271 21.9374C174.92 21.2333 175.757 20.3395 176.784 19.2562C177.865 18.1729 179 17.0083 180.189 15.7624C181.432 14.5166 182.594 13.3249 183.675 12.1874C184.809 10.9958 185.728 10.0208 186.431 9.26244C188.646 7.04161 190.727 5.55202 192.672 4.79369C194.618 4.03536 196.59 3.71036 198.59 3.81869C199.022 3.81869 199.374 3.73744 199.644 3.57494C199.968 3.41244 200.157 2.92494 200.211 2.11244C200.211 1.62494 200.076 1.19161 199.806 0.812439C199.59 0.433274 199.211 0.243691 198.671 0.243691C197.644 0.297857 196.428 0.352023 195.023 0.406189C193.618 0.460355 192.375 0.487438 191.294 0.487438H186.836C185.269 0.433272 183.783 0.352023 182.378 0.243691C181.945 0.243691 181.594 0.433274 181.324 0.812439C181.054 1.19161 180.918 1.62494 180.918 2.11244C181.081 3.19577 181.459 3.76452 182.053 3.81869C184.701 3.98119 184.945 5.28119 182.783 7.71869C181.108 9.72286 179.297 11.8354 177.352 14.0562C175.406 16.2229 173.407 18.2541 171.353 20.1499C170.11 21.1791 168.867 22.1541 167.624 23.0749C166.872 23.6234 166.174 24.0417 165.529 24.3298Z" fill="#1089CD"/>
</svg>
