<svg width="180" height="115" viewBox="0 0 180 115" fill="none" xmlns="http://www.w3.org/2000/svg">
<g clip-path="url(#clip0_276_3078)">
<g filter="url(#filter0_dd_276_3078)">
<rect x="10" y="17" width="160" height="20" rx="10" fill="url(#paint0_linear_276_3078)" fill-opacity="0.7" shape-rendering="crispEdges"/>
</g>
<g filter="url(#filter1_dd_276_3078)">
<rect x="10" y="46" width="160" height="21" rx="10.5" fill="url(#paint1_linear_276_3078)" fill-opacity="0.7" shape-rendering="crispEdges"/>
</g>
<g filter="url(#filter2_dd_276_3078)">
<rect x="10" y="76" width="160" height="21" rx="10.5" fill="url(#paint2_linear_276_3078)" fill-opacity="0.7" shape-rendering="crispEdges"/>
</g>
<path opacity="0.8" fill-rule="evenodd" clip-rule="evenodd" d="M88.2177 0.00012207C88.9057 0.00012207 89.4635 0.558677 89.4635 1.24769V27.4936L91.297 25.5427C91.7686 25.041 92.5571 25.0171 93.0581 25.4893C93.5591 25.9615 93.583 26.7511 93.1115 27.2528L89.1248 31.4945C88.8894 31.745 88.5611 31.887 88.2176 31.887C87.8741 31.887 87.5458 31.745 87.3104 31.4945L83.3238 27.2528C82.8522 26.7511 82.8761 25.9615 83.3771 25.4893C83.8782 25.0171 84.6666 25.041 85.1382 25.5427L86.9719 27.4937V1.24769C86.9719 0.558677 87.5296 0.00012207 88.2177 0.00012207ZM98.6827 5.43849C99.3707 5.43849 99.9285 5.99704 99.9285 6.68605V16.7644L101.762 14.8136C102.234 14.3119 103.022 14.2879 103.523 14.7602C104.024 15.2324 104.048 16.0219 103.576 16.5237L99.5898 20.7654C99.5444 20.8137 99.4956 20.8579 99.4439 20.8979C99.27 21.0325 99.0595 21.1221 98.83 21.1492C98.7813 21.155 98.7321 21.1579 98.6826 21.1579C98.6278 21.1579 98.5733 21.1543 98.5196 21.1472C98.2367 21.1098 97.9732 20.9759 97.7754 20.7654L93.7887 16.5237C93.3172 16.0219 93.3411 15.2324 93.8421 14.7602C94.3431 14.2879 95.1316 14.3119 95.6032 14.8136L97.4368 16.7646V6.68605C97.4368 5.99704 97.9946 5.43849 98.6827 5.43849ZM110.393 8.18332C110.393 7.49431 109.836 6.93576 109.148 6.93576C108.459 6.93576 107.902 7.49431 107.902 8.18332V33.3841C107.902 34.0731 108.459 34.6317 109.148 34.6317C109.836 34.6317 110.393 34.0731 110.393 33.3841V8.18332ZM68.7827 10.429C68.7827 9.73995 68.2249 9.1814 67.5369 9.1814C66.8488 9.1814 66.291 9.73995 66.291 10.429L66.291 22.0046L64.4575 20.0538C63.9859 19.552 63.1975 19.5281 62.6964 20.0003C62.1954 20.4726 62.1715 21.2621 62.6431 21.7639L66.6297 26.0056C66.8651 26.2561 67.1934 26.3981 67.5369 26.3981C67.8804 26.3981 68.2087 26.2561 68.4441 26.0056L72.4308 21.7639C72.9023 21.2621 72.8785 20.4726 72.3774 20.0003C71.8764 19.5281 71.0879 19.552 70.6164 20.0538L68.7827 22.0048L68.7827 10.429ZM78.9985 18.6632C78.9985 17.9742 78.4407 17.4156 77.7527 17.4156C77.0646 17.4156 76.5069 17.9742 76.5069 18.6632V31.8873C76.5069 32.5764 77.0646 33.1349 77.7527 33.1349C78.4407 33.1349 78.9985 32.5764 78.9985 31.8873V18.6632Z" fill="url(#paint3_linear_276_3078)"/>
<g filter="url(#filter3_d_276_3078)">
<path d="M101.574 72.0589L101.837 66.0763L107.166 59.8328H72.6668L77.828 65.88L78.127 72.0589H101.574Z" fill="url(#paint4_linear_276_3078)"/>
<path d="M101.508 73.556H78.1995L78.7911 85.7821H100.97L101.508 73.556Z" fill="url(#paint5_linear_276_3078)"/>
<path d="M100.904 87.2792H78.8636L79.4611 99.626C79.5254 100.956 80.6206 102 81.9498 102H97.8724C99.2058 102 100.303 100.949 100.362 99.6151L100.904 87.2792Z" fill="url(#paint6_linear_276_3078)"/>
<path d="M71.3891 58.3357H108.444L118.878 46.1096H60.9542L71.3891 58.3357Z" fill="url(#paint7_linear_276_3078)"/>
<path d="M59.6765 44.6125H120.156L129.633 33.5085C131.015 31.8892 129.866 29.3922 127.739 29.3922L52.0934 29.3922C49.9663 29.3922 48.8173 31.8892 50.1993 33.5085L59.6765 44.6125Z" fill="url(#paint8_linear_276_3078)"/>
</g>
</g>
<defs>
<filter id="filter0_dd_276_3078" x="-13.9839" y="-2.18713" width="207.968" height="67.9678" filterUnits="userSpaceOnUse" color-interpolation-filters="sRGB">
<feFlood flood-opacity="0" result="BackgroundImageFix"/>
<feColorMatrix in="SourceAlpha" type="matrix" values="0 0 0 0 0 0 0 0 0 0 0 0 0 0 0 0 0 0 127 0" result="hardAlpha"/>
<feOffset dx="3" dy="3"/>
<feGaussianBlur stdDeviation="5"/>
<feComposite in2="hardAlpha" operator="out"/>
<feColorMatrix type="matrix" values="0 0 0 0 0.0996528 0 0 0 0 0.27497 0 0 0 0 0.483681 0 0 0 0.1 0"/>
<feBlend mode="normal" in2="BackgroundImageFix" result="effect1_dropShadow_276_3078"/>
<feColorMatrix in="SourceAlpha" type="matrix" values="0 0 0 0 0 0 0 0 0 0 0 0 0 0 0 0 0 0 127 0" result="hardAlpha"/>
<feOffset dy="4.79678"/>
<feGaussianBlur stdDeviation="11.992"/>
<feComposite in2="hardAlpha" operator="out"/>
<feColorMatrix type="matrix" values="0 0 0 0 0.153472 0 0 0 0 0.241778 0 0 0 0 0.554861 0 0 0 0.1 0"/>
<feBlend mode="normal" in2="effect1_dropShadow_276_3078" result="effect2_dropShadow_276_3078"/>
<feBlend mode="normal" in="SourceGraphic" in2="effect2_dropShadow_276_3078" result="shape"/>
</filter>
<filter id="filter1_dd_276_3078" x="-13.9839" y="26.8129" width="207.968" height="68.9678" filterUnits="userSpaceOnUse" color-interpolation-filters="sRGB">
<feFlood flood-opacity="0" result="BackgroundImageFix"/>
<feColorMatrix in="SourceAlpha" type="matrix" values="0 0 0 0 0 0 0 0 0 0 0 0 0 0 0 0 0 0 127 0" result="hardAlpha"/>
<feOffset dx="3" dy="3"/>
<feGaussianBlur stdDeviation="5"/>
<feComposite in2="hardAlpha" operator="out"/>
<feColorMatrix type="matrix" values="0 0 0 0 0.0996528 0 0 0 0 0.27497 0 0 0 0 0.483681 0 0 0 0.1 0"/>
<feBlend mode="normal" in2="BackgroundImageFix" result="effect1_dropShadow_276_3078"/>
<feColorMatrix in="SourceAlpha" type="matrix" values="0 0 0 0 0 0 0 0 0 0 0 0 0 0 0 0 0 0 127 0" result="hardAlpha"/>
<feOffset dy="4.79678"/>
<feGaussianBlur stdDeviation="11.992"/>
<feComposite in2="hardAlpha" operator="out"/>
<feColorMatrix type="matrix" values="0 0 0 0 0.153472 0 0 0 0 0.241778 0 0 0 0 0.554861 0 0 0 0.1 0"/>
<feBlend mode="normal" in2="effect1_dropShadow_276_3078" result="effect2_dropShadow_276_3078"/>
<feBlend mode="normal" in="SourceGraphic" in2="effect2_dropShadow_276_3078" result="shape"/>
</filter>
<filter id="filter2_dd_276_3078" x="-13.9839" y="56.8129" width="207.968" height="68.9678" filterUnits="userSpaceOnUse" color-interpolation-filters="sRGB">
<feFlood flood-opacity="0" result="BackgroundImageFix"/>
<feColorMatrix in="SourceAlpha" type="matrix" values="0 0 0 0 0 0 0 0 0 0 0 0 0 0 0 0 0 0 127 0" result="hardAlpha"/>
<feOffset dx="3" dy="3"/>
<feGaussianBlur stdDeviation="5"/>
<feComposite in2="hardAlpha" operator="out"/>
<feColorMatrix type="matrix" values="0 0 0 0 0.0996528 0 0 0 0 0.27497 0 0 0 0 0.483681 0 0 0 0.1 0"/>
<feBlend mode="normal" in2="BackgroundImageFix" result="effect1_dropShadow_276_3078"/>
<feColorMatrix in="SourceAlpha" type="matrix" values="0 0 0 0 0 0 0 0 0 0 0 0 0 0 0 0 0 0 127 0" result="hardAlpha"/>
<feOffset dy="4.79678"/>
<feGaussianBlur stdDeviation="11.992"/>
<feComposite in2="hardAlpha" operator="out"/>
<feColorMatrix type="matrix" values="0 0 0 0 0.153472 0 0 0 0 0.241778 0 0 0 0 0.554861 0 0 0 0.1 0"/>
<feBlend mode="normal" in2="effect1_dropShadow_276_3078" result="effect2_dropShadow_276_3078"/>
<feBlend mode="normal" in="SourceGraphic" in2="effect2_dropShadow_276_3078" result="shape"/>
</filter>
<filter id="filter3_d_276_3078" x="41.2026" y="22.197" width="97.4274" height="89.397" filterUnits="userSpaceOnUse" color-interpolation-filters="sRGB">
<feFlood flood-opacity="0" result="BackgroundImageFix"/>
<feColorMatrix in="SourceAlpha" type="matrix" values="0 0 0 0 0 0 0 0 0 0 0 0 0 0 0 0 0 0 127 0" result="hardAlpha"/>
<feOffset dy="1.1992"/>
<feGaussianBlur stdDeviation="4.19718"/>
<feComposite in2="hardAlpha" operator="out"/>
<feColorMatrix type="matrix" values="0 0 0 0 0.0820312 0 0 0 0 0.496335 0 0 0 0 0.729167 0 0 0 0.25 0"/>
<feBlend mode="normal" in2="BackgroundImageFix" result="effect1_dropShadow_276_3078"/>
<feBlend mode="normal" in="SourceGraphic" in2="effect1_dropShadow_276_3078" result="shape"/>
</filter>
<linearGradient id="paint0_linear_276_3078" x1="90" y1="17" x2="90" y2="37" gradientUnits="userSpaceOnUse">
<stop stop-color="#F5FBFF"/>
<stop offset="1" stop-color="#F0F5FF"/>
</linearGradient>
<linearGradient id="paint1_linear_276_3078" x1="90" y1="46" x2="90" y2="67" gradientUnits="userSpaceOnUse">
<stop stop-color="#F5FBFF"/>
<stop offset="1" stop-color="#F0F5FF"/>
</linearGradient>
<linearGradient id="paint2_linear_276_3078" x1="90" y1="76" x2="90" y2="97" gradientUnits="userSpaceOnUse">
<stop stop-color="#F5FBFF"/>
<stop offset="1" stop-color="#F0F5FF"/>
</linearGradient>
<linearGradient id="paint3_linear_276_3078" x1="86.3489" y1="0.00012207" x2="86.3489" y2="34.6317" gradientUnits="userSpaceOnUse">
<stop stop-color="#25ADED" stop-opacity="0.65"/>
<stop offset="1" stop-color="#2496D4"/>
</linearGradient>
<linearGradient id="paint4_linear_276_3078" x1="89.9163" y1="29.3922" x2="89.9163" y2="102" gradientUnits="userSpaceOnUse">
<stop stop-color="#7CD2C7"/>
<stop offset="0.757728" stop-color="#10A975"/>
</linearGradient>
<linearGradient id="paint5_linear_276_3078" x1="89.9163" y1="29.3922" x2="89.9163" y2="102" gradientUnits="userSpaceOnUse">
<stop stop-color="#7CD2C7"/>
<stop offset="0.757728" stop-color="#10A975"/>
</linearGradient>
<linearGradient id="paint6_linear_276_3078" x1="89.9163" y1="29.3922" x2="89.9163" y2="102" gradientUnits="userSpaceOnUse">
<stop stop-color="#7CD2C7"/>
<stop offset="0.757728" stop-color="#10A975"/>
</linearGradient>
<linearGradient id="paint7_linear_276_3078" x1="89.9163" y1="29.3922" x2="89.9163" y2="102" gradientUnits="userSpaceOnUse">
<stop stop-color="#7CD2C7"/>
<stop offset="0.757728" stop-color="#10A975"/>
</linearGradient>
<linearGradient id="paint8_linear_276_3078" x1="89.9163" y1="29.3922" x2="89.9163" y2="102" gradientUnits="userSpaceOnUse">
<stop stop-color="#7CD2C7"/>
<stop offset="0.757728" stop-color="#10A975"/>
</linearGradient>
<clipPath id="clip0_276_3078">
<rect width="180" height="115" fill="white" transform="translate(180 115) rotate(-180)"/>
</clipPath>
</defs>
</svg>
