<svg width="373" height="67" viewBox="0 0 373 67" fill="none" xmlns="http://www.w3.org/2000/svg">
<path fill-rule="evenodd" clip-rule="evenodd" d="M0.405459 64.6037C0.743136 65.0697 1.21601 65.3026 1.82408 65.3026C3.98571 65.1695 6.01227 65.0697 7.90375 65.003H13.882C18.0028 65.003 22.2247 65.1029 26.548 65.3026C27.1561 65.3026 27.5951 65.0697 27.8653 64.6037C28.2031 64.1377 28.372 63.6384 28.372 63.1059C28.3044 61.9742 28.0342 61.3419 27.5613 61.2087C27.0884 61.0756 26.4805 61.009 25.7375 61.009C23.6434 61.009 22.1234 60.6429 21.1777 59.9107C20.2995 59.1119 19.7591 58.1466 19.5565 57.015C19.3537 55.8168 19.2187 54.5853 19.1511 53.3205V38.942C20.9074 39.6076 22.6638 40.0403 24.4201 40.24C26.1766 40.4397 27.7978 40.5395 29.2839 40.5395C32.3913 40.5395 35.4311 40.0736 38.4035 39.1417C41.4433 38.1432 44.1453 36.7452 46.5097 34.9479C48.2395 33.6694 49.713 32.2057 50.9302 30.5567C50.6132 30.2397 50.1606 29.6865 49.7571 29.0878C49.2789 28.3781 49.8341 27.559 50.6986 27.559H52.7756C53.9349 25.2631 54.5146 22.7335 54.5146 19.9703C54.5146 16.6419 53.839 13.8794 52.4881 11.6826C51.2045 9.48591 49.5158 7.72188 47.4217 6.39055C45.3276 5.05916 43.0983 4.09393 40.7339 3.49485C38.4372 2.89576 36.2418 2.49634 34.1476 2.29662C32.121 2.09691 30.4661 1.99708 29.1826 1.99708H13.9834C11.9569 1.99708 9.96408 1.96381 8.00506 1.89725C6.04603 1.83064 3.98571 1.76409 1.82408 1.69754C1.21601 1.69754 0.743136 1.93053 0.405459 2.39651C0.135193 2.86243 0.00012207 3.36168 0.00012207 3.89427C0.0676576 5.02589 0.337923 5.65831 0.810795 5.79141C1.3512 5.92457 1.95915 5.99112 2.63462 5.99112C4.79626 5.99112 6.31617 6.39055 7.19438 7.18935C8.07259 7.92159 8.613 8.88682 8.81561 10.085C9.08587 11.2167 9.22094 12.4149 9.22094 13.6797V53.3205C9.22094 54.5853 9.08587 55.8168 8.81561 57.015C8.613 58.1466 8.07259 59.1119 7.19438 59.9107C6.31617 60.6429 4.79626 61.009 2.63462 61.009C1.95915 61.009 1.3512 61.0756 0.810795 61.2087C0.337923 61.3419 0.0676576 61.9742 0.00012207 63.1059C0.00012207 63.6384 0.135193 64.1377 0.405459 64.6037ZM31.5131 35.3473C29.6216 35.8133 27.8991 36.0462 26.3454 36.0462C24.7917 36.0462 23.3731 35.9464 22.0897 35.7467C20.8061 35.4804 19.8266 35.2142 19.1511 34.9479V13.3801C19.1511 11.1168 19.32 9.45263 19.6578 8.38757C20.0631 7.2559 20.7386 6.52365 21.6843 6.19084C22.6301 5.85796 23.9135 5.69158 25.5347 5.69158C26.7507 5.69158 28.3382 5.82468 30.2972 6.09095C32.2562 6.35721 34.2153 6.95636 36.1742 7.88831C38.2007 8.82021 39.8896 10.2847 41.2406 12.2817C42.5916 14.2122 43.2671 16.8749 43.2671 20.2698C43.2671 23.3985 42.6929 25.9946 41.5446 28.0582C40.3962 30.0552 38.9101 31.6528 37.0861 32.8511C35.3298 33.9827 33.4721 34.8148 31.5131 35.3473Z" fill="#00A86B"/>
<path fill-rule="evenodd" clip-rule="evenodd" d="M60.9671 64.6037C61.2374 65.0697 61.7101 65.3026 62.3857 65.3026C64.5474 65.1695 66.5739 65.0697 68.4654 65.003H74.3424C78.4631 65.003 82.6851 65.1029 87.0084 65.3026C87.684 65.3026 88.1568 65.0697 88.427 64.6037C88.6972 64.1377 88.8323 63.6384 88.8323 63.1059C88.7648 61.9742 88.4945 61.3419 88.0216 61.2087C87.5489 61.0756 86.9746 61.009 86.2991 61.009C84.205 61.009 82.6851 60.6429 81.7393 59.9107C80.8611 59.1119 80.3207 58.1466 80.1181 57.015C79.9154 55.8168 79.7803 54.5853 79.7128 53.3205V37.0448H82.6513C85.1508 37.0448 86.8395 37.3776 87.7177 38.0433C88.6635 38.6424 89.5754 39.6409 90.4535 41.0388C92.0072 43.5018 93.5947 46.0313 95.216 48.6275C96.8372 51.2236 98.5935 53.7865 100.485 56.3161C102.309 58.7791 104.167 60.7095 106.058 62.1074C108.017 63.5053 110.381 64.4705 113.151 65.003H116.393C117.204 65.0697 118.015 65.1029 118.825 65.1029C119.704 65.1695 120.852 65.236 122.271 65.3026C122.946 65.3026 123.419 65.0697 123.689 64.6037C123.959 64.1377 124.094 63.6384 124.094 63.1059C124.027 61.9742 123.723 61.3752 123.183 61.3086C122.642 61.1754 122.102 61.0756 121.561 61.009C120.278 60.8759 119.163 60.5764 118.217 60.1104C117.339 59.6444 116.427 59.0453 115.482 58.3131C112.036 54.785 108.997 51.0239 106.362 47.0299C104.164 43.6428 101.99 40.2788 99.8397 36.9379L158.127 36.9731L157.995 37.1718C156.497 39.4241 155.07 41.5704 154.496 44.08C154.39 44.5454 154.949 44.7991 155.28 44.4505C158.653 40.89 162.239 37.644 166.643 35.5851C167.006 35.4152 167.052 34.9157 166.715 34.6993C166.223 34.3839 165.732 34.0742 165.242 33.7658L165.24 33.7645C163.525 32.6836 161.837 31.6196 160.283 30.3899C158.735 29.1649 157.322 27.7717 155.912 26.3814L155.911 26.3807C155.633 26.1069 155.356 25.8333 155.077 25.561C154.737 25.2283 154.202 25.5053 154.324 25.9621C154.996 28.4745 156.465 30.6921 157.982 32.9828L158.06 33.1004L103.841 33.104C106.57 31.8459 108.829 30.2305 110.618 28.2579C113.523 25.1293 114.975 21.8008 114.975 18.2728C114.975 15.6101 114.198 13.0472 112.644 10.5842C111.091 8.1213 108.591 6.09095 105.146 4.49336C101.769 2.89576 97.3439 2.06363 91.8721 1.99708H74.4438C72.4172 1.99708 70.4244 1.96381 68.4654 1.89725C67.5434 1.86477 66.5894 1.83235 65.6033 1.79993C64.5663 1.7658 63.4938 1.73167 62.3857 1.69754C61.7101 1.69754 61.2374 1.93053 60.9671 2.39651C60.6968 2.86243 60.5618 3.36168 60.5618 3.89427C60.6293 5.02589 60.8996 5.65831 61.3724 5.79141C61.8453 5.92457 62.4195 5.99112 63.095 5.99112C65.2566 5.99112 66.7765 6.39055 67.6547 7.18935C68.5329 7.92159 69.0733 8.88682 69.276 10.085C69.5462 11.2832 69.6813 12.5147 69.6813 13.7795V33.1064H69.3021C68.2804 32.3056 67.3851 31.3551 66.6479 30.2862L65.7535 28.9897C65.6331 28.8151 65.4337 28.7108 65.2206 28.7108H51.798C51.5421 28.7108 51.3878 28.9924 51.527 29.2057L51.7347 29.5242C53.2891 31.9072 55.5958 33.7108 58.2934 34.6525L58.7776 34.8215C59.0655 34.9219 59.0655 35.326 58.7776 35.4264L58.2934 35.5955C55.5958 36.5371 53.2891 38.3407 51.7347 40.7237L51.527 41.0422C51.3878 41.2556 51.5421 41.5372 51.798 41.5372H65.2206C65.4337 41.5372 65.6331 41.4328 65.7535 41.2583L66.6479 39.9617C67.4545 38.7923 68.4501 37.7646 69.5936 36.9197L69.6813 36.9198V53.3205C69.6813 54.5853 69.5462 55.8168 69.276 57.015C69.0733 58.1466 68.5329 59.1119 67.6547 59.9107C66.7765 60.6429 65.2566 61.009 63.095 61.009C62.4195 61.009 61.8453 61.0756 61.3724 61.2087C60.8996 61.3419 60.6293 61.9742 60.5618 63.1059C60.5618 63.6384 60.6968 64.1377 60.9671 64.6037ZM90.4246 33.105L79.7128 33.1057V13.9792C79.7128 10.6509 80.1519 8.45412 81.0301 7.38906C81.9757 6.25739 83.901 5.69158 86.8057 5.69158C91.1967 5.69158 94.6079 6.35721 97.0398 7.6886C99.5393 9.01993 101.262 10.7174 102.208 12.781C103.221 14.8445 103.727 16.9747 103.727 19.1715C103.727 20.5028 103.559 21.9673 103.221 23.5649C102.951 25.1625 102.309 26.6936 101.296 28.1581C100.282 29.6225 98.7625 30.8208 96.7359 31.7527C95.1309 32.5162 93.027 32.967 90.4246 33.105Z" fill="#00A86B"/>
<path d="M146.313 64.3041C150.299 66.1014 154.757 67.0001 159.688 67.0001C163.404 67.0001 167.153 66.2345 170.936 64.7035C174.786 63.1725 178.333 60.9425 181.575 58.0135C184.818 55.0846 187.418 51.4899 189.377 47.2296C191.336 42.9693 192.316 38.0766 192.316 32.5515C192.316 28.3578 191.573 24.3305 190.087 20.4695C188.601 16.542 186.439 13.0472 183.602 9.98516C180.764 6.92308 177.319 4.49336 173.266 2.69605C169.281 0.898744 164.755 6.10352e-05 159.688 6.10352e-05C155.973 6.10352e-05 152.19 0.765581 148.339 2.29662C144.557 3.76111 141.078 5.95785 137.903 8.88682C134.728 11.8157 132.161 15.4104 130.202 19.6707C128.636 23.198 127.718 27.1588 127.449 31.553H139.273C139.462 27.1858 140.154 23.1252 141.348 19.3712C142.766 14.8445 144.962 11.2167 147.934 8.4874C150.974 5.69158 154.858 4.29364 159.587 4.29364C164.248 4.29364 168.098 5.62503 171.138 8.28768C174.178 10.8838 176.441 14.3453 177.927 18.6722C179.481 22.9325 180.258 27.5589 180.258 32.5515C180.258 37.8769 179.515 42.8362 178.029 47.4293C176.61 51.9559 174.381 55.6171 171.341 58.4129C168.301 61.2087 164.383 62.6067 159.587 62.6067C154.993 62.6067 151.177 61.2753 148.137 58.6126C145.097 55.9499 142.834 52.4551 141.348 48.1283C140.363 45.0774 139.72 41.8822 139.419 38.5425H127.611C127.941 41.3127 128.602 44.0087 129.594 46.6305C131.08 50.4914 133.242 53.9529 136.079 57.015C138.916 60.0771 142.327 62.5068 146.313 64.3041Z" fill="#00A86B"/>
<path fill-rule="evenodd" clip-rule="evenodd" d="M200.588 64.6037C200.925 65.0697 201.398 65.3026 202.006 65.3026C204.168 65.1695 206.194 65.0697 208.086 65.003H214.064C218.185 65.003 222.407 65.1029 226.73 65.3026C227.338 65.3026 227.777 65.0697 228.047 64.6037C228.385 64.1377 228.554 63.6384 228.554 63.1059C228.487 61.9742 228.216 61.3419 227.743 61.2087C227.271 61.0756 226.663 61.009 225.92 61.009C223.825 61.009 222.306 60.6429 221.36 59.9107C220.482 59.1119 219.941 58.1466 219.739 57.015C219.536 55.8168 219.401 54.5853 219.333 53.3205V38.942C221.09 39.6076 222.846 40.0403 224.602 40.24C226.359 40.4397 227.98 40.5395 229.466 40.5395C232.573 40.5395 235.613 40.0736 238.586 39.1417C241.625 38.1432 244.327 36.7452 246.692 34.9479C249.124 33.1506 251.049 30.9871 252.467 28.4576C253.954 25.928 254.697 23.099 254.697 19.9703C254.697 16.6419 254.021 13.8794 252.67 11.6826C251.387 9.48591 249.698 7.72188 247.604 6.39055C245.51 5.05916 243.28 4.09393 240.916 3.49485C238.619 2.89576 236.424 2.49634 234.33 2.29662C232.303 2.09691 230.648 1.99708 229.365 1.99708H214.166C212.139 1.99708 210.146 1.96381 208.187 1.89725C206.228 1.83064 204.168 1.76409 202.006 1.69754C201.398 1.69754 200.925 1.93053 200.588 2.39651C200.317 2.86243 200.182 3.36168 200.182 3.89427C200.25 5.02589 200.52 5.65831 200.993 5.79141C201.533 5.92457 202.141 5.99112 202.817 5.99112C204.979 5.99112 206.498 6.39055 207.377 7.18935C208.255 7.92159 208.795 8.88682 208.998 10.085C209.268 11.2167 209.403 12.4149 209.403 13.6797V53.3205C209.403 54.5853 209.268 55.8168 208.998 57.015C208.795 58.1466 208.255 59.1119 207.377 59.9107C206.498 60.6429 204.979 61.009 202.817 61.009C202.141 61.009 201.533 61.0756 200.993 61.2087C200.52 61.3419 200.25 61.9742 200.182 63.1059C200.182 63.6384 200.317 64.1377 200.588 64.6037ZM231.695 35.3473C229.804 35.8133 228.081 36.0462 226.528 36.0462C224.974 36.0462 223.555 35.9464 222.272 35.7467C220.988 35.4804 220.009 35.2142 219.333 34.9479V13.3801C219.333 11.1168 219.502 9.45263 219.84 8.38757C220.245 7.2559 220.921 6.52365 221.866 6.19084C222.812 5.85796 224.096 5.69158 225.717 5.69158C226.933 5.69158 228.52 5.82468 230.479 6.09095C232.438 6.35721 234.397 6.95636 236.356 7.88831C238.383 8.82021 240.072 10.2847 241.423 12.2817C242.774 14.2122 243.449 16.8749 243.449 20.2698C243.449 23.3985 242.875 25.9946 241.727 28.0582C240.578 30.0552 239.092 31.6528 237.268 32.8511C235.512 33.9827 233.654 34.8148 231.695 35.3473Z" fill="#00A86B"/>
<path d="M261.149 64.6037C261.419 65.0697 261.858 65.3026 262.467 65.3026C264.696 65.1695 266.756 65.0697 268.648 65.003H308.064C308.942 65.003 309.584 64.9032 309.989 64.7035C310.462 64.4372 310.8 63.8382 311.003 62.9062L313.029 50.325C313.097 49.6593 312.827 49.1268 312.219 48.7273C311.678 48.328 311.138 48.095 310.597 48.0284C309.854 47.8953 309.145 47.9285 308.469 48.1283C307.861 48.328 307.422 48.7606 307.152 49.4263C306.274 52.3553 305.463 54.6518 304.72 56.3161C303.977 57.9802 302.964 59.1784 301.68 59.9107C300.465 60.5764 298.674 60.9425 296.31 61.009H286.988C284.691 61.0756 283.036 60.7427 282.023 60.0105C281.077 59.2783 280.503 58.4129 280.3 57.4144C280.098 56.3493 279.962 55.3841 279.895 54.5187V35.6469H298.235C298.776 35.6469 299.147 35.4472 299.35 35.0477C299.62 34.5818 299.755 34.1158 299.755 33.6499C299.755 33.1173 299.62 32.6181 299.35 32.1521C299.147 31.6861 298.776 31.4199 298.235 31.3533H279.895V5.99112H293.473C295.837 6.05767 297.627 6.52365 298.843 7.38906C300.127 8.18786 301.072 9.51918 301.68 11.3831C302.356 13.1804 302.93 15.5768 303.403 18.5723C303.538 19.1715 303.91 19.6374 304.518 19.9703C305.126 20.2365 305.801 20.3697 306.544 20.3697C307.085 20.3697 307.659 20.2033 308.267 19.8704C308.942 19.5376 309.28 19.0383 309.28 18.3727L308.976 4.39353C308.976 3.46157 308.706 2.82915 308.165 2.49634C307.693 2.16352 307.085 1.99708 306.341 1.99708H274.524C272.498 1.99708 270.539 1.96381 268.648 1.89725C266.756 1.83064 264.696 1.76409 262.467 1.69754C261.858 1.69754 261.419 1.93053 261.149 2.39651C260.879 2.86243 260.744 3.36168 260.744 3.89427C260.811 5.02589 261.082 5.65831 261.555 5.79141C262.027 5.92457 262.602 5.99112 263.277 5.99112C265.439 5.99112 266.959 6.39055 267.837 7.18935C268.715 7.92159 269.255 8.88682 269.458 10.085C269.728 11.2167 269.863 12.4149 269.863 13.6797V53.3205C269.863 54.5853 269.728 55.8168 269.458 57.015C269.255 58.1466 268.715 59.1119 267.837 59.9107C266.959 60.6429 265.439 61.009 263.277 61.009C262.602 61.009 262.027 61.0756 261.555 61.2087C261.082 61.3419 260.811 61.9742 260.744 63.1059C260.744 63.6384 260.879 64.1377 261.149 64.6037Z" fill="#00A86B"/>
<path d="M321.313 64.6037C321.583 65.0697 322.022 65.3026 322.63 65.3026C324.859 65.1695 326.92 65.0697 328.811 65.003H368.025C368.903 65.003 369.545 64.9032 369.95 64.7035C370.423 64.4372 370.761 63.8382 370.963 62.9062L372.99 50.325C373.058 49.6593 372.787 49.1268 372.179 48.7273C371.639 48.328 371.099 48.095 370.558 48.0284C369.815 47.8953 369.106 47.9285 368.43 48.1283C367.822 48.328 367.383 48.7606 367.113 49.4263C366.235 52.3553 365.424 54.6518 364.681 56.3161C363.938 57.9802 362.925 59.1784 361.641 59.9107C360.425 60.5764 358.635 60.9425 356.271 61.009H347.151C344.855 61.0756 343.2 60.7761 342.186 60.1104C341.241 59.4447 340.666 58.6126 340.464 57.6141C340.261 56.6156 340.126 55.6836 340.058 54.8183V13.6797C340.126 12.4149 340.261 11.2167 340.464 10.085C340.666 8.88682 341.207 7.92159 342.085 7.18935C343.031 6.39055 344.551 5.99112 346.645 5.99112C347.32 5.99112 347.895 5.92457 348.367 5.79141C348.84 5.65831 349.11 5.02589 349.178 3.89427C349.178 3.36168 349.043 2.86243 348.773 2.39651C348.502 1.93053 348.03 1.69754 347.354 1.69754C343.031 1.89725 338.809 1.99708 334.688 1.99708C332.661 1.99708 330.702 1.96381 328.811 1.89725C326.92 1.83064 324.859 1.76409 322.63 1.69754C322.022 1.69754 321.583 1.93053 321.313 2.39651C321.043 2.86243 320.907 3.36168 320.907 3.89427C320.975 5.02589 321.245 5.65831 321.718 5.79141C322.191 5.92457 322.765 5.99112 323.441 5.99112C325.602 5.99112 327.122 6.39055 328 7.18935C328.879 7.92159 329.419 8.88682 329.622 10.085C329.892 11.2167 330.027 12.4149 330.027 13.6797V53.3205C330.027 54.5853 329.892 55.8168 329.622 57.015C329.419 58.1466 328.879 59.1119 328 59.9107C327.122 60.6429 325.602 61.009 323.441 61.009C322.765 61.009 322.191 61.0756 321.718 61.2087C321.245 61.3419 320.975 61.9742 320.907 63.1059C320.907 63.6384 321.043 64.1377 321.313 64.6037Z" fill="#00A86B"/>
</svg>
