<svg width="183" height="122" viewBox="0 0 183 122" fill="none" xmlns="http://www.w3.org/2000/svg">
<g filter="url(#filter0_dd_276_3019)">
<rect x="20" y="20.8899" width="127.783" height="76.5387" rx="9.86268" fill="url(#paint0_linear_276_3019)" fill-opacity="0.7" shape-rendering="crispEdges"/>
</g>
<g filter="url(#filter1_d_276_3019)">
<path d="M38.889 41.1197C38.889 38.1591 41.2891 35.759 44.2498 35.759H163.165C166.125 35.759 168.525 38.1591 168.525 41.1197V41.1197C168.525 44.0804 166.125 46.4804 163.165 46.4804H44.2498C41.2891 46.4804 38.889 44.0804 38.889 41.1197V41.1197Z" fill="white"/>
</g>
<path opacity="0.5" d="M100.782 41.2263C100.782 40.4094 101.44 39.7473 102.251 39.7473H112.533C113.344 39.7473 114.001 40.4094 114.001 41.2263V41.2263C114.001 42.0431 113.344 42.7053 112.533 42.7053H102.251C101.44 42.7053 100.782 42.0431 100.782 41.2263V41.2263Z" fill="#4278AA" fill-opacity="0.15"/>
<path opacity="0.5" d="M45.7035 41.2263C45.7035 40.4094 46.3611 39.7473 47.1723 39.7473H68.1023C68.9134 39.7473 69.571 40.4094 69.571 41.2263C69.571 42.0431 68.9134 42.7053 68.1023 42.7053H47.1723C46.3611 42.7053 45.7035 42.0431 45.7035 41.2263Z" fill="#4278AA" fill-opacity="0.15"/>
<g filter="url(#filter2_d_276_3019)">
<path d="M38.889 56.1297C38.889 53.169 41.2891 50.769 44.2498 50.769H163.165C166.125 50.769 168.525 53.169 168.525 56.1297V56.1297C168.525 59.0903 166.125 61.4904 163.165 61.4904H44.2498C41.2891 61.4904 38.889 59.0903 38.889 56.1297V56.1297Z" fill="white"/>
</g>
<g filter="url(#filter3_d_276_3019)">
<path d="M38.889 71.1397C38.889 68.1791 41.2891 65.779 44.2498 65.779H163.165C166.125 65.779 168.525 68.1791 168.525 71.1397V71.1397C168.525 74.1003 166.125 76.5004 163.165 76.5004H44.2498C41.2891 76.5004 38.889 74.1003 38.889 71.1397V71.1397Z" fill="white"/>
</g>
<g filter="url(#filter4_d_276_3019)">
<path d="M38.889 86.1498C38.889 83.1891 41.2891 80.7891 44.2498 80.7891H163.165C166.125 80.7891 168.525 83.1891 168.525 86.1498V86.1498C168.525 89.1104 166.125 91.5105 163.165 91.5105H44.2498C41.2891 91.5105 38.889 89.1104 38.889 86.1498V86.1498Z" fill="white"/>
</g>
<g filter="url(#filter5_d_276_3019)">
<path d="M38.889 101.16C38.889 98.1991 41.2891 95.799 44.2498 95.799H163.165C166.125 95.799 168.525 98.1991 168.525 101.16V101.16C168.525 104.12 166.125 106.52 163.165 106.52H44.2498C41.2891 106.52 38.889 104.12 38.889 101.16V101.16Z" fill="white"/>
</g>
<g filter="url(#filter6_d_276_3019)">
<path d="M154.986 86.456C142.275 99.2425 121.667 99.2425 108.957 86.456C96.2464 73.6695 96.2464 52.9385 108.957 40.1521C121.667 27.3656 142.275 27.3656 154.986 40.1521C167.696 52.9385 167.696 73.6695 154.986 86.456Z" fill="#F5F8FF"/>
</g>
<path opacity="0.5" d="M100.782 56.0163C100.782 55.1994 101.44 54.5373 102.251 54.5373H109.228C110.039 54.5373 110.697 55.1994 110.697 56.0163C110.697 56.8331 110.039 57.4953 109.228 57.4953H102.251C101.44 57.4953 100.782 56.8331 100.782 56.0163Z" fill="#4278AA" fill-opacity="0.15"/>
<path opacity="0.5" d="M100.782 101.126C100.782 100.309 101.44 99.6471 102.251 99.6471H112.533C113.344 99.6471 114.001 100.309 114.001 101.126C114.001 101.943 113.344 102.605 112.533 102.605H102.251C101.44 102.605 100.782 101.943 100.782 101.126Z" fill="#4278AA" fill-opacity="0.15"/>
<g filter="url(#filter7_d_276_3019)">
<path fill-rule="evenodd" clip-rule="evenodd" d="M155.837 40.1668C143.074 27.2823 122.382 27.2823 109.62 40.1668C97.4085 52.4949 96.8812 72.1519 108.038 85.1129L87.5826 105.601C86.5835 106.602 86.5772 108.231 87.5683 109.239C88.5595 110.248 90.1729 110.255 91.172 109.254L111.667 88.7258C124.507 99.6751 143.736 99.0416 155.837 86.8253C168.599 73.9409 168.599 53.0512 155.837 40.1668ZM113.224 43.8049C123.996 32.9298 141.461 32.9298 152.233 43.8049C163.005 54.68 163.005 72.3121 152.233 83.1872C141.461 94.0623 123.996 94.0623 113.224 83.1872C102.451 72.3121 102.451 54.68 113.224 43.8049Z" fill="url(#paint1_linear_276_3019)"/>
</g>
<g clip-path="url(#clip0_276_3019)">
<g filter="url(#filter8_d_276_3019)">
<path d="M214.034 74.7952C214.034 80.2422 209.618 84.6578 204.171 84.6578L99.9002 84.6578L99.9002 42.6767L204.171 42.6767C209.618 42.6767 214.034 47.0924 214.034 52.5394L214.034 74.7952Z" fill="white"/>
</g>
</g>
<g filter="url(#filter9_bd_276_3019)">
<path fill-rule="evenodd" clip-rule="evenodd" d="M140.807 37.7561C140.807 33.1379 137.025 29.3942 132.361 29.3942C127.697 29.3942 123.916 33.1379 123.916 37.7561C123.916 43.8681 130.218 50.4601 131.934 52.1419C132.175 52.3778 132.547 52.3778 132.788 52.1419C134.504 50.4601 140.807 43.8681 140.807 37.7561ZM132.361 42.5802C135.052 42.5802 137.233 40.4204 137.233 37.7561C137.233 35.0918 135.052 32.9319 132.361 32.9319C129.67 32.9319 127.489 35.0918 127.489 37.7561C127.489 40.4204 129.67 42.5802 132.361 42.5802Z" fill="url(#paint2_linear_276_3019)" fill-opacity="0.8" shape-rendering="crispEdges"/>
</g>
<g filter="url(#filter10_bd_276_3019)">
<path d="M142.248 54.907C141.811 54.907 141.457 55.2579 141.457 55.6907V67.1415L134.822 77.2592C134.138 78.302 134.894 79.6804 136.149 79.6804H152.44C153.696 79.6804 154.451 78.302 153.767 77.2592L147.133 67.1415V55.6907C147.133 55.2579 146.779 54.907 146.342 54.907H142.248Z" fill="#DBE2EE" fill-opacity="0.73" shape-rendering="crispEdges"/>
</g>
<path d="M141.639 69.2456L136.833 77.2402C136.481 77.8257 136.903 78.5712 137.586 78.5712H151.015C151.696 78.5712 152.118 77.8306 151.771 77.245L147.172 69.4827C145.328 69.4827 145.18 68.2182 143.705 68.2182C142.229 68.2182 141.639 69.2456 141.639 69.2456Z" fill="url(#paint3_linear_276_3019)" fill-opacity="0.5"/>
<g filter="url(#filter11_bd_276_3019)">
<path d="M124.641 69.5981C124.532 66.3146 123.414 60.0453 119.564 57.4954C119.157 57.6357 118.058 57.9165 116.919 57.9165C115.78 57.9165 114.952 57.6357 114.681 57.4954C110.823 60.0512 109.708 66.3437 109.604 69.6208C109.593 69.9489 109.717 70.2636 109.962 70.4809C110.452 70.9136 111.403 71.6375 112.647 72.0235C114.681 72.6552 116.512 72.6552 117.123 72.6552C117.733 72.6552 119.157 72.6552 121.598 72.0235C122.812 71.6049 123.757 70.9088 124.257 70.4869C124.518 70.2665 124.652 69.9395 124.641 69.5981Z" fill="url(#paint4_linear_276_3019)" fill-opacity="0.7" shape-rendering="crispEdges"/>
</g>
<g filter="url(#filter12_bd_276_3019)">
<ellipse cx="117.122" cy="54.1676" rx="4.22272" ry="4.43703" fill="url(#paint5_linear_276_3019)" fill-opacity="0.7" shape-rendering="crispEdges"/>
</g>
<g filter="url(#filter13_b_276_3019)">
<ellipse cx="132.361" cy="37.7136" rx="4.77351" ry="4.6219" fill="white" fill-opacity="0.8"/>
</g>
<path opacity="0.5" d="M45.7035 56.0163C45.7035 55.1994 46.3611 54.5373 47.1723 54.5373H68.1023C68.9134 54.5373 69.571 55.1994 69.571 56.0163C69.571 56.8331 68.9134 57.4953 68.1023 57.4953H47.1723C46.3611 57.4953 45.7035 56.8331 45.7035 56.0163Z" fill="#4278AA" fill-opacity="0.15"/>
<path opacity="0.5" d="M45.7035 71.1762C45.7035 70.3593 46.3611 69.6971 47.1723 69.6971H71.407C72.2182 69.6971 72.8758 70.3593 72.8758 71.1762C72.8758 71.993 72.2182 72.6552 71.407 72.6552H47.1723C46.3611 72.6552 45.7035 71.993 45.7035 71.1762Z" fill="#4278AA" fill-opacity="0.15"/>
<path opacity="0.5" d="M45.7035 86.3359C45.7035 85.5191 46.3611 84.8569 47.1723 84.8569H68.1023C68.9134 84.8569 69.571 85.5191 69.571 86.3359C69.571 87.1527 68.9134 87.8149 68.1023 87.8149H47.1723C46.3611 87.8149 45.7035 87.1527 45.7035 86.3359Z" fill="#4278AA" fill-opacity="0.15"/>
<path opacity="0.5" d="M45.7035 101.126C45.7035 100.309 46.3611 99.6471 47.1723 99.6471H65.5319C66.3431 99.6471 67.0007 100.309 67.0007 101.126C67.0007 101.943 66.3431 102.605 65.5319 102.605H47.1723C46.3611 102.605 45.7035 101.943 45.7035 101.126Z" fill="#4278AA" fill-opacity="0.15"/>
<defs>
<filter id="filter0_dd_276_3019" x="0" y="0.889893" width="167.783" height="116.539" filterUnits="userSpaceOnUse" color-interpolation-filters="sRGB">
<feFlood flood-opacity="0" result="BackgroundImageFix"/>
<feColorMatrix in="SourceAlpha" type="matrix" values="0 0 0 0 0 0 0 0 0 0 0 0 0 0 0 0 0 0 127 0" result="hardAlpha"/>
<feOffset/>
<feGaussianBlur stdDeviation="10"/>
<feComposite in2="hardAlpha" operator="out"/>
<feColorMatrix type="matrix" values="0 0 0 0 0.0996528 0 0 0 0 0.27497 0 0 0 0 0.483681 0 0 0 0.1 0"/>
<feBlend mode="normal" in2="BackgroundImageFix" result="effect1_dropShadow_276_3019"/>
<feColorMatrix in="SourceAlpha" type="matrix" values="0 0 0 0 0 0 0 0 0 0 0 0 0 0 0 0 0 0 127 0" result="hardAlpha"/>
<feOffset dy="3.94507"/>
<feGaussianBlur stdDeviation="5"/>
<feComposite in2="hardAlpha" operator="out"/>
<feColorMatrix type="matrix" values="0 0 0 0 0.153472 0 0 0 0 0.241778 0 0 0 0 0.554861 0 0 0 0.1 0"/>
<feBlend mode="normal" in2="effect1_dropShadow_276_3019" result="effect2_dropShadow_276_3019"/>
<feBlend mode="normal" in="SourceGraphic" in2="effect2_dropShadow_276_3019" result="shape"/>
</filter>
<filter id="filter1_d_276_3019" x="31.9852" y="29.8414" width="143.444" height="24.5292" filterUnits="userSpaceOnUse" color-interpolation-filters="sRGB">
<feFlood flood-opacity="0" result="BackgroundImageFix"/>
<feColorMatrix in="SourceAlpha" type="matrix" values="0 0 0 0 0 0 0 0 0 0 0 0 0 0 0 0 0 0 127 0" result="hardAlpha"/>
<feOffset dy="0.986268"/>
<feGaussianBlur stdDeviation="3.45194"/>
<feComposite in2="hardAlpha" operator="out"/>
<feColorMatrix type="matrix" values="0 0 0 0 0.0529514 0 0 0 0 0.310592 0 0 0 0 0.455382 0 0 0 0.1 0"/>
<feBlend mode="normal" in2="BackgroundImageFix" result="effect1_dropShadow_276_3019"/>
<feBlend mode="normal" in="SourceGraphic" in2="effect1_dropShadow_276_3019" result="shape"/>
</filter>
<filter id="filter2_d_276_3019" x="31.9852" y="44.8513" width="143.444" height="24.5292" filterUnits="userSpaceOnUse" color-interpolation-filters="sRGB">
<feFlood flood-opacity="0" result="BackgroundImageFix"/>
<feColorMatrix in="SourceAlpha" type="matrix" values="0 0 0 0 0 0 0 0 0 0 0 0 0 0 0 0 0 0 127 0" result="hardAlpha"/>
<feOffset dy="0.986268"/>
<feGaussianBlur stdDeviation="3.45194"/>
<feComposite in2="hardAlpha" operator="out"/>
<feColorMatrix type="matrix" values="0 0 0 0 0.0529514 0 0 0 0 0.310592 0 0 0 0 0.455382 0 0 0 0.1 0"/>
<feBlend mode="normal" in2="BackgroundImageFix" result="effect1_dropShadow_276_3019"/>
<feBlend mode="normal" in="SourceGraphic" in2="effect1_dropShadow_276_3019" result="shape"/>
</filter>
<filter id="filter3_d_276_3019" x="31.9852" y="59.8614" width="143.444" height="24.5292" filterUnits="userSpaceOnUse" color-interpolation-filters="sRGB">
<feFlood flood-opacity="0" result="BackgroundImageFix"/>
<feColorMatrix in="SourceAlpha" type="matrix" values="0 0 0 0 0 0 0 0 0 0 0 0 0 0 0 0 0 0 127 0" result="hardAlpha"/>
<feOffset dy="0.986268"/>
<feGaussianBlur stdDeviation="3.45194"/>
<feComposite in2="hardAlpha" operator="out"/>
<feColorMatrix type="matrix" values="0 0 0 0 0.0529514 0 0 0 0 0.310592 0 0 0 0 0.455382 0 0 0 0.1 0"/>
<feBlend mode="normal" in2="BackgroundImageFix" result="effect1_dropShadow_276_3019"/>
<feBlend mode="normal" in="SourceGraphic" in2="effect1_dropShadow_276_3019" result="shape"/>
</filter>
<filter id="filter4_d_276_3019" x="31.9852" y="74.8715" width="143.444" height="24.5292" filterUnits="userSpaceOnUse" color-interpolation-filters="sRGB">
<feFlood flood-opacity="0" result="BackgroundImageFix"/>
<feColorMatrix in="SourceAlpha" type="matrix" values="0 0 0 0 0 0 0 0 0 0 0 0 0 0 0 0 0 0 127 0" result="hardAlpha"/>
<feOffset dy="0.986268"/>
<feGaussianBlur stdDeviation="3.45194"/>
<feComposite in2="hardAlpha" operator="out"/>
<feColorMatrix type="matrix" values="0 0 0 0 0.0529514 0 0 0 0 0.310592 0 0 0 0 0.455382 0 0 0 0.1 0"/>
<feBlend mode="normal" in2="BackgroundImageFix" result="effect1_dropShadow_276_3019"/>
<feBlend mode="normal" in="SourceGraphic" in2="effect1_dropShadow_276_3019" result="shape"/>
</filter>
<filter id="filter5_d_276_3019" x="31.9852" y="89.8814" width="143.444" height="24.5292" filterUnits="userSpaceOnUse" color-interpolation-filters="sRGB">
<feFlood flood-opacity="0" result="BackgroundImageFix"/>
<feColorMatrix in="SourceAlpha" type="matrix" values="0 0 0 0 0 0 0 0 0 0 0 0 0 0 0 0 0 0 127 0" result="hardAlpha"/>
<feOffset dy="0.986268"/>
<feGaussianBlur stdDeviation="3.45194"/>
<feComposite in2="hardAlpha" operator="out"/>
<feColorMatrix type="matrix" values="0 0 0 0 0.0529514 0 0 0 0 0.310592 0 0 0 0 0.455382 0 0 0 0.1 0"/>
<feBlend mode="normal" in2="BackgroundImageFix" result="effect1_dropShadow_276_3019"/>
<feBlend mode="normal" in="SourceGraphic" in2="effect1_dropShadow_276_3019" result="shape"/>
</filter>
<filter id="filter6_d_276_3019" x="92.5201" y="24.6446" width="78.9022" height="79.2914" filterUnits="userSpaceOnUse" color-interpolation-filters="sRGB">
<feFlood flood-opacity="0" result="BackgroundImageFix"/>
<feColorMatrix in="SourceAlpha" type="matrix" values="0 0 0 0 0 0 0 0 0 0 0 0 0 0 0 0 0 0 127 0" result="hardAlpha"/>
<feOffset dy="0.986268"/>
<feGaussianBlur stdDeviation="3.45194"/>
<feComposite in2="hardAlpha" operator="out"/>
<feColorMatrix type="matrix" values="0 0 0 0 0.0627451 0 0 0 0 0.537255 0 0 0 0 0.803922 0 0 0 0.1 0"/>
<feBlend mode="normal" in2="BackgroundImageFix" result="effect1_dropShadow_276_3019"/>
<feBlend mode="normal" in="SourceGraphic" in2="effect1_dropShadow_276_3019" result="shape"/>
</filter>
<filter id="filter7_d_276_3019" x="79.9252" y="24.5858" width="92.3871" height="93.3045" filterUnits="userSpaceOnUse" color-interpolation-filters="sRGB">
<feFlood flood-opacity="0" result="BackgroundImageFix"/>
<feColorMatrix in="SourceAlpha" type="matrix" values="0 0 0 0 0 0 0 0 0 0 0 0 0 0 0 0 0 0 127 0" result="hardAlpha"/>
<feOffset dy="0.986268"/>
<feGaussianBlur stdDeviation="3.45194"/>
<feComposite in2="hardAlpha" operator="out"/>
<feColorMatrix type="matrix" values="0 0 0 0 0.0627451 0 0 0 0 0.537255 0 0 0 0 0.803922 0 0 0 0.1 0"/>
<feBlend mode="normal" in2="BackgroundImageFix" result="effect1_dropShadow_276_3019"/>
<feBlend mode="normal" in="SourceGraphic" in2="effect1_dropShadow_276_3019" result="shape"/>
</filter>
<filter id="filter8_d_276_3019" x="92.9963" y="36.7591" width="127.942" height="55.7889" filterUnits="userSpaceOnUse" color-interpolation-filters="sRGB">
<feFlood flood-opacity="0" result="BackgroundImageFix"/>
<feColorMatrix in="SourceAlpha" type="matrix" values="0 0 0 0 0 0 0 0 0 0 0 0 0 0 0 0 0 0 127 0" result="hardAlpha"/>
<feOffset dy="0.986268"/>
<feGaussianBlur stdDeviation="3.45194"/>
<feComposite in2="hardAlpha" operator="out"/>
<feColorMatrix type="matrix" values="0 0 0 0 0.0627451 0 0 0 0 0.537255 0 0 0 0 0.803922 0 0 0 0.1 0"/>
<feBlend mode="normal" in2="BackgroundImageFix" result="effect1_dropShadow_276_3019"/>
<feBlend mode="normal" in="SourceGraphic" in2="effect1_dropShadow_276_3019" result="shape"/>
</filter>
<filter id="filter9_bd_276_3019" x="117.012" y="23.4766" width="30.6986" height="36.7324" filterUnits="userSpaceOnUse" color-interpolation-filters="sRGB">
<feFlood flood-opacity="0" result="BackgroundImageFix"/>
<feGaussianBlur in="BackgroundImageFix" stdDeviation="0.878419"/>
<feComposite in2="SourceAlpha" operator="in" result="effect1_backgroundBlur_276_3019"/>
<feColorMatrix in="SourceAlpha" type="matrix" values="0 0 0 0 0 0 0 0 0 0 0 0 0 0 0 0 0 0 127 0" result="hardAlpha"/>
<feOffset dy="0.986268"/>
<feGaussianBlur stdDeviation="3.45194"/>
<feComposite in2="hardAlpha" operator="out"/>
<feColorMatrix type="matrix" values="0 0 0 0 0.0627451 0 0 0 0 0.537255 0 0 0 0 0.803922 0 0 0 0.1 0"/>
<feBlend mode="normal" in2="effect1_backgroundBlur_276_3019" result="effect2_dropShadow_276_3019"/>
<feBlend mode="normal" in="SourceGraphic" in2="effect2_dropShadow_276_3019" result="shape"/>
</filter>
<filter id="filter10_bd_276_3019" x="127.66" y="48.9894" width="33.2689" height="38.5812" filterUnits="userSpaceOnUse" color-interpolation-filters="sRGB">
<feFlood flood-opacity="0" result="BackgroundImageFix"/>
<feGaussianBlur in="BackgroundImageFix" stdDeviation="2.19605"/>
<feComposite in2="SourceAlpha" operator="in" result="effect1_backgroundBlur_276_3019"/>
<feColorMatrix in="SourceAlpha" type="matrix" values="0 0 0 0 0 0 0 0 0 0 0 0 0 0 0 0 0 0 127 0" result="hardAlpha"/>
<feOffset dy="0.986268"/>
<feGaussianBlur stdDeviation="3.45194"/>
<feComposite in2="hardAlpha" operator="out"/>
<feColorMatrix type="matrix" values="0 0 0 0 0.0627451 0 0 0 0 0.537255 0 0 0 0 0.803922 0 0 0 0.1 0"/>
<feBlend mode="normal" in2="effect1_backgroundBlur_276_3019" result="effect2_dropShadow_276_3019"/>
<feBlend mode="normal" in="SourceGraphic" in2="effect2_dropShadow_276_3019" result="shape"/>
</filter>
<filter id="filter11_bd_276_3019" x="102.699" y="51.5778" width="28.8463" height="28.9676" filterUnits="userSpaceOnUse" color-interpolation-filters="sRGB">
<feFlood flood-opacity="0" result="BackgroundImageFix"/>
<feGaussianBlur in="BackgroundImageFix" stdDeviation="2.19605"/>
<feComposite in2="SourceAlpha" operator="in" result="effect1_backgroundBlur_276_3019"/>
<feColorMatrix in="SourceAlpha" type="matrix" values="0 0 0 0 0 0 0 0 0 0 0 0 0 0 0 0 0 0 127 0" result="hardAlpha"/>
<feOffset dy="0.986268"/>
<feGaussianBlur stdDeviation="3.45194"/>
<feComposite in2="hardAlpha" operator="out"/>
<feColorMatrix type="matrix" values="0 0 0 0 0.0627451 0 0 0 0 0.537255 0 0 0 0 0.803922 0 0 0 0.1 0"/>
<feBlend mode="normal" in2="effect1_backgroundBlur_276_3019" result="effect2_dropShadow_276_3019"/>
<feBlend mode="normal" in="SourceGraphic" in2="effect2_dropShadow_276_3019" result="shape"/>
</filter>
<filter id="filter12_bd_276_3019" x="105.996" y="43.8129" width="22.2532" height="22.6818" filterUnits="userSpaceOnUse" color-interpolation-filters="sRGB">
<feFlood flood-opacity="0" result="BackgroundImageFix"/>
<feGaussianBlur in="BackgroundImageFix" stdDeviation="2.19605"/>
<feComposite in2="SourceAlpha" operator="in" result="effect1_backgroundBlur_276_3019"/>
<feColorMatrix in="SourceAlpha" type="matrix" values="0 0 0 0 0 0 0 0 0 0 0 0 0 0 0 0 0 0 127 0" result="hardAlpha"/>
<feOffset dy="0.986268"/>
<feGaussianBlur stdDeviation="3.45194"/>
<feComposite in2="hardAlpha" operator="out"/>
<feColorMatrix type="matrix" values="0 0 0 0 0.0627451 0 0 0 0 0.537255 0 0 0 0 0.803922 0 0 0 0.1 0"/>
<feBlend mode="normal" in2="effect1_backgroundBlur_276_3019" result="effect2_dropShadow_276_3019"/>
<feBlend mode="normal" in="SourceGraphic" in2="effect2_dropShadow_276_3019" result="shape"/>
</filter>
<filter id="filter13_b_276_3019" x="125.831" y="31.3348" width="13.0607" height="12.7575" filterUnits="userSpaceOnUse" color-interpolation-filters="sRGB">
<feFlood flood-opacity="0" result="BackgroundImageFix"/>
<feGaussianBlur in="BackgroundImageFix" stdDeviation="0.878419"/>
<feComposite in2="SourceAlpha" operator="in" result="effect1_backgroundBlur_276_3019"/>
<feBlend mode="normal" in="SourceGraphic" in2="effect1_backgroundBlur_276_3019" result="shape"/>
</filter>
<linearGradient id="paint0_linear_276_3019" x1="83.8916" y1="20.8899" x2="83.8916" y2="97.4286" gradientUnits="userSpaceOnUse">
<stop stop-color="#F5FBFF"/>
<stop offset="1" stop-color="#F0F5FF"/>
</linearGradient>
<linearGradient id="paint1_linear_276_3019" x1="91.323" y1="110" x2="171.408" y2="52.5693" gradientUnits="userSpaceOnUse">
<stop stop-color="#249AD8"/>
<stop offset="1" stop-color="#60B9E7"/>
</linearGradient>
<linearGradient id="paint2_linear_276_3019" x1="132.361" y1="29.3942" x2="132.361" y2="52.3188" gradientUnits="userSpaceOnUse">
<stop stop-color="#00CC82"/>
<stop offset="1" stop-color="#62D883"/>
</linearGradient>
<linearGradient id="paint3_linear_276_3019" x1="144.295" y1="68.2182" x2="144.295" y2="78.5712" gradientUnits="userSpaceOnUse">
<stop stop-color="#01F89E"/>
<stop offset="1" stop-color="#00CC82"/>
</linearGradient>
<linearGradient id="paint4_linear_276_3019" x1="117.123" y1="57.4954" x2="117.123" y2="72.6552" gradientUnits="userSpaceOnUse">
<stop stop-color="#00B674"/>
<stop offset="1" stop-color="#00CC82"/>
</linearGradient>
<linearGradient id="paint5_linear_276_3019" x1="113.744" y1="58.6046" x2="121.49" y2="49.8588" gradientUnits="userSpaceOnUse">
<stop stop-color="#00CC82"/>
<stop offset="1" stop-color="#33D383"/>
</linearGradient>
<clipPath id="clip0_276_3019">
<rect x="105.189" y="35.6799" width="55.4461" height="55.4628" rx="27.7231" fill="white"/>
</clipPath>
</defs>
</svg>
