<svg width="180" height="115" viewBox="0 0 180 115" fill="none" xmlns="http://www.w3.org/2000/svg">
<g clip-path="url(#clip0_276_3065)">
<g filter="url(#filter0_dd_276_3065)">
<rect x="14" y="11.5655" width="152" height="86.9265" rx="10.9049" fill="url(#paint0_linear_276_3065)" fill-opacity="0.7" shape-rendering="crispEdges"/>
</g>
<g filter="url(#filter1_dd_276_3065)">
<rect x="30.0256" y="23.2204" width="120.435" height="24.7668" rx="10.9049" fill="url(#paint1_linear_276_3065)" fill-opacity="0.8" shape-rendering="crispEdges"/>
</g>
<g filter="url(#filter2_dd_276_3065)">
<rect x="30.0256" y="50.9009" width="120.435" height="24.7668" rx="10.9049" fill="url(#paint2_linear_276_3065)" fill-opacity="0.8" shape-rendering="crispEdges"/>
</g>
<g filter="url(#filter3_dd_276_3065)">
<rect x="30.0256" y="78.5815" width="120.435" height="24.7668" rx="10.9049" fill="url(#paint3_linear_276_3065)" fill-opacity="0.8" shape-rendering="crispEdges"/>
</g>
<path d="M53.8577 35.5895C53.8577 40.007 50.262 43.588 45.8266 43.588C41.3911 43.588 37.7954 40.007 37.7954 35.5895C37.7954 31.1721 41.3911 27.591 45.8266 27.591C50.262 27.591 53.8577 31.1721 53.8577 35.5895Z" fill="#8EE2C0"/>
<path d="M53.8577 63.013C53.8577 67.4305 50.262 71.0115 45.8266 71.0115C41.3911 71.0115 37.7954 67.4305 37.7954 63.013C37.7954 58.5956 41.3911 55.0145 45.8266 55.0145C50.262 55.0145 53.8577 58.5956 53.8577 63.013Z" fill="#8EE2C0"/>
<path d="M53.8577 91.4361C53.8577 95.8536 50.262 99.4346 45.8266 99.4346C41.3911 99.4346 37.7954 95.8536 37.7954 91.4361C37.7954 87.0187 41.3911 83.4377 45.8266 83.4377C50.262 83.4377 53.8577 87.0187 53.8577 91.4361Z" fill="#E3E9F2"/>
<path fill-rule="evenodd" clip-rule="evenodd" d="M55.5669 28.879C55.9615 29.2669 55.9656 29.9 55.5761 30.2929L48.3623 37.5707C47.5762 38.3638 46.2908 38.3638 45.5046 37.5707L43.1044 35.1492C42.7149 34.7562 42.719 34.1232 43.1136 33.7353C43.5081 33.3473 44.1438 33.3514 44.5333 33.7444L46.9335 36.1659L54.1472 28.8881C54.5367 28.4952 55.1724 28.4911 55.5669 28.879Z" fill="#0C9A66"/>
<path fill-rule="evenodd" clip-rule="evenodd" d="M55.5669 56.3025C55.9615 56.6904 55.9656 57.3235 55.5761 57.7164L48.3623 64.9942C47.5762 65.7873 46.2908 65.7873 45.5046 64.9942L43.1044 62.5727C42.7149 62.1797 42.719 61.5467 43.1136 61.1587C43.5081 60.7708 44.1438 60.7749 44.5333 61.1679L46.9335 63.5894L54.1472 56.3116C54.5367 55.9187 55.1724 55.9146 55.5669 56.3025Z" fill="#0C9A66"/>
<path fill-rule="evenodd" clip-rule="evenodd" d="M62.5623 36.4036C62.5623 35.0232 63.6859 33.9041 65.072 33.9041H113.124C114.51 33.9041 115.634 35.0232 115.634 36.4036C115.634 37.7841 114.51 38.9032 113.124 38.9032H65.072C63.6859 38.9032 62.5623 37.7841 62.5623 36.4036Z" fill="#D5DEEB" fill-opacity="0.5"/>
<path fill-rule="evenodd" clip-rule="evenodd" d="M62.5623 91.2791C62.5623 89.8986 63.6859 88.7795 65.072 88.7795H113.124C114.51 88.7795 115.634 89.8986 115.634 91.2791C115.634 92.6595 114.51 93.7786 113.124 93.7786H65.072C63.6859 93.7786 62.5623 92.6595 62.5623 91.2791Z" fill="#D5DEEB" fill-opacity="0.5"/>
<path fill-rule="evenodd" clip-rule="evenodd" d="M62.5623 63.5985C62.5623 62.2181 63.6859 61.099 65.072 61.099H132.735C134.121 61.099 135.245 62.2181 135.245 63.5985C135.245 64.979 134.121 66.0981 132.735 66.0981H65.072C63.6859 66.0981 62.5623 64.979 62.5623 63.5985Z" fill="#D5DEEB" fill-opacity="0.5"/>
</g>
<defs>
<filter id="filter0_dd_276_3065" x="4" y="2.56546" width="175" height="110.927" filterUnits="userSpaceOnUse" color-interpolation-filters="sRGB">
<feFlood flood-opacity="0" result="BackgroundImageFix"/>
<feColorMatrix in="SourceAlpha" type="matrix" values="0 0 0 0 0 0 0 0 0 0 0 0 0 0 0 0 0 0 127 0" result="hardAlpha"/>
<feOffset dx="3" dy="5"/>
<feGaussianBlur stdDeviation="5"/>
<feComposite in2="hardAlpha" operator="out"/>
<feColorMatrix type="matrix" values="0 0 0 0 0.0996528 0 0 0 0 0.27497 0 0 0 0 0.483681 0 0 0 0.1 0"/>
<feBlend mode="normal" in2="BackgroundImageFix" result="effect1_dropShadow_276_3065"/>
<feColorMatrix in="SourceAlpha" type="matrix" values="0 0 0 0 0 0 0 0 0 0 0 0 0 0 0 0 0 0 127 0" result="hardAlpha"/>
<feOffset dy="1"/>
<feGaussianBlur stdDeviation="5"/>
<feComposite in2="hardAlpha" operator="out"/>
<feColorMatrix type="matrix" values="0 0 0 0 0.153472 0 0 0 0 0.241778 0 0 0 0 0.554861 0 0 0 0.1 0"/>
<feBlend mode="normal" in2="effect1_dropShadow_276_3065" result="effect2_dropShadow_276_3065"/>
<feBlend mode="normal" in="SourceGraphic" in2="effect2_dropShadow_276_3065" result="shape"/>
</filter>
<filter id="filter1_dd_276_3065" x="10.6007" y="3.79548" width="168.997" height="73.3291" filterUnits="userSpaceOnUse" color-interpolation-filters="sRGB">
<feFlood flood-opacity="0" result="BackgroundImageFix"/>
<feColorMatrix in="SourceAlpha" type="matrix" values="0 0 0 0 0 0 0 0 0 0 0 0 0 0 0 0 0 0 127 0" result="hardAlpha"/>
<feOffset dx="4.85623" dy="4.85623"/>
<feGaussianBlur stdDeviation="12.1406"/>
<feComposite in2="hardAlpha" operator="out"/>
<feColorMatrix type="matrix" values="0 0 0 0 0.0996528 0 0 0 0 0.27497 0 0 0 0 0.483681 0 0 0 0.05 0"/>
<feBlend mode="normal" in2="BackgroundImageFix" result="effect1_dropShadow_276_3065"/>
<feColorMatrix in="SourceAlpha" type="matrix" values="0 0 0 0 0 0 0 0 0 0 0 0 0 0 0 0 0 0 127 0" result="hardAlpha"/>
<feOffset dy="1.94249"/>
<feGaussianBlur stdDeviation="7.28435"/>
<feComposite in2="hardAlpha" operator="out"/>
<feColorMatrix type="matrix" values="0 0 0 0 0.153472 0 0 0 0 0.241778 0 0 0 0 0.554861 0 0 0 0.1 0"/>
<feBlend mode="normal" in2="effect1_dropShadow_276_3065" result="effect2_dropShadow_276_3065"/>
<feBlend mode="normal" in="SourceGraphic" in2="effect2_dropShadow_276_3065" result="shape"/>
</filter>
<filter id="filter2_dd_276_3065" x="10.6007" y="31.476" width="168.997" height="73.3291" filterUnits="userSpaceOnUse" color-interpolation-filters="sRGB">
<feFlood flood-opacity="0" result="BackgroundImageFix"/>
<feColorMatrix in="SourceAlpha" type="matrix" values="0 0 0 0 0 0 0 0 0 0 0 0 0 0 0 0 0 0 127 0" result="hardAlpha"/>
<feOffset dx="4.85623" dy="4.85623"/>
<feGaussianBlur stdDeviation="12.1406"/>
<feComposite in2="hardAlpha" operator="out"/>
<feColorMatrix type="matrix" values="0 0 0 0 0.0996528 0 0 0 0 0.27497 0 0 0 0 0.483681 0 0 0 0.05 0"/>
<feBlend mode="normal" in2="BackgroundImageFix" result="effect1_dropShadow_276_3065"/>
<feColorMatrix in="SourceAlpha" type="matrix" values="0 0 0 0 0 0 0 0 0 0 0 0 0 0 0 0 0 0 127 0" result="hardAlpha"/>
<feOffset dy="1.94249"/>
<feGaussianBlur stdDeviation="7.28435"/>
<feComposite in2="hardAlpha" operator="out"/>
<feColorMatrix type="matrix" values="0 0 0 0 0.153472 0 0 0 0 0.241778 0 0 0 0 0.554861 0 0 0 0.1 0"/>
<feBlend mode="normal" in2="effect1_dropShadow_276_3065" result="effect2_dropShadow_276_3065"/>
<feBlend mode="normal" in="SourceGraphic" in2="effect2_dropShadow_276_3065" result="shape"/>
</filter>
<filter id="filter3_dd_276_3065" x="10.6007" y="59.1565" width="168.997" height="73.3291" filterUnits="userSpaceOnUse" color-interpolation-filters="sRGB">
<feFlood flood-opacity="0" result="BackgroundImageFix"/>
<feColorMatrix in="SourceAlpha" type="matrix" values="0 0 0 0 0 0 0 0 0 0 0 0 0 0 0 0 0 0 127 0" result="hardAlpha"/>
<feOffset dx="4.85623" dy="4.85623"/>
<feGaussianBlur stdDeviation="12.1406"/>
<feComposite in2="hardAlpha" operator="out"/>
<feColorMatrix type="matrix" values="0 0 0 0 0.0996528 0 0 0 0 0.27497 0 0 0 0 0.483681 0 0 0 0.05 0"/>
<feBlend mode="normal" in2="BackgroundImageFix" result="effect1_dropShadow_276_3065"/>
<feColorMatrix in="SourceAlpha" type="matrix" values="0 0 0 0 0 0 0 0 0 0 0 0 0 0 0 0 0 0 127 0" result="hardAlpha"/>
<feOffset dy="1.94249"/>
<feGaussianBlur stdDeviation="7.28435"/>
<feComposite in2="hardAlpha" operator="out"/>
<feColorMatrix type="matrix" values="0 0 0 0 0.153472 0 0 0 0 0.241778 0 0 0 0 0.554861 0 0 0 0.1 0"/>
<feBlend mode="normal" in2="effect1_dropShadow_276_3065" result="effect2_dropShadow_276_3065"/>
<feBlend mode="normal" in="SourceGraphic" in2="effect2_dropShadow_276_3065" result="shape"/>
</filter>
<linearGradient id="paint0_linear_276_3065" x1="90" y1="11.5655" x2="90" y2="98.492" gradientUnits="userSpaceOnUse">
<stop stop-color="#F5FBFF"/>
<stop offset="1" stop-color="#F0F5FF"/>
</linearGradient>
<linearGradient id="paint1_linear_276_3065" x1="90.2429" y1="23.2204" x2="90.2429" y2="47.9872" gradientUnits="userSpaceOnUse">
<stop stop-color="#F5FBFF"/>
<stop offset="1" stop-color="#F0F5FF"/>
</linearGradient>
<linearGradient id="paint2_linear_276_3065" x1="90.2429" y1="50.9009" x2="90.2429" y2="75.6677" gradientUnits="userSpaceOnUse">
<stop stop-color="#F5FBFF"/>
<stop offset="1" stop-color="#F0F5FF"/>
</linearGradient>
<linearGradient id="paint3_linear_276_3065" x1="90.2429" y1="78.5815" x2="90.2429" y2="103.348" gradientUnits="userSpaceOnUse">
<stop stop-color="#F5FBFF"/>
<stop offset="1" stop-color="#F0F5FF"/>
</linearGradient>
<clipPath id="clip0_276_3065">
<rect width="180" height="115" fill="white" transform="translate(180 115) rotate(-180)"/>
</clipPath>
</defs>
</svg>
