<svg width="461" height="908" viewBox="0 0 461 908" fill="none" xmlns="http://www.w3.org/2000/svg">
<g clip-path="url(#clip0_276_3143)">
<path opacity="0.2" d="M415.352 905.516C630.915 905.516 805.663 893.663 805.663 879.042C805.663 864.421 630.915 852.568 415.352 852.568C199.79 852.568 25.0417 864.421 25.0417 879.042C25.0417 893.663 199.79 905.516 415.352 905.516Z" fill="#231F20"/>
<path d="M398.095 561.459L396.063 853.647C396.063 853.647 396.115 879.581 416.971 879.042C437.828 878.502 438.522 859.225 438.522 859.225L437.699 559.712L398.095 561.459Z" fill="#8B5E3C"/>
<path d="M249.424 591.069L114.614 850.357C114.614 850.357 102.862 873.464 121.661 882.485C140.46 891.507 149.873 874.646 149.873 874.646L285.454 607.544L249.398 591.094L249.424 591.069Z" fill="#C49A6C"/>
<g filter="url(#filter0_d_276_3143)">
<path d="M415.352 725.7C602.324 725.7 753.894 574.215 753.894 387.35C753.894 200.484 602.324 49 415.352 49C228.381 49 76.8102 200.484 76.8102 387.35C76.8102 574.215 228.381 725.7 415.352 725.7Z" fill="#E6E7E8"/>
</g>
<path d="M415.352 643.348C556.816 643.348 671.496 528.734 671.496 387.35C671.496 245.966 556.816 131.351 415.352 131.351C273.888 131.351 159.208 245.966 159.208 387.35C159.208 528.734 273.888 643.348 415.352 643.348Z" fill="#065277"/>
<path d="M415.352 559.712C510.599 559.712 587.812 482.543 587.812 387.35C587.812 292.157 510.599 214.988 415.352 214.988C320.105 214.988 242.892 292.157 242.892 387.35C242.892 482.543 320.105 559.712 415.352 559.712Z" fill="#00AD6E"/>
<path d="M415.352 477.874C465.376 477.874 505.928 437.345 505.928 387.35C505.928 337.354 465.376 296.825 415.352 296.825C365.328 296.825 324.776 337.354 324.776 387.35C324.776 437.345 365.328 477.874 415.352 477.874Z" fill="#EBB750"/>
</g>
<defs>
<filter id="filter0_d_276_3143" x="26.8102" y="3" width="777.084" height="776.7" filterUnits="userSpaceOnUse" color-interpolation-filters="sRGB">
<feFlood flood-opacity="0" result="BackgroundImageFix"/>
<feColorMatrix in="SourceAlpha" type="matrix" values="0 0 0 0 0 0 0 0 0 0 0 0 0 0 0 0 0 0 127 0" result="hardAlpha"/>
<feOffset dy="4"/>
<feGaussianBlur stdDeviation="25"/>
<feComposite in2="hardAlpha" operator="out"/>
<feColorMatrix type="matrix" values="0 0 0 0 0.646667 0 0 0 0 0.708958 0 0 0 0 0.8 0 0 0 0.56 0"/>
<feBlend mode="normal" in2="BackgroundImageFix" result="effect1_dropShadow_276_3143"/>
<feBlend mode="normal" in="SourceGraphic" in2="effect1_dropShadow_276_3143" result="shape"/>
</filter>
<clipPath id="clip0_276_3143">
<rect width="461" height="908" fill="white"/>
</clipPath>
</defs>
</svg>
