<svg width="180" height="115" viewBox="0 0 180 115" fill="none" xmlns="http://www.w3.org/2000/svg">
<g clip-path="url(#clip0_276_3057)">
<g filter="url(#filter0_dd_276_3057)">
<rect x="6" y="27" width="74" height="74" rx="11.5156" fill="url(#paint0_linear_276_3057)" fill-opacity="0.7" shape-rendering="crispEdges"/>
</g>
<g filter="url(#filter1_dd_276_3057)">
<rect x="96" y="27" width="74" height="74" rx="11.5156" fill="url(#paint1_linear_276_3057)" fill-opacity="0.7" shape-rendering="crispEdges"/>
</g>
<path fill-rule="evenodd" clip-rule="evenodd" d="M88.6776 13.0757C88.6776 12.5666 89.0897 12.1538 89.598 12.1538H90.5404C91.0488 12.1538 91.4608 12.5666 91.4608 13.0757C91.4608 13.5849 91.0488 13.9977 90.5404 13.9977H89.598C89.0897 13.9977 88.6776 13.5849 88.6776 13.0757ZM94.3318 13.0757C94.3318 12.5666 94.7439 12.1538 95.2522 12.1538H97.1369C97.6453 12.1538 98.0574 12.5666 98.0574 13.0757C98.0574 13.5849 97.6453 13.9977 97.1369 13.9977H95.2522C94.7439 13.9977 94.3318 13.5849 94.3318 13.0757ZM100.928 13.0757C100.928 12.5666 101.34 12.1538 101.849 12.1538H103.733C104.242 12.1538 104.654 12.5666 104.654 13.0757C104.654 13.5849 104.242 13.9977 103.733 13.9977H101.849C101.34 13.9977 100.928 13.5849 100.928 13.0757ZM107.525 13.0757C107.525 12.5666 107.937 12.1538 108.445 12.1538H109.388C109.77 12.1538 110.148 12.1751 110.521 12.2167C111.026 12.2731 111.39 12.729 111.334 13.2351C111.277 13.7411 110.822 14.1056 110.317 14.0492C110.012 14.0152 109.702 13.9977 109.388 13.9977H108.445C107.937 13.9977 107.525 13.5849 107.525 13.0757ZM114.407 14.5115C114.725 14.1136 115.304 14.0486 115.701 14.3663C116.293 14.8398 116.831 15.3785 117.304 15.9714C117.621 16.3693 117.556 16.9494 117.159 17.2671C116.761 17.5848 116.182 17.5199 115.865 17.122C115.478 16.6363 115.037 16.195 114.552 15.8072C114.155 15.4895 114.09 14.9094 114.407 14.5115ZM118.433 20.346C118.938 20.2895 119.393 20.654 119.45 21.1601C119.491 21.533 119.513 21.9116 119.513 22.295V22.4435C119.513 22.5756 119.485 22.7013 119.435 22.8149C119.485 22.9285 119.513 23.0541 119.513 23.1863V24.2854C119.513 24.7946 119.1 25.2074 118.592 25.2074C118.084 25.2074 117.672 24.7946 117.672 24.2854V23.1863C117.672 23.0541 117.699 22.9285 117.749 22.8149C117.699 22.7013 117.672 22.5756 117.672 22.4435V22.295C117.672 21.98 117.654 21.6695 117.62 21.3643C117.564 20.8583 117.928 20.4024 118.433 20.346ZM118.592 28.1167C119.1 28.1167 119.513 28.5295 119.513 29.0386V30.9399C119.513 31.4491 119.1 31.8618 118.592 31.8618C118.084 31.8618 117.672 31.4491 117.672 30.9399V29.0386C117.672 28.5295 118.084 28.1167 118.592 28.1167ZM118.592 34.7712C119.1 34.7712 119.513 35.1839 119.513 35.6931V37.5944C119.513 38.1035 119.1 38.5163 118.592 38.5163C118.084 38.5163 117.672 38.1035 117.672 37.5944V35.6931C117.672 35.1839 118.084 34.7712 118.592 34.7712ZM118.592 41.4256C119.1 41.4256 119.513 41.8384 119.513 42.3476V44.2488C119.513 44.758 119.1 45.1707 118.592 45.1707C118.084 45.1707 117.672 44.758 117.672 44.2488V42.3476C117.672 41.8384 118.084 41.4256 118.592 41.4256ZM118.592 48.0801C119.1 48.0801 119.513 48.4928 119.513 49.002V49.9527C119.513 50.4618 119.1 50.8746 118.592 50.8746C118.084 50.8746 117.672 50.4618 117.672 49.9527V49.002C117.672 48.4928 118.084 48.0801 118.592 48.0801ZM48.6382 65.6253C49.1466 65.6253 49.5587 66.0381 49.5587 66.5473V67.3814C49.5587 67.8905 49.1466 68.3033 48.6382 68.3033C48.1299 68.3033 47.7178 67.8905 47.7178 67.3814V66.5473C47.7178 66.0381 48.1299 65.6253 48.6382 65.6253ZM48.6382 70.6301C49.1466 70.6301 49.5587 71.0428 49.5587 71.552V73.2202C49.5587 73.7294 49.1466 74.1422 48.6382 74.1422C48.1299 74.1422 47.7178 73.7294 47.7178 73.2202V71.552C47.7178 71.0428 48.1299 70.6301 48.6382 70.6301ZM48.6382 76.4689C49.1466 76.4689 49.5587 76.8817 49.5587 77.3908V79.0591C49.5587 79.5682 49.1466 79.981 48.6382 79.981C48.1299 79.981 47.7178 79.5682 47.7178 79.0591V77.3908C47.7178 76.8817 48.1299 76.4689 48.6382 76.4689ZM48.6382 82.3078C49.1466 82.3078 49.5587 82.7205 49.5587 83.2297V84.0638C49.5587 84.3787 49.5761 84.6892 49.6101 84.9944C49.6664 85.5005 49.3025 85.9564 48.7973 86.0128C48.2921 86.0692 47.8369 85.7047 47.7805 85.1987C47.739 84.8258 47.7178 84.4471 47.7178 84.0638V83.2297C47.7178 82.7205 48.1299 82.3078 48.6382 82.3078ZM50.0717 89.0916C50.4689 88.7739 51.0481 88.8389 51.3653 89.2368C51.7525 89.7225 52.1931 90.1637 52.678 90.5516C53.0752 90.8693 53.1401 91.4494 52.8229 91.8473C52.5057 92.2452 51.9265 92.3101 51.5293 91.9924C50.9373 91.5189 50.3995 90.9803 49.9268 90.3873C49.6096 89.9894 49.6744 89.4093 50.0717 89.0916ZM55.8968 93.1237C55.9531 92.6177 56.4083 92.2532 56.9135 92.3096C57.2182 92.3436 57.5282 92.3611 57.8427 92.3611H58.8617C59.3701 92.3611 59.7822 92.7739 59.7822 93.283C59.7822 93.7922 59.3701 94.205 58.8617 94.205H57.8427C57.46 94.205 57.0819 94.1836 56.7096 94.1421C56.2044 94.0857 55.8405 93.6297 55.8968 93.1237ZM63.0366 93.283C63.0366 92.7739 63.4487 92.3611 63.9571 92.3611H65.9952C66.5035 92.3611 66.9156 92.7739 66.9156 93.283C66.9156 93.7922 66.5035 94.205 65.9952 94.205H63.9571C63.4487 94.205 63.0366 93.7922 63.0366 93.283ZM70.1701 93.283C70.1701 92.7739 70.5822 92.3611 71.0905 92.3611H73.1286C73.637 92.3611 74.0491 92.7739 74.0491 93.283C74.0491 93.7922 73.637 94.205 73.1286 94.205H71.0905C70.5822 94.205 70.1701 93.7922 70.1701 93.283ZM77.3035 93.283C77.3035 92.7739 77.7156 92.3611 78.224 92.3611H80.2621C80.7704 92.3611 81.1825 92.7739 81.1825 93.283C81.1825 93.7922 80.7704 94.205 80.2621 94.205H78.224C77.7156 94.205 77.3035 93.7922 77.3035 93.283ZM84.437 93.283C84.437 92.7739 84.8491 92.3611 85.3574 92.3611H86.3765C86.8848 92.3611 87.2969 92.7739 87.2969 93.283C87.2969 93.7922 86.8848 94.205 86.3765 94.205H85.3574C84.8491 94.205 84.437 93.7922 84.437 93.283Z" fill="url(#paint2_linear_276_3057)"/>
<g filter="url(#filter2_d_276_3057)">
<path fill-rule="evenodd" clip-rule="evenodd" d="M57.1851 8.62298C57.3629 7.1268 58.6316 6 60.1383 6H66.8821C68.4294 6 69.7323 7.15716 69.9149 8.69365L70.6167 14.5987C70.7451 15.6792 71.496 16.5772 72.4976 17.0022C73.5161 17.4343 74.6945 17.334 75.5637 16.6495L80.1648 13.0261C81.348 12.0943 83.0411 12.1945 84.1062 13.2593L88.8776 18.0295C89.9715 19.1231 90.0745 20.862 89.1175 22.0771L85.4383 26.7489C84.7644 27.6045 84.6556 28.7609 85.065 29.7702C85.4808 30.7954 86.3891 31.5688 87.4877 31.6994L93.3004 32.3903C94.7963 32.5681 95.9229 33.8365 95.9229 35.343V42.0879C95.9229 43.6349 94.766 44.9374 93.2298 45.12L87.3268 45.8217C86.246 45.9502 85.3477 46.7014 84.9225 47.7033C84.4901 48.7223 84.5906 49.9013 85.2755 50.7708L88.8986 55.3703C89.8305 56.5533 89.7303 58.2463 88.6655 59.3112L83.8933 64.0833C82.7997 65.1769 81.0611 65.2799 79.846 64.323L75.1742 60.6436C74.3189 59.97 73.163 59.8613 72.1542 60.2704C71.1293 60.6861 70.3562 61.5941 70.2256 62.6923L69.5346 68.5056C69.3568 70.0015 68.0884 71.1281 66.582 71.1281H59.8354C58.2882 71.1281 56.9854 69.971 56.8028 68.4346L56.101 62.5302C55.9726 61.4501 55.2219 60.5522 54.2205 60.1272C53.2021 59.6951 52.0237 59.7954 51.1546 60.4798L46.5531 64.1038C45.3698 65.0357 43.6765 64.9354 42.6114 63.8704L37.8401 59.099C36.7462 58.0051 36.6432 56.266 37.6004 55.0507L41.2811 50.377C41.9544 49.5222 42.0631 48.367 41.6542 47.3586C41.2388 46.3342 40.3312 45.5615 39.2335 45.431L33.4178 44.7398C31.9216 44.562 30.7948 43.2934 30.7948 41.7867V35.0412C30.7948 33.4936 31.9521 32.1906 33.4889 32.008L39.3953 31.306C40.4751 31.1777 41.3727 30.4272 41.7975 29.4262C42.2294 28.4083 42.1292 27.2305 41.4452 26.3618L37.8209 21.7586C36.8891 20.575 36.9894 18.8817 38.0544 17.8164L42.8238 13.0458C43.9177 11.9516 45.657 11.8485 46.8725 12.8058L51.5461 16.4865C52.4013 17.16 53.557 17.2688 54.5657 16.8597C55.5905 16.4441 56.3635 15.5361 56.494 14.438L57.1851 8.62298ZM63.0364 53.7176C71.2274 53.7176 77.8676 47.0775 77.8676 38.8865C77.8676 30.6954 71.2274 24.0553 63.0364 24.0553C54.8454 24.0553 48.2053 30.6954 48.2053 38.8865C48.2053 47.0775 54.8454 53.7176 63.0364 53.7176Z" fill="url(#paint3_linear_276_3057)" shape-rendering="crispEdges"/>
</g>
<g filter="url(#filter3_d_276_3057)">
<path fill-rule="evenodd" clip-rule="evenodd" d="M135.626 64.0305C134.799 62.5977 133.03 62.0099 131.51 62.6622L127.266 64.4834C126.81 64.6788 126.237 64.5976 125.779 64.241C125.333 63.8933 125.118 63.3757 125.189 62.8887L125.86 58.245C126.101 56.5759 125.056 54.9901 123.426 54.5539L118.287 53.1774C116.689 52.7495 115.024 53.5839 114.41 55.1199L112.695 59.4107C112.51 59.8745 112.054 60.2179 111.483 60.288C110.917 60.3575 110.393 60.1413 110.101 59.7509L107.292 55.9934C106.282 54.6424 104.422 54.2601 102.961 55.1034L98.3535 57.7636C96.9207 58.5908 96.3329 60.3589 96.9853 61.8794L98.8066 66.1243C99.0019 66.5795 98.9208 67.1521 98.5644 67.6096C98.2168 68.0556 97.6996 68.2703 97.213 68.1999L92.5691 67.5289C90.9002 67.2877 89.3146 68.3328 88.8781 69.9616L87.5007 75.1023C87.0726 76.7 87.907 78.3655 89.4431 78.9792L93.733 80.6931C94.1971 80.8786 94.5408 81.3347 94.611 81.9059C94.6805 82.4719 94.4642 82.9968 94.0736 83.2888L90.3174 86.0966C88.9667 87.1063 88.5844 88.9667 89.4276 90.4272L92.0882 95.0354C92.9153 96.468 94.6832 97.0558 96.2034 96.4035L100.447 94.583C100.902 94.3875 101.475 94.4687 101.933 94.8254C102.38 95.1732 102.594 95.6909 102.524 96.178L101.853 100.82C101.612 102.489 102.657 104.074 104.286 104.51L109.427 105.888C111.025 106.316 112.69 105.482 113.303 103.946L115.016 99.6571C115.202 99.1925 115.658 98.8485 116.23 98.7783C116.796 98.7086 117.322 98.9251 117.614 99.3161L120.421 103.071C121.431 104.422 123.291 104.804 124.751 103.961L129.358 101.301C130.791 100.474 131.379 98.7062 130.727 97.1859L128.906 92.9432C128.711 92.4874 128.792 91.9139 129.149 91.4558C129.497 91.0091 130.015 90.7941 130.502 90.8645L135.144 91.5353C136.813 91.7764 138.398 90.7313 138.835 89.1026L140.211 83.9624C140.639 82.3647 139.805 80.6995 138.269 80.0858L133.979 78.3719C133.515 78.1865 133.171 77.7303 133.101 77.159C133.032 76.5928 133.248 76.0677 133.639 75.7756L137.395 72.9676C138.746 71.9579 139.129 70.0974 138.285 68.6368L135.626 64.0305ZM108.12 70.1056C113.275 67.1295 119.866 68.8957 122.843 74.0504C125.819 79.205 124.052 85.7963 118.898 88.7724C113.743 91.7485 107.152 89.9823 104.176 84.8276C101.2 79.6729 102.966 73.0817 108.12 70.1056Z" fill="url(#paint4_linear_276_3057)" shape-rendering="crispEdges"/>
</g>
</g>
<defs>
<filter id="filter0_dd_276_3057" x="-7" y="14" width="104" height="104" filterUnits="userSpaceOnUse" color-interpolation-filters="sRGB">
<feFlood flood-opacity="0" result="BackgroundImageFix"/>
<feColorMatrix in="SourceAlpha" type="matrix" values="0 0 0 0 0 0 0 0 0 0 0 0 0 0 0 0 0 0 127 0" result="hardAlpha"/>
<feOffset dx="2" dy="2"/>
<feGaussianBlur stdDeviation="7.5"/>
<feComposite in2="hardAlpha" operator="out"/>
<feColorMatrix type="matrix" values="0 0 0 0 0.0996528 0 0 0 0 0.27497 0 0 0 0 0.483681 0 0 0 0.1 0"/>
<feBlend mode="normal" in2="BackgroundImageFix" result="effect1_dropShadow_276_3057"/>
<feColorMatrix in="SourceAlpha" type="matrix" values="0 0 0 0 0 0 0 0 0 0 0 0 0 0 0 0 0 0 127 0" result="hardAlpha"/>
<feOffset dy="3"/>
<feGaussianBlur stdDeviation="4"/>
<feComposite in2="hardAlpha" operator="out"/>
<feColorMatrix type="matrix" values="0 0 0 0 0.153472 0 0 0 0 0.241778 0 0 0 0 0.554861 0 0 0 0.1 0"/>
<feBlend mode="normal" in2="effect1_dropShadow_276_3057" result="effect2_dropShadow_276_3057"/>
<feBlend mode="normal" in="SourceGraphic" in2="effect2_dropShadow_276_3057" result="shape"/>
</filter>
<filter id="filter1_dd_276_3057" x="83" y="14" width="104" height="104" filterUnits="userSpaceOnUse" color-interpolation-filters="sRGB">
<feFlood flood-opacity="0" result="BackgroundImageFix"/>
<feColorMatrix in="SourceAlpha" type="matrix" values="0 0 0 0 0 0 0 0 0 0 0 0 0 0 0 0 0 0 127 0" result="hardAlpha"/>
<feOffset dx="2" dy="2"/>
<feGaussianBlur stdDeviation="7.5"/>
<feComposite in2="hardAlpha" operator="out"/>
<feColorMatrix type="matrix" values="0 0 0 0 0.0996528 0 0 0 0 0.27497 0 0 0 0 0.483681 0 0 0 0.1 0"/>
<feBlend mode="normal" in2="BackgroundImageFix" result="effect1_dropShadow_276_3057"/>
<feColorMatrix in="SourceAlpha" type="matrix" values="0 0 0 0 0 0 0 0 0 0 0 0 0 0 0 0 0 0 127 0" result="hardAlpha"/>
<feOffset dy="3"/>
<feGaussianBlur stdDeviation="4"/>
<feComposite in2="hardAlpha" operator="out"/>
<feColorMatrix type="matrix" values="0 0 0 0 0.153472 0 0 0 0 0.241778 0 0 0 0 0.554861 0 0 0 0.1 0"/>
<feBlend mode="normal" in2="effect1_dropShadow_276_3057" result="effect2_dropShadow_276_3057"/>
<feBlend mode="normal" in="SourceGraphic" in2="effect2_dropShadow_276_3057" result="shape"/>
</filter>
<filter id="filter2_d_276_3057" x="22.7339" y="-0.909377" width="81.2499" height="81.25" filterUnits="userSpaceOnUse" color-interpolation-filters="sRGB">
<feFlood flood-opacity="0" result="BackgroundImageFix"/>
<feColorMatrix in="SourceAlpha" type="matrix" values="0 0 0 0 0 0 0 0 0 0 0 0 0 0 0 0 0 0 127 0" result="hardAlpha"/>
<feOffset dy="1.15156"/>
<feGaussianBlur stdDeviation="4.03047"/>
<feComposite in2="hardAlpha" operator="out"/>
<feColorMatrix type="matrix" values="0 0 0 0 0.0627451 0 0 0 0 0.537255 0 0 0 0 0.803922 0 0 0 0.1 0"/>
<feBlend mode="normal" in2="BackgroundImageFix" result="effect1_dropShadow_276_3057"/>
<feBlend mode="normal" in="SourceGraphic" in2="effect1_dropShadow_276_3057" result="shape"/>
</filter>
<filter id="filter3_d_276_3057" x="79.328" y="46.1564" width="69.0558" height="69.0558" filterUnits="userSpaceOnUse" color-interpolation-filters="sRGB">
<feFlood flood-opacity="0" result="BackgroundImageFix"/>
<feColorMatrix in="SourceAlpha" type="matrix" values="0 0 0 0 0 0 0 0 0 0 0 0 0 0 0 0 0 0 127 0" result="hardAlpha"/>
<feOffset dy="1.15156"/>
<feGaussianBlur stdDeviation="4.03047"/>
<feComposite in2="hardAlpha" operator="out"/>
<feColorMatrix type="matrix" values="0 0 0 0 0.0627451 0 0 0 0 0.537255 0 0 0 0 0.803922 0 0 0 0.1 0"/>
<feBlend mode="normal" in2="BackgroundImageFix" result="effect1_dropShadow_276_3057"/>
<feBlend mode="normal" in="SourceGraphic" in2="effect1_dropShadow_276_3057" result="shape"/>
</filter>
<linearGradient id="paint0_linear_276_3057" x1="43" y1="27" x2="43" y2="101" gradientUnits="userSpaceOnUse">
<stop stop-color="#F5FBFF"/>
<stop offset="1" stop-color="#F0F5FF"/>
</linearGradient>
<linearGradient id="paint1_linear_276_3057" x1="133" y1="27" x2="133" y2="101" gradientUnits="userSpaceOnUse">
<stop stop-color="#F5FBFF"/>
<stop offset="1" stop-color="#F0F5FF"/>
</linearGradient>
<linearGradient id="paint2_linear_276_3057" x1="83.6151" y1="12.1538" x2="83.6151" y2="94.2049" gradientUnits="userSpaceOnUse">
<stop stop-color="#00CC82"/>
<stop offset="1" stop-color="#1089CD"/>
</linearGradient>
<linearGradient id="paint3_linear_276_3057" x1="63.3588" y1="6" x2="63.3588" y2="71.1281" gradientUnits="userSpaceOnUse">
<stop stop-color="#26B2F3"/>
<stop offset="1" stop-color="#1288CB" stop-opacity="0.92"/>
</linearGradient>
<linearGradient id="paint4_linear_276_3057" x1="113.856" y1="53.0657" x2="113.856" y2="106" gradientUnits="userSpaceOnUse">
<stop stop-color="#07AD95" stop-opacity="0.42"/>
<stop offset="1" stop-color="#04A46A"/>
</linearGradient>
<clipPath id="clip0_276_3057">
<rect width="180" height="115" fill="white" transform="translate(180 115) rotate(-180)"/>
</clipPath>
</defs>
</svg>
